G04*
G04 #@! TF.GenerationSoftware,Altium Limited,Altium Designer,20.0.7 (75)*
G04*
G04 Layer_Color=8388736*
%FSLAX44Y44*%
%MOMM*%
G71*
G01*
G75*
%ADD14C,0.2032*%
%ADD47R,1.4532X0.8032*%
%ADD48R,1.4532X0.5032*%
%ADD49O,1.4732X0.4832*%
%ADD50O,0.4832X1.4732*%
%ADD51R,0.7112X0.8128*%
%ADD52R,0.8128X0.7112*%
%ADD53R,0.7032X0.5232*%
%ADD54R,0.7032X0.6032*%
%ADD55R,2.6032X1.9032*%
%ADD56R,0.9032X1.2032*%
%ADD57R,1.0922X0.8382*%
%ADD58O,4.7032X1.2032*%
%ADD59R,3.1016X0.9016*%
G04:AMPARAMS|DCode=60|XSize=2.4016mm|YSize=1.2016mm|CornerRadius=0.3258mm|HoleSize=0mm|Usage=FLASHONLY|Rotation=0.000|XOffset=0mm|YOffset=0mm|HoleType=Round|Shape=RoundedRectangle|*
%AMROUNDEDRECTD60*
21,1,2.4016,0.5500,0,0,0.0*
21,1,1.7500,1.2016,0,0,0.0*
1,1,0.6516,0.8750,-0.2750*
1,1,0.6516,-0.8750,-0.2750*
1,1,0.6516,-0.8750,0.2750*
1,1,0.6516,0.8750,0.2750*
%
%ADD60ROUNDEDRECTD60*%
%ADD61R,2.4016X1.2016*%
%ADD62C,1.0032*%
%ADD63R,0.6032X0.8032*%
%ADD64R,1.9032X1.6032*%
%ADD65R,2.0032X3.7032*%
%ADD66O,1.9032X0.6032*%
%ADD67R,1.2032X1.0032*%
%ADD68R,0.9032X1.7032*%
%ADD69R,1.7032X1.2032*%
%ADD70R,1.6032X1.4032*%
%ADD71C,0.3500*%
%ADD72C,1.4480*%
%ADD73C,0.2032*%
%ADD74O,2.3032X1.4032*%
%ADD75O,2.5032X1.4032*%
%ADD76C,0.8500*%
%ADD77C,4.3032*%
D14*
X-166535Y-21964D02*
G03*
X-158000Y-25500I8536J8536D01*
G01*
X-169965Y-18535D02*
G03*
X-178500Y-15000I-8536J-8536D01*
G01*
X-169965Y-18536D02*
G03*
X-169965Y-18535I0J0D01*
G01*
X-169964Y-18536D02*
G03*
X-169964Y-18536I0J0D01*
G01*
X-166535Y-21965D02*
G03*
X-166536Y-21964I0J0D01*
G01*
X-111500Y-15000D02*
G03*
X-120035Y-18535I0J-12071D01*
G01*
X-132000Y-25500D02*
G03*
X-123464Y-21964I0J12071D01*
G01*
X-132000Y209500D02*
G03*
X-123464Y213036I0J12071D01*
G01*
X-111500Y220000D02*
G03*
X-120035Y216465I0J-12071D01*
G01*
X-166535Y213035D02*
G03*
X-166536Y213036I0J0D01*
G01*
X-169964Y216464D02*
G03*
X-169964Y216464I0J0D01*
G01*
X-169965Y216464D02*
G03*
X-169965Y216465I0J0D01*
G01*
X-169965D02*
G03*
X-178500Y220000I-8536J-8536D01*
G01*
X-166535Y213036D02*
G03*
X-158000Y209500I8536J8536D01*
G01*
X425000Y15000D02*
Y220000D01*
X410000Y15000D02*
X425000D01*
X410000Y-15000D02*
X425000D01*
X410000D02*
Y15000D01*
X-111500Y-15000D02*
X340000D01*
X-425000Y-220000D02*
Y-15000D01*
X-360000D02*
X-178500D01*
X-169964Y-18536D02*
X-166536Y-21964D01*
X-123464D02*
X-120036Y-18536D01*
X-145000Y-25500D02*
X-132000D01*
X-158000D02*
X-145000D01*
X-111500Y220000D02*
X425000Y220000D01*
X-425000Y-15000D02*
X-410000D01*
X-360000Y15000D02*
X340000D01*
X-425000D02*
X-410000D01*
X340000Y-15000D02*
Y15000D01*
X-360000Y-15000D02*
Y15000D01*
X-410000Y-15000D02*
X-410000Y15000D01*
X-158000Y209500D02*
X-145000D01*
X-132000D01*
X-425000Y220000D02*
X-178500D01*
X-123464Y213036D02*
X-120036Y216464D01*
X-169964D02*
X-166536Y213036D01*
X-425000Y15000D02*
Y220000D01*
X425000Y-220000D02*
Y-15000D01*
X-425000Y-220000D02*
X425000D01*
D47*
X-350500Y85500D02*
D03*
Y93500D02*
D03*
Y141500D02*
D03*
Y149500D02*
D03*
Y-85500D02*
D03*
Y-93500D02*
D03*
Y-141500D02*
D03*
Y-149500D02*
D03*
D48*
Y100000D02*
D03*
Y105000D02*
D03*
Y110000D02*
D03*
Y115000D02*
D03*
Y120000D02*
D03*
Y125000D02*
D03*
Y130000D02*
D03*
Y135000D02*
D03*
Y-100000D02*
D03*
Y-105000D02*
D03*
Y-110000D02*
D03*
Y-115000D02*
D03*
Y-120000D02*
D03*
Y-125000D02*
D03*
Y-130000D02*
D03*
Y-135000D02*
D03*
D49*
X-232500Y95000D02*
D03*
Y100000D02*
D03*
Y105000D02*
D03*
Y110000D02*
D03*
Y115000D02*
D03*
Y120000D02*
D03*
Y125000D02*
D03*
Y130000D02*
D03*
Y135000D02*
D03*
Y140000D02*
D03*
Y145000D02*
D03*
X-317500Y90000D02*
D03*
Y95000D02*
D03*
Y100000D02*
D03*
Y105000D02*
D03*
Y110000D02*
D03*
Y115000D02*
D03*
Y120000D02*
D03*
Y125000D02*
D03*
Y130000D02*
D03*
Y135000D02*
D03*
Y140000D02*
D03*
Y145000D02*
D03*
X-232500Y90000D02*
D03*
D50*
X-247500Y75000D02*
D03*
Y160000D02*
D03*
X-252500Y75000D02*
D03*
X-257500D02*
D03*
X-262500D02*
D03*
X-267500D02*
D03*
X-272500D02*
D03*
X-277500D02*
D03*
X-282500D02*
D03*
X-287500D02*
D03*
X-292500D02*
D03*
X-297500D02*
D03*
X-302500D02*
D03*
X-252500Y160000D02*
D03*
X-257500D02*
D03*
X-262500D02*
D03*
X-267500D02*
D03*
X-272500D02*
D03*
X-277500D02*
D03*
X-282500D02*
D03*
X-287500D02*
D03*
X-292500D02*
D03*
X-297500D02*
D03*
X-302500D02*
D03*
D51*
X-345080Y207500D02*
D03*
X-334920D02*
D03*
X-345080Y197500D02*
D03*
X-334920D02*
D03*
X-252580Y177500D02*
D03*
X-242420D02*
D03*
X-345080D02*
D03*
X-334920D02*
D03*
X-345080Y187500D02*
D03*
X-334920D02*
D03*
X-252579Y197500D02*
D03*
X-242419D02*
D03*
Y187500D02*
D03*
X-252579D02*
D03*
X-242419Y207500D02*
D03*
X-252579D02*
D03*
X-50080Y174000D02*
D03*
X-39920D02*
D03*
X-232580Y155000D02*
D03*
X-222420D02*
D03*
Y165000D02*
D03*
X-232580D02*
D03*
X-311296Y160172D02*
D03*
X-321456D02*
D03*
X-50080Y164000D02*
D03*
X-39920D02*
D03*
X-105080D02*
D03*
X-94920D02*
D03*
X-345080Y-47500D02*
D03*
X-334920D02*
D03*
X-345080Y-57500D02*
D03*
X-334920D02*
D03*
X-345080Y-37500D02*
D03*
X-334920D02*
D03*
X-345080Y-27500D02*
D03*
X-334920D02*
D03*
X-39920Y-61000D02*
D03*
X-50080D02*
D03*
X-39920Y-71000D02*
D03*
X-50080D02*
D03*
X-94920D02*
D03*
X-105080D02*
D03*
X-230080Y-47500D02*
D03*
X-219920D02*
D03*
Y-57500D02*
D03*
X-230080D02*
D03*
X-180080Y-95000D02*
D03*
X-169920D02*
D03*
D52*
X-232500Y57580D02*
D03*
Y47420D02*
D03*
X-242500Y57580D02*
D03*
Y47420D02*
D03*
X-262500Y57580D02*
D03*
Y47420D02*
D03*
X-300000Y197580D02*
D03*
Y187420D02*
D03*
X-282500Y47420D02*
D03*
Y57580D02*
D03*
X-213760Y61620D02*
D03*
Y71780D02*
D03*
X-165000Y122420D02*
D03*
Y132580D02*
D03*
Y112580D02*
D03*
Y102420D02*
D03*
X-272500Y57580D02*
D03*
Y47420D02*
D03*
X-292500D02*
D03*
Y57580D02*
D03*
X-217316Y135280D02*
D03*
Y125120D02*
D03*
X-252500Y57580D02*
D03*
Y47420D02*
D03*
X-331108Y77876D02*
D03*
Y88036D02*
D03*
X-213760Y-173380D02*
D03*
Y-163220D02*
D03*
X-295000Y-177420D02*
D03*
Y-187580D02*
D03*
X-248050Y-47650D02*
D03*
Y-57810D02*
D03*
X-202500Y-112420D02*
D03*
Y-122580D02*
D03*
X-213760Y-112420D02*
D03*
Y-122580D02*
D03*
X-333920Y-100670D02*
D03*
Y-110830D02*
D03*
X-257500Y-47420D02*
D03*
Y-57580D02*
D03*
X-285000Y-187580D02*
D03*
Y-177420D02*
D03*
X-267500Y-47420D02*
D03*
Y-57580D02*
D03*
X-277500Y-47420D02*
D03*
Y-57580D02*
D03*
X-287500Y-47420D02*
D03*
Y-57580D02*
D03*
X-297500Y-47420D02*
D03*
Y-57580D02*
D03*
X-333920Y-76830D02*
D03*
Y-66670D02*
D03*
X-275000Y-187580D02*
D03*
Y-177420D02*
D03*
D53*
X-15500Y60000D02*
D03*
Y65000D02*
D03*
X-24500D02*
D03*
Y60000D02*
D03*
X-15500Y170000D02*
D03*
Y175000D02*
D03*
X-24500D02*
D03*
Y170000D02*
D03*
X-15500Y-65000D02*
D03*
Y-60000D02*
D03*
X-24500D02*
D03*
Y-65000D02*
D03*
X-15500Y-175000D02*
D03*
Y-170000D02*
D03*
X-24500D02*
D03*
Y-175000D02*
D03*
D54*
Y70498D02*
D03*
X-15500D02*
D03*
X-24500Y54500D02*
D03*
X-15500D02*
D03*
X-24500Y180499D02*
D03*
X-15500D02*
D03*
X-24500Y164500D02*
D03*
X-15500D02*
D03*
X-24500Y-54502D02*
D03*
X-15500D02*
D03*
X-24500Y-70500D02*
D03*
X-15500D02*
D03*
X-24500Y-164501D02*
D03*
X-15500D02*
D03*
X-24500Y-180500D02*
D03*
X-15500D02*
D03*
D55*
X-190000Y99000D02*
D03*
Y136000D02*
D03*
D56*
X-277500Y180500D02*
D03*
X-268000Y204500D02*
D03*
X-287000D02*
D03*
X-320000Y54500D02*
D03*
X-329500Y30500D02*
D03*
X-320000D02*
D03*
X-310500D02*
D03*
Y54500D02*
D03*
X-329500D02*
D03*
Y-180500D02*
D03*
X-310500D02*
D03*
Y-204500D02*
D03*
X-320000D02*
D03*
X-329500D02*
D03*
X-320000Y-180500D02*
D03*
D57*
X-129940Y95910D02*
D03*
Y80670D02*
D03*
X-213760Y41300D02*
D03*
Y26060D02*
D03*
Y-193700D02*
D03*
Y-208940D02*
D03*
X-129940Y-139090D02*
D03*
Y-154330D02*
D03*
X-237500Y-178380D02*
D03*
Y-193620D02*
D03*
X-250000Y-178380D02*
D03*
Y-193620D02*
D03*
X-262500Y-178380D02*
D03*
Y-193620D02*
D03*
D58*
X3170Y92100D02*
D03*
Y117500D02*
D03*
Y142900D02*
D03*
X76830D02*
D03*
Y117500D02*
D03*
Y92100D02*
D03*
Y-142900D02*
D03*
Y-117500D02*
D03*
Y-92100D02*
D03*
X3170D02*
D03*
Y-117500D02*
D03*
Y-142900D02*
D03*
D59*
X229000Y142900D02*
D03*
X271000D02*
D03*
X229000Y130200D02*
D03*
X271000D02*
D03*
X229000Y117500D02*
D03*
X271000D02*
D03*
X229000Y104800D02*
D03*
X271000D02*
D03*
X229000Y92100D02*
D03*
X271000D02*
D03*
X176000Y79400D02*
D03*
X134000D02*
D03*
X176000Y92100D02*
D03*
X134000D02*
D03*
X176000Y104800D02*
D03*
X134000D02*
D03*
X176000Y117500D02*
D03*
X134000D02*
D03*
X176000Y130200D02*
D03*
X134000D02*
D03*
Y155600D02*
D03*
X176000D02*
D03*
X134000Y142900D02*
D03*
X176000D02*
D03*
X271000Y-142900D02*
D03*
X229000D02*
D03*
X271000Y-130200D02*
D03*
X229000D02*
D03*
X271000Y-117500D02*
D03*
X229000D02*
D03*
X271000Y-104800D02*
D03*
X229000D02*
D03*
X271000Y-92100D02*
D03*
X229000D02*
D03*
X176000D02*
D03*
X134000D02*
D03*
X176000Y-79400D02*
D03*
X134000D02*
D03*
Y-104800D02*
D03*
X176000D02*
D03*
X134000Y-117500D02*
D03*
X176000D02*
D03*
X134000Y-130200D02*
D03*
X176000D02*
D03*
X134000Y-142900D02*
D03*
X176000D02*
D03*
X134000Y-155600D02*
D03*
X176000D02*
D03*
D60*
X310700Y28600D02*
D03*
Y54000D02*
D03*
Y79400D02*
D03*
Y104800D02*
D03*
Y130200D02*
D03*
Y155600D02*
D03*
Y181000D02*
D03*
Y-54000D02*
D03*
Y-79400D02*
D03*
Y-104800D02*
D03*
Y-130200D02*
D03*
Y-155600D02*
D03*
Y-181000D02*
D03*
Y-206400D02*
D03*
D61*
Y206400D02*
D03*
Y-28600D02*
D03*
D62*
X-380000Y48850D02*
D03*
X-367300Y36150D02*
D03*
X-380000D02*
D03*
X-392700Y48850D02*
D03*
Y36150D02*
D03*
X-367300Y48850D02*
D03*
Y-186150D02*
D03*
X-392700Y-198850D02*
D03*
Y-186150D02*
D03*
X-380000Y-198850D02*
D03*
X-367300D02*
D03*
X-380000Y-186150D02*
D03*
D63*
X111500Y173000D02*
D03*
X98500D02*
D03*
X104999Y192000D02*
D03*
X111500D02*
D03*
X98500D02*
D03*
X105001Y173000D02*
D03*
X111500Y43000D02*
D03*
X98500D02*
D03*
X104999Y62000D02*
D03*
X111500D02*
D03*
X98500D02*
D03*
X105001Y43000D02*
D03*
Y-192000D02*
D03*
X98500Y-173000D02*
D03*
X111500D02*
D03*
X104999D02*
D03*
X98500Y-192000D02*
D03*
X111500D02*
D03*
X105001Y-62000D02*
D03*
X98500Y-43000D02*
D03*
X111500D02*
D03*
X104999D02*
D03*
X98500Y-62000D02*
D03*
X111500D02*
D03*
D64*
X-195000Y75500D02*
D03*
Y52500D02*
D03*
Y29500D02*
D03*
Y-205500D02*
D03*
Y-182500D02*
D03*
Y-159500D02*
D03*
D65*
X-130000Y52500D02*
D03*
Y-182500D02*
D03*
D66*
X-45000Y81750D02*
D03*
Y88250D02*
D03*
X-105000Y81750D02*
D03*
Y88250D02*
D03*
X-45000Y107750D02*
D03*
Y114250D02*
D03*
Y120750D02*
D03*
Y127250D02*
D03*
Y133750D02*
D03*
Y140250D02*
D03*
Y146750D02*
D03*
Y153250D02*
D03*
X-105000Y107750D02*
D03*
Y114250D02*
D03*
Y120750D02*
D03*
Y127250D02*
D03*
Y133750D02*
D03*
Y140250D02*
D03*
Y146750D02*
D03*
Y153250D02*
D03*
Y101250D02*
D03*
X-45000D02*
D03*
Y94750D02*
D03*
X-105000D02*
D03*
Y-140250D02*
D03*
X-45000D02*
D03*
Y-133750D02*
D03*
X-105000D02*
D03*
Y-81750D02*
D03*
Y-88250D02*
D03*
Y-94750D02*
D03*
Y-101250D02*
D03*
Y-107750D02*
D03*
Y-114250D02*
D03*
Y-120750D02*
D03*
Y-127250D02*
D03*
X-45000Y-81750D02*
D03*
Y-88250D02*
D03*
Y-94750D02*
D03*
Y-101250D02*
D03*
Y-107750D02*
D03*
Y-114250D02*
D03*
Y-120750D02*
D03*
Y-127250D02*
D03*
X-105000Y-146750D02*
D03*
Y-153250D02*
D03*
X-45000Y-146750D02*
D03*
Y-153250D02*
D03*
D67*
X-181500Y206150D02*
D03*
X-108500D02*
D03*
Y186850D02*
D03*
X-181500D02*
D03*
Y-48150D02*
D03*
X-108500D02*
D03*
Y-28850D02*
D03*
X-181500D02*
D03*
D68*
X-122500Y179000D02*
D03*
X-152500D02*
D03*
X-167500D02*
D03*
Y-56000D02*
D03*
X-152500D02*
D03*
X-122500D02*
D03*
D69*
X-367500Y199500D02*
D03*
Y185500D02*
D03*
X-402500D02*
D03*
Y199500D02*
D03*
Y-35500D02*
D03*
Y-49500D02*
D03*
X-367500D02*
D03*
Y-35500D02*
D03*
D70*
X-187000Y-108000D02*
D03*
Y-127000D02*
D03*
X-163000Y-108000D02*
D03*
Y-127000D02*
D03*
D71*
X-229500Y-72000D02*
D03*
Y-78500D02*
D03*
Y-85000D02*
D03*
Y-91500D02*
D03*
Y-98000D02*
D03*
Y-104500D02*
D03*
Y-111000D02*
D03*
Y-117500D02*
D03*
Y-124000D02*
D03*
Y-130500D02*
D03*
Y-137000D02*
D03*
Y-143500D02*
D03*
Y-150000D02*
D03*
Y-156500D02*
D03*
Y-163000D02*
D03*
X-236000Y-72000D02*
D03*
Y-78500D02*
D03*
Y-85000D02*
D03*
Y-91500D02*
D03*
Y-98000D02*
D03*
Y-104500D02*
D03*
Y-111000D02*
D03*
Y-117500D02*
D03*
Y-124000D02*
D03*
Y-130500D02*
D03*
Y-137000D02*
D03*
Y-143500D02*
D03*
Y-150000D02*
D03*
Y-156500D02*
D03*
Y-163000D02*
D03*
X-242500Y-72000D02*
D03*
Y-78500D02*
D03*
Y-85000D02*
D03*
Y-91500D02*
D03*
Y-98000D02*
D03*
Y-104500D02*
D03*
Y-111000D02*
D03*
Y-117500D02*
D03*
Y-124000D02*
D03*
Y-130500D02*
D03*
Y-137000D02*
D03*
Y-143500D02*
D03*
Y-150000D02*
D03*
Y-156500D02*
D03*
Y-163000D02*
D03*
X-249000Y-72000D02*
D03*
Y-78500D02*
D03*
Y-85000D02*
D03*
Y-91500D02*
D03*
Y-98000D02*
D03*
Y-104500D02*
D03*
Y-111000D02*
D03*
Y-117500D02*
D03*
Y-124000D02*
D03*
Y-130500D02*
D03*
Y-137000D02*
D03*
Y-143500D02*
D03*
Y-150000D02*
D03*
Y-156500D02*
D03*
Y-163000D02*
D03*
X-255500Y-72000D02*
D03*
Y-78500D02*
D03*
Y-85000D02*
D03*
Y-91500D02*
D03*
Y-143500D02*
D03*
Y-150000D02*
D03*
Y-156500D02*
D03*
Y-163000D02*
D03*
X-262000Y-72000D02*
D03*
Y-78500D02*
D03*
Y-85000D02*
D03*
Y-91500D02*
D03*
Y-104500D02*
D03*
Y-111000D02*
D03*
Y-117500D02*
D03*
Y-124000D02*
D03*
Y-130500D02*
D03*
Y-143500D02*
D03*
Y-150000D02*
D03*
Y-156500D02*
D03*
Y-163000D02*
D03*
X-268500Y-72000D02*
D03*
Y-78500D02*
D03*
Y-85000D02*
D03*
Y-91500D02*
D03*
Y-104500D02*
D03*
Y-111000D02*
D03*
Y-117500D02*
D03*
Y-124000D02*
D03*
Y-130500D02*
D03*
Y-143500D02*
D03*
Y-150000D02*
D03*
Y-156500D02*
D03*
Y-163000D02*
D03*
X-275000Y-72000D02*
D03*
Y-78500D02*
D03*
Y-85000D02*
D03*
Y-91500D02*
D03*
Y-104500D02*
D03*
Y-111000D02*
D03*
Y-117500D02*
D03*
Y-124000D02*
D03*
Y-130500D02*
D03*
Y-143500D02*
D03*
Y-150000D02*
D03*
Y-156500D02*
D03*
Y-163000D02*
D03*
X-281500Y-72000D02*
D03*
Y-78500D02*
D03*
Y-85000D02*
D03*
Y-91500D02*
D03*
Y-104500D02*
D03*
Y-111000D02*
D03*
Y-117500D02*
D03*
Y-124000D02*
D03*
Y-130500D02*
D03*
Y-143500D02*
D03*
Y-150000D02*
D03*
Y-156500D02*
D03*
Y-163000D02*
D03*
X-288000Y-72000D02*
D03*
Y-78500D02*
D03*
Y-85000D02*
D03*
Y-91500D02*
D03*
Y-104500D02*
D03*
Y-111000D02*
D03*
Y-117500D02*
D03*
Y-124000D02*
D03*
Y-130500D02*
D03*
Y-143500D02*
D03*
Y-150000D02*
D03*
Y-156500D02*
D03*
Y-163000D02*
D03*
X-294500Y-72000D02*
D03*
Y-78500D02*
D03*
Y-85000D02*
D03*
Y-91500D02*
D03*
Y-143500D02*
D03*
Y-150000D02*
D03*
Y-156500D02*
D03*
Y-163000D02*
D03*
X-301000Y-72000D02*
D03*
Y-78500D02*
D03*
Y-85000D02*
D03*
Y-91500D02*
D03*
Y-98000D02*
D03*
Y-104500D02*
D03*
Y-111000D02*
D03*
Y-117500D02*
D03*
Y-124000D02*
D03*
Y-130500D02*
D03*
Y-137000D02*
D03*
Y-143500D02*
D03*
Y-150000D02*
D03*
Y-156500D02*
D03*
Y-163000D02*
D03*
X-307500Y-72000D02*
D03*
Y-78500D02*
D03*
Y-85000D02*
D03*
Y-91500D02*
D03*
Y-98000D02*
D03*
Y-104500D02*
D03*
Y-111000D02*
D03*
Y-117500D02*
D03*
Y-124000D02*
D03*
Y-130500D02*
D03*
Y-137000D02*
D03*
Y-143500D02*
D03*
Y-150000D02*
D03*
Y-156500D02*
D03*
Y-163000D02*
D03*
X-314000Y-72000D02*
D03*
Y-78500D02*
D03*
Y-85000D02*
D03*
Y-91500D02*
D03*
Y-98000D02*
D03*
Y-104500D02*
D03*
Y-111000D02*
D03*
Y-117500D02*
D03*
Y-124000D02*
D03*
Y-130500D02*
D03*
Y-137000D02*
D03*
Y-143500D02*
D03*
Y-150000D02*
D03*
Y-156500D02*
D03*
Y-163000D02*
D03*
X-320500Y-72000D02*
D03*
Y-78500D02*
D03*
Y-85000D02*
D03*
Y-91500D02*
D03*
Y-98000D02*
D03*
Y-104500D02*
D03*
Y-111000D02*
D03*
Y-117500D02*
D03*
Y-124000D02*
D03*
Y-130500D02*
D03*
Y-137000D02*
D03*
Y-143500D02*
D03*
Y-150000D02*
D03*
Y-156500D02*
D03*
Y-163000D02*
D03*
D72*
X-412500Y117500D02*
D03*
Y-117500D02*
D03*
X397500Y0D02*
D03*
D73*
X385000Y-11500D02*
D03*
X375000D02*
D03*
X365000D02*
D03*
X355000D02*
D03*
X345000D02*
D03*
X385000Y11500D02*
D03*
X375000D02*
D03*
X365000D02*
D03*
X355000D02*
D03*
X345000D02*
D03*
X-365000D02*
D03*
X-375000D02*
D03*
X-385000D02*
D03*
X-395000D02*
D03*
X-405000D02*
D03*
X-365000Y-11500D02*
D03*
X-375000D02*
D03*
X-385000D02*
D03*
X-395000D02*
D03*
X-405000D02*
D03*
X-362200Y146400D02*
D03*
Y88600D02*
D03*
X-160000Y196500D02*
D03*
X-130000D02*
D03*
X-362200Y-146400D02*
D03*
Y-88600D02*
D03*
X-130000Y-38500D02*
D03*
X-160000D02*
D03*
D74*
X-399000Y74300D02*
D03*
Y160700D02*
D03*
Y-74300D02*
D03*
Y-160700D02*
D03*
D75*
X-357200Y74300D02*
D03*
Y160700D02*
D03*
Y-74300D02*
D03*
Y-160700D02*
D03*
D76*
X-405400Y42500D02*
D03*
X-354600Y52660D02*
D03*
Y32340D02*
D03*
Y-202660D02*
D03*
Y-182340D02*
D03*
X-405400Y-192500D02*
D03*
D77*
X-75000Y192500D02*
D03*
Y42500D02*
D03*
Y-42500D02*
D03*
Y-192500D02*
D03*
M02*
