G04*
G04 #@! TF.GenerationSoftware,Altium Limited,Altium Designer,20.0.7 (75)*
G04*
G04 Layer_Physical_Order=2*
G04 Layer_Color=36540*
%FSLAX44Y44*%
%MOMM*%
G71*
G01*
G75*
%ADD14C,0.2032*%
%ADD79C,0.3810*%
%ADD84C,0.6200*%
%ADD85C,0.4500*%
%ADD86C,0.6200*%
G36*
X419911Y20985D02*
X419013Y20087D01*
X248986Y20087D01*
X248860Y21357D01*
X250304Y21644D01*
X251834Y22666D01*
X318334Y89166D01*
X319356Y90696D01*
X319715Y92500D01*
Y114801D01*
X320984Y115187D01*
X321666Y114166D01*
X323196Y113144D01*
X325000Y112785D01*
X326804Y113144D01*
X328334Y114166D01*
X329356Y115696D01*
X329715Y117500D01*
X329356Y119304D01*
X328334Y120834D01*
X326804Y121856D01*
X325000Y122215D01*
X323196Y121856D01*
X321666Y120834D01*
X320984Y119813D01*
X319715Y120199D01*
Y158550D01*
X319715Y158550D01*
X319356Y160354D01*
X318334Y161884D01*
X318334Y161884D01*
X295834Y184383D01*
X295834Y184384D01*
X295833Y184384D01*
X295634Y184584D01*
X294104Y185606D01*
X292300Y185965D01*
X111500D01*
X111500Y185965D01*
X109696Y185606D01*
X108166Y184584D01*
X107144Y183054D01*
X106785Y181250D01*
X107144Y179446D01*
X108166Y177916D01*
X109696Y176894D01*
X111500Y176535D01*
X111500Y176535D01*
X116578D01*
X116858Y176012D01*
X117130Y175266D01*
X116805Y173634D01*
X117164Y171830D01*
X118186Y170300D01*
X119716Y169278D01*
X121520Y168919D01*
X123324Y169278D01*
X124854Y170300D01*
X125876Y171830D01*
X126235Y173634D01*
X125910Y175266D01*
X126182Y176012D01*
X126462Y176535D01*
X290347D01*
X310285Y156597D01*
Y94453D01*
X279584Y63751D01*
X278597Y64561D01*
X278755Y64797D01*
X279356Y65696D01*
X279715Y67500D01*
X279356Y69304D01*
X278334Y70834D01*
X276804Y71856D01*
X275000Y72215D01*
X273196Y71856D01*
X271666Y70834D01*
X270644Y69304D01*
X270285Y67500D01*
X270644Y65696D01*
X271666Y64166D01*
X273196Y63144D01*
X275000Y62785D01*
X276804Y63144D01*
X277703Y63745D01*
X277939Y63903D01*
X278749Y62916D01*
X246547Y30714D01*
X102271D01*
X101796Y31985D01*
X102606Y33196D01*
X102965Y35000D01*
X102606Y36804D01*
X101584Y38334D01*
X100054Y39356D01*
X98250Y39715D01*
X96446Y39356D01*
X94916Y38334D01*
X93894Y36804D01*
X93535Y35000D01*
X93894Y33196D01*
X94704Y31985D01*
X94229Y30714D01*
X-14897D01*
X-36190Y52007D01*
X-35772Y53385D01*
X-35426Y53454D01*
X-33896Y54476D01*
X-32874Y56006D01*
X-32515Y57810D01*
X-32874Y59614D01*
X-33896Y61144D01*
X-35426Y62166D01*
X-37230Y62525D01*
X-39034Y62166D01*
X-40564Y61144D01*
X-41586Y59614D01*
X-41655Y59268D01*
X-43033Y58850D01*
X-57516Y73334D01*
X-59046Y74356D01*
X-60850Y74714D01*
X-88540D01*
X-90344Y74356D01*
X-91874Y73334D01*
X-134493Y30714D01*
X-223750D01*
X-223750Y30715D01*
X-223750Y30714D01*
X-315285D01*
Y37553D01*
X-314016Y37938D01*
X-313834Y37666D01*
X-312304Y36644D01*
X-310500Y36285D01*
X-308696Y36644D01*
X-307166Y37666D01*
X-306144Y39196D01*
X-305785Y41000D01*
X-306144Y42804D01*
X-307166Y44334D01*
X-308696Y45356D01*
X-310500Y45715D01*
X-312304Y45356D01*
X-313834Y44334D01*
X-314541Y43274D01*
X-315958D01*
X-316666Y44334D01*
X-318196Y45356D01*
X-320000Y45715D01*
X-321804Y45356D01*
X-323334Y44334D01*
X-324041Y43274D01*
X-325458D01*
X-326166Y44334D01*
X-327696Y45356D01*
X-329500Y45715D01*
X-331304Y45356D01*
X-332834Y44334D01*
X-333856Y42804D01*
X-334016Y42001D01*
X-335285Y42126D01*
Y93500D01*
X-335285Y93500D01*
X-335285Y93500D01*
Y95092D01*
X-335056Y95214D01*
X-334016Y95636D01*
X-332395Y95314D01*
X-330590Y95673D01*
X-329061Y96694D01*
X-328039Y98224D01*
X-327680Y100028D01*
X-328039Y101832D01*
X-329061Y103362D01*
X-330590Y104384D01*
X-332395Y104743D01*
X-334016Y104420D01*
X-335056Y104842D01*
X-335285Y104965D01*
Y141500D01*
X-335285Y141500D01*
X-335285Y141500D01*
Y176759D01*
X-332246Y179799D01*
X-332045Y179711D01*
X-331198Y179050D01*
X-331505Y177510D01*
X-331146Y175706D01*
X-330124Y174176D01*
X-328594Y173154D01*
X-326790Y172795D01*
X-324986Y173154D01*
X-323456Y174176D01*
X-322434Y175706D01*
X-322075Y177510D01*
X-322434Y179314D01*
X-323456Y180844D01*
X-324986Y181866D01*
X-326790Y182225D01*
X-328330Y181918D01*
X-328991Y182765D01*
X-329079Y182966D01*
X-319757Y192288D01*
X-237680D01*
X-237294Y191017D01*
X-237414Y190938D01*
X-238436Y189408D01*
X-238795Y187604D01*
X-238436Y185800D01*
X-237414Y184270D01*
X-235884Y183248D01*
X-234080Y182889D01*
X-232276Y183248D01*
X-230746Y184270D01*
X-229724Y185800D01*
X-229365Y187604D01*
X-229724Y189408D01*
X-230746Y190938D01*
X-230866Y191017D01*
X-230480Y192288D01*
X-224174D01*
X-224174Y192287D01*
X-222370Y192646D01*
X-220840Y193668D01*
X-219818Y195198D01*
X-219459Y197002D01*
X-219818Y198806D01*
X-220840Y200336D01*
X-222370Y201358D01*
X-224174Y201717D01*
X-224174Y201716D01*
X-321710D01*
X-323514Y201358D01*
X-325044Y200336D01*
X-325044Y200336D01*
X-343334Y182046D01*
X-344356Y180516D01*
X-344715Y178712D01*
Y166042D01*
X-345984Y165611D01*
X-346334Y166066D01*
X-347906Y167272D01*
X-349736Y168030D01*
X-351700Y168289D01*
X-362700D01*
X-364664Y168030D01*
X-366494Y167272D01*
X-368066Y166066D01*
X-369272Y164494D01*
X-370030Y162664D01*
X-370289Y160700D01*
X-370030Y158736D01*
X-369272Y156905D01*
X-368066Y155334D01*
X-366494Y154128D01*
X-364664Y153370D01*
X-362700Y153111D01*
X-351700D01*
X-349736Y153370D01*
X-347906Y154128D01*
X-346334Y155334D01*
X-345984Y155789D01*
X-344715Y155358D01*
Y141500D01*
X-344715Y141500D01*
X-344715Y141500D01*
Y93500D01*
X-344715Y93500D01*
X-344715Y93500D01*
Y79642D01*
X-345984Y79211D01*
X-346334Y79666D01*
X-347906Y80872D01*
X-349736Y81630D01*
X-351700Y81889D01*
X-362700D01*
X-364664Y81630D01*
X-366494Y80872D01*
X-368066Y79666D01*
X-369272Y78095D01*
X-370030Y76264D01*
X-370289Y74300D01*
X-370030Y72336D01*
X-369272Y70505D01*
X-368066Y68934D01*
X-366494Y67728D01*
X-364664Y66970D01*
X-362700Y66711D01*
X-351700D01*
X-349736Y66970D01*
X-347906Y67728D01*
X-346334Y68934D01*
X-345984Y69389D01*
X-344715Y68958D01*
Y35460D01*
X-344356Y33656D01*
X-343334Y32126D01*
X-333874Y22666D01*
X-332344Y21644D01*
X-330912Y21359D01*
X-331037Y20089D01*
X-419911Y20090D01*
X-419911Y113205D01*
X-418641Y113537D01*
X-417695Y112305D01*
X-416173Y111137D01*
X-414402Y110403D01*
X-412500Y110153D01*
X-410598Y110403D01*
X-408827Y111137D01*
X-407305Y112305D01*
X-406137Y113827D01*
X-405518Y115323D01*
X-405241Y115412D01*
X-404599Y115473D01*
X-404161Y115404D01*
X-403334Y114166D01*
X-401804Y113144D01*
X-400000Y112785D01*
X-398196Y113144D01*
X-396666Y114166D01*
X-395644Y115696D01*
X-395285Y117500D01*
X-395644Y119304D01*
X-396666Y120834D01*
X-398196Y121856D01*
X-400000Y122215D01*
X-401804Y121856D01*
X-403334Y120834D01*
X-404161Y119596D01*
X-404599Y119527D01*
X-405241Y119588D01*
X-405518Y119677D01*
X-406137Y121173D01*
X-407305Y122695D01*
X-408827Y123862D01*
X-410598Y124597D01*
X-412500Y124847D01*
X-414402Y124597D01*
X-416173Y123862D01*
X-417695Y122695D01*
X-418641Y121463D01*
X-419911Y121795D01*
X-419910Y214910D01*
X-178500Y214909D01*
Y214892D01*
X-176698Y214654D01*
X-175019Y213959D01*
X-173577Y212852D01*
X-173565Y212864D01*
X-173564Y212864D01*
X-173553Y212856D01*
X-170134Y209437D01*
X-170134Y209437D01*
X-170157Y209414D01*
X-167552Y207276D01*
X-164579Y205687D01*
X-161354Y204708D01*
X-158000Y204378D01*
Y204410D01*
X-132000Y204410D01*
Y204378D01*
X-128646Y204708D01*
X-125421Y205687D01*
X-122448Y207276D01*
X-119843Y209414D01*
X-119866Y209437D01*
X-117335Y211969D01*
X-116423Y212852D01*
X-114981Y213959D01*
X-113302Y214654D01*
X-111500Y214892D01*
Y214909D01*
X-81371Y214909D01*
X-81183Y213639D01*
X-83469Y212946D01*
X-87295Y210901D01*
X-90649Y208149D01*
X-93401Y204795D01*
X-95446Y200969D01*
X-96705Y196817D01*
X-97130Y192500D01*
X-96705Y188183D01*
X-95446Y184031D01*
X-93401Y180205D01*
X-90649Y176851D01*
X-87295Y174099D01*
X-83469Y172054D01*
X-79317Y170795D01*
X-75000Y170369D01*
X-70683Y170795D01*
X-66531Y172054D01*
X-62705Y174099D01*
X-59351Y176851D01*
X-56599Y180205D01*
X-54554Y184031D01*
X-53295Y188183D01*
X-52870Y192500D01*
X-53295Y196817D01*
X-54554Y200969D01*
X-56599Y204795D01*
X-59351Y208149D01*
X-62705Y210901D01*
X-66531Y212946D01*
X-68817Y213640D01*
X-68629Y214909D01*
X419910Y214911D01*
X419911Y20985D01*
D02*
G37*
G36*
Y-214015D02*
X419013Y-214913D01*
X251486Y-214913D01*
X251360Y-213643D01*
X252804Y-213356D01*
X254334Y-212334D01*
X299270Y-167397D01*
X300441Y-168023D01*
X300385Y-168300D01*
X300744Y-170104D01*
X301766Y-171634D01*
X303296Y-172656D01*
X305100Y-173015D01*
X306904Y-172656D01*
X308434Y-171634D01*
X309456Y-170104D01*
X309815Y-168300D01*
X309456Y-166496D01*
X308434Y-164966D01*
X306904Y-163944D01*
X305100Y-163585D01*
X304823Y-163640D01*
X304197Y-162470D01*
X318334Y-148334D01*
X319356Y-146804D01*
X319715Y-145000D01*
Y-120199D01*
X320984Y-119813D01*
X321666Y-120834D01*
X323196Y-121856D01*
X325000Y-122215D01*
X326804Y-121856D01*
X328334Y-120834D01*
X329356Y-119304D01*
X329715Y-117500D01*
X329356Y-115696D01*
X328334Y-114166D01*
X326804Y-113144D01*
X325000Y-112785D01*
X323196Y-113144D01*
X321666Y-114166D01*
X320984Y-115187D01*
X319715Y-114801D01*
Y-76450D01*
X319715Y-76450D01*
X319356Y-74646D01*
X318334Y-73116D01*
X318334Y-73116D01*
X295834Y-50617D01*
X295834Y-50616D01*
X295833Y-50616D01*
X295634Y-50416D01*
X294104Y-49394D01*
X292300Y-49036D01*
X111500D01*
X111500Y-49035D01*
X109696Y-49394D01*
X108166Y-50416D01*
X107144Y-51946D01*
X106785Y-53750D01*
X107144Y-55554D01*
X108166Y-57084D01*
X109696Y-58106D01*
X111500Y-58465D01*
X111500Y-58464D01*
X119946D01*
X120332Y-59735D01*
X120218Y-59810D01*
X119196Y-61340D01*
X118837Y-63144D01*
X119196Y-64948D01*
X120218Y-66478D01*
X121748Y-67500D01*
X123552Y-67859D01*
X125356Y-67500D01*
X126886Y-66478D01*
X127908Y-64948D01*
X128267Y-63144D01*
X127908Y-61340D01*
X126886Y-59810D01*
X126772Y-59735D01*
X127158Y-58464D01*
X290347D01*
X310285Y-78403D01*
Y-143047D01*
X249047Y-204286D01*
X102271D01*
X101796Y-203015D01*
X102606Y-201804D01*
X102965Y-200000D01*
X102606Y-198196D01*
X101584Y-196666D01*
X100054Y-195644D01*
X98250Y-195285D01*
X96446Y-195644D01*
X94916Y-196666D01*
X93894Y-198196D01*
X93535Y-200000D01*
X93894Y-201804D01*
X94704Y-203015D01*
X94229Y-204286D01*
X-14897D01*
X-57516Y-161666D01*
X-59046Y-160644D01*
X-60850Y-160285D01*
X-88540D01*
X-90344Y-160644D01*
X-91874Y-161666D01*
X-134493Y-204286D01*
X-223750D01*
X-223750Y-204285D01*
X-223750Y-204286D01*
X-315285D01*
Y-197447D01*
X-314016Y-197062D01*
X-313834Y-197334D01*
X-312304Y-198356D01*
X-310500Y-198715D01*
X-308696Y-198356D01*
X-307166Y-197334D01*
X-306144Y-195804D01*
X-305785Y-194000D01*
X-306144Y-192196D01*
X-307166Y-190666D01*
X-308696Y-189644D01*
X-310500Y-189285D01*
X-312304Y-189644D01*
X-313834Y-190666D01*
X-314541Y-191726D01*
X-315958D01*
X-316666Y-190666D01*
X-318196Y-189644D01*
X-320000Y-189285D01*
X-321804Y-189644D01*
X-323334Y-190666D01*
X-324041Y-191726D01*
X-325458D01*
X-326166Y-190666D01*
X-327696Y-189644D01*
X-329500Y-189285D01*
X-331304Y-189644D01*
X-332834Y-190666D01*
X-333856Y-192196D01*
X-334016Y-192999D01*
X-335285Y-192874D01*
Y-141500D01*
X-335285Y-141500D01*
X-335285Y-141500D01*
Y-93500D01*
X-335285Y-93500D01*
X-335644Y-91696D01*
X-336666Y-90166D01*
X-338196Y-89144D01*
X-340000Y-88785D01*
X-341804Y-89144D01*
X-343334Y-90166D01*
X-344356Y-91696D01*
X-344715Y-93500D01*
X-344715Y-93500D01*
Y-141500D01*
X-344715Y-141500D01*
X-344715Y-141500D01*
Y-155358D01*
X-345984Y-155789D01*
X-346334Y-155334D01*
X-347906Y-154128D01*
X-349736Y-153370D01*
X-351700Y-153111D01*
X-362700D01*
X-364664Y-153370D01*
X-366494Y-154128D01*
X-368066Y-155334D01*
X-369272Y-156905D01*
X-370030Y-158736D01*
X-370289Y-160700D01*
X-370030Y-162664D01*
X-369272Y-164494D01*
X-368066Y-166066D01*
X-366494Y-167272D01*
X-364664Y-168030D01*
X-362700Y-168289D01*
X-351700D01*
X-349736Y-168030D01*
X-347906Y-167272D01*
X-346334Y-166066D01*
X-345984Y-165611D01*
X-344715Y-166042D01*
Y-199540D01*
X-344356Y-201344D01*
X-343334Y-202874D01*
X-333874Y-212334D01*
X-332344Y-213356D01*
X-330912Y-213641D01*
X-331037Y-214911D01*
X-419911Y-214910D01*
X-419911Y-121795D01*
X-418641Y-121463D01*
X-417695Y-122695D01*
X-416173Y-123862D01*
X-414402Y-124597D01*
X-412500Y-124847D01*
X-410598Y-124597D01*
X-408827Y-123862D01*
X-407305Y-122695D01*
X-406137Y-121173D01*
X-405518Y-119677D01*
X-405241Y-119588D01*
X-404599Y-119527D01*
X-404161Y-119596D01*
X-403334Y-120834D01*
X-401804Y-121856D01*
X-400000Y-122215D01*
X-398196Y-121856D01*
X-396666Y-120834D01*
X-395644Y-119304D01*
X-395285Y-117500D01*
X-395644Y-115696D01*
X-396666Y-114166D01*
X-398196Y-113144D01*
X-400000Y-112785D01*
X-401804Y-113144D01*
X-403334Y-114166D01*
X-404161Y-115404D01*
X-404599Y-115473D01*
X-405241Y-115412D01*
X-405518Y-115323D01*
X-406137Y-113827D01*
X-407305Y-112305D01*
X-408827Y-111137D01*
X-410598Y-110403D01*
X-412500Y-110153D01*
X-414402Y-110403D01*
X-416173Y-111137D01*
X-417695Y-112305D01*
X-418641Y-113537D01*
X-419911Y-113205D01*
X-419910Y-20090D01*
X-178500Y-20091D01*
Y-20108D01*
X-176698Y-20346D01*
X-175019Y-21041D01*
X-173577Y-22148D01*
X-173565Y-22136D01*
X-173564Y-22136D01*
X-173553Y-22144D01*
X-170134Y-25563D01*
X-170134Y-25563D01*
X-170157Y-25586D01*
X-167552Y-27724D01*
X-164579Y-29313D01*
X-161354Y-30292D01*
X-158000Y-30622D01*
Y-30590D01*
X-132000Y-30590D01*
Y-30622D01*
X-128646Y-30292D01*
X-125421Y-29313D01*
X-122448Y-27724D01*
X-119843Y-25586D01*
X-119866Y-25563D01*
X-117335Y-23031D01*
X-116423Y-22148D01*
X-114981Y-21041D01*
X-113302Y-20346D01*
X-111500Y-20108D01*
Y-20091D01*
X-81371Y-20091D01*
X-81183Y-21361D01*
X-83469Y-22054D01*
X-87295Y-24099D01*
X-90649Y-26851D01*
X-93401Y-30205D01*
X-95446Y-34031D01*
X-96705Y-38182D01*
X-97130Y-42500D01*
X-96705Y-46817D01*
X-95446Y-50969D01*
X-93401Y-54795D01*
X-90649Y-58149D01*
X-87295Y-60901D01*
X-83469Y-62946D01*
X-79317Y-64205D01*
X-75000Y-64630D01*
X-70683Y-64205D01*
X-66531Y-62946D01*
X-62705Y-60901D01*
X-59351Y-58149D01*
X-56599Y-54795D01*
X-54554Y-50969D01*
X-53295Y-46817D01*
X-52870Y-42500D01*
X-53295Y-38182D01*
X-54554Y-34031D01*
X-56599Y-30205D01*
X-59351Y-26851D01*
X-62705Y-24099D01*
X-66531Y-22054D01*
X-68817Y-21360D01*
X-68629Y-20090D01*
X419910Y-20089D01*
X419911Y-214015D01*
D02*
G37*
%LPC*%
G36*
X98500Y204965D02*
X96696Y204606D01*
X95166Y203584D01*
X94149Y202062D01*
X94111Y202054D01*
X92889D01*
X92851Y202062D01*
X91834Y203584D01*
X90304Y204606D01*
X88500Y204965D01*
X86696Y204606D01*
X85166Y203584D01*
X84144Y202054D01*
X83785Y200250D01*
X84144Y198446D01*
X84652Y197686D01*
X84420Y196003D01*
X84166Y195834D01*
X83144Y194304D01*
X82785Y192500D01*
X83144Y190696D01*
X84166Y189166D01*
X85696Y188144D01*
X87500Y187785D01*
X89304Y188144D01*
X90834Y189166D01*
X91856Y190696D01*
X92215Y192500D01*
X91856Y194304D01*
X91348Y195064D01*
X91580Y196747D01*
X91834Y196916D01*
X92851Y198438D01*
X92889Y198446D01*
X94111D01*
X94149Y198438D01*
X95166Y196916D01*
X96696Y195894D01*
X98500Y195535D01*
X100304Y195894D01*
X101834Y196916D01*
X102856Y198446D01*
X103215Y200250D01*
X102856Y202054D01*
X101834Y203584D01*
X100304Y204606D01*
X98500Y204965D01*
D02*
G37*
G36*
X292500Y211165D02*
X290696Y210806D01*
X289166Y209784D01*
X288144Y208254D01*
X287785Y206450D01*
X288144Y204646D01*
X289166Y203116D01*
X290696Y202094D01*
X292500Y201735D01*
X294304Y202094D01*
X295834Y203116D01*
X296856Y204646D01*
X297215Y206450D01*
X296856Y208254D01*
X295834Y209784D01*
X294304Y210806D01*
X292500Y211165D01*
D02*
G37*
G36*
X111500Y204965D02*
X109696Y204606D01*
X108166Y203584D01*
X107144Y202054D01*
X106785Y200250D01*
X107144Y198446D01*
X108166Y196916D01*
X109696Y195894D01*
X111500Y195535D01*
X113304Y195894D01*
X114834Y196916D01*
X115856Y198446D01*
X116215Y200250D01*
X115856Y202054D01*
X114834Y203584D01*
X113304Y204606D01*
X111500Y204965D01*
D02*
G37*
G36*
X-130000Y202642D02*
X-132351Y202174D01*
X-134343Y200843D01*
X-135674Y198850D01*
X-136142Y196500D01*
X-135674Y194149D01*
X-134343Y192157D01*
X-132351Y190826D01*
X-130000Y190358D01*
X-127650Y190826D01*
X-125657Y192157D01*
X-124326Y194149D01*
X-123858Y196500D01*
X-124326Y198850D01*
X-125657Y200843D01*
X-127650Y202174D01*
X-130000Y202642D01*
D02*
G37*
G36*
X-160000D02*
X-162350Y202174D01*
X-164343Y200843D01*
X-165674Y198850D01*
X-166142Y196500D01*
X-165674Y194149D01*
X-164343Y192157D01*
X-162350Y190826D01*
X-160000Y190358D01*
X-157650Y190826D01*
X-155657Y192157D01*
X-154326Y194149D01*
X-153858Y196500D01*
X-154326Y198850D01*
X-155657Y200843D01*
X-157650Y202174D01*
X-160000Y202642D01*
D02*
G37*
G36*
X337500Y197215D02*
X335696Y196856D01*
X334166Y195834D01*
X333144Y194304D01*
X332785Y192500D01*
X333144Y190696D01*
X334166Y189166D01*
X335696Y188144D01*
X337500Y187785D01*
X339304Y188144D01*
X340834Y189166D01*
X341856Y190696D01*
X342215Y192500D01*
X341856Y194304D01*
X340834Y195834D01*
X339304Y196856D01*
X337500Y197215D01*
D02*
G37*
G36*
X312500D02*
X310696Y196856D01*
X309166Y195834D01*
X308144Y194304D01*
X307785Y192500D01*
X308144Y190696D01*
X309166Y189166D01*
X310696Y188144D01*
X312500Y187785D01*
X314304Y188144D01*
X315834Y189166D01*
X316856Y190696D01*
X317215Y192500D01*
X316856Y194304D01*
X315834Y195834D01*
X314304Y196856D01*
X312500Y197215D01*
D02*
G37*
G36*
X287500D02*
X285696Y196856D01*
X284166Y195834D01*
X283144Y194304D01*
X282785Y192500D01*
X283144Y190696D01*
X284166Y189166D01*
X285696Y188144D01*
X287500Y187785D01*
X289304Y188144D01*
X290834Y189166D01*
X291856Y190696D01*
X292215Y192500D01*
X291856Y194304D01*
X290834Y195834D01*
X289304Y196856D01*
X287500Y197215D01*
D02*
G37*
G36*
X262500D02*
X260696Y196856D01*
X259166Y195834D01*
X258144Y194304D01*
X257785Y192500D01*
X258144Y190696D01*
X259166Y189166D01*
X260696Y188144D01*
X262500Y187785D01*
X264304Y188144D01*
X265834Y189166D01*
X266856Y190696D01*
X267215Y192500D01*
X266856Y194304D01*
X265834Y195834D01*
X264304Y196856D01*
X262500Y197215D01*
D02*
G37*
G36*
X237500D02*
X235696Y196856D01*
X234166Y195834D01*
X233144Y194304D01*
X232785Y192500D01*
X233144Y190696D01*
X234166Y189166D01*
X235696Y188144D01*
X237500Y187785D01*
X239304Y188144D01*
X240834Y189166D01*
X241856Y190696D01*
X242215Y192500D01*
X241856Y194304D01*
X240834Y195834D01*
X239304Y196856D01*
X237500Y197215D01*
D02*
G37*
G36*
X212500D02*
X210696Y196856D01*
X209166Y195834D01*
X208144Y194304D01*
X207785Y192500D01*
X208144Y190696D01*
X209166Y189166D01*
X210696Y188144D01*
X212500Y187785D01*
X214304Y188144D01*
X215834Y189166D01*
X216856Y190696D01*
X217215Y192500D01*
X216856Y194304D01*
X215834Y195834D01*
X214304Y196856D01*
X212500Y197215D01*
D02*
G37*
G36*
X187500D02*
X185696Y196856D01*
X184166Y195834D01*
X183144Y194304D01*
X182785Y192500D01*
X183144Y190696D01*
X184166Y189166D01*
X185696Y188144D01*
X187500Y187785D01*
X189304Y188144D01*
X190834Y189166D01*
X191856Y190696D01*
X192215Y192500D01*
X191856Y194304D01*
X190834Y195834D01*
X189304Y196856D01*
X187500Y197215D01*
D02*
G37*
G36*
X162500D02*
X160696Y196856D01*
X159166Y195834D01*
X158144Y194304D01*
X157785Y192500D01*
X158144Y190696D01*
X159166Y189166D01*
X160696Y188144D01*
X162500Y187785D01*
X164304Y188144D01*
X165834Y189166D01*
X166856Y190696D01*
X167215Y192500D01*
X166856Y194304D01*
X165834Y195834D01*
X164304Y196856D01*
X162500Y197215D01*
D02*
G37*
G36*
X137500D02*
X135696Y196856D01*
X134166Y195834D01*
X133144Y194304D01*
X132785Y192500D01*
X133144Y190696D01*
X134166Y189166D01*
X135696Y188144D01*
X137500Y187785D01*
X139304Y188144D01*
X140834Y189166D01*
X141856Y190696D01*
X142215Y192500D01*
X141856Y194304D01*
X140834Y195834D01*
X139304Y196856D01*
X137500Y197215D01*
D02*
G37*
G36*
X62500D02*
X60696Y196856D01*
X59166Y195834D01*
X58144Y194304D01*
X57785Y192500D01*
X58144Y190696D01*
X59166Y189166D01*
X60696Y188144D01*
X62500Y187785D01*
X64304Y188144D01*
X65834Y189166D01*
X66856Y190696D01*
X67215Y192500D01*
X66856Y194304D01*
X65834Y195834D01*
X64304Y196856D01*
X62500Y197215D01*
D02*
G37*
G36*
X37500D02*
X35696Y196856D01*
X34166Y195834D01*
X33144Y194304D01*
X32785Y192500D01*
X33144Y190696D01*
X34166Y189166D01*
X35696Y188144D01*
X37500Y187785D01*
X39304Y188144D01*
X40834Y189166D01*
X41856Y190696D01*
X42215Y192500D01*
X41856Y194304D01*
X40834Y195834D01*
X39304Y196856D01*
X37500Y197215D01*
D02*
G37*
G36*
X12500D02*
X10696Y196856D01*
X9166Y195834D01*
X8144Y194304D01*
X7785Y192500D01*
X8144Y190696D01*
X9166Y189166D01*
X10696Y188144D01*
X12500Y187785D01*
X14304Y188144D01*
X15834Y189166D01*
X16856Y190696D01*
X17215Y192500D01*
X16856Y194304D01*
X15834Y195834D01*
X14304Y196856D01*
X12500Y197215D01*
D02*
G37*
G36*
X-12500D02*
X-14304Y196856D01*
X-15834Y195834D01*
X-16856Y194304D01*
X-17215Y192500D01*
X-16856Y190696D01*
X-15834Y189166D01*
X-14304Y188144D01*
X-12500Y187785D01*
X-10696Y188144D01*
X-9166Y189166D01*
X-8144Y190696D01*
X-7785Y192500D01*
X-8144Y194304D01*
X-9166Y195834D01*
X-10696Y196856D01*
X-12500Y197215D01*
D02*
G37*
G36*
X-212500D02*
X-214304Y196856D01*
X-215834Y195834D01*
X-216856Y194304D01*
X-217215Y192500D01*
X-216856Y190696D01*
X-215834Y189166D01*
X-214304Y188144D01*
X-212500Y187785D01*
X-210696Y188144D01*
X-209166Y189166D01*
X-208144Y190696D01*
X-207785Y192500D01*
X-208144Y194304D01*
X-209166Y195834D01*
X-210696Y196856D01*
X-212500Y197215D01*
D02*
G37*
G36*
X-32750Y183715D02*
X-34554Y183356D01*
X-36084Y182334D01*
X-37106Y180804D01*
X-37465Y179000D01*
X-37106Y177196D01*
X-36084Y175666D01*
X-34554Y174644D01*
X-32750Y174285D01*
X-30946Y174644D01*
X-29416Y175666D01*
X-28394Y177196D01*
X-28035Y179000D01*
X-28394Y180804D01*
X-29416Y182334D01*
X-30946Y183356D01*
X-32750Y183715D01*
D02*
G37*
G36*
X-300120Y182921D02*
X-301924Y182562D01*
X-303454Y181540D01*
X-304476Y180010D01*
X-304835Y178206D01*
X-304476Y176402D01*
X-303454Y174872D01*
X-301924Y173850D01*
X-300120Y173491D01*
X-298316Y173850D01*
X-296786Y174872D01*
X-295764Y176402D01*
X-295405Y178206D01*
X-295764Y180010D01*
X-296786Y181540D01*
X-298316Y182562D01*
X-300120Y182921D01*
D02*
G37*
G36*
X-227024Y182215D02*
X-228828Y181856D01*
X-230358Y180834D01*
X-231380Y179304D01*
X-231739Y177500D01*
X-231380Y175696D01*
X-230358Y174166D01*
X-228828Y173144D01*
X-227024Y172785D01*
X-225220Y173144D01*
X-223690Y174166D01*
X-222668Y175696D01*
X-222309Y177500D01*
X-222668Y179304D01*
X-223690Y180834D01*
X-225220Y181856D01*
X-227024Y182215D01*
D02*
G37*
G36*
X325000Y172215D02*
X323196Y171856D01*
X321666Y170834D01*
X320644Y169304D01*
X320285Y167500D01*
X320644Y165696D01*
X321666Y164166D01*
X323196Y163144D01*
X325000Y162785D01*
X326804Y163144D01*
X328334Y164166D01*
X329356Y165696D01*
X329715Y167500D01*
X329356Y169304D01*
X328334Y170834D01*
X326804Y171856D01*
X325000Y172215D01*
D02*
G37*
G36*
X-175000D02*
X-176804Y171856D01*
X-178334Y170834D01*
X-179356Y169304D01*
X-179715Y167500D01*
X-179356Y165696D01*
X-178334Y164166D01*
X-176804Y163144D01*
X-175000Y162785D01*
X-173196Y163144D01*
X-171666Y164166D01*
X-170644Y165696D01*
X-170285Y167500D01*
X-170644Y169304D01*
X-171666Y170834D01*
X-173196Y171856D01*
X-175000Y172215D01*
D02*
G37*
G36*
X-60000Y168876D02*
X-61804Y168517D01*
X-63334Y167495D01*
X-64356Y165965D01*
X-64715Y164161D01*
X-64356Y162357D01*
X-63334Y160827D01*
X-61804Y159805D01*
X-60000Y159446D01*
X-58196Y159805D01*
X-56666Y160827D01*
X-55644Y162357D01*
X-55285Y164161D01*
X-55644Y165965D01*
X-56666Y167495D01*
X-58196Y168517D01*
X-60000Y168876D01*
D02*
G37*
G36*
X-394500Y168289D02*
X-403500D01*
X-405464Y168030D01*
X-407295Y167272D01*
X-408866Y166066D01*
X-410072Y164494D01*
X-410830Y162664D01*
X-411089Y160700D01*
X-410830Y158736D01*
X-410072Y156905D01*
X-408866Y155334D01*
X-407295Y154128D01*
X-405464Y153370D01*
X-403500Y153111D01*
X-394500D01*
X-392536Y153370D01*
X-390705Y154128D01*
X-389134Y155334D01*
X-387928Y156905D01*
X-387170Y158736D01*
X-386911Y160700D01*
X-387170Y162664D01*
X-387928Y164494D01*
X-389134Y166066D01*
X-390705Y167272D01*
X-392536Y168030D01*
X-394500Y168289D01*
D02*
G37*
G36*
X155302Y161077D02*
X153498Y160718D01*
X151968Y159696D01*
X150946Y158166D01*
X150587Y156362D01*
X150946Y154558D01*
X151968Y153028D01*
X153498Y152006D01*
X155302Y151647D01*
X157106Y152006D01*
X158636Y153028D01*
X159658Y154558D01*
X160017Y156362D01*
X159658Y158166D01*
X158636Y159696D01*
X157106Y160718D01*
X155302Y161077D01*
D02*
G37*
G36*
X-21250Y160965D02*
X-23054Y160606D01*
X-24584Y159584D01*
X-25606Y158054D01*
X-25965Y156250D01*
X-25606Y154446D01*
X-24584Y152916D01*
X-23054Y151894D01*
X-21250Y151535D01*
X-19446Y151894D01*
X-17916Y152916D01*
X-16894Y154446D01*
X-16535Y156250D01*
X-16894Y158054D01*
X-17916Y159584D01*
X-19446Y160606D01*
X-21250Y160965D01*
D02*
G37*
G36*
X197400Y160315D02*
X195596Y159956D01*
X194066Y158934D01*
X193044Y157404D01*
X192685Y155600D01*
X193044Y153796D01*
X194066Y152266D01*
X195596Y151244D01*
X197400Y150885D01*
X199204Y151244D01*
X200734Y152266D01*
X201756Y153796D01*
X202115Y155600D01*
X201756Y157404D01*
X200734Y158934D01*
X199204Y159956D01*
X197400Y160315D01*
D02*
G37*
G36*
X112600D02*
X110796Y159956D01*
X109266Y158934D01*
X108244Y157404D01*
X107885Y155600D01*
X108244Y153796D01*
X109266Y152266D01*
X110796Y151244D01*
X112600Y150885D01*
X114404Y151244D01*
X115934Y152266D01*
X116956Y153796D01*
X117315Y155600D01*
X116956Y157404D01*
X115934Y158934D01*
X114404Y159956D01*
X112600Y160315D01*
D02*
G37*
G36*
X-213852Y159715D02*
X-215656Y159356D01*
X-217186Y158334D01*
X-218208Y156804D01*
X-218567Y155000D01*
X-218208Y153196D01*
X-217186Y151666D01*
X-215656Y150644D01*
X-213852Y150285D01*
X-212048Y150644D01*
X-210518Y151666D01*
X-209496Y153196D01*
X-209137Y155000D01*
X-209496Y156804D01*
X-210518Y158334D01*
X-212048Y159356D01*
X-213852Y159715D01*
D02*
G37*
G36*
X-152546Y168697D02*
X-154350Y168338D01*
X-155880Y167316D01*
X-156902Y165786D01*
X-157261Y163982D01*
X-156902Y162178D01*
X-155880Y160648D01*
X-154350Y159626D01*
X-152546Y159267D01*
X-152067Y159363D01*
X-151572Y158166D01*
X-152324Y157664D01*
X-153346Y156134D01*
X-153705Y154330D01*
X-153346Y152526D01*
X-152324Y150996D01*
X-150794Y149974D01*
X-148990Y149615D01*
X-147186Y149974D01*
X-145656Y150996D01*
X-144634Y152526D01*
X-144275Y154330D01*
X-144634Y156134D01*
X-145656Y157664D01*
X-147186Y158686D01*
X-148990Y159045D01*
X-149469Y158949D01*
X-149965Y160146D01*
X-149212Y160648D01*
X-148190Y162178D01*
X-147831Y163982D01*
X-148190Y165786D01*
X-149212Y167316D01*
X-150742Y168338D01*
X-152546Y168697D01*
D02*
G37*
G36*
X-321710Y157013D02*
X-323514Y156654D01*
X-325044Y155632D01*
X-326066Y154102D01*
X-326425Y152298D01*
X-326066Y150494D01*
X-325044Y148964D01*
X-323514Y147942D01*
X-321710Y147583D01*
X-319906Y147942D01*
X-318376Y148964D01*
X-317354Y150494D01*
X-316995Y152298D01*
X-317354Y154102D01*
X-318376Y155632D01*
X-319906Y156654D01*
X-321710Y157013D01*
D02*
G37*
G36*
X-278530Y148885D02*
X-280334Y148526D01*
X-281864Y147504D01*
X-282886Y145974D01*
X-282963Y145588D01*
X-284257D01*
X-284334Y145974D01*
X-285356Y147504D01*
X-286886Y148526D01*
X-288690Y148885D01*
X-290494Y148526D01*
X-292024Y147504D01*
X-293046Y145974D01*
X-293405Y144170D01*
X-293046Y142366D01*
X-292024Y140836D01*
X-290494Y139814D01*
X-288690Y139455D01*
X-288634Y139467D01*
X-287928Y138411D01*
X-287966Y138354D01*
X-288325Y136550D01*
X-287966Y134746D01*
X-286944Y133216D01*
X-285414Y132194D01*
X-283610Y131835D01*
X-281806Y132194D01*
X-280276Y133216D01*
X-279254Y134746D01*
X-278895Y136550D01*
X-279254Y138354D01*
X-279292Y138411D01*
X-278586Y139467D01*
X-278530Y139455D01*
X-276726Y139814D01*
X-275196Y140836D01*
X-274174Y142366D01*
X-273815Y144170D01*
X-274174Y145974D01*
X-275196Y147504D01*
X-276726Y148526D01*
X-278530Y148885D01*
D02*
G37*
G36*
X-362200Y151267D02*
X-364063Y150897D01*
X-365642Y149842D01*
X-366697Y148263D01*
X-367067Y146400D01*
X-366697Y144537D01*
X-365642Y142958D01*
X-364063Y141903D01*
X-362200Y141532D01*
X-360337Y141903D01*
X-358758Y142958D01*
X-357703Y144537D01*
X-357332Y146400D01*
X-357703Y148263D01*
X-358758Y149842D01*
X-360337Y150897D01*
X-362200Y151267D01*
D02*
G37*
G36*
X207600Y147615D02*
X205796Y147256D01*
X204266Y146234D01*
X203244Y144704D01*
X202885Y142900D01*
X203244Y141096D01*
X204266Y139566D01*
X205796Y138544D01*
X207600Y138185D01*
X209404Y138544D01*
X210934Y139566D01*
X211956Y141096D01*
X212315Y142900D01*
X211956Y144704D01*
X210934Y146234D01*
X209404Y147256D01*
X207600Y147615D01*
D02*
G37*
G36*
X112600D02*
X110796Y147256D01*
X109266Y146234D01*
X108244Y144704D01*
X107885Y142900D01*
X108244Y141096D01*
X109266Y139566D01*
X110796Y138544D01*
X112600Y138185D01*
X114404Y138544D01*
X115934Y139566D01*
X116956Y141096D01*
X117315Y142900D01*
X116956Y144704D01*
X115934Y146234D01*
X114404Y147256D01*
X112600Y147615D01*
D02*
G37*
G36*
X-249320D02*
X-251124Y147256D01*
X-252654Y146234D01*
X-253676Y144704D01*
X-254035Y142900D01*
X-253676Y141096D01*
X-252654Y139566D01*
X-251124Y138544D01*
X-249320Y138185D01*
X-247516Y138544D01*
X-245986Y139566D01*
X-244964Y141096D01*
X-244605Y142900D01*
X-244964Y144704D01*
X-245986Y146234D01*
X-247516Y147256D01*
X-249320Y147615D01*
D02*
G37*
G36*
X46250Y147515D02*
X44446Y147156D01*
X42916Y146134D01*
X41894Y144604D01*
X41535Y142800D01*
X41894Y140996D01*
X42916Y139466D01*
X44446Y138444D01*
X46250Y138085D01*
X48054Y138444D01*
X49584Y139466D01*
X50606Y140996D01*
X50965Y142800D01*
X50606Y144604D01*
X49584Y146134D01*
X48054Y147156D01*
X46250Y147515D01*
D02*
G37*
G36*
X337500Y147215D02*
X335696Y146856D01*
X334166Y145834D01*
X333144Y144304D01*
X332785Y142500D01*
X333144Y140696D01*
X334166Y139166D01*
X335696Y138144D01*
X337500Y137785D01*
X339304Y138144D01*
X340834Y139166D01*
X341856Y140696D01*
X342215Y142500D01*
X341856Y144304D01*
X340834Y145834D01*
X339304Y146856D01*
X337500Y147215D01*
D02*
G37*
G36*
X-62500D02*
X-64304Y146856D01*
X-65834Y145834D01*
X-66856Y144304D01*
X-67215Y142500D01*
X-66856Y140696D01*
X-65834Y139166D01*
X-64304Y138144D01*
X-62500Y137785D01*
X-60696Y138144D01*
X-59166Y139166D01*
X-58144Y140696D01*
X-57785Y142500D01*
X-58144Y144304D01*
X-59166Y145834D01*
X-60696Y146856D01*
X-62500Y147215D01*
D02*
G37*
G36*
X-387500D02*
X-389304Y146856D01*
X-390834Y145834D01*
X-391856Y144304D01*
X-392215Y142500D01*
X-391856Y140696D01*
X-390834Y139166D01*
X-389304Y138144D01*
X-387500Y137785D01*
X-385696Y138144D01*
X-384166Y139166D01*
X-383144Y140696D01*
X-382785Y142500D01*
X-383144Y144304D01*
X-384166Y145834D01*
X-385696Y146856D01*
X-387500Y147215D01*
D02*
G37*
G36*
X-412500D02*
X-414304Y146856D01*
X-415834Y145834D01*
X-416856Y144304D01*
X-417215Y142500D01*
X-416856Y140696D01*
X-415834Y139166D01*
X-414304Y138144D01*
X-412500Y137785D01*
X-410696Y138144D01*
X-409166Y139166D01*
X-408144Y140696D01*
X-407785Y142500D01*
X-408144Y144304D01*
X-409166Y145834D01*
X-410696Y146856D01*
X-412500Y147215D01*
D02*
G37*
G36*
X-127290Y144965D02*
X-129094Y144606D01*
X-130624Y143584D01*
X-131646Y142054D01*
X-132005Y140250D01*
X-131646Y138446D01*
X-130624Y136916D01*
X-129094Y135894D01*
X-127290Y135535D01*
X-126568Y135679D01*
X-125549Y134587D01*
X-125765Y133502D01*
X-125652Y132934D01*
X-126732Y131854D01*
X-127290Y131965D01*
X-129094Y131606D01*
X-130624Y130584D01*
X-131646Y129054D01*
X-132005Y127250D01*
X-131646Y125446D01*
X-130624Y123916D01*
X-129094Y122894D01*
X-127290Y122535D01*
X-125486Y122894D01*
X-123956Y123916D01*
X-122934Y125446D01*
X-122576Y127250D01*
X-122689Y127818D01*
X-121608Y128898D01*
X-121050Y128787D01*
X-119246Y129146D01*
X-117716Y130168D01*
X-116694Y131698D01*
X-116335Y133502D01*
X-116694Y135306D01*
X-117716Y136836D01*
X-119246Y137858D01*
X-121050Y138217D01*
X-121772Y138073D01*
X-122791Y139165D01*
X-122576Y140250D01*
X-122934Y142054D01*
X-123956Y143584D01*
X-125486Y144606D01*
X-127290Y144965D01*
D02*
G37*
G36*
X-265830Y141265D02*
X-267634Y140906D01*
X-269164Y139884D01*
X-270186Y138354D01*
X-270545Y136550D01*
X-270186Y134746D01*
X-269164Y133216D01*
X-267634Y132194D01*
X-265830Y131835D01*
X-264026Y132194D01*
X-262496Y133216D01*
X-261474Y134746D01*
X-261115Y136550D01*
X-261474Y138354D01*
X-262496Y139884D01*
X-264026Y140906D01*
X-265830Y141265D01*
D02*
G37*
G36*
X-85998Y138979D02*
X-87802Y138620D01*
X-89332Y137598D01*
X-90354Y136068D01*
X-90713Y134264D01*
X-90354Y132460D01*
X-89332Y130930D01*
X-87802Y129908D01*
X-85998Y129549D01*
X-84194Y129908D01*
X-82664Y130930D01*
X-81642Y132460D01*
X-81283Y134264D01*
X-81642Y136068D01*
X-82664Y137598D01*
X-84194Y138620D01*
X-85998Y138979D01*
D02*
G37*
G36*
X292500Y134965D02*
X290696Y134606D01*
X289166Y133584D01*
X288144Y132054D01*
X287785Y130250D01*
X288144Y128446D01*
X289166Y126916D01*
X290696Y125894D01*
X292500Y125535D01*
X294304Y125894D01*
X295834Y126916D01*
X296856Y128446D01*
X297215Y130250D01*
X296856Y132054D01*
X295834Y133584D01*
X294304Y134606D01*
X292500Y134965D01*
D02*
G37*
G36*
X207600Y134915D02*
X205796Y134556D01*
X204266Y133534D01*
X203244Y132004D01*
X202885Y130200D01*
X203244Y128396D01*
X204266Y126866D01*
X205796Y125844D01*
X207600Y125485D01*
X209404Y125844D01*
X210934Y126866D01*
X211956Y128396D01*
X212315Y130200D01*
X211956Y132004D01*
X210934Y133534D01*
X209404Y134556D01*
X207600Y134915D01*
D02*
G37*
G36*
X112600D02*
X110796Y134556D01*
X109266Y133534D01*
X108244Y132004D01*
X107885Y130200D01*
X108244Y128396D01*
X109266Y126866D01*
X110796Y125844D01*
X112600Y125485D01*
X114404Y125844D01*
X115934Y126866D01*
X116956Y128396D01*
X117315Y130200D01*
X116956Y132004D01*
X115934Y133534D01*
X114404Y134556D01*
X112600Y134915D01*
D02*
G37*
G36*
X-292500D02*
X-294304Y134556D01*
X-295834Y133534D01*
X-296856Y132004D01*
X-297215Y130200D01*
X-296856Y128396D01*
X-295834Y126866D01*
X-294304Y125844D01*
X-292500Y125485D01*
X-290696Y125844D01*
X-289166Y126866D01*
X-288144Y128396D01*
X-287785Y130200D01*
X-288144Y132004D01*
X-289166Y133534D01*
X-290696Y134556D01*
X-292500Y134915D01*
D02*
G37*
G36*
X26270Y134153D02*
X24466Y133794D01*
X22936Y132772D01*
X21914Y131242D01*
X21555Y129438D01*
X21914Y127634D01*
X22936Y126104D01*
X24466Y125082D01*
X26270Y124723D01*
X28074Y125082D01*
X29604Y126104D01*
X30626Y127634D01*
X30985Y129438D01*
X30626Y131242D01*
X29604Y132772D01*
X28074Y133794D01*
X26270Y134153D01*
D02*
G37*
G36*
X300000Y122215D02*
X298196Y121856D01*
X296666Y120834D01*
X295322Y121109D01*
X294204Y121856D01*
X292400Y122215D01*
X290596Y121856D01*
X289066Y120834D01*
X288044Y119304D01*
X287685Y117500D01*
X288044Y115696D01*
X289066Y114166D01*
X290596Y113144D01*
X292400Y112785D01*
X294204Y113144D01*
X295734Y114166D01*
X297078Y113891D01*
X298196Y113144D01*
X300000Y112785D01*
X301804Y113144D01*
X303334Y114166D01*
X304356Y115696D01*
X304715Y117500D01*
X304356Y119304D01*
X303334Y120834D01*
X301804Y121856D01*
X300000Y122215D01*
D02*
G37*
G36*
X-263290Y128565D02*
X-265094Y128206D01*
X-266624Y127184D01*
X-267646Y125654D01*
X-268005Y123850D01*
X-267646Y122046D01*
X-266624Y120516D01*
X-265094Y119494D01*
X-263290Y119135D01*
X-261486Y119494D01*
X-259956Y120516D01*
X-258934Y122046D01*
X-258575Y123850D01*
X-258934Y125654D01*
X-259956Y127184D01*
X-261486Y128206D01*
X-263290Y128565D01*
D02*
G37*
G36*
X207600Y122215D02*
X205796Y121856D01*
X204266Y120834D01*
X203244Y119304D01*
X203147Y118817D01*
X201853D01*
X201756Y119304D01*
X200734Y120834D01*
X199204Y121856D01*
X197400Y122215D01*
X195596Y121856D01*
X194066Y120834D01*
X193044Y119304D01*
X192685Y117500D01*
X193044Y115696D01*
X194066Y114166D01*
X195596Y113144D01*
X197400Y112785D01*
X199204Y113144D01*
X200734Y114166D01*
X201756Y115696D01*
X201853Y116183D01*
X203147D01*
X203244Y115696D01*
X204266Y114166D01*
X205796Y113144D01*
X207600Y112785D01*
X209404Y113144D01*
X210934Y114166D01*
X211956Y115696D01*
X212315Y117500D01*
X211956Y119304D01*
X210934Y120834D01*
X209404Y121856D01*
X207600Y122215D01*
D02*
G37*
G36*
X-246740Y124714D02*
X-248544Y124356D01*
X-250074Y123334D01*
X-251096Y121804D01*
X-251455Y120000D01*
X-251096Y118196D01*
X-250074Y116666D01*
X-248544Y115644D01*
X-246740Y115285D01*
X-244936Y115644D01*
X-243406Y116666D01*
X-242384Y118196D01*
X-242025Y120000D01*
X-242384Y121804D01*
X-243406Y123334D01*
X-244936Y124356D01*
X-246740Y124714D01*
D02*
G37*
G36*
X250000Y122215D02*
X248196Y121856D01*
X246666Y120834D01*
X245644Y119304D01*
X245285Y117500D01*
X245644Y115696D01*
X246666Y114166D01*
X248196Y113144D01*
X250000Y112785D01*
X251804Y113144D01*
X253334Y114166D01*
X254356Y115696D01*
X254715Y117500D01*
X254356Y119304D01*
X253334Y120834D01*
X251804Y121856D01*
X250000Y122215D01*
D02*
G37*
G36*
X-76600Y131867D02*
X-78404Y131508D01*
X-79934Y130486D01*
X-80956Y128956D01*
X-81315Y127152D01*
X-80956Y125348D01*
X-79934Y123818D01*
X-78404Y122796D01*
X-77848Y122686D01*
X-77580Y121337D01*
X-78334Y120834D01*
X-79356Y119304D01*
X-79715Y117500D01*
X-79356Y115696D01*
X-78334Y114166D01*
X-76804Y113144D01*
X-75000Y112785D01*
X-73196Y113144D01*
X-71666Y114166D01*
X-70644Y115696D01*
X-70285Y117500D01*
X-70644Y119304D01*
X-71666Y120834D01*
X-73196Y121856D01*
X-73752Y121966D01*
X-74020Y123315D01*
X-73266Y123818D01*
X-72244Y125348D01*
X-71885Y127152D01*
X-72244Y128956D01*
X-73266Y130486D01*
X-74796Y131508D01*
X-76600Y131867D01*
D02*
G37*
G36*
X-150000Y122215D02*
X-151804Y121856D01*
X-153334Y120834D01*
X-154356Y119304D01*
X-154715Y117500D01*
X-154356Y115696D01*
X-153334Y114166D01*
X-151804Y113144D01*
X-150000Y112785D01*
X-148196Y113144D01*
X-146666Y114166D01*
X-145644Y115696D01*
X-145285Y117500D01*
X-145644Y119304D01*
X-146666Y120834D01*
X-148196Y121856D01*
X-150000Y122215D01*
D02*
G37*
G36*
X-175000D02*
X-176804Y121856D01*
X-178334Y120834D01*
X-179356Y119304D01*
X-179715Y117500D01*
X-179356Y115696D01*
X-178334Y114166D01*
X-176804Y113144D01*
X-175000Y112785D01*
X-173196Y113144D01*
X-171666Y114166D01*
X-170644Y115696D01*
X-170285Y117500D01*
X-170644Y119304D01*
X-171666Y120834D01*
X-173196Y121856D01*
X-175000Y122215D01*
D02*
G37*
G36*
X-375000D02*
X-376804Y121856D01*
X-378334Y120834D01*
X-379356Y119304D01*
X-379715Y117500D01*
X-379356Y115696D01*
X-378334Y114166D01*
X-376804Y113144D01*
X-375000Y112785D01*
X-373196Y113144D01*
X-371666Y114166D01*
X-370644Y115696D01*
X-370285Y117500D01*
X-370644Y119304D01*
X-371666Y120834D01*
X-373196Y121856D01*
X-375000Y122215D01*
D02*
G37*
G36*
X112600Y122215D02*
X110796Y121856D01*
X109266Y120834D01*
X108244Y119304D01*
X107885Y117500D01*
X108244Y115696D01*
X109266Y114166D01*
X110796Y113144D01*
X112600Y112785D01*
X114404Y113144D01*
X115934Y114166D01*
X116956Y115696D01*
X117315Y117500D01*
X116956Y119304D01*
X115934Y120834D01*
X114404Y121856D01*
X112600Y122215D01*
D02*
G37*
G36*
X-200000Y122215D02*
X-201804Y121856D01*
X-203334Y120834D01*
X-204356Y119304D01*
X-204715Y117500D01*
X-204356Y115696D01*
X-203334Y114166D01*
X-201804Y113144D01*
X-200000Y112785D01*
X-198196Y113144D01*
X-196666Y114166D01*
X-195644Y115696D01*
X-195462Y116610D01*
X-194168D01*
X-193986Y115696D01*
X-192964Y114166D01*
X-191434Y113144D01*
X-189630Y112785D01*
X-187826Y113144D01*
X-186296Y114166D01*
X-185274Y115696D01*
X-184915Y117500D01*
X-185274Y119304D01*
X-186296Y120834D01*
X-187826Y121856D01*
X-189630Y122215D01*
X-191434Y121856D01*
X-192964Y120834D01*
X-193986Y119304D01*
X-194167Y118390D01*
X-195462D01*
X-195644Y119304D01*
X-196666Y120834D01*
X-198196Y121856D01*
X-200000Y122215D01*
D02*
G37*
G36*
X-362350Y119715D02*
X-364154Y119356D01*
X-365684Y118334D01*
X-366706Y116804D01*
X-367065Y115000D01*
X-366706Y113196D01*
X-365684Y111666D01*
X-364154Y110644D01*
X-362350Y110285D01*
X-360546Y110644D01*
X-359016Y111666D01*
X-357994Y113196D01*
X-357635Y115000D01*
X-357994Y116804D01*
X-359016Y118334D01*
X-360546Y119356D01*
X-362350Y119715D01*
D02*
G37*
G36*
X-281070Y119675D02*
X-282874Y119316D01*
X-284404Y118294D01*
X-285426Y116764D01*
X-285785Y114960D01*
X-285426Y113156D01*
X-284404Y111626D01*
X-282874Y110604D01*
X-281070Y110245D01*
X-279266Y110604D01*
X-277736Y111626D01*
X-276714Y113156D01*
X-276355Y114960D01*
X-276714Y116764D01*
X-277736Y118294D01*
X-279266Y119316D01*
X-281070Y119675D01*
D02*
G37*
G36*
X207600Y109515D02*
X205796Y109156D01*
X204266Y108134D01*
X203244Y106604D01*
X202885Y104800D01*
X203244Y102996D01*
X204266Y101466D01*
X205796Y100444D01*
X207600Y100085D01*
X209404Y100444D01*
X210934Y101466D01*
X211956Y102996D01*
X212315Y104800D01*
X211956Y106604D01*
X210934Y108134D01*
X209404Y109156D01*
X207600Y109515D01*
D02*
G37*
G36*
X112600D02*
X110796Y109156D01*
X109266Y108134D01*
X108244Y106604D01*
X107885Y104800D01*
X108244Y102996D01*
X109266Y101466D01*
X110796Y100444D01*
X112600Y100085D01*
X114404Y100444D01*
X115934Y101466D01*
X116956Y102996D01*
X117315Y104800D01*
X116956Y106604D01*
X115934Y108134D01*
X114404Y109156D01*
X112600Y109515D01*
D02*
G37*
G36*
X207600Y96815D02*
X205796Y96456D01*
X204266Y95434D01*
X203244Y93904D01*
X203147Y93417D01*
X201853D01*
X201756Y93904D01*
X200734Y95434D01*
X199204Y96456D01*
X197400Y96815D01*
X195596Y96456D01*
X194066Y95434D01*
X193044Y93904D01*
X192685Y92100D01*
X193044Y90296D01*
X194066Y88766D01*
X195596Y87744D01*
X197400Y87385D01*
X199204Y87744D01*
X200734Y88766D01*
X201756Y90296D01*
X201853Y90783D01*
X203147D01*
X203244Y90296D01*
X204266Y88766D01*
X205796Y87744D01*
X207600Y87385D01*
X209404Y87744D01*
X210934Y88766D01*
X211956Y90296D01*
X212315Y92100D01*
X211956Y93904D01*
X210934Y95434D01*
X209404Y96456D01*
X207600Y96815D01*
D02*
G37*
G36*
X337500Y97215D02*
X335696Y96856D01*
X334166Y95834D01*
X333144Y94304D01*
X332785Y92500D01*
X333144Y90696D01*
X334166Y89166D01*
X335696Y88144D01*
X337500Y87785D01*
X339304Y88144D01*
X340834Y89166D01*
X341856Y90696D01*
X342215Y92500D01*
X341856Y94304D01*
X340834Y95834D01*
X339304Y96856D01*
X337500Y97215D01*
D02*
G37*
G36*
X-62500D02*
X-64304Y96856D01*
X-65834Y95834D01*
X-66856Y94304D01*
X-67215Y92500D01*
X-66856Y90696D01*
X-65834Y89166D01*
X-64304Y88144D01*
X-62500Y87785D01*
X-60696Y88144D01*
X-59166Y89166D01*
X-58144Y90696D01*
X-57785Y92500D01*
X-58144Y94304D01*
X-59166Y95834D01*
X-60696Y96856D01*
X-62500Y97215D01*
D02*
G37*
G36*
X-87500D02*
X-89304Y96856D01*
X-90834Y95834D01*
X-91856Y94304D01*
X-92215Y92500D01*
X-91856Y90696D01*
X-90834Y89166D01*
X-89304Y88144D01*
X-87500Y87785D01*
X-85696Y88144D01*
X-84166Y89166D01*
X-83144Y90696D01*
X-82785Y92500D01*
X-83144Y94304D01*
X-84166Y95834D01*
X-85696Y96856D01*
X-87500Y97215D01*
D02*
G37*
G36*
X-162500D02*
X-164304Y96856D01*
X-165834Y95834D01*
X-166856Y94304D01*
X-167215Y92500D01*
X-166856Y90696D01*
X-165834Y89166D01*
X-164304Y88144D01*
X-162500Y87785D01*
X-160696Y88144D01*
X-159166Y89166D01*
X-158144Y90696D01*
X-157785Y92500D01*
X-158144Y94304D01*
X-159166Y95834D01*
X-160696Y96856D01*
X-162500Y97215D01*
D02*
G37*
G36*
X-212500D02*
X-214304Y96856D01*
X-215834Y95834D01*
X-216856Y94304D01*
X-217215Y92500D01*
X-216856Y90696D01*
X-215834Y89166D01*
X-214304Y88144D01*
X-212500Y87785D01*
X-210696Y88144D01*
X-209166Y89166D01*
X-208144Y90696D01*
X-207785Y92500D01*
X-208144Y94304D01*
X-209166Y95834D01*
X-210696Y96856D01*
X-212500Y97215D01*
D02*
G37*
G36*
X-387500D02*
X-389304Y96856D01*
X-390834Y95834D01*
X-391856Y94304D01*
X-392215Y92500D01*
X-391856Y90696D01*
X-390834Y89166D01*
X-389304Y88144D01*
X-387500Y87785D01*
X-385696Y88144D01*
X-384166Y89166D01*
X-383144Y90696D01*
X-382785Y92500D01*
X-383144Y94304D01*
X-384166Y95834D01*
X-385696Y96856D01*
X-387500Y97215D01*
D02*
G37*
G36*
X-412500D02*
X-414304Y96856D01*
X-415834Y95834D01*
X-416856Y94304D01*
X-417215Y92500D01*
X-416856Y90696D01*
X-415834Y89166D01*
X-414304Y88144D01*
X-412500Y87785D01*
X-410696Y88144D01*
X-409166Y89166D01*
X-408144Y90696D01*
X-407785Y92500D01*
X-408144Y94304D01*
X-409166Y95834D01*
X-410696Y96856D01*
X-412500Y97215D01*
D02*
G37*
G36*
X33750Y96915D02*
X31946Y96556D01*
X30416Y95534D01*
X29394Y94004D01*
X29035Y92200D01*
X29394Y90396D01*
X30416Y88866D01*
X31946Y87844D01*
X33750Y87485D01*
X35554Y87844D01*
X37084Y88866D01*
X38106Y90396D01*
X38465Y92200D01*
X38106Y94004D01*
X37084Y95534D01*
X35554Y96556D01*
X33750Y96915D01*
D02*
G37*
G36*
X292400Y96815D02*
X290596Y96456D01*
X289066Y95434D01*
X288044Y93904D01*
X287685Y92100D01*
X288044Y90296D01*
X289066Y88766D01*
X290596Y87744D01*
X292400Y87385D01*
X294204Y87744D01*
X295734Y88766D01*
X296756Y90296D01*
X297115Y92100D01*
X296756Y93904D01*
X295734Y95434D01*
X294204Y96456D01*
X292400Y96815D01*
D02*
G37*
G36*
X112600D02*
X110796Y96456D01*
X109266Y95434D01*
X108244Y93904D01*
X107885Y92100D01*
X108244Y90296D01*
X109266Y88766D01*
X110796Y87744D01*
X112600Y87385D01*
X114404Y87744D01*
X115934Y88766D01*
X116956Y90296D01*
X117315Y92100D01*
X116956Y93904D01*
X115934Y95434D01*
X114404Y96456D01*
X112600Y96815D01*
D02*
G37*
G36*
X46250Y96715D02*
X44446Y96356D01*
X42916Y95334D01*
X41894Y93804D01*
X41535Y92000D01*
X41894Y90196D01*
X42916Y88666D01*
X44446Y87644D01*
X46250Y87285D01*
X48054Y87644D01*
X49584Y88666D01*
X50606Y90196D01*
X50965Y92000D01*
X50606Y93804D01*
X49584Y95334D01*
X48054Y96356D01*
X46250Y96715D01*
D02*
G37*
G36*
X-257194Y94529D02*
X-258998Y94170D01*
X-260528Y93148D01*
X-261550Y91618D01*
X-261909Y89814D01*
X-261550Y88010D01*
X-260528Y86480D01*
X-258998Y85458D01*
X-257194Y85099D01*
X-255390Y85458D01*
X-253860Y86480D01*
X-252838Y88010D01*
X-252479Y89814D01*
X-252838Y91618D01*
X-253860Y93148D01*
X-255390Y94170D01*
X-257194Y94529D01*
D02*
G37*
G36*
X-292500Y94275D02*
X-294304Y93916D01*
X-295834Y92894D01*
X-296856Y91364D01*
X-297215Y89560D01*
X-296856Y87756D01*
X-295834Y86226D01*
X-294304Y85204D01*
X-292500Y84845D01*
X-290696Y85204D01*
X-289166Y86226D01*
X-288144Y87756D01*
X-287785Y89560D01*
X-288144Y91364D01*
X-289166Y92894D01*
X-290696Y93916D01*
X-292500Y94275D01*
D02*
G37*
G36*
X-362200Y93468D02*
X-364063Y93097D01*
X-365642Y92042D01*
X-366697Y90463D01*
X-367067Y88600D01*
X-366697Y86737D01*
X-365642Y85158D01*
X-364063Y84103D01*
X-362200Y83733D01*
X-360337Y84103D01*
X-358758Y85158D01*
X-357703Y86737D01*
X-357332Y88600D01*
X-357703Y90463D01*
X-358758Y92042D01*
X-360337Y93097D01*
X-362200Y93468D01*
D02*
G37*
G36*
X-240176Y87925D02*
X-241980Y87566D01*
X-243510Y86544D01*
X-244532Y85014D01*
X-244891Y83210D01*
X-244532Y81406D01*
X-243510Y79876D01*
X-241980Y78854D01*
X-240176Y78495D01*
X-238372Y78854D01*
X-236842Y79876D01*
X-235820Y81406D01*
X-235461Y83210D01*
X-235820Y85014D01*
X-236842Y86544D01*
X-238372Y87566D01*
X-240176Y87925D01*
D02*
G37*
G36*
X-394500Y81889D02*
X-403500D01*
X-405464Y81630D01*
X-407295Y80872D01*
X-408866Y79666D01*
X-410072Y78095D01*
X-410830Y76264D01*
X-411089Y74300D01*
X-410830Y72336D01*
X-410072Y70505D01*
X-408866Y68934D01*
X-407295Y67728D01*
X-405464Y66970D01*
X-403500Y66711D01*
X-394500D01*
X-392536Y66970D01*
X-390705Y67728D01*
X-389134Y68934D01*
X-387928Y70505D01*
X-387170Y72336D01*
X-386911Y74300D01*
X-387170Y76264D01*
X-387928Y78095D01*
X-389134Y79666D01*
X-390705Y80872D01*
X-392536Y81630D01*
X-394500Y81889D01*
D02*
G37*
G36*
X-43580Y75225D02*
X-45384Y74866D01*
X-46914Y73844D01*
X-47936Y72314D01*
X-48295Y70510D01*
X-47936Y68706D01*
X-46914Y67176D01*
X-45384Y66154D01*
X-43580Y65795D01*
X-41776Y66154D01*
X-40246Y67176D01*
X-39224Y68706D01*
X-38865Y70510D01*
X-39224Y72314D01*
X-40246Y73844D01*
X-41776Y74866D01*
X-43580Y75225D01*
D02*
G37*
G36*
X105000Y74715D02*
X103196Y74356D01*
X101666Y73334D01*
X100644Y71804D01*
X100285Y70000D01*
X100644Y68196D01*
X101666Y66666D01*
X103196Y65644D01*
X105000Y65285D01*
X106804Y65644D01*
X108334Y66666D01*
X109356Y68196D01*
X109715Y70000D01*
X109356Y71804D01*
X108334Y73334D01*
X106804Y74356D01*
X105000Y74715D01*
D02*
G37*
G36*
X13062Y69891D02*
X11258Y69532D01*
X9728Y68510D01*
X8706Y66980D01*
X8347Y65176D01*
X8359Y65120D01*
X7303Y64414D01*
X7246Y64452D01*
X5442Y64811D01*
X3638Y64452D01*
X2108Y63430D01*
X1086Y61900D01*
X727Y60096D01*
X887Y59295D01*
X-256Y58531D01*
X-374Y58610D01*
X-2178Y58969D01*
X-3982Y58610D01*
X-5512Y57588D01*
X-6534Y56058D01*
X-6893Y54254D01*
X-6534Y52450D01*
X-5512Y50920D01*
X-3982Y49898D01*
X-2178Y49539D01*
X-374Y49898D01*
X1156Y50920D01*
X2178Y52450D01*
X2537Y54254D01*
X2377Y55055D01*
X3520Y55819D01*
X3638Y55740D01*
X5442Y55381D01*
X7246Y55740D01*
X8776Y56762D01*
X9798Y58292D01*
X10157Y60096D01*
X10145Y60152D01*
X11201Y60858D01*
X11258Y60820D01*
X13062Y60461D01*
X14866Y60820D01*
X16396Y61842D01*
X17418Y63372D01*
X17777Y65176D01*
X17418Y66980D01*
X16396Y68510D01*
X14866Y69532D01*
X13062Y69891D01*
D02*
G37*
G36*
X325000Y72215D02*
X323196Y71856D01*
X321666Y70834D01*
X320644Y69304D01*
X320285Y67500D01*
X320644Y65696D01*
X321666Y64166D01*
X323196Y63144D01*
X325000Y62785D01*
X326804Y63144D01*
X328334Y64166D01*
X329356Y65696D01*
X329715Y67500D01*
X329356Y69304D01*
X328334Y70834D01*
X326804Y71856D01*
X325000Y72215D01*
D02*
G37*
G36*
X250000D02*
X248196Y71856D01*
X246666Y70834D01*
X245644Y69304D01*
X245285Y67500D01*
X245644Y65696D01*
X246666Y64166D01*
X248196Y63144D01*
X250000Y62785D01*
X251804Y63144D01*
X253334Y64166D01*
X254356Y65696D01*
X254715Y67500D01*
X254356Y69304D01*
X253334Y70834D01*
X251804Y71856D01*
X250000Y72215D01*
D02*
G37*
G36*
X225000D02*
X223196Y71856D01*
X221666Y70834D01*
X220644Y69304D01*
X220285Y67500D01*
X220644Y65696D01*
X221666Y64166D01*
X223196Y63144D01*
X225000Y62785D01*
X226804Y63144D01*
X228334Y64166D01*
X229356Y65696D01*
X229715Y67500D01*
X229356Y69304D01*
X228334Y70834D01*
X226804Y71856D01*
X225000Y72215D01*
D02*
G37*
G36*
X200000D02*
X198196Y71856D01*
X196666Y70834D01*
X195644Y69304D01*
X195285Y67500D01*
X195644Y65696D01*
X196666Y64166D01*
X198196Y63144D01*
X200000Y62785D01*
X201804Y63144D01*
X203334Y64166D01*
X204356Y65696D01*
X204715Y67500D01*
X204356Y69304D01*
X203334Y70834D01*
X201804Y71856D01*
X200000Y72215D01*
D02*
G37*
G36*
X175000D02*
X173196Y71856D01*
X171666Y70834D01*
X170644Y69304D01*
X170285Y67500D01*
X170644Y65696D01*
X171666Y64166D01*
X173196Y63144D01*
X175000Y62785D01*
X176804Y63144D01*
X178334Y64166D01*
X179356Y65696D01*
X179715Y67500D01*
X179356Y69304D01*
X178334Y70834D01*
X176804Y71856D01*
X175000Y72215D01*
D02*
G37*
G36*
X150000D02*
X148196Y71856D01*
X146666Y70834D01*
X145644Y69304D01*
X145285Y67500D01*
X145644Y65696D01*
X146666Y64166D01*
X148196Y63144D01*
X150000Y62785D01*
X151804Y63144D01*
X153334Y64166D01*
X154356Y65696D01*
X154715Y67500D01*
X154356Y69304D01*
X153334Y70834D01*
X151804Y71856D01*
X150000Y72215D01*
D02*
G37*
G36*
X75000D02*
X73196Y71856D01*
X71666Y70834D01*
X70644Y69304D01*
X70285Y67500D01*
X70644Y65696D01*
X71666Y64166D01*
X73196Y63144D01*
X75000Y62785D01*
X76804Y63144D01*
X78334Y64166D01*
X79356Y65696D01*
X79715Y67500D01*
X79356Y69304D01*
X78334Y70834D01*
X76804Y71856D01*
X75000Y72215D01*
D02*
G37*
G36*
X50000D02*
X48196Y71856D01*
X46666Y70834D01*
X45644Y69304D01*
X45285Y67500D01*
X45644Y65696D01*
X46666Y64166D01*
X48196Y63144D01*
X50000Y62785D01*
X51804Y63144D01*
X53334Y64166D01*
X54356Y65696D01*
X54715Y67500D01*
X54356Y69304D01*
X53334Y70834D01*
X51804Y71856D01*
X50000Y72215D01*
D02*
G37*
G36*
X25000D02*
X23196Y71856D01*
X21666Y70834D01*
X20644Y69304D01*
X20285Y67500D01*
X20644Y65696D01*
X21666Y64166D01*
X23196Y63144D01*
X25000Y62785D01*
X26804Y63144D01*
X28334Y64166D01*
X29356Y65696D01*
X29715Y67500D01*
X29356Y69304D01*
X28334Y70834D01*
X26804Y71856D01*
X25000Y72215D01*
D02*
G37*
G36*
X-150000D02*
X-151804Y71856D01*
X-153334Y70834D01*
X-154356Y69304D01*
X-154715Y67500D01*
X-154356Y65696D01*
X-153334Y64166D01*
X-151804Y63144D01*
X-150000Y62785D01*
X-148196Y63144D01*
X-146666Y64166D01*
X-145644Y65696D01*
X-145285Y67500D01*
X-145644Y69304D01*
X-146666Y70834D01*
X-148196Y71856D01*
X-150000Y72215D01*
D02*
G37*
G36*
X-175000D02*
X-176804Y71856D01*
X-178334Y70834D01*
X-179356Y69304D01*
X-179715Y67500D01*
X-179356Y65696D01*
X-178334Y64166D01*
X-176804Y63144D01*
X-175000Y62785D01*
X-173196Y63144D01*
X-171666Y64166D01*
X-170644Y65696D01*
X-170285Y67500D01*
X-170644Y69304D01*
X-171666Y70834D01*
X-173196Y71856D01*
X-175000Y72215D01*
D02*
G37*
G36*
X-225000D02*
X-226804Y71856D01*
X-228334Y70834D01*
X-229356Y69304D01*
X-229715Y67500D01*
X-229356Y65696D01*
X-228334Y64166D01*
X-226804Y63144D01*
X-225000Y62785D01*
X-223196Y63144D01*
X-221666Y64166D01*
X-220644Y65696D01*
X-220285Y67500D01*
X-220644Y69304D01*
X-221666Y70834D01*
X-223196Y71856D01*
X-225000Y72215D01*
D02*
G37*
G36*
X305100Y71415D02*
X303296Y71056D01*
X301766Y70034D01*
X300744Y68504D01*
X300385Y66700D01*
X300744Y64896D01*
X301766Y63366D01*
X303296Y62344D01*
X305100Y61985D01*
X306904Y62344D01*
X308434Y63366D01*
X309456Y64896D01*
X309815Y66700D01*
X309456Y68504D01*
X308434Y70034D01*
X306904Y71056D01*
X305100Y71415D01*
D02*
G37*
G36*
X-320000Y69715D02*
X-321804Y69356D01*
X-323334Y68334D01*
X-324356Y66804D01*
X-324715Y65000D01*
X-324356Y63196D01*
X-323334Y61666D01*
X-321804Y60644D01*
X-320000Y60285D01*
X-318196Y60644D01*
X-316666Y61666D01*
X-315644Y63196D01*
X-315285Y65000D01*
X-315644Y66804D01*
X-316666Y68334D01*
X-318196Y69356D01*
X-320000Y69715D01*
D02*
G37*
G36*
X-277514Y68367D02*
X-279318Y68008D01*
X-280848Y66986D01*
X-281870Y65456D01*
X-282229Y63652D01*
X-281870Y61848D01*
X-280848Y60318D01*
X-279318Y59296D01*
X-277514Y58937D01*
X-275710Y59296D01*
X-274180Y60318D01*
X-273158Y61848D01*
X-272799Y63652D01*
X-273158Y65456D01*
X-274180Y66986D01*
X-275710Y68008D01*
X-277514Y68367D01*
D02*
G37*
G36*
X-354600Y59005D02*
X-357028Y58522D01*
X-359086Y57147D01*
X-360462Y55088D01*
X-360945Y52660D01*
X-360462Y50232D01*
X-359086Y48173D01*
X-357028Y46798D01*
X-354600Y46315D01*
X-352172Y46798D01*
X-350113Y48173D01*
X-348738Y50232D01*
X-348255Y52660D01*
X-348738Y55088D01*
X-350113Y57147D01*
X-352172Y58522D01*
X-354600Y59005D01*
D02*
G37*
G36*
X305100Y46015D02*
X303296Y45656D01*
X301766Y44634D01*
X300744Y43104D01*
X300385Y41300D01*
X300744Y39496D01*
X301766Y37966D01*
X303296Y36944D01*
X305100Y36585D01*
X306904Y36944D01*
X308434Y37966D01*
X309456Y39496D01*
X309815Y41300D01*
X309456Y43104D01*
X308434Y44634D01*
X306904Y45656D01*
X305100Y46015D01*
D02*
G37*
G36*
X-223666Y45761D02*
X-225470Y45402D01*
X-227000Y44380D01*
X-228022Y42850D01*
X-228381Y41046D01*
X-228022Y39242D01*
X-227000Y37712D01*
X-225470Y36690D01*
X-223666Y36331D01*
X-221862Y36690D01*
X-220332Y37712D01*
X-219310Y39242D01*
X-218951Y41046D01*
X-219310Y42850D01*
X-220332Y44380D01*
X-221862Y45402D01*
X-223666Y45761D01*
D02*
G37*
G36*
X-405400Y48845D02*
X-407828Y48362D01*
X-409887Y46986D01*
X-411262Y44928D01*
X-411745Y42500D01*
X-411262Y40072D01*
X-409887Y38014D01*
X-407828Y36638D01*
X-405400Y36155D01*
X-402972Y36638D01*
X-400914Y38014D01*
X-399538Y40072D01*
X-399055Y42500D01*
X-399538Y44928D01*
X-400914Y46986D01*
X-402972Y48362D01*
X-405400Y48845D01*
D02*
G37*
G36*
X-354600Y38685D02*
X-357028Y38202D01*
X-359086Y36827D01*
X-360462Y34768D01*
X-360945Y32340D01*
X-360462Y29912D01*
X-359086Y27854D01*
X-357028Y26478D01*
X-354600Y25995D01*
X-352172Y26478D01*
X-350113Y27854D01*
X-348738Y29912D01*
X-348255Y32340D01*
X-348738Y34768D01*
X-350113Y36827D01*
X-352172Y38202D01*
X-354600Y38685D01*
D02*
G37*
G36*
X-367430Y30775D02*
X-369234Y30416D01*
X-370764Y29394D01*
X-371786Y27864D01*
X-372145Y26060D01*
X-371786Y24256D01*
X-370764Y22726D01*
X-369234Y21704D01*
X-367430Y21345D01*
X-365626Y21704D01*
X-364096Y22726D01*
X-363074Y24256D01*
X-362715Y26060D01*
X-363074Y27864D01*
X-364096Y29394D01*
X-365626Y30416D01*
X-367430Y30775D01*
D02*
G37*
G36*
X-380130D02*
X-381934Y30416D01*
X-383464Y29394D01*
X-384486Y27864D01*
X-384845Y26060D01*
X-384486Y24256D01*
X-383464Y22726D01*
X-381934Y21704D01*
X-380130Y21345D01*
X-378326Y21704D01*
X-376796Y22726D01*
X-375774Y24256D01*
X-375415Y26060D01*
X-375774Y27864D01*
X-376796Y29394D01*
X-378326Y30416D01*
X-380130Y30775D01*
D02*
G37*
G36*
X98500Y-30035D02*
X96696Y-30394D01*
X95166Y-31416D01*
X94149Y-32938D01*
X94111Y-32946D01*
X92889D01*
X92851Y-32938D01*
X91834Y-31416D01*
X90304Y-30394D01*
X88500Y-30035D01*
X86696Y-30394D01*
X85166Y-31416D01*
X84144Y-32946D01*
X83785Y-34750D01*
X84144Y-36554D01*
X84652Y-37314D01*
X84420Y-38997D01*
X84166Y-39166D01*
X83144Y-40696D01*
X82785Y-42500D01*
X83144Y-44304D01*
X84166Y-45834D01*
X85696Y-46856D01*
X87500Y-47215D01*
X89304Y-46856D01*
X90834Y-45834D01*
X91856Y-44304D01*
X92215Y-42500D01*
X91856Y-40696D01*
X91348Y-39936D01*
X91580Y-38254D01*
X91834Y-38084D01*
X92851Y-36562D01*
X92889Y-36554D01*
X94111D01*
X94149Y-36562D01*
X95166Y-38084D01*
X96696Y-39106D01*
X98500Y-39465D01*
X100304Y-39106D01*
X101834Y-38084D01*
X102856Y-36554D01*
X103215Y-34750D01*
X102856Y-32946D01*
X101834Y-31416D01*
X100304Y-30394D01*
X98500Y-30035D01*
D02*
G37*
G36*
X292500Y-23835D02*
X290696Y-24194D01*
X289166Y-25216D01*
X288144Y-26746D01*
X287785Y-28550D01*
X288144Y-30354D01*
X289166Y-31884D01*
X290696Y-32906D01*
X292500Y-33265D01*
X294304Y-32906D01*
X295834Y-31884D01*
X296856Y-30354D01*
X297215Y-28550D01*
X296856Y-26746D01*
X295834Y-25216D01*
X294304Y-24194D01*
X292500Y-23835D01*
D02*
G37*
G36*
X-196996Y-27187D02*
X-198800Y-27546D01*
X-200330Y-28568D01*
X-201352Y-30098D01*
X-201711Y-31902D01*
X-201352Y-33706D01*
X-200330Y-35236D01*
X-198800Y-36258D01*
X-196996Y-36617D01*
X-195192Y-36258D01*
X-193662Y-35236D01*
X-192640Y-33706D01*
X-192281Y-31902D01*
X-192640Y-30098D01*
X-193662Y-28568D01*
X-195192Y-27546D01*
X-196996Y-27187D01*
D02*
G37*
G36*
X111500Y-30035D02*
X109696Y-30394D01*
X108166Y-31416D01*
X107144Y-32946D01*
X106785Y-34750D01*
X107144Y-36554D01*
X108166Y-38084D01*
X109696Y-39106D01*
X111500Y-39465D01*
X113304Y-39106D01*
X114834Y-38084D01*
X115856Y-36554D01*
X116215Y-34750D01*
X115856Y-32946D01*
X114834Y-31416D01*
X113304Y-30394D01*
X111500Y-30035D01*
D02*
G37*
G36*
X-326790Y-32775D02*
X-328594Y-33134D01*
X-330124Y-34156D01*
X-331146Y-35686D01*
X-331505Y-37490D01*
X-331146Y-39294D01*
X-330124Y-40824D01*
X-328594Y-41846D01*
X-326790Y-42205D01*
X-324986Y-41846D01*
X-323456Y-40824D01*
X-322434Y-39294D01*
X-322075Y-37490D01*
X-322434Y-35686D01*
X-323456Y-34156D01*
X-324986Y-33134D01*
X-326790Y-32775D01*
D02*
G37*
G36*
X-130000Y-32358D02*
X-132351Y-32826D01*
X-134343Y-34157D01*
X-135674Y-36150D01*
X-136142Y-38500D01*
X-135674Y-40850D01*
X-134343Y-42843D01*
X-132351Y-44174D01*
X-130000Y-44642D01*
X-127650Y-44174D01*
X-125657Y-42843D01*
X-124326Y-40850D01*
X-123858Y-38500D01*
X-124326Y-36150D01*
X-125657Y-34157D01*
X-127650Y-32826D01*
X-130000Y-32358D01*
D02*
G37*
G36*
X-160000D02*
X-162350Y-32826D01*
X-164343Y-34157D01*
X-165674Y-36150D01*
X-166142Y-38500D01*
X-165674Y-40850D01*
X-164343Y-42843D01*
X-162350Y-44174D01*
X-160000Y-44642D01*
X-157650Y-44174D01*
X-155657Y-42843D01*
X-154326Y-40850D01*
X-153858Y-38500D01*
X-154326Y-36150D01*
X-155657Y-34157D01*
X-157650Y-32826D01*
X-160000Y-32358D01*
D02*
G37*
G36*
X337500Y-37785D02*
X335696Y-38144D01*
X334166Y-39166D01*
X333144Y-40696D01*
X332785Y-42500D01*
X333144Y-44304D01*
X334166Y-45834D01*
X335696Y-46856D01*
X337500Y-47215D01*
X339304Y-46856D01*
X340834Y-45834D01*
X341856Y-44304D01*
X342215Y-42500D01*
X341856Y-40696D01*
X340834Y-39166D01*
X339304Y-38144D01*
X337500Y-37785D01*
D02*
G37*
G36*
X312500D02*
X310696Y-38144D01*
X309166Y-39166D01*
X308144Y-40696D01*
X307785Y-42500D01*
X308144Y-44304D01*
X309166Y-45834D01*
X310696Y-46856D01*
X312500Y-47215D01*
X314304Y-46856D01*
X315834Y-45834D01*
X316856Y-44304D01*
X317215Y-42500D01*
X316856Y-40696D01*
X315834Y-39166D01*
X314304Y-38144D01*
X312500Y-37785D01*
D02*
G37*
G36*
X287500D02*
X285696Y-38144D01*
X284166Y-39166D01*
X283144Y-40696D01*
X282785Y-42500D01*
X283144Y-44304D01*
X284166Y-45834D01*
X285696Y-46856D01*
X287500Y-47215D01*
X289304Y-46856D01*
X290834Y-45834D01*
X291856Y-44304D01*
X292215Y-42500D01*
X291856Y-40696D01*
X290834Y-39166D01*
X289304Y-38144D01*
X287500Y-37785D01*
D02*
G37*
G36*
X262500D02*
X260696Y-38144D01*
X259166Y-39166D01*
X258144Y-40696D01*
X257785Y-42500D01*
X258144Y-44304D01*
X259166Y-45834D01*
X260696Y-46856D01*
X262500Y-47215D01*
X264304Y-46856D01*
X265834Y-45834D01*
X266856Y-44304D01*
X267215Y-42500D01*
X266856Y-40696D01*
X265834Y-39166D01*
X264304Y-38144D01*
X262500Y-37785D01*
D02*
G37*
G36*
X237500D02*
X235696Y-38144D01*
X234166Y-39166D01*
X233144Y-40696D01*
X232785Y-42500D01*
X233144Y-44304D01*
X234166Y-45834D01*
X235696Y-46856D01*
X237500Y-47215D01*
X239304Y-46856D01*
X240834Y-45834D01*
X241856Y-44304D01*
X242215Y-42500D01*
X241856Y-40696D01*
X240834Y-39166D01*
X239304Y-38144D01*
X237500Y-37785D01*
D02*
G37*
G36*
X212500D02*
X210696Y-38144D01*
X209166Y-39166D01*
X208144Y-40696D01*
X207785Y-42500D01*
X208144Y-44304D01*
X209166Y-45834D01*
X210696Y-46856D01*
X212500Y-47215D01*
X214304Y-46856D01*
X215834Y-45834D01*
X216856Y-44304D01*
X217215Y-42500D01*
X216856Y-40696D01*
X215834Y-39166D01*
X214304Y-38144D01*
X212500Y-37785D01*
D02*
G37*
G36*
X187500D02*
X185696Y-38144D01*
X184166Y-39166D01*
X183144Y-40696D01*
X182785Y-42500D01*
X183144Y-44304D01*
X184166Y-45834D01*
X185696Y-46856D01*
X187500Y-47215D01*
X189304Y-46856D01*
X190834Y-45834D01*
X191856Y-44304D01*
X192215Y-42500D01*
X191856Y-40696D01*
X190834Y-39166D01*
X189304Y-38144D01*
X187500Y-37785D01*
D02*
G37*
G36*
X162500D02*
X160696Y-38144D01*
X159166Y-39166D01*
X158144Y-40696D01*
X157785Y-42500D01*
X158144Y-44304D01*
X159166Y-45834D01*
X160696Y-46856D01*
X162500Y-47215D01*
X164304Y-46856D01*
X165834Y-45834D01*
X166856Y-44304D01*
X167215Y-42500D01*
X166856Y-40696D01*
X165834Y-39166D01*
X164304Y-38144D01*
X162500Y-37785D01*
D02*
G37*
G36*
X137500D02*
X135696Y-38144D01*
X134166Y-39166D01*
X133144Y-40696D01*
X132785Y-42500D01*
X133144Y-44304D01*
X134166Y-45834D01*
X135696Y-46856D01*
X137500Y-47215D01*
X139304Y-46856D01*
X140834Y-45834D01*
X141856Y-44304D01*
X142215Y-42500D01*
X141856Y-40696D01*
X140834Y-39166D01*
X139304Y-38144D01*
X137500Y-37785D01*
D02*
G37*
G36*
X62500D02*
X60696Y-38144D01*
X59166Y-39166D01*
X58144Y-40696D01*
X57785Y-42500D01*
X58144Y-44304D01*
X59166Y-45834D01*
X60696Y-46856D01*
X62500Y-47215D01*
X64304Y-46856D01*
X65834Y-45834D01*
X66856Y-44304D01*
X67215Y-42500D01*
X66856Y-40696D01*
X65834Y-39166D01*
X64304Y-38144D01*
X62500Y-37785D01*
D02*
G37*
G36*
X37500D02*
X35696Y-38144D01*
X34166Y-39166D01*
X33144Y-40696D01*
X32785Y-42500D01*
X33144Y-44304D01*
X34166Y-45834D01*
X35696Y-46856D01*
X37500Y-47215D01*
X39304Y-46856D01*
X40834Y-45834D01*
X41856Y-44304D01*
X42215Y-42500D01*
X41856Y-40696D01*
X40834Y-39166D01*
X39304Y-38144D01*
X37500Y-37785D01*
D02*
G37*
G36*
X12500D02*
X10696Y-38144D01*
X9166Y-39166D01*
X8144Y-40696D01*
X7785Y-42500D01*
X8144Y-44304D01*
X9166Y-45834D01*
X10696Y-46856D01*
X12500Y-47215D01*
X14304Y-46856D01*
X15834Y-45834D01*
X16856Y-44304D01*
X17215Y-42500D01*
X16856Y-40696D01*
X15834Y-39166D01*
X14304Y-38144D01*
X12500Y-37785D01*
D02*
G37*
G36*
X-12500D02*
X-14304Y-38144D01*
X-15834Y-39166D01*
X-16856Y-40696D01*
X-17215Y-42500D01*
X-16856Y-44304D01*
X-15834Y-45834D01*
X-14304Y-46856D01*
X-12500Y-47215D01*
X-10696Y-46856D01*
X-9166Y-45834D01*
X-8144Y-44304D01*
X-7785Y-42500D01*
X-8144Y-40696D01*
X-9166Y-39166D01*
X-10696Y-38144D01*
X-12500Y-37785D01*
D02*
G37*
G36*
X-307994Y-42681D02*
X-309798Y-43040D01*
X-311328Y-44062D01*
X-312350Y-45592D01*
X-312709Y-47396D01*
X-312350Y-49200D01*
X-311328Y-50730D01*
X-309798Y-51752D01*
X-307994Y-52111D01*
X-306190Y-51752D01*
X-304660Y-50730D01*
X-303638Y-49200D01*
X-303279Y-47396D01*
X-303638Y-45592D01*
X-304660Y-44062D01*
X-306190Y-43040D01*
X-307994Y-42681D01*
D02*
G37*
G36*
X-237890Y-42935D02*
X-239694Y-43294D01*
X-241224Y-44316D01*
X-242246Y-45846D01*
X-242605Y-47650D01*
X-242246Y-49454D01*
X-241224Y-50984D01*
X-239694Y-52006D01*
X-237890Y-52365D01*
X-236086Y-52006D01*
X-234556Y-50984D01*
X-233534Y-49454D01*
X-233175Y-47650D01*
X-233534Y-45846D01*
X-234556Y-44316D01*
X-236086Y-43294D01*
X-237890Y-42935D01*
D02*
G37*
G36*
X-381250Y-44785D02*
X-383054Y-45144D01*
X-384584Y-46166D01*
X-385606Y-47696D01*
X-385965Y-49500D01*
X-385606Y-51304D01*
X-384584Y-52834D01*
X-383054Y-53856D01*
X-381250Y-54215D01*
X-379446Y-53856D01*
X-377916Y-52834D01*
X-376894Y-51304D01*
X-376535Y-49500D01*
X-376894Y-47696D01*
X-377916Y-46166D01*
X-379446Y-45144D01*
X-381250Y-44785D01*
D02*
G37*
G36*
X-32750Y-51285D02*
X-34554Y-51644D01*
X-36084Y-52666D01*
X-37106Y-54196D01*
X-37465Y-56000D01*
X-37106Y-57804D01*
X-36084Y-59334D01*
X-34554Y-60356D01*
X-32750Y-60715D01*
X-30946Y-60356D01*
X-29416Y-59334D01*
X-28394Y-57804D01*
X-28035Y-56000D01*
X-28394Y-54196D01*
X-29416Y-52666D01*
X-30946Y-51644D01*
X-32750Y-51285D01*
D02*
G37*
G36*
X-326790Y-52775D02*
X-328594Y-53134D01*
X-330124Y-54156D01*
X-331146Y-55686D01*
X-331505Y-57490D01*
X-331146Y-59294D01*
X-330124Y-60824D01*
X-328594Y-61846D01*
X-326790Y-62205D01*
X-324986Y-61846D01*
X-323456Y-60824D01*
X-322434Y-59294D01*
X-322075Y-57490D01*
X-322434Y-55686D01*
X-323456Y-54156D01*
X-324986Y-53134D01*
X-326790Y-52775D01*
D02*
G37*
G36*
X-211260Y-52785D02*
X-213064Y-53144D01*
X-214594Y-54166D01*
X-215616Y-55696D01*
X-215975Y-57500D01*
X-215616Y-59304D01*
X-214594Y-60834D01*
X-213064Y-61856D01*
X-211260Y-62215D01*
X-209456Y-61856D01*
X-207926Y-60834D01*
X-206904Y-59304D01*
X-206545Y-57500D01*
X-206904Y-55696D01*
X-207926Y-54166D01*
X-209456Y-53144D01*
X-211260Y-52785D01*
D02*
G37*
G36*
X-277500Y-60152D02*
X-278972Y-60445D01*
X-280221Y-61279D01*
X-281055Y-62527D01*
X-281348Y-64000D01*
X-281055Y-65472D01*
X-280221Y-66721D01*
X-278972Y-67555D01*
X-277500Y-67848D01*
X-276028Y-67555D01*
X-274779Y-66721D01*
X-273945Y-65472D01*
X-273652Y-64000D01*
X-273945Y-62527D01*
X-274779Y-61279D01*
X-276028Y-60445D01*
X-277500Y-60152D01*
D02*
G37*
G36*
X325000Y-62785D02*
X323196Y-63144D01*
X321666Y-64166D01*
X320644Y-65696D01*
X320285Y-67500D01*
X320644Y-69304D01*
X321666Y-70834D01*
X323196Y-71856D01*
X325000Y-72215D01*
X326804Y-71856D01*
X328334Y-70834D01*
X329356Y-69304D01*
X329715Y-67500D01*
X329356Y-65696D01*
X328334Y-64166D01*
X326804Y-63144D01*
X325000Y-62785D01*
D02*
G37*
G36*
X-175000D02*
X-176804Y-63144D01*
X-178334Y-64166D01*
X-179356Y-65696D01*
X-179715Y-67500D01*
X-179356Y-69304D01*
X-178334Y-70834D01*
X-176804Y-71856D01*
X-175000Y-72215D01*
X-173196Y-71856D01*
X-171666Y-70834D01*
X-170644Y-69304D01*
X-170285Y-67500D01*
X-170644Y-65696D01*
X-171666Y-64166D01*
X-173196Y-63144D01*
X-175000Y-62785D01*
D02*
G37*
G36*
X-200000D02*
X-201804Y-63144D01*
X-203334Y-64166D01*
X-204356Y-65696D01*
X-204715Y-67500D01*
X-204356Y-69304D01*
X-203334Y-70834D01*
X-201804Y-71856D01*
X-200000Y-72215D01*
X-198196Y-71856D01*
X-196666Y-70834D01*
X-195644Y-69304D01*
X-195285Y-67500D01*
X-195644Y-65696D01*
X-196666Y-64166D01*
X-198196Y-63144D01*
X-200000Y-62785D01*
D02*
G37*
G36*
X-225000D02*
X-226804Y-63144D01*
X-228334Y-64166D01*
X-229356Y-65696D01*
X-229715Y-67500D01*
X-229356Y-69304D01*
X-228334Y-70834D01*
X-226804Y-71856D01*
X-225000Y-72215D01*
X-223196Y-71856D01*
X-221666Y-70834D01*
X-220644Y-69304D01*
X-220285Y-67500D01*
X-220644Y-65696D01*
X-221666Y-64166D01*
X-223196Y-63144D01*
X-225000Y-62785D01*
D02*
G37*
G36*
X-60000Y-66285D02*
X-61804Y-66644D01*
X-63334Y-67666D01*
X-64356Y-69196D01*
X-64715Y-71000D01*
X-64356Y-72804D01*
X-63334Y-74334D01*
X-61804Y-75356D01*
X-60000Y-75715D01*
X-58196Y-75356D01*
X-56666Y-74334D01*
X-55644Y-72804D01*
X-55285Y-71000D01*
X-55644Y-69196D01*
X-56666Y-67666D01*
X-58196Y-66644D01*
X-60000Y-66285D01*
D02*
G37*
G36*
X-152546Y-66303D02*
X-154350Y-66662D01*
X-155880Y-67684D01*
X-156902Y-69214D01*
X-157261Y-71018D01*
X-156902Y-72822D01*
X-155880Y-74352D01*
X-154350Y-75374D01*
X-152546Y-75733D01*
X-150742Y-75374D01*
X-149212Y-74352D01*
X-148190Y-72822D01*
X-147831Y-71018D01*
X-148190Y-69214D01*
X-149212Y-67684D01*
X-150742Y-66662D01*
X-152546Y-66303D01*
D02*
G37*
G36*
X-297750Y-71402D02*
X-299223Y-71695D01*
X-300471Y-72529D01*
X-301305Y-73777D01*
X-301598Y-75250D01*
X-301305Y-76722D01*
X-300471Y-77971D01*
X-299223Y-78805D01*
X-297750Y-79098D01*
X-296278Y-78805D01*
X-295029Y-77971D01*
X-294195Y-76722D01*
X-293902Y-75250D01*
X-294195Y-73777D01*
X-295029Y-72529D01*
X-296278Y-71695D01*
X-297750Y-71402D01*
D02*
G37*
G36*
X-351700Y-66711D02*
X-362700D01*
X-364664Y-66970D01*
X-366494Y-67728D01*
X-368066Y-68934D01*
X-369272Y-70505D01*
X-370030Y-72336D01*
X-370289Y-74300D01*
X-370030Y-76264D01*
X-369272Y-78095D01*
X-368066Y-79666D01*
X-366494Y-80872D01*
X-364664Y-81630D01*
X-362700Y-81889D01*
X-351700D01*
X-349736Y-81630D01*
X-347906Y-80872D01*
X-346334Y-79666D01*
X-345128Y-78095D01*
X-344370Y-76264D01*
X-344111Y-74300D01*
X-344370Y-72336D01*
X-345128Y-70505D01*
X-346334Y-68934D01*
X-347906Y-67728D01*
X-349736Y-66970D01*
X-351700Y-66711D01*
D02*
G37*
G36*
X-394500D02*
X-403500D01*
X-405464Y-66970D01*
X-407295Y-67728D01*
X-408866Y-68934D01*
X-410072Y-70505D01*
X-410830Y-72336D01*
X-411089Y-74300D01*
X-410830Y-76264D01*
X-410072Y-78095D01*
X-408866Y-79666D01*
X-407295Y-80872D01*
X-405464Y-81630D01*
X-403500Y-81889D01*
X-394500D01*
X-392536Y-81630D01*
X-390705Y-80872D01*
X-389134Y-79666D01*
X-387928Y-78095D01*
X-387170Y-76264D01*
X-386911Y-74300D01*
X-387170Y-72336D01*
X-387928Y-70505D01*
X-389134Y-68934D01*
X-390705Y-67728D01*
X-392536Y-66970D01*
X-394500Y-66711D01*
D02*
G37*
G36*
X-326790Y-75552D02*
X-328262Y-75845D01*
X-329511Y-76679D01*
X-330345Y-77927D01*
X-330638Y-79400D01*
X-330345Y-80872D01*
X-329511Y-82121D01*
X-328262Y-82955D01*
X-326790Y-83248D01*
X-325317Y-82955D01*
X-324069Y-82121D01*
X-323235Y-80872D01*
X-322942Y-79400D01*
X-323235Y-77927D01*
X-324069Y-76679D01*
X-325317Y-75845D01*
X-326790Y-75552D01*
D02*
G37*
G36*
X155302Y-73923D02*
X153498Y-74282D01*
X151968Y-75304D01*
X150946Y-76834D01*
X150587Y-78638D01*
X150946Y-80442D01*
X151968Y-81972D01*
X153498Y-82994D01*
X155302Y-83353D01*
X157106Y-82994D01*
X158636Y-81972D01*
X159658Y-80442D01*
X160017Y-78638D01*
X159658Y-76834D01*
X158636Y-75304D01*
X157106Y-74282D01*
X155302Y-73923D01*
D02*
G37*
G36*
X-21250Y-74035D02*
X-23054Y-74394D01*
X-24584Y-75416D01*
X-25606Y-76946D01*
X-25965Y-78750D01*
X-25606Y-80554D01*
X-24584Y-82084D01*
X-23054Y-83106D01*
X-21250Y-83465D01*
X-19446Y-83106D01*
X-17916Y-82084D01*
X-16894Y-80554D01*
X-16535Y-78750D01*
X-16894Y-76946D01*
X-17916Y-75416D01*
X-19446Y-74394D01*
X-21250Y-74035D01*
D02*
G37*
G36*
X197400Y-74685D02*
X195596Y-75044D01*
X194066Y-76066D01*
X193044Y-77596D01*
X192685Y-79400D01*
X193044Y-81204D01*
X194066Y-82734D01*
X195596Y-83756D01*
X197400Y-84115D01*
X199204Y-83756D01*
X200734Y-82734D01*
X201756Y-81204D01*
X202115Y-79400D01*
X201756Y-77596D01*
X200734Y-76066D01*
X199204Y-75044D01*
X197400Y-74685D01*
D02*
G37*
G36*
X112600D02*
X110796Y-75044D01*
X109266Y-76066D01*
X108244Y-77596D01*
X107885Y-79400D01*
X108244Y-81204D01*
X109266Y-82734D01*
X110796Y-83756D01*
X112600Y-84115D01*
X114404Y-83756D01*
X115934Y-82734D01*
X116956Y-81204D01*
X117315Y-79400D01*
X116956Y-77596D01*
X115934Y-76066D01*
X114404Y-75044D01*
X112600Y-74685D01*
D02*
G37*
G36*
X-310750Y-77902D02*
X-312222Y-78195D01*
X-313471Y-79029D01*
X-314305Y-80278D01*
X-314598Y-81750D01*
X-314305Y-83223D01*
X-313471Y-84471D01*
X-312222Y-85305D01*
X-310750Y-85598D01*
X-309277Y-85305D01*
X-308029Y-84471D01*
X-307195Y-83223D01*
X-306902Y-81750D01*
X-307195Y-80278D01*
X-308029Y-79029D01*
X-309277Y-78195D01*
X-310750Y-77902D01*
D02*
G37*
G36*
X207600Y-87385D02*
X205796Y-87744D01*
X204266Y-88766D01*
X203244Y-90296D01*
X203147Y-90783D01*
X201853D01*
X201756Y-90296D01*
X200734Y-88766D01*
X199204Y-87744D01*
X197400Y-87385D01*
X195596Y-87744D01*
X194066Y-88766D01*
X193044Y-90296D01*
X192685Y-92100D01*
X193044Y-93904D01*
X194066Y-95434D01*
X195596Y-96456D01*
X197400Y-96815D01*
X199204Y-96456D01*
X200734Y-95434D01*
X201756Y-93904D01*
X201853Y-93417D01*
X203147D01*
X203244Y-93904D01*
X204266Y-95434D01*
X205796Y-96456D01*
X207600Y-96815D01*
X209404Y-96456D01*
X210934Y-95434D01*
X211956Y-93904D01*
X212315Y-92100D01*
X211956Y-90296D01*
X210934Y-88766D01*
X209404Y-87744D01*
X207600Y-87385D01*
D02*
G37*
G36*
X-304250Y-84402D02*
X-305723Y-84695D01*
X-306971Y-85529D01*
X-307805Y-86777D01*
X-308098Y-88250D01*
X-307805Y-89722D01*
X-306971Y-90971D01*
X-305723Y-91805D01*
X-304250Y-92098D01*
X-302777Y-91805D01*
X-301529Y-90971D01*
X-300695Y-89722D01*
X-300402Y-88250D01*
X-300695Y-86777D01*
X-301529Y-85529D01*
X-302777Y-84695D01*
X-304250Y-84402D01*
D02*
G37*
G36*
X-317250D02*
X-318723Y-84695D01*
X-319971Y-85529D01*
X-320805Y-86777D01*
X-321098Y-88250D01*
X-320805Y-89722D01*
X-319971Y-90971D01*
X-318723Y-91805D01*
X-317250Y-92098D01*
X-315777Y-91805D01*
X-314529Y-90971D01*
X-313695Y-89722D01*
X-313402Y-88250D01*
X-313695Y-86777D01*
X-314529Y-85529D01*
X-315777Y-84695D01*
X-317250Y-84402D01*
D02*
G37*
G36*
X-362200Y-83733D02*
X-364063Y-84103D01*
X-365642Y-85158D01*
X-366697Y-86737D01*
X-367067Y-88600D01*
X-366697Y-90463D01*
X-365642Y-92042D01*
X-364063Y-93097D01*
X-362200Y-93468D01*
X-360337Y-93097D01*
X-358758Y-92042D01*
X-357703Y-90463D01*
X-357332Y-88600D01*
X-357703Y-86737D01*
X-358758Y-85158D01*
X-360337Y-84103D01*
X-362200Y-83733D01*
D02*
G37*
G36*
X292400Y-87385D02*
X290596Y-87744D01*
X289066Y-88766D01*
X288044Y-90296D01*
X287685Y-92100D01*
X288044Y-93904D01*
X289066Y-95434D01*
X290596Y-96456D01*
X292400Y-96815D01*
X294204Y-96456D01*
X295734Y-95434D01*
X296756Y-93904D01*
X297115Y-92100D01*
X296756Y-90296D01*
X295734Y-88766D01*
X294204Y-87744D01*
X292400Y-87385D01*
D02*
G37*
G36*
X112600D02*
X110796Y-87744D01*
X109266Y-88766D01*
X108244Y-90296D01*
X107885Y-92100D01*
X108244Y-93904D01*
X109266Y-95434D01*
X110796Y-96456D01*
X112600Y-96815D01*
X114404Y-96456D01*
X115934Y-95434D01*
X116956Y-93904D01*
X117315Y-92100D01*
X116956Y-90296D01*
X115934Y-88766D01*
X114404Y-87744D01*
X112600Y-87385D01*
D02*
G37*
G36*
X46250Y-87485D02*
X44446Y-87844D01*
X42916Y-88866D01*
X41894Y-90396D01*
X41535Y-92200D01*
X41894Y-94004D01*
X42916Y-95534D01*
X44446Y-96556D01*
X46250Y-96915D01*
X48054Y-96556D01*
X49584Y-95534D01*
X50606Y-94004D01*
X50965Y-92200D01*
X50606Y-90396D01*
X49584Y-88866D01*
X48054Y-87844D01*
X46250Y-87485D01*
D02*
G37*
G36*
X337500Y-87785D02*
X335696Y-88144D01*
X334166Y-89166D01*
X333144Y-90696D01*
X332785Y-92500D01*
X333144Y-94304D01*
X334166Y-95834D01*
X335696Y-96856D01*
X337500Y-97215D01*
X339304Y-96856D01*
X340834Y-95834D01*
X341856Y-94304D01*
X342215Y-92500D01*
X341856Y-90696D01*
X340834Y-89166D01*
X339304Y-88144D01*
X337500Y-87785D01*
D02*
G37*
G36*
X-62500D02*
X-64304Y-88144D01*
X-65834Y-89166D01*
X-66856Y-90696D01*
X-67215Y-92500D01*
X-66856Y-94304D01*
X-65834Y-95834D01*
X-64304Y-96856D01*
X-62500Y-97215D01*
X-60696Y-96856D01*
X-59166Y-95834D01*
X-58144Y-94304D01*
X-57785Y-92500D01*
X-58144Y-90696D01*
X-59166Y-89166D01*
X-60696Y-88144D01*
X-62500Y-87785D01*
D02*
G37*
G36*
X-387500D02*
X-389304Y-88144D01*
X-390834Y-89166D01*
X-391856Y-90696D01*
X-392215Y-92500D01*
X-391856Y-94304D01*
X-390834Y-95834D01*
X-389304Y-96856D01*
X-387500Y-97215D01*
X-385696Y-96856D01*
X-384166Y-95834D01*
X-383144Y-94304D01*
X-382785Y-92500D01*
X-383144Y-90696D01*
X-384166Y-89166D01*
X-385696Y-88144D01*
X-387500Y-87785D01*
D02*
G37*
G36*
X-412500D02*
X-414304Y-88144D01*
X-415834Y-89166D01*
X-416856Y-90696D01*
X-417215Y-92500D01*
X-416856Y-94304D01*
X-415834Y-95834D01*
X-414304Y-96856D01*
X-412500Y-97215D01*
X-410696Y-96856D01*
X-409166Y-95834D01*
X-408144Y-94304D01*
X-407785Y-92500D01*
X-408144Y-90696D01*
X-409166Y-89166D01*
X-410696Y-88144D01*
X-412500Y-87785D01*
D02*
G37*
G36*
X-84500Y-90035D02*
X-86304Y-90394D01*
X-87834Y-91416D01*
X-88856Y-92946D01*
X-89215Y-94750D01*
X-88856Y-96554D01*
X-87834Y-98084D01*
X-86304Y-99106D01*
X-84500Y-99465D01*
X-82696Y-99106D01*
X-81166Y-98084D01*
X-80144Y-96554D01*
X-79785Y-94750D01*
X-80144Y-92946D01*
X-81166Y-91416D01*
X-82696Y-90394D01*
X-84500Y-90035D01*
D02*
G37*
G36*
X-187500Y-90285D02*
X-189304Y-90644D01*
X-190834Y-91666D01*
X-191856Y-93196D01*
X-192215Y-95000D01*
X-191856Y-96804D01*
X-190834Y-98334D01*
X-189304Y-99356D01*
X-187500Y-99715D01*
X-185696Y-99356D01*
X-184166Y-98334D01*
X-183144Y-96804D01*
X-182785Y-95000D01*
X-183144Y-93196D01*
X-184166Y-91666D01*
X-185696Y-90644D01*
X-187500Y-90285D01*
D02*
G37*
G36*
X-131100Y-90035D02*
X-132904Y-90394D01*
X-134434Y-91416D01*
X-135456Y-92946D01*
X-135815Y-94750D01*
X-135456Y-96554D01*
X-134434Y-98084D01*
X-132904Y-99106D01*
X-131100Y-99465D01*
X-130219Y-99289D01*
X-129139Y-100369D01*
X-129314Y-101250D01*
X-128956Y-103054D01*
X-127934Y-104584D01*
X-126404Y-105606D01*
X-124600Y-105965D01*
X-122796Y-105606D01*
X-121266Y-104584D01*
X-120244Y-103054D01*
X-119885Y-101250D01*
X-120244Y-99446D01*
X-121266Y-97916D01*
X-122796Y-96894D01*
X-124600Y-96535D01*
X-125481Y-96711D01*
X-126561Y-95631D01*
X-126385Y-94750D01*
X-126744Y-92946D01*
X-127766Y-91416D01*
X-129296Y-90394D01*
X-131100Y-90035D01*
D02*
G37*
G36*
X25000Y-99323D02*
X23196Y-99682D01*
X21666Y-100704D01*
X20644Y-102234D01*
X20285Y-104038D01*
X20644Y-105842D01*
X21666Y-107372D01*
X23196Y-108394D01*
X25000Y-108753D01*
X26804Y-108394D01*
X28334Y-107372D01*
X29356Y-105842D01*
X29715Y-104038D01*
X29356Y-102234D01*
X28334Y-100704D01*
X26804Y-99682D01*
X25000Y-99323D01*
D02*
G37*
G36*
X-213760Y-101722D02*
X-215233Y-102015D01*
X-216481Y-102849D01*
X-217315Y-104097D01*
X-217608Y-105570D01*
X-217315Y-107043D01*
X-216481Y-108291D01*
X-215233Y-109125D01*
X-213760Y-109418D01*
X-212288Y-109125D01*
X-211039Y-108291D01*
X-210205Y-107043D01*
X-209912Y-105570D01*
X-210205Y-104097D01*
X-211039Y-102849D01*
X-212288Y-102015D01*
X-213760Y-101722D01*
D02*
G37*
G36*
X292500Y-100035D02*
X290696Y-100394D01*
X289166Y-101416D01*
X288144Y-102946D01*
X287785Y-104750D01*
X288144Y-106554D01*
X289166Y-108084D01*
X290696Y-109106D01*
X292500Y-109465D01*
X294304Y-109106D01*
X295834Y-108084D01*
X296856Y-106554D01*
X297215Y-104750D01*
X296856Y-102946D01*
X295834Y-101416D01*
X294304Y-100394D01*
X292500Y-100035D01*
D02*
G37*
G36*
X207600Y-100085D02*
X205796Y-100444D01*
X204266Y-101466D01*
X203244Y-102996D01*
X202885Y-104800D01*
X203244Y-106604D01*
X204266Y-108134D01*
X205796Y-109156D01*
X207600Y-109515D01*
X209404Y-109156D01*
X210934Y-108134D01*
X211956Y-106604D01*
X212315Y-104800D01*
X211956Y-102996D01*
X210934Y-101466D01*
X209404Y-100444D01*
X207600Y-100085D01*
D02*
G37*
G36*
X112600D02*
X110796Y-100444D01*
X109266Y-101466D01*
X108244Y-102996D01*
X107885Y-104800D01*
X108244Y-106604D01*
X109266Y-108134D01*
X110796Y-109156D01*
X112600Y-109515D01*
X114404Y-109156D01*
X115934Y-108134D01*
X116956Y-106604D01*
X117315Y-104800D01*
X116956Y-102996D01*
X115934Y-101466D01*
X114404Y-100444D01*
X112600Y-100085D01*
D02*
G37*
G36*
X-60000Y-103035D02*
X-61804Y-103394D01*
X-63334Y-104416D01*
X-64356Y-105946D01*
X-64715Y-107750D01*
X-64356Y-109554D01*
X-63334Y-111084D01*
X-61804Y-112106D01*
X-60000Y-112465D01*
X-58196Y-112106D01*
X-56666Y-111084D01*
X-55644Y-109554D01*
X-55285Y-107750D01*
X-55644Y-105946D01*
X-56666Y-104416D01*
X-58196Y-103394D01*
X-60000Y-103035D01*
D02*
G37*
G36*
X300000Y-112785D02*
X298196Y-113144D01*
X296666Y-114166D01*
X295734D01*
X294204Y-113144D01*
X292400Y-112785D01*
X290596Y-113144D01*
X289066Y-114166D01*
X288044Y-115696D01*
X287685Y-117500D01*
X288044Y-119304D01*
X289066Y-120834D01*
X290596Y-121856D01*
X292400Y-122215D01*
X294204Y-121856D01*
X295734Y-120834D01*
X296666D01*
X298196Y-121856D01*
X300000Y-122215D01*
X301804Y-121856D01*
X303334Y-120834D01*
X304356Y-119304D01*
X304715Y-117500D01*
X304356Y-115696D01*
X303334Y-114166D01*
X301804Y-113144D01*
X300000Y-112785D01*
D02*
G37*
G36*
X-222650Y-107152D02*
X-224123Y-107445D01*
X-225371Y-108279D01*
X-226205Y-109527D01*
X-226498Y-111000D01*
X-226205Y-112472D01*
X-225371Y-113721D01*
X-224123Y-114555D01*
X-222650Y-114848D01*
X-221178Y-114555D01*
X-219929Y-113721D01*
X-219095Y-112472D01*
X-218802Y-111000D01*
X-219095Y-109527D01*
X-219929Y-108279D01*
X-221178Y-107445D01*
X-222650Y-107152D01*
D02*
G37*
G36*
X207600Y-112785D02*
X205796Y-113144D01*
X204266Y-114166D01*
X203244Y-115696D01*
X203147Y-116183D01*
X201853D01*
X201756Y-115696D01*
X200734Y-114166D01*
X199204Y-113144D01*
X197400Y-112785D01*
X195596Y-113144D01*
X194066Y-114166D01*
X193044Y-115696D01*
X192685Y-117500D01*
X193044Y-119304D01*
X194066Y-120834D01*
X195596Y-121856D01*
X197400Y-122215D01*
X199204Y-121856D01*
X200734Y-120834D01*
X201756Y-119304D01*
X201853Y-118817D01*
X203147D01*
X203244Y-119304D01*
X204266Y-120834D01*
X205796Y-121856D01*
X207600Y-122215D01*
X209404Y-121856D01*
X210934Y-120834D01*
X211956Y-119304D01*
X212315Y-117500D01*
X211956Y-115696D01*
X210934Y-114166D01*
X209404Y-113144D01*
X207600Y-112785D01*
D02*
G37*
G36*
X-255500Y-113652D02*
X-256973Y-113945D01*
X-258221Y-114779D01*
X-259055Y-116027D01*
X-259348Y-117500D01*
X-259055Y-118973D01*
X-258221Y-120221D01*
X-256973Y-121055D01*
X-255500Y-121348D01*
X-254028Y-121055D01*
X-252779Y-120221D01*
X-251945Y-118973D01*
X-251652Y-117500D01*
X-251945Y-116027D01*
X-252779Y-114779D01*
X-254028Y-113945D01*
X-255500Y-113652D01*
D02*
G37*
G36*
X-294500D02*
X-295972Y-113945D01*
X-297221Y-114779D01*
X-298055Y-116027D01*
X-298348Y-117500D01*
X-298055Y-118973D01*
X-297221Y-120221D01*
X-295972Y-121055D01*
X-294500Y-121348D01*
X-293027Y-121055D01*
X-291779Y-120221D01*
X-290945Y-118973D01*
X-290652Y-117500D01*
X-290945Y-116027D01*
X-291779Y-114779D01*
X-293027Y-113945D01*
X-294500Y-113652D01*
D02*
G37*
G36*
X250000Y-112785D02*
X248196Y-113144D01*
X246666Y-114166D01*
X245644Y-115696D01*
X245285Y-117500D01*
X245644Y-119304D01*
X246666Y-120834D01*
X248196Y-121856D01*
X250000Y-122215D01*
X251804Y-121856D01*
X253334Y-120834D01*
X254356Y-119304D01*
X254715Y-117500D01*
X254356Y-115696D01*
X253334Y-114166D01*
X251804Y-113144D01*
X250000Y-112785D01*
D02*
G37*
G36*
X112600D02*
X110796Y-113144D01*
X109266Y-114166D01*
X108244Y-115696D01*
X107885Y-117500D01*
X108244Y-119304D01*
X109266Y-120834D01*
X110796Y-121856D01*
X112600Y-122215D01*
X114404Y-121856D01*
X115934Y-120834D01*
X116956Y-119304D01*
X117315Y-117500D01*
X116956Y-115696D01*
X115934Y-114166D01*
X114404Y-113144D01*
X112600Y-112785D01*
D02*
G37*
G36*
X-75000D02*
X-76804Y-113144D01*
X-78334Y-114166D01*
X-79356Y-115696D01*
X-79715Y-117500D01*
X-79356Y-119304D01*
X-78334Y-120834D01*
X-76804Y-121856D01*
X-75000Y-122215D01*
X-73196Y-121856D01*
X-71666Y-120834D01*
X-70644Y-119304D01*
X-70285Y-117500D01*
X-70644Y-115696D01*
X-71666Y-114166D01*
X-73196Y-113144D01*
X-75000Y-112785D01*
D02*
G37*
G36*
X207600Y-125485D02*
X205796Y-125844D01*
X204266Y-126866D01*
X203244Y-128396D01*
X202885Y-130200D01*
X203244Y-132004D01*
X204266Y-133534D01*
X205796Y-134556D01*
X207600Y-134915D01*
X209404Y-134556D01*
X210934Y-133534D01*
X211956Y-132004D01*
X212315Y-130200D01*
X211956Y-128396D01*
X210934Y-126866D01*
X209404Y-125844D01*
X207600Y-125485D01*
D02*
G37*
G36*
X112600D02*
X110796Y-125844D01*
X109266Y-126866D01*
X108244Y-128396D01*
X107885Y-130200D01*
X108244Y-132004D01*
X109266Y-133534D01*
X110796Y-134556D01*
X112600Y-134915D01*
X114404Y-134556D01*
X115934Y-133534D01*
X116956Y-132004D01*
X117315Y-130200D01*
X116956Y-128396D01*
X115934Y-126866D01*
X114404Y-125844D01*
X112600Y-125485D01*
D02*
G37*
G36*
X-222650Y-129654D02*
X-224123Y-129947D01*
X-225371Y-130781D01*
X-226205Y-132029D01*
X-226498Y-133502D01*
X-226205Y-134974D01*
X-225371Y-136223D01*
X-224123Y-137057D01*
X-222650Y-137350D01*
X-221178Y-137057D01*
X-219929Y-136223D01*
X-219095Y-134974D01*
X-218802Y-133502D01*
X-219095Y-132029D01*
X-219929Y-130781D01*
X-221178Y-129947D01*
X-222650Y-129654D01*
D02*
G37*
G36*
X207600Y-138185D02*
X205796Y-138544D01*
X204266Y-139566D01*
X203244Y-141096D01*
X203147Y-141583D01*
X201853D01*
X201756Y-141096D01*
X200734Y-139566D01*
X199204Y-138544D01*
X197400Y-138185D01*
X195596Y-138544D01*
X194066Y-139566D01*
X193044Y-141096D01*
X192685Y-142900D01*
X193044Y-144704D01*
X194066Y-146234D01*
X195596Y-147256D01*
X197400Y-147615D01*
X199204Y-147256D01*
X200734Y-146234D01*
X201756Y-144704D01*
X201853Y-144217D01*
X203147D01*
X203244Y-144704D01*
X204266Y-146234D01*
X205796Y-147256D01*
X207600Y-147615D01*
X209404Y-147256D01*
X210934Y-146234D01*
X211956Y-144704D01*
X212315Y-142900D01*
X211956Y-141096D01*
X210934Y-139566D01*
X209404Y-138544D01*
X207600Y-138185D01*
D02*
G37*
G36*
X-297750Y-136402D02*
X-299223Y-136695D01*
X-300471Y-137529D01*
X-301305Y-138777D01*
X-301598Y-140250D01*
X-301305Y-141722D01*
X-300471Y-142971D01*
X-299223Y-143805D01*
X-297750Y-144098D01*
X-296278Y-143805D01*
X-295029Y-142971D01*
X-294195Y-141722D01*
X-293902Y-140250D01*
X-294195Y-138777D01*
X-295029Y-137529D01*
X-296278Y-136695D01*
X-297750Y-136402D01*
D02*
G37*
G36*
X337500Y-137785D02*
X335696Y-138144D01*
X334166Y-139166D01*
X333144Y-140696D01*
X332785Y-142500D01*
X333144Y-144304D01*
X334166Y-145834D01*
X335696Y-146856D01*
X337500Y-147215D01*
X339304Y-146856D01*
X340834Y-145834D01*
X341856Y-144304D01*
X342215Y-142500D01*
X341856Y-140696D01*
X340834Y-139166D01*
X339304Y-138144D01*
X337500Y-137785D01*
D02*
G37*
G36*
X-387500D02*
X-389304Y-138144D01*
X-390834Y-139166D01*
X-391856Y-140696D01*
X-392215Y-142500D01*
X-391856Y-144304D01*
X-390834Y-145834D01*
X-389304Y-146856D01*
X-387500Y-147215D01*
X-385696Y-146856D01*
X-384166Y-145834D01*
X-383144Y-144304D01*
X-382785Y-142500D01*
X-383144Y-140696D01*
X-384166Y-139166D01*
X-385696Y-138144D01*
X-387500Y-137785D01*
D02*
G37*
G36*
X-412500D02*
X-414304Y-138144D01*
X-415834Y-139166D01*
X-416856Y-140696D01*
X-417215Y-142500D01*
X-416856Y-144304D01*
X-415834Y-145834D01*
X-414304Y-146856D01*
X-412500Y-147215D01*
X-410696Y-146856D01*
X-409166Y-145834D01*
X-408144Y-144304D01*
X-407785Y-142500D01*
X-408144Y-140696D01*
X-409166Y-139166D01*
X-410696Y-138144D01*
X-412500Y-137785D01*
D02*
G37*
G36*
X33750Y-138085D02*
X31946Y-138444D01*
X30416Y-139466D01*
X29394Y-140996D01*
X29035Y-142800D01*
X29394Y-144604D01*
X30416Y-146134D01*
X31946Y-147156D01*
X33750Y-147515D01*
X35554Y-147156D01*
X37084Y-146134D01*
X38106Y-144604D01*
X38465Y-142800D01*
X38106Y-140996D01*
X37084Y-139466D01*
X35554Y-138444D01*
X33750Y-138085D01*
D02*
G37*
G36*
X292400Y-138185D02*
X290596Y-138544D01*
X289066Y-139566D01*
X288044Y-141096D01*
X287685Y-142900D01*
X288044Y-144704D01*
X289066Y-146234D01*
X290596Y-147256D01*
X292400Y-147615D01*
X294204Y-147256D01*
X295734Y-146234D01*
X296756Y-144704D01*
X297115Y-142900D01*
X296756Y-141096D01*
X295734Y-139566D01*
X294204Y-138544D01*
X292400Y-138185D01*
D02*
G37*
G36*
X112600D02*
X110796Y-138544D01*
X109266Y-139566D01*
X108244Y-141096D01*
X107885Y-142900D01*
X108244Y-144704D01*
X109266Y-146234D01*
X110796Y-147256D01*
X112600Y-147615D01*
X114404Y-147256D01*
X115934Y-146234D01*
X116956Y-144704D01*
X117315Y-142900D01*
X116956Y-141096D01*
X115934Y-139566D01*
X114404Y-138544D01*
X112600Y-138185D01*
D02*
G37*
G36*
X46250Y-138285D02*
X44446Y-138644D01*
X42916Y-139666D01*
X41894Y-141196D01*
X41535Y-143000D01*
X41894Y-144804D01*
X42916Y-146334D01*
X44446Y-147356D01*
X46250Y-147715D01*
X48054Y-147356D01*
X49584Y-146334D01*
X50606Y-144804D01*
X50965Y-143000D01*
X50606Y-141196D01*
X49584Y-139666D01*
X48054Y-138644D01*
X46250Y-138285D01*
D02*
G37*
G36*
X-291250Y-142902D02*
X-292723Y-143195D01*
X-293971Y-144029D01*
X-294805Y-145277D01*
X-295098Y-146750D01*
X-294805Y-148223D01*
X-293971Y-149471D01*
X-292723Y-150305D01*
X-291250Y-150598D01*
X-289778Y-150305D01*
X-288529Y-149471D01*
X-287695Y-148223D01*
X-287402Y-146750D01*
X-287695Y-145277D01*
X-288529Y-144029D01*
X-289778Y-143195D01*
X-291250Y-142902D01*
D02*
G37*
G36*
X-304250Y-142902D02*
X-305723Y-143195D01*
X-306971Y-144029D01*
X-307805Y-145278D01*
X-308098Y-146750D01*
X-307805Y-148223D01*
X-306971Y-149471D01*
X-305723Y-150305D01*
X-304250Y-150598D01*
X-302777Y-150305D01*
X-301529Y-149471D01*
X-300695Y-148223D01*
X-300402Y-146750D01*
X-300695Y-145278D01*
X-301529Y-144029D01*
X-302777Y-143195D01*
X-304250Y-142902D01*
D02*
G37*
G36*
X-362200Y-141532D02*
X-364063Y-141903D01*
X-365642Y-142958D01*
X-366697Y-144537D01*
X-367067Y-146400D01*
X-366697Y-148263D01*
X-365642Y-149842D01*
X-364063Y-150897D01*
X-362200Y-151267D01*
X-360337Y-150897D01*
X-358758Y-149842D01*
X-357703Y-148263D01*
X-357332Y-146400D01*
X-357703Y-144537D01*
X-358758Y-142958D01*
X-360337Y-141903D01*
X-362200Y-141532D01*
D02*
G37*
G36*
X-39770Y-157235D02*
X-41574Y-157594D01*
X-43104Y-158616D01*
X-43451Y-159136D01*
X-44979D01*
X-45326Y-158616D01*
X-46856Y-157594D01*
X-48660Y-157235D01*
X-50464Y-157594D01*
X-51994Y-158616D01*
X-53016Y-160146D01*
X-53375Y-161950D01*
X-53016Y-163754D01*
X-51994Y-165284D01*
X-50464Y-166306D01*
X-48660Y-166665D01*
X-46856Y-166306D01*
X-45326Y-165284D01*
X-44979Y-164764D01*
X-43451D01*
X-43104Y-165284D01*
X-41574Y-166306D01*
X-39770Y-166665D01*
X-37966Y-166306D01*
X-36436Y-165284D01*
X-35414Y-163754D01*
X-35055Y-161950D01*
X-35414Y-160146D01*
X-36436Y-158616D01*
X-37966Y-157594D01*
X-39770Y-157235D01*
D02*
G37*
G36*
X-222650Y-152652D02*
X-224123Y-152945D01*
X-225371Y-153779D01*
X-226205Y-155028D01*
X-226498Y-156500D01*
X-226205Y-157972D01*
X-225371Y-159221D01*
X-224123Y-160055D01*
X-222650Y-160348D01*
X-221178Y-160055D01*
X-219929Y-159221D01*
X-219095Y-157972D01*
X-218802Y-156500D01*
X-219095Y-155028D01*
X-219929Y-153779D01*
X-221178Y-152945D01*
X-222650Y-152652D01*
D02*
G37*
G36*
X-245750Y-155902D02*
X-247222Y-156195D01*
X-248471Y-157029D01*
X-249305Y-158277D01*
X-249598Y-159750D01*
X-249305Y-161222D01*
X-248471Y-162471D01*
X-247222Y-163305D01*
X-245750Y-163598D01*
X-244277Y-163305D01*
X-243029Y-162471D01*
X-242195Y-161222D01*
X-241902Y-159750D01*
X-242195Y-158277D01*
X-243029Y-157029D01*
X-244277Y-156195D01*
X-245750Y-155902D01*
D02*
G37*
G36*
X-394500Y-153111D02*
X-403500D01*
X-405464Y-153370D01*
X-407295Y-154128D01*
X-408866Y-155334D01*
X-410072Y-156905D01*
X-410830Y-158736D01*
X-411089Y-160700D01*
X-410830Y-162664D01*
X-410072Y-164494D01*
X-408866Y-166066D01*
X-407295Y-167272D01*
X-405464Y-168030D01*
X-403500Y-168289D01*
X-394500D01*
X-392536Y-168030D01*
X-390705Y-167272D01*
X-389134Y-166066D01*
X-387928Y-164494D01*
X-387170Y-162664D01*
X-386911Y-160700D01*
X-387170Y-158736D01*
X-387928Y-156905D01*
X-389134Y-155334D01*
X-390705Y-154128D01*
X-392536Y-153370D01*
X-394500Y-153111D01*
D02*
G37*
G36*
X-222650Y-161912D02*
X-224123Y-162205D01*
X-225371Y-163039D01*
X-226205Y-164287D01*
X-226498Y-165760D01*
X-226205Y-167232D01*
X-225371Y-168481D01*
X-224123Y-169315D01*
X-222650Y-169608D01*
X-221178Y-169315D01*
X-219929Y-168481D01*
X-219095Y-167232D01*
X-218802Y-165760D01*
X-219095Y-164287D01*
X-219929Y-163039D01*
X-221178Y-162205D01*
X-222650Y-161912D01*
D02*
G37*
G36*
X105000Y-160285D02*
X103196Y-160644D01*
X101666Y-161666D01*
X100644Y-163196D01*
X100285Y-165000D01*
X100644Y-166804D01*
X101666Y-168334D01*
X103196Y-169356D01*
X105000Y-169715D01*
X106804Y-169356D01*
X108334Y-168334D01*
X109356Y-166804D01*
X109715Y-165000D01*
X109356Y-163196D01*
X108334Y-161666D01*
X106804Y-160644D01*
X105000Y-160285D01*
D02*
G37*
G36*
X13062Y-165109D02*
X11258Y-165468D01*
X9728Y-166490D01*
X8706Y-168020D01*
X8347Y-169824D01*
X8359Y-169880D01*
X7303Y-170586D01*
X7246Y-170548D01*
X5442Y-170189D01*
X3638Y-170548D01*
X2108Y-171570D01*
X1086Y-173100D01*
X727Y-174904D01*
X887Y-175705D01*
X-256Y-176469D01*
X-374Y-176390D01*
X-2178Y-176031D01*
X-3982Y-176390D01*
X-5512Y-177412D01*
X-6534Y-178942D01*
X-6893Y-180746D01*
X-6534Y-182550D01*
X-5512Y-184080D01*
X-3982Y-185102D01*
X-2178Y-185461D01*
X-374Y-185102D01*
X1156Y-184080D01*
X2178Y-182550D01*
X2537Y-180746D01*
X2377Y-179945D01*
X3520Y-179181D01*
X3638Y-179260D01*
X5442Y-179619D01*
X7246Y-179260D01*
X8776Y-178238D01*
X9798Y-176708D01*
X10157Y-174904D01*
X10145Y-174848D01*
X11201Y-174142D01*
X11258Y-174180D01*
X13062Y-174539D01*
X14866Y-174180D01*
X16396Y-173158D01*
X17418Y-171628D01*
X17777Y-169824D01*
X17418Y-168020D01*
X16396Y-166490D01*
X14866Y-165468D01*
X13062Y-165109D01*
D02*
G37*
G36*
X325000Y-162785D02*
X323196Y-163144D01*
X321666Y-164166D01*
X320644Y-165696D01*
X320285Y-167500D01*
X320644Y-169304D01*
X321666Y-170834D01*
X323196Y-171856D01*
X325000Y-172215D01*
X326804Y-171856D01*
X328334Y-170834D01*
X329356Y-169304D01*
X329715Y-167500D01*
X329356Y-165696D01*
X328334Y-164166D01*
X326804Y-163144D01*
X325000Y-162785D01*
D02*
G37*
G36*
X275000D02*
X273196Y-163144D01*
X271666Y-164166D01*
X270644Y-165696D01*
X270285Y-167500D01*
X270644Y-169304D01*
X271666Y-170834D01*
X273196Y-171856D01*
X275000Y-172215D01*
X276804Y-171856D01*
X278334Y-170834D01*
X279356Y-169304D01*
X279715Y-167500D01*
X279356Y-165696D01*
X278334Y-164166D01*
X276804Y-163144D01*
X275000Y-162785D01*
D02*
G37*
G36*
X250000D02*
X248196Y-163144D01*
X246666Y-164166D01*
X245644Y-165696D01*
X245285Y-167500D01*
X245644Y-169304D01*
X246666Y-170834D01*
X248196Y-171856D01*
X250000Y-172215D01*
X251804Y-171856D01*
X253334Y-170834D01*
X254356Y-169304D01*
X254715Y-167500D01*
X254356Y-165696D01*
X253334Y-164166D01*
X251804Y-163144D01*
X250000Y-162785D01*
D02*
G37*
G36*
X225000D02*
X223196Y-163144D01*
X221666Y-164166D01*
X220644Y-165696D01*
X220285Y-167500D01*
X220644Y-169304D01*
X221666Y-170834D01*
X223196Y-171856D01*
X225000Y-172215D01*
X226804Y-171856D01*
X228334Y-170834D01*
X229356Y-169304D01*
X229715Y-167500D01*
X229356Y-165696D01*
X228334Y-164166D01*
X226804Y-163144D01*
X225000Y-162785D01*
D02*
G37*
G36*
X200000D02*
X198196Y-163144D01*
X196666Y-164166D01*
X195644Y-165696D01*
X195285Y-167500D01*
X195644Y-169304D01*
X196666Y-170834D01*
X198196Y-171856D01*
X200000Y-172215D01*
X201804Y-171856D01*
X203334Y-170834D01*
X204356Y-169304D01*
X204715Y-167500D01*
X204356Y-165696D01*
X203334Y-164166D01*
X201804Y-163144D01*
X200000Y-162785D01*
D02*
G37*
G36*
X175000D02*
X173196Y-163144D01*
X171666Y-164166D01*
X170644Y-165696D01*
X170285Y-167500D01*
X170644Y-169304D01*
X171666Y-170834D01*
X173196Y-171856D01*
X175000Y-172215D01*
X176804Y-171856D01*
X178334Y-170834D01*
X179356Y-169304D01*
X179715Y-167500D01*
X179356Y-165696D01*
X178334Y-164166D01*
X176804Y-163144D01*
X175000Y-162785D01*
D02*
G37*
G36*
X150000D02*
X148196Y-163144D01*
X146666Y-164166D01*
X145644Y-165696D01*
X145285Y-167500D01*
X145644Y-169304D01*
X146666Y-170834D01*
X148196Y-171856D01*
X150000Y-172215D01*
X151804Y-171856D01*
X153334Y-170834D01*
X154356Y-169304D01*
X154715Y-167500D01*
X154356Y-165696D01*
X153334Y-164166D01*
X151804Y-163144D01*
X150000Y-162785D01*
D02*
G37*
G36*
X75000D02*
X73196Y-163144D01*
X71666Y-164166D01*
X70644Y-165696D01*
X70285Y-167500D01*
X70644Y-169304D01*
X71666Y-170834D01*
X73196Y-171856D01*
X75000Y-172215D01*
X76804Y-171856D01*
X78334Y-170834D01*
X79356Y-169304D01*
X79715Y-167500D01*
X79356Y-165696D01*
X78334Y-164166D01*
X76804Y-163144D01*
X75000Y-162785D01*
D02*
G37*
G36*
X50000D02*
X48196Y-163144D01*
X46666Y-164166D01*
X45644Y-165696D01*
X45285Y-167500D01*
X45644Y-169304D01*
X46666Y-170834D01*
X48196Y-171856D01*
X50000Y-172215D01*
X51804Y-171856D01*
X53334Y-170834D01*
X54356Y-169304D01*
X54715Y-167500D01*
X54356Y-165696D01*
X53334Y-164166D01*
X51804Y-163144D01*
X50000Y-162785D01*
D02*
G37*
G36*
X25000D02*
X23196Y-163144D01*
X21666Y-164166D01*
X20644Y-165696D01*
X20285Y-167500D01*
X20644Y-169304D01*
X21666Y-170834D01*
X23196Y-171856D01*
X25000Y-172215D01*
X26804Y-171856D01*
X28334Y-170834D01*
X29356Y-169304D01*
X29715Y-167500D01*
X29356Y-165696D01*
X28334Y-164166D01*
X26804Y-163144D01*
X25000Y-162785D01*
D02*
G37*
G36*
X-150000D02*
X-151804Y-163144D01*
X-153334Y-164166D01*
X-154356Y-165696D01*
X-154715Y-167500D01*
X-154356Y-169304D01*
X-153334Y-170834D01*
X-151804Y-171856D01*
X-150000Y-172215D01*
X-148196Y-171856D01*
X-146666Y-170834D01*
X-145644Y-169304D01*
X-145285Y-167500D01*
X-145644Y-165696D01*
X-146666Y-164166D01*
X-148196Y-163144D01*
X-150000Y-162785D01*
D02*
G37*
G36*
X-175000D02*
X-176804Y-163144D01*
X-178334Y-164166D01*
X-179356Y-165696D01*
X-179715Y-167500D01*
X-179356Y-169304D01*
X-178334Y-170834D01*
X-176804Y-171856D01*
X-175000Y-172215D01*
X-173196Y-171856D01*
X-171666Y-170834D01*
X-170644Y-169304D01*
X-170285Y-167500D01*
X-170644Y-165696D01*
X-171666Y-164166D01*
X-173196Y-163144D01*
X-175000Y-162785D01*
D02*
G37*
G36*
X-320000Y-166785D02*
X-321804Y-167144D01*
X-323334Y-168166D01*
X-324356Y-169696D01*
X-324715Y-171500D01*
X-324356Y-173304D01*
X-323334Y-174834D01*
X-321804Y-175856D01*
X-320000Y-176215D01*
X-318196Y-175856D01*
X-316666Y-174834D01*
X-315644Y-173304D01*
X-315285Y-171500D01*
X-315644Y-169696D01*
X-316666Y-168166D01*
X-318196Y-167144D01*
X-320000Y-166785D01*
D02*
G37*
G36*
X-354600Y-175995D02*
X-357028Y-176478D01*
X-359086Y-177854D01*
X-360462Y-179912D01*
X-360945Y-182340D01*
X-360462Y-184768D01*
X-359086Y-186826D01*
X-357028Y-188202D01*
X-354600Y-188685D01*
X-352172Y-188202D01*
X-350113Y-186826D01*
X-348738Y-184768D01*
X-348255Y-182340D01*
X-348738Y-179912D01*
X-350113Y-177854D01*
X-352172Y-176478D01*
X-354600Y-175995D01*
D02*
G37*
G36*
X337500Y-187785D02*
X335696Y-188144D01*
X334166Y-189166D01*
X333144Y-190696D01*
X332785Y-192500D01*
X333144Y-194304D01*
X334166Y-195834D01*
X335696Y-196856D01*
X337500Y-197215D01*
X339304Y-196856D01*
X340834Y-195834D01*
X341856Y-194304D01*
X342215Y-192500D01*
X341856Y-190696D01*
X340834Y-189166D01*
X339304Y-188144D01*
X337500Y-187785D01*
D02*
G37*
G36*
X287500D02*
X285696Y-188144D01*
X284166Y-189166D01*
X283144Y-190696D01*
X282785Y-192500D01*
X283144Y-194304D01*
X284166Y-195834D01*
X285696Y-196856D01*
X287500Y-197215D01*
X289304Y-196856D01*
X290834Y-195834D01*
X291856Y-194304D01*
X292215Y-192500D01*
X291856Y-190696D01*
X290834Y-189166D01*
X289304Y-188144D01*
X287500Y-187785D01*
D02*
G37*
G36*
X237500D02*
X235696Y-188144D01*
X234166Y-189166D01*
X233144Y-190696D01*
X232785Y-192500D01*
X233144Y-194304D01*
X234166Y-195834D01*
X235696Y-196856D01*
X237500Y-197215D01*
X239304Y-196856D01*
X240834Y-195834D01*
X241856Y-194304D01*
X242215Y-192500D01*
X241856Y-190696D01*
X240834Y-189166D01*
X239304Y-188144D01*
X237500Y-187785D01*
D02*
G37*
G36*
X212500D02*
X210696Y-188144D01*
X209166Y-189166D01*
X208144Y-190696D01*
X207785Y-192500D01*
X208144Y-194304D01*
X209166Y-195834D01*
X210696Y-196856D01*
X212500Y-197215D01*
X214304Y-196856D01*
X215834Y-195834D01*
X216856Y-194304D01*
X217215Y-192500D01*
X216856Y-190696D01*
X215834Y-189166D01*
X214304Y-188144D01*
X212500Y-187785D01*
D02*
G37*
G36*
X187500D02*
X185696Y-188144D01*
X184166Y-189166D01*
X183144Y-190696D01*
X182785Y-192500D01*
X183144Y-194304D01*
X184166Y-195834D01*
X185696Y-196856D01*
X187500Y-197215D01*
X189304Y-196856D01*
X190834Y-195834D01*
X191856Y-194304D01*
X192215Y-192500D01*
X191856Y-190696D01*
X190834Y-189166D01*
X189304Y-188144D01*
X187500Y-187785D01*
D02*
G37*
G36*
X162500D02*
X160696Y-188144D01*
X159166Y-189166D01*
X158144Y-190696D01*
X157785Y-192500D01*
X158144Y-194304D01*
X159166Y-195834D01*
X160696Y-196856D01*
X162500Y-197215D01*
X164304Y-196856D01*
X165834Y-195834D01*
X166856Y-194304D01*
X167215Y-192500D01*
X166856Y-190696D01*
X165834Y-189166D01*
X164304Y-188144D01*
X162500Y-187785D01*
D02*
G37*
G36*
X137500D02*
X135696Y-188144D01*
X134166Y-189166D01*
X133144Y-190696D01*
X132785Y-192500D01*
X133144Y-194304D01*
X134166Y-195834D01*
X135696Y-196856D01*
X137500Y-197215D01*
X139304Y-196856D01*
X140834Y-195834D01*
X141856Y-194304D01*
X142215Y-192500D01*
X141856Y-190696D01*
X140834Y-189166D01*
X139304Y-188144D01*
X137500Y-187785D01*
D02*
G37*
G36*
X87500D02*
X85696Y-188144D01*
X84166Y-189166D01*
X83144Y-190696D01*
X82785Y-192500D01*
X83144Y-194304D01*
X84166Y-195834D01*
X85696Y-196856D01*
X87500Y-197215D01*
X89304Y-196856D01*
X90834Y-195834D01*
X91856Y-194304D01*
X92215Y-192500D01*
X91856Y-190696D01*
X90834Y-189166D01*
X89304Y-188144D01*
X87500Y-187785D01*
D02*
G37*
G36*
X62500D02*
X60696Y-188144D01*
X59166Y-189166D01*
X58144Y-190696D01*
X57785Y-192500D01*
X58144Y-194304D01*
X59166Y-195834D01*
X60696Y-196856D01*
X62500Y-197215D01*
X64304Y-196856D01*
X65834Y-195834D01*
X66856Y-194304D01*
X67215Y-192500D01*
X66856Y-190696D01*
X65834Y-189166D01*
X64304Y-188144D01*
X62500Y-187785D01*
D02*
G37*
G36*
X12500D02*
X10696Y-188144D01*
X9166Y-189166D01*
X8144Y-190696D01*
X7785Y-192500D01*
X8144Y-194304D01*
X9166Y-195834D01*
X10696Y-196856D01*
X12500Y-197215D01*
X14304Y-196856D01*
X15834Y-195834D01*
X16856Y-194304D01*
X17215Y-192500D01*
X16856Y-190696D01*
X15834Y-189166D01*
X14304Y-188144D01*
X12500Y-187785D01*
D02*
G37*
G36*
X-12500D02*
X-14304Y-188144D01*
X-15834Y-189166D01*
X-16856Y-190696D01*
X-17215Y-192500D01*
X-16856Y-194304D01*
X-15834Y-195834D01*
X-14304Y-196856D01*
X-12500Y-197215D01*
X-10696Y-196856D01*
X-9166Y-195834D01*
X-8144Y-194304D01*
X-7785Y-192500D01*
X-8144Y-190696D01*
X-9166Y-189166D01*
X-10696Y-188144D01*
X-12500Y-187785D01*
D02*
G37*
G36*
X-162500D02*
X-164304Y-188144D01*
X-165834Y-189166D01*
X-166856Y-190696D01*
X-167215Y-192500D01*
X-166856Y-194304D01*
X-165834Y-195834D01*
X-164304Y-196856D01*
X-162500Y-197215D01*
X-160696Y-196856D01*
X-159166Y-195834D01*
X-158144Y-194304D01*
X-157785Y-192500D01*
X-158144Y-190696D01*
X-159166Y-189166D01*
X-160696Y-188144D01*
X-162500Y-187785D01*
D02*
G37*
G36*
X305100Y-188985D02*
X303296Y-189344D01*
X301766Y-190366D01*
X300744Y-191896D01*
X300385Y-193700D01*
X300744Y-195504D01*
X301766Y-197034D01*
X303296Y-198056D01*
X305100Y-198415D01*
X306904Y-198056D01*
X308434Y-197034D01*
X309456Y-195504D01*
X309815Y-193700D01*
X309456Y-191896D01*
X308434Y-190366D01*
X306904Y-189344D01*
X305100Y-188985D01*
D02*
G37*
G36*
X-223666Y-189239D02*
X-225470Y-189598D01*
X-227000Y-190620D01*
X-228022Y-192150D01*
X-228381Y-193954D01*
X-228022Y-195758D01*
X-227000Y-197288D01*
X-225470Y-198310D01*
X-223666Y-198669D01*
X-221862Y-198310D01*
X-220332Y-197288D01*
X-219310Y-195758D01*
X-218951Y-193954D01*
X-219310Y-192150D01*
X-220332Y-190620D01*
X-221862Y-189598D01*
X-223666Y-189239D01*
D02*
G37*
G36*
X-405400Y-186155D02*
X-407828Y-186638D01*
X-409887Y-188013D01*
X-411262Y-190072D01*
X-411745Y-192500D01*
X-411262Y-194928D01*
X-409887Y-196987D01*
X-407828Y-198362D01*
X-405400Y-198845D01*
X-402972Y-198362D01*
X-400914Y-196987D01*
X-399538Y-194928D01*
X-399055Y-192500D01*
X-399538Y-190072D01*
X-400914Y-188013D01*
X-402972Y-186638D01*
X-405400Y-186155D01*
D02*
G37*
G36*
X-354600Y-196315D02*
X-357028Y-196798D01*
X-359086Y-198174D01*
X-360462Y-200232D01*
X-360945Y-202660D01*
X-360462Y-205088D01*
X-359086Y-207146D01*
X-357028Y-208522D01*
X-354600Y-209005D01*
X-352172Y-208522D01*
X-350113Y-207146D01*
X-348738Y-205088D01*
X-348255Y-202660D01*
X-348738Y-200232D01*
X-350113Y-198174D01*
X-352172Y-196798D01*
X-354600Y-196315D01*
D02*
G37*
G36*
X-367430Y-204225D02*
X-369234Y-204584D01*
X-370764Y-205606D01*
X-371786Y-207136D01*
X-372145Y-208940D01*
X-371786Y-210744D01*
X-370764Y-212274D01*
X-369234Y-213296D01*
X-367430Y-213655D01*
X-365626Y-213296D01*
X-364096Y-212274D01*
X-363074Y-210744D01*
X-362715Y-208940D01*
X-363074Y-207136D01*
X-364096Y-205606D01*
X-365626Y-204584D01*
X-367430Y-204225D01*
D02*
G37*
G36*
X-380130D02*
X-381934Y-204584D01*
X-383464Y-205606D01*
X-384486Y-207136D01*
X-384845Y-208940D01*
X-384486Y-210744D01*
X-383464Y-212274D01*
X-381934Y-213296D01*
X-380130Y-213655D01*
X-378326Y-213296D01*
X-376796Y-212274D01*
X-375774Y-210744D01*
X-375415Y-208940D01*
X-375774Y-207136D01*
X-376796Y-205606D01*
X-378326Y-204584D01*
X-380130Y-204225D01*
D02*
G37*
%LPD*%
D14*
X-166535Y-21964D02*
G03*
X-158000Y-25500I8536J8536D01*
G01*
X-169965Y-18535D02*
G03*
X-178500Y-15000I-8536J-8536D01*
G01*
X-169965Y-18536D02*
G03*
X-169965Y-18535I0J0D01*
G01*
X-169964Y-18536D02*
G03*
X-169964Y-18536I0J0D01*
G01*
X-166535Y-21965D02*
G03*
X-166536Y-21964I0J0D01*
G01*
X-111500Y-15000D02*
G03*
X-120035Y-18535I0J-12071D01*
G01*
X-132000Y-25500D02*
G03*
X-123464Y-21964I0J12071D01*
G01*
X-132000Y209500D02*
G03*
X-123464Y213036I0J12071D01*
G01*
X-111500Y220000D02*
G03*
X-120035Y216465I0J-12071D01*
G01*
X-166535Y213035D02*
G03*
X-166536Y213036I0J0D01*
G01*
X-169964Y216464D02*
G03*
X-169964Y216464I0J0D01*
G01*
X-169965Y216464D02*
G03*
X-169965Y216465I0J0D01*
G01*
X-169965D02*
G03*
X-178500Y220000I-8536J-8536D01*
G01*
X-166535Y213036D02*
G03*
X-158000Y209500I8536J8536D01*
G01*
X425000Y15000D02*
Y220000D01*
X410000Y15000D02*
X425000D01*
X410000Y-15000D02*
X425000D01*
X410000D02*
Y15000D01*
X-111500Y-15000D02*
X340000D01*
X-425000Y-220000D02*
Y-15000D01*
X-360000D02*
X-178500D01*
X-169964Y-18536D02*
X-166536Y-21964D01*
X-123464D02*
X-120036Y-18536D01*
X-145000Y-25500D02*
X-132000D01*
X-158000D02*
X-145000D01*
X-111500Y220000D02*
X425000Y220000D01*
X-425000Y-15000D02*
X-410000D01*
X-360000Y15000D02*
X340000D01*
X-425000D02*
X-410000D01*
X340000Y-15000D02*
Y15000D01*
X-360000Y-15000D02*
Y15000D01*
X-410000Y-15000D02*
X-410000Y15000D01*
X-158000Y209500D02*
X-145000D01*
X-132000D01*
X-425000Y220000D02*
X-178500D01*
X-123464Y213036D02*
X-120036Y216464D01*
X-169964D02*
X-166536Y213036D01*
X-425000Y15000D02*
Y220000D01*
X425000Y-220000D02*
Y-15000D01*
X-425000Y-220000D02*
X425000D01*
D79*
X283406Y164744D02*
X292500Y155650D01*
X115006Y164744D02*
X283406D01*
X98500Y181250D02*
X115006Y164744D01*
X115768Y-71018D02*
X284168D01*
X98500Y-53750D02*
X115768Y-71018D01*
X284168D02*
X292500Y-79350D01*
D84*
X-137500Y110000D02*
D03*
X-172500Y52500D02*
D03*
X-162500Y52500D02*
D03*
X-152500Y52500D02*
D03*
X-217316Y142392D02*
D03*
X-247500Y90000D02*
D03*
X-311296Y171094D02*
D03*
X-167500Y164028D02*
D03*
X-224174Y197002D02*
D03*
X-287500Y37062D02*
D03*
X-388750Y199500D02*
D03*
X-340000Y141500D02*
D03*
X-323488Y78130D02*
D03*
X-392830Y26060D02*
D03*
X-340000Y93500D02*
D03*
X-320000Y41000D02*
D03*
X-223750Y26000D02*
D03*
X292500Y155650D02*
D03*
Y181050D02*
D03*
X111500Y181250D02*
D03*
X98500D02*
D03*
X-120478Y-81750D02*
D03*
X-152500Y-182500D02*
D03*
X-162500Y-182500D02*
D03*
X-172500Y-182500D02*
D03*
X-320000Y-194000D02*
D03*
X-392830Y-208940D02*
D03*
X-167500Y-70972D02*
D03*
X-162500Y-95000D02*
D03*
X98500Y-53750D02*
D03*
X111500D02*
D03*
X292500Y-53950D02*
D03*
Y-79350D02*
D03*
X-223750Y-209000D02*
D03*
X-340000Y-141500D02*
D03*
Y-93500D02*
D03*
X-388750Y-35500D02*
D03*
D85*
X-239250Y-127250D02*
D03*
X-304250D02*
D03*
X-247750Y-64000D02*
D03*
X-297580Y-64160D02*
D03*
D86*
X-320000Y26000D02*
X-223750D01*
X-320000Y-209000D02*
X-223750D01*
X-330540Y26000D02*
X-320000D01*
X-340000Y178712D02*
X-321710Y197002D01*
X-224174D01*
X-340000Y93500D02*
Y141500D01*
Y178712D01*
Y35460D02*
Y93500D01*
Y35460D02*
X-330540Y26000D01*
X292500Y181050D02*
X292500D01*
X292300Y181250D02*
X292500Y181050D01*
X-223750Y26000D02*
X-132540D01*
X-88540Y70000D02*
X-60850D01*
X-132540Y26000D02*
X-88540Y70000D01*
X315000Y92500D02*
Y158550D01*
X-16850Y26000D02*
X248500D01*
X-60850Y70000D02*
X-16850Y26000D01*
X248500D02*
X315000Y92500D01*
X292500Y181050D02*
X315000Y158550D01*
X111500Y181250D02*
X292300D01*
X-320000Y26060D02*
Y41000D01*
X-330540Y-209000D02*
X-320000D01*
X-340000Y-199540D02*
Y-141500D01*
X-320000Y-208940D02*
Y-194000D01*
X111500Y-53750D02*
X292300D01*
X292500Y-53950D02*
X315000Y-76450D01*
X251000Y-209000D02*
X315000Y-145000D01*
X-60850Y-165000D02*
X-16850Y-209000D01*
X251000D01*
X315000Y-145000D02*
Y-76450D01*
X-132540Y-209000D02*
X-88540Y-165000D01*
X-60850D01*
X-223750Y-209000D02*
X-132540D01*
X292300Y-53750D02*
X292500Y-53950D01*
X292500D01*
X-340000Y-141500D02*
Y-93500D01*
Y-199540D02*
X-330540Y-209000D01*
M02*
