G04*
G04 #@! TF.GenerationSoftware,Altium Limited,Altium Designer,20.0.7 (75)*
G04*
G04 Layer_Physical_Order=4*
G04 Layer_Color=16711680*
%FSLAX44Y44*%
%MOMM*%
G71*
G01*
G75*
%ADD10C,0.2540*%
%ADD14C,0.2032*%
%ADD21C,0.1524*%
%ADD76C,0.8500*%
%ADD80C,1.1520*%
%ADD81O,2.1000X1.2000*%
%ADD82O,2.3000X1.2000*%
%ADD83C,4.1000*%
%ADD84C,0.6200*%
%ADD85C,0.4500*%
G36*
X419911Y20985D02*
X419013Y20087D01*
X-68636Y20088D01*
X-68824Y21358D01*
X-66531Y22054D01*
X-62705Y24099D01*
X-59351Y26851D01*
X-56599Y30205D01*
X-54554Y34031D01*
X-53295Y38182D01*
X-52870Y42500D01*
X-53295Y46817D01*
X-54554Y50969D01*
X-56599Y54795D01*
X-59351Y58149D01*
X-62705Y60901D01*
X-66531Y62946D01*
X-70683Y64205D01*
X-75000Y64630D01*
X-79317Y64205D01*
X-83469Y62946D01*
X-87295Y60901D01*
X-90649Y58149D01*
X-93401Y54795D01*
X-95446Y50969D01*
X-96705Y46817D01*
X-97130Y42500D01*
X-96705Y38182D01*
X-95446Y34031D01*
X-93401Y30205D01*
X-90649Y26851D01*
X-87295Y24099D01*
X-83469Y22054D01*
X-81176Y21358D01*
X-81364Y20089D01*
X-223255Y20089D01*
X-223380Y21359D01*
X-222922Y21450D01*
X-221946Y21644D01*
X-220416Y22666D01*
X-219394Y24196D01*
X-219035Y26000D01*
X-219394Y27804D01*
X-220416Y29334D01*
X-221946Y30356D01*
X-223750Y30715D01*
X-225554Y30356D01*
X-227084Y29334D01*
X-228106Y27804D01*
X-228465Y26000D01*
X-228106Y24196D01*
X-227084Y22666D01*
X-225554Y21644D01*
X-224578Y21450D01*
X-224120Y21359D01*
X-224245Y20089D01*
X-419911Y20090D01*
X-419911Y113205D01*
X-418641Y113537D01*
X-417695Y112305D01*
X-416173Y111137D01*
X-414402Y110403D01*
X-412500Y110153D01*
X-410598Y110403D01*
X-408827Y111137D01*
X-407305Y112305D01*
X-406137Y113827D01*
X-405404Y115598D01*
X-405153Y117500D01*
X-405404Y119402D01*
X-406137Y121173D01*
X-407305Y122695D01*
X-408827Y123862D01*
X-410598Y124597D01*
X-412500Y124847D01*
X-414402Y124597D01*
X-416173Y123862D01*
X-417695Y122695D01*
X-418641Y121463D01*
X-419911Y121795D01*
X-419910Y214910D01*
X-178500Y214909D01*
Y214892D01*
X-176698Y214654D01*
X-175019Y213959D01*
X-173577Y212852D01*
X-173565Y212864D01*
X-173564Y212864D01*
X-173553Y212856D01*
X-170134Y209437D01*
X-170134Y209437D01*
X-170157Y209414D01*
X-167552Y207276D01*
X-164579Y205687D01*
X-161354Y204708D01*
X-158000Y204378D01*
Y204410D01*
X-132000Y204410D01*
Y204378D01*
X-128646Y204708D01*
X-125421Y205687D01*
X-122448Y207276D01*
X-119843Y209414D01*
X-119866Y209437D01*
X-117335Y211969D01*
X-116423Y212852D01*
X-114981Y213959D01*
X-113302Y214654D01*
X-111500Y214892D01*
Y214909D01*
X-81371Y214909D01*
X-81183Y213639D01*
X-83469Y212946D01*
X-87295Y210901D01*
X-90649Y208149D01*
X-93401Y204795D01*
X-95446Y200969D01*
X-96705Y196817D01*
X-97130Y192500D01*
X-96705Y188183D01*
X-95446Y184031D01*
X-93401Y180205D01*
X-90649Y176851D01*
X-87295Y174099D01*
X-83469Y172054D01*
X-79317Y170795D01*
X-75000Y170369D01*
X-70683Y170795D01*
X-66531Y172054D01*
X-62705Y174099D01*
X-59351Y176851D01*
X-56599Y180205D01*
X-54554Y184031D01*
X-53295Y188183D01*
X-52870Y192500D01*
X-53295Y196817D01*
X-54554Y200969D01*
X-56599Y204795D01*
X-59351Y208149D01*
X-62705Y210901D01*
X-66531Y212946D01*
X-68817Y213640D01*
X-68629Y214909D01*
X419910Y214911D01*
X419911Y20985D01*
D02*
G37*
G36*
Y-214015D02*
X419013Y-214913D01*
X-68636Y-214912D01*
X-68824Y-213642D01*
X-66531Y-212946D01*
X-62705Y-210901D01*
X-59351Y-208149D01*
X-56599Y-204795D01*
X-54554Y-200969D01*
X-53295Y-196817D01*
X-52870Y-192500D01*
X-53295Y-188183D01*
X-54554Y-184031D01*
X-56599Y-180205D01*
X-59351Y-176851D01*
X-62705Y-174099D01*
X-66531Y-172054D01*
X-70683Y-170795D01*
X-75000Y-170369D01*
X-79317Y-170795D01*
X-83469Y-172054D01*
X-87295Y-174099D01*
X-90649Y-176851D01*
X-93401Y-180205D01*
X-95446Y-184031D01*
X-96705Y-188183D01*
X-97130Y-192500D01*
X-96705Y-196817D01*
X-95446Y-200969D01*
X-93401Y-204795D01*
X-90649Y-208149D01*
X-87295Y-210901D01*
X-83469Y-212946D01*
X-81176Y-213641D01*
X-81364Y-214911D01*
X-223255Y-214911D01*
X-223380Y-213641D01*
X-222922Y-213550D01*
X-221946Y-213356D01*
X-220416Y-212334D01*
X-219394Y-210804D01*
X-219035Y-209000D01*
X-219394Y-207196D01*
X-220416Y-205666D01*
X-221946Y-204644D01*
X-223750Y-204285D01*
X-225554Y-204644D01*
X-227084Y-205666D01*
X-228106Y-207196D01*
X-228465Y-209000D01*
X-228106Y-210804D01*
X-227084Y-212334D01*
X-225554Y-213356D01*
X-224578Y-213550D01*
X-224120Y-213641D01*
X-224245Y-214911D01*
X-419911Y-214910D01*
X-419911Y-121795D01*
X-418641Y-121463D01*
X-417695Y-122695D01*
X-416173Y-123862D01*
X-414402Y-124597D01*
X-412500Y-124847D01*
X-410598Y-124597D01*
X-408827Y-123862D01*
X-407305Y-122695D01*
X-406137Y-121173D01*
X-405404Y-119402D01*
X-405153Y-117500D01*
X-405404Y-115598D01*
X-406137Y-113827D01*
X-407305Y-112305D01*
X-408827Y-111137D01*
X-410598Y-110403D01*
X-412500Y-110153D01*
X-414402Y-110403D01*
X-416173Y-111137D01*
X-417695Y-112305D01*
X-418641Y-113537D01*
X-419911Y-113205D01*
X-419910Y-20090D01*
X-178500Y-20091D01*
Y-20108D01*
X-176698Y-20346D01*
X-175019Y-21041D01*
X-173577Y-22148D01*
X-173565Y-22136D01*
X-173564Y-22136D01*
X-173553Y-22144D01*
X-170134Y-25563D01*
X-170134Y-25563D01*
X-170157Y-25586D01*
X-167552Y-27724D01*
X-164579Y-29313D01*
X-161354Y-30292D01*
X-158000Y-30622D01*
Y-30590D01*
X-132000Y-30590D01*
Y-30622D01*
X-128646Y-30292D01*
X-125421Y-29313D01*
X-122448Y-27724D01*
X-119843Y-25586D01*
X-119866Y-25563D01*
X-117335Y-23031D01*
X-116423Y-22148D01*
X-114981Y-21041D01*
X-113302Y-20346D01*
X-111500Y-20108D01*
Y-20091D01*
X-81371Y-20091D01*
X-81183Y-21361D01*
X-83469Y-22054D01*
X-87295Y-24099D01*
X-90649Y-26851D01*
X-93401Y-30205D01*
X-95446Y-34031D01*
X-96705Y-38182D01*
X-97130Y-42500D01*
X-96705Y-46817D01*
X-95446Y-50969D01*
X-93401Y-54795D01*
X-90649Y-58149D01*
X-87295Y-60901D01*
X-83469Y-62946D01*
X-79317Y-64205D01*
X-75000Y-64630D01*
X-70683Y-64205D01*
X-66531Y-62946D01*
X-62705Y-60901D01*
X-59351Y-58149D01*
X-56599Y-54795D01*
X-54554Y-50969D01*
X-53295Y-46817D01*
X-52870Y-42500D01*
X-53295Y-38182D01*
X-54554Y-34031D01*
X-56599Y-30205D01*
X-59351Y-26851D01*
X-62705Y-24099D01*
X-66531Y-22054D01*
X-68817Y-21360D01*
X-68629Y-20090D01*
X419910Y-20089D01*
X419911Y-214015D01*
D02*
G37*
%LPC*%
G36*
X104080Y210519D02*
X104080Y210519D01*
X-16330D01*
X-16330Y210519D01*
X-17420Y210302D01*
X-18344Y209684D01*
X-18344Y209684D01*
X-59294Y168735D01*
X-60000Y168876D01*
X-61804Y168517D01*
X-63334Y167495D01*
X-63765Y166849D01*
X-148900D01*
X-149212Y167316D01*
X-150742Y168338D01*
X-152546Y168697D01*
X-154350Y168338D01*
X-155880Y167316D01*
X-156902Y165786D01*
X-157261Y163982D01*
X-156902Y162178D01*
X-155880Y160648D01*
X-154350Y159626D01*
X-152546Y159267D01*
X-152067Y159363D01*
X-151572Y158166D01*
X-152324Y157664D01*
X-153346Y156134D01*
X-153705Y154330D01*
X-153346Y152526D01*
X-152714Y151581D01*
X-153393Y150311D01*
X-184855D01*
X-205762Y171218D01*
X-206518Y171723D01*
X-207410Y171901D01*
X-273450D01*
X-274342Y171723D01*
X-275098Y171218D01*
X-297789Y148527D01*
X-298471Y148655D01*
X-299059Y148996D01*
Y151333D01*
X-265119Y185273D01*
X-238084D01*
X-237414Y184270D01*
X-235884Y183248D01*
X-234080Y182889D01*
X-232276Y183248D01*
X-230746Y184270D01*
X-229724Y185800D01*
X-229365Y187604D01*
X-229724Y189408D01*
X-230746Y190938D01*
X-232276Y191960D01*
X-234080Y192319D01*
X-235884Y191960D01*
X-237414Y190938D01*
X-238084Y189935D01*
X-266084D01*
X-266976Y189757D01*
X-267732Y189252D01*
X-303038Y153946D01*
X-303543Y153190D01*
X-303721Y152298D01*
Y98450D01*
X-303543Y97558D01*
X-303038Y96802D01*
X-296979Y90743D01*
X-297215Y89560D01*
X-296856Y87756D01*
X-295834Y86226D01*
X-294304Y85204D01*
X-292500Y84845D01*
X-290696Y85204D01*
X-289166Y86226D01*
X-288144Y87756D01*
X-287785Y89560D01*
X-288144Y91364D01*
X-289166Y92894D01*
X-290696Y93916D01*
X-292500Y94275D01*
X-293683Y94039D01*
X-299059Y99415D01*
Y131724D01*
X-298471Y132065D01*
X-297858Y132180D01*
X-296994Y131311D01*
X-297215Y130200D01*
X-296856Y128396D01*
X-295834Y126866D01*
X-294304Y125844D01*
X-292500Y125485D01*
X-290696Y125844D01*
X-289166Y126866D01*
X-288144Y128396D01*
X-287785Y130200D01*
X-288144Y132004D01*
X-289166Y133534D01*
X-290696Y134556D01*
X-292500Y134915D01*
X-292755Y134864D01*
X-293979Y135892D01*
Y141477D01*
X-292709Y141862D01*
X-292024Y140836D01*
X-290494Y139814D01*
X-288690Y139455D01*
X-288634Y139467D01*
X-287928Y138411D01*
X-287966Y138354D01*
X-288325Y136550D01*
X-287966Y134746D01*
X-286944Y133216D01*
X-285414Y132194D01*
X-283610Y131835D01*
X-281806Y132194D01*
X-280276Y133216D01*
X-279606Y134219D01*
X-275990D01*
X-275098Y134397D01*
X-274342Y134902D01*
X-271627Y137616D01*
X-270457Y136991D01*
X-270545Y136550D01*
X-270186Y134746D01*
X-269164Y133216D01*
X-268161Y132546D01*
Y131165D01*
X-279887Y119439D01*
X-281070Y119675D01*
X-282874Y119316D01*
X-284404Y118294D01*
X-285426Y116764D01*
X-285785Y114960D01*
X-285426Y113156D01*
X-284404Y111626D01*
X-282874Y110604D01*
X-281070Y110245D01*
X-279266Y110604D01*
X-277736Y111626D01*
X-276714Y113156D01*
X-276355Y114960D01*
X-276591Y116143D01*
X-269230Y123503D01*
X-267852Y123085D01*
X-267646Y122046D01*
X-266624Y120516D01*
X-265094Y119494D01*
X-263290Y119135D01*
X-261486Y119494D01*
X-259956Y120516D01*
X-258934Y122046D01*
X-258575Y123850D01*
X-257778Y124821D01*
X-250133D01*
X-249748Y123551D01*
X-250074Y123334D01*
X-251096Y121804D01*
X-251455Y120000D01*
X-251219Y118817D01*
X-279162Y90874D01*
X-279667Y90118D01*
X-279845Y89226D01*
Y67656D01*
X-280848Y66986D01*
X-281870Y65456D01*
X-282229Y63652D01*
X-281993Y62469D01*
X-304746Y39716D01*
X-305916Y40342D01*
X-305785Y41000D01*
X-306144Y42804D01*
X-307166Y44334D01*
X-308169Y45004D01*
Y78134D01*
X-308347Y79026D01*
X-308852Y79782D01*
X-327915Y98845D01*
X-327680Y100028D01*
X-328039Y101832D01*
X-329061Y103362D01*
X-330590Y104384D01*
X-332395Y104743D01*
X-334199Y104384D01*
X-335728Y103362D01*
X-336750Y101832D01*
X-337109Y100028D01*
X-336795Y98447D01*
X-337329Y97892D01*
X-337824Y97607D01*
X-338196Y97856D01*
X-340000Y98215D01*
X-341804Y97856D01*
X-343334Y96834D01*
X-344356Y95304D01*
X-344715Y93500D01*
X-344356Y91696D01*
X-343334Y90166D01*
X-341804Y89144D01*
X-340000Y88785D01*
X-338196Y89144D01*
X-336666Y90166D01*
X-335644Y91696D01*
X-335285Y93500D01*
X-335600Y95081D01*
X-335066Y95637D01*
X-334571Y95921D01*
X-334199Y95673D01*
X-332395Y95314D01*
X-331212Y95549D01*
X-312831Y77168D01*
Y45004D01*
X-313834Y44334D01*
X-314541Y43274D01*
X-315958D01*
X-316666Y44334D01*
X-318196Y45356D01*
X-320000Y45715D01*
X-321804Y45356D01*
X-323334Y44334D01*
X-324041Y43274D01*
X-325458D01*
X-326166Y44334D01*
X-327696Y45356D01*
X-329500Y45715D01*
X-331304Y45356D01*
X-332834Y44334D01*
X-333856Y42804D01*
X-334215Y41000D01*
X-333856Y39196D01*
X-332834Y37666D01*
X-333120Y36330D01*
X-333437Y36257D01*
X-340890Y43710D01*
X-341646Y44215D01*
X-342538Y44393D01*
X-364128D01*
X-365020Y44215D01*
X-365776Y43710D01*
X-378947Y30539D01*
X-380130Y30775D01*
X-381934Y30416D01*
X-383464Y29394D01*
X-384486Y27864D01*
X-384845Y26060D01*
X-384486Y24256D01*
X-383464Y22726D01*
X-381934Y21704D01*
X-380130Y21345D01*
X-378326Y21704D01*
X-376796Y22726D01*
X-375774Y24256D01*
X-375415Y26060D01*
X-375651Y27243D01*
X-363162Y39731D01*
X-355850D01*
X-355725Y38461D01*
X-357028Y38202D01*
X-359086Y36827D01*
X-360462Y34768D01*
X-360945Y32340D01*
X-360462Y29912D01*
X-359086Y27854D01*
X-357028Y26478D01*
X-354600Y25995D01*
X-352172Y26478D01*
X-350113Y27854D01*
X-348738Y29912D01*
X-348255Y32340D01*
X-348738Y34768D01*
X-350113Y36827D01*
X-352172Y38202D01*
X-353475Y38461D01*
X-353350Y39731D01*
X-343503D01*
X-335550Y31778D01*
X-334794Y31273D01*
X-333902Y31095D01*
X-307740D01*
X-306848Y31273D01*
X-306092Y31778D01*
X-278697Y59173D01*
X-277514Y58937D01*
X-275710Y59296D01*
X-274180Y60318D01*
X-273158Y61848D01*
X-272799Y63652D01*
X-273158Y65456D01*
X-274180Y66986D01*
X-275183Y67656D01*
Y88260D01*
X-247923Y115521D01*
X-246740Y115285D01*
X-244936Y115644D01*
X-243406Y116666D01*
X-242384Y118196D01*
X-242025Y120000D01*
X-242384Y121804D01*
X-243406Y123334D01*
X-243732Y123551D01*
X-243347Y124821D01*
X-140811D01*
X-135652Y119662D01*
X-134896Y119157D01*
X-134004Y118979D01*
X-82442D01*
X-81550Y119157D01*
X-80794Y119662D01*
X-77783Y122673D01*
X-76600Y122437D01*
X-74796Y122796D01*
X-73266Y123818D01*
X-72244Y125348D01*
X-71885Y127152D01*
X-72099Y128227D01*
X-70929Y128853D01*
X-45911Y103834D01*
Y74514D01*
X-46914Y73844D01*
X-47936Y72314D01*
X-48295Y70510D01*
X-47936Y68706D01*
X-46914Y67176D01*
X-45384Y66154D01*
X-43580Y65795D01*
X-41776Y66154D01*
X-40831Y66786D01*
X-39561Y66107D01*
Y61814D01*
X-40564Y61144D01*
X-41586Y59614D01*
X-41945Y57810D01*
X-41586Y56006D01*
X-40564Y54476D01*
X-39034Y53454D01*
X-37230Y53095D01*
X-35426Y53454D01*
X-33896Y54476D01*
X-32874Y56006D01*
X-32515Y57810D01*
X-32874Y59614D01*
X-33896Y61144D01*
X-34899Y61814D01*
Y104800D01*
X-35077Y105692D01*
X-35582Y106448D01*
X-79960Y150826D01*
X-79474Y151999D01*
X-51708D01*
X-50816Y152177D01*
X-50060Y152682D01*
X-48823Y153919D01*
X-25254D01*
X-24584Y152916D01*
X-23054Y151894D01*
X-21250Y151535D01*
X-19446Y151894D01*
X-17916Y152916D01*
X-16894Y154446D01*
X-16535Y156250D01*
X-16894Y158054D01*
X-17916Y159584D01*
X-19446Y160606D01*
X-21250Y160965D01*
X-23054Y160606D01*
X-24584Y159584D01*
X-25254Y158581D01*
X-48077D01*
X-48603Y159851D01*
X-33933Y174521D01*
X-32750Y174285D01*
X-30946Y174644D01*
X-29416Y175666D01*
X-28394Y177196D01*
X-28035Y179000D01*
X-28394Y180804D01*
X-29416Y182334D01*
X-30946Y183356D01*
X-32750Y183715D01*
X-34554Y183356D01*
X-35354Y182822D01*
X-36163Y183808D01*
X-15150Y204821D01*
X94732D01*
X95106Y203754D01*
X95145Y203551D01*
X94144Y202054D01*
X93785Y200250D01*
X94144Y198446D01*
X95166Y196916D01*
X96696Y195894D01*
X98500Y195535D01*
X99683Y195771D01*
X102669Y192785D01*
Y185445D01*
X101399Y184874D01*
X100304Y185606D01*
X98500Y185965D01*
X96696Y185606D01*
X95166Y184584D01*
X94144Y183054D01*
X93785Y181250D01*
X94144Y179446D01*
X95166Y177916D01*
X96696Y176894D01*
X98500Y176535D01*
X100304Y176894D01*
X101399Y177626D01*
X102669Y177055D01*
Y163200D01*
X102847Y162308D01*
X103352Y161552D01*
X108121Y156783D01*
X107885Y155600D01*
X108244Y153796D01*
X109266Y152266D01*
X110796Y151244D01*
X112600Y150885D01*
X114404Y151244D01*
X115934Y152266D01*
X116604Y153269D01*
X144353D01*
X150020Y147602D01*
X150777Y147097D01*
X151669Y146919D01*
X181500D01*
X182392Y147097D01*
X183148Y147602D01*
X191451Y155905D01*
X192070Y155752D01*
X192728Y155386D01*
X193044Y153796D01*
X194066Y152266D01*
X195596Y151244D01*
X197400Y150885D01*
X199204Y151244D01*
X200734Y152266D01*
X201404Y153269D01*
X275935D01*
X293055Y136149D01*
X292592Y135161D01*
X292478Y134993D01*
X291227Y134819D01*
X281498Y144548D01*
X280742Y145053D01*
X279850Y145231D01*
X211604D01*
X210934Y146234D01*
X209404Y147256D01*
X207600Y147615D01*
X205796Y147256D01*
X204266Y146234D01*
X203244Y144704D01*
X202885Y142900D01*
X203121Y141717D01*
X199235Y137831D01*
X120965D01*
X117079Y141717D01*
X117315Y142900D01*
X116956Y144704D01*
X115934Y146234D01*
X114404Y147256D01*
X112600Y147615D01*
X110796Y147256D01*
X109266Y146234D01*
X108244Y144704D01*
X107885Y142900D01*
X108121Y141717D01*
X86235Y119831D01*
X28810D01*
X27918Y119653D01*
X27162Y119148D01*
X-3826Y88160D01*
X-4331Y87404D01*
X-4509Y86512D01*
Y58258D01*
X-5512Y57588D01*
X-6534Y56058D01*
X-6893Y54254D01*
X-6534Y52450D01*
X-5512Y50920D01*
X-3982Y49898D01*
X-2178Y49539D01*
X-374Y49898D01*
X1156Y50920D01*
X2178Y52450D01*
X2537Y54254D01*
X2377Y55055D01*
X3520Y55819D01*
X3638Y55740D01*
X5442Y55381D01*
X7246Y55740D01*
X8776Y56762D01*
X9798Y58292D01*
X10157Y60096D01*
X10145Y60152D01*
X11201Y60858D01*
X11258Y60820D01*
X13062Y60461D01*
X14245Y60697D01*
X41590Y33352D01*
X42346Y32847D01*
X43238Y32669D01*
X94246D01*
X94916Y31666D01*
X96446Y30644D01*
X98250Y30285D01*
X100054Y30644D01*
X101584Y31666D01*
X102606Y33196D01*
X102965Y35000D01*
X102606Y36804D01*
X101584Y38334D01*
X100054Y39356D01*
X98250Y39715D01*
X96446Y39356D01*
X94916Y38334D01*
X94246Y37331D01*
X44203D01*
X17541Y63993D01*
X17777Y65176D01*
X17418Y66980D01*
X16396Y68510D01*
X15393Y69180D01*
Y81847D01*
X28504Y94958D01*
X29490Y94148D01*
X29394Y94004D01*
X29035Y92200D01*
X29394Y90396D01*
X30416Y88866D01*
X31946Y87844D01*
X33750Y87485D01*
X35554Y87844D01*
X37084Y88866D01*
X38106Y90396D01*
X38465Y92200D01*
X38229Y93383D01*
X40885Y96039D01*
X42037Y95917D01*
X42553Y94791D01*
X41894Y93804D01*
X41535Y92000D01*
X41894Y90196D01*
X42916Y88666D01*
X44446Y87644D01*
X46250Y87285D01*
X46822Y87399D01*
X51236Y82986D01*
X51236Y82986D01*
X52160Y82368D01*
X53250Y82151D01*
X53250Y82151D01*
X285300D01*
X285300Y82151D01*
X286390Y82368D01*
X287314Y82986D01*
X291828Y87499D01*
X292400Y87385D01*
X294204Y87744D01*
X295734Y88766D01*
X296756Y90296D01*
X297115Y92100D01*
X296756Y93904D01*
X295734Y95434D01*
X294204Y96456D01*
X292400Y96815D01*
X290596Y96456D01*
X289066Y95434D01*
X288044Y93904D01*
X287685Y92100D01*
X287799Y91528D01*
X284120Y87849D01*
X211672D01*
X211169Y89119D01*
X211956Y90296D01*
X212315Y92100D01*
X211956Y93904D01*
X210934Y95434D01*
X209404Y96456D01*
X207600Y96815D01*
X206417Y96579D01*
X202848Y100148D01*
X202092Y100653D01*
X201200Y100831D01*
X118099Y100831D01*
X117380Y102101D01*
X117601Y102469D01*
X203596D01*
X204266Y101466D01*
X205796Y100444D01*
X207600Y100085D01*
X209404Y100444D01*
X210934Y101466D01*
X211956Y102996D01*
X212315Y104800D01*
X211956Y106604D01*
X210934Y108134D01*
X209404Y109156D01*
X207600Y109515D01*
X205796Y109156D01*
X204266Y108134D01*
X203596Y107131D01*
X116604D01*
X115934Y108134D01*
X114404Y109156D01*
X112600Y109515D01*
X110796Y109156D01*
X109266Y108134D01*
X108244Y106604D01*
X107885Y104800D01*
X108244Y102996D01*
X108842Y102101D01*
X108163Y100831D01*
X40050D01*
X39158Y100653D01*
X38402Y100148D01*
X34933Y96679D01*
X33750Y96915D01*
X31946Y96556D01*
X31802Y96460D01*
X30992Y97446D01*
X35965Y102419D01*
X99850D01*
X100742Y102597D01*
X101498Y103102D01*
X111417Y113021D01*
X112600Y112785D01*
X113783Y113021D01*
X117702Y109102D01*
X118458Y108597D01*
X119350Y108419D01*
X200850D01*
X201742Y108597D01*
X202498Y109102D01*
X206417Y113021D01*
X207600Y112785D01*
X209404Y113144D01*
X210934Y114166D01*
X211956Y115696D01*
X212315Y117500D01*
X211956Y119304D01*
X210934Y120834D01*
X209404Y121856D01*
X207600Y122215D01*
X205796Y121856D01*
X204266Y120834D01*
X203244Y119304D01*
X202885Y117500D01*
X203121Y116317D01*
X199885Y113081D01*
X120316D01*
X117079Y116317D01*
X117315Y117500D01*
X116956Y119304D01*
X115934Y120834D01*
X114404Y121856D01*
X112600Y122215D01*
X110796Y121856D01*
X109266Y120834D01*
X108244Y119304D01*
X107885Y117500D01*
X108121Y116317D01*
X98885Y107081D01*
X35000D01*
X34108Y106903D01*
X33352Y106398D01*
X11414Y84460D01*
X10909Y83704D01*
X10731Y82812D01*
Y69180D01*
X9728Y68510D01*
X9043Y67484D01*
X7773Y67869D01*
Y83515D01*
X33077Y108819D01*
X93550D01*
X94442Y108997D01*
X95198Y109502D01*
X111417Y125721D01*
X112600Y125485D01*
X114404Y125844D01*
X115934Y126866D01*
X116604Y127869D01*
X203596D01*
X204266Y126866D01*
X205796Y125844D01*
X207600Y125485D01*
X209404Y125844D01*
X210934Y126866D01*
X211956Y128396D01*
X212315Y130200D01*
X211956Y132004D01*
X210934Y133534D01*
X209404Y134556D01*
X207600Y134915D01*
X205796Y134556D01*
X204266Y133534D01*
X203596Y132531D01*
X202157D01*
X201772Y133801D01*
X201848Y133852D01*
X206417Y138421D01*
X207600Y138185D01*
X209404Y138544D01*
X210934Y139566D01*
X211604Y140569D01*
X278885D01*
X288021Y131433D01*
X287785Y130250D01*
X288144Y128446D01*
X289166Y126916D01*
X290696Y125894D01*
X292500Y125535D01*
X294304Y125894D01*
X295834Y126916D01*
X296856Y128446D01*
X297205Y130203D01*
X297411Y130342D01*
X298399Y130805D01*
X309689Y119515D01*
Y74585D01*
X306283Y71179D01*
X305100Y71415D01*
X303296Y71056D01*
X301766Y70034D01*
X300744Y68504D01*
X300385Y66700D01*
X300744Y64896D01*
X301766Y63366D01*
X303296Y62344D01*
X305100Y61985D01*
X306904Y62344D01*
X308434Y63366D01*
X309456Y64896D01*
X309815Y66700D01*
X309579Y67883D01*
X313499Y71803D01*
X314181Y71675D01*
X314769Y71334D01*
Y54265D01*
X306283Y45779D01*
X305100Y46015D01*
X303296Y45656D01*
X301766Y44634D01*
X300744Y43104D01*
X300385Y41300D01*
X300744Y39496D01*
X301766Y37966D01*
X303296Y36944D01*
X305100Y36585D01*
X306904Y36944D01*
X308434Y37966D01*
X309456Y39496D01*
X309815Y41300D01*
X309579Y42483D01*
X318748Y51652D01*
X319253Y52408D01*
X319431Y53300D01*
Y121050D01*
X319253Y121942D01*
X318748Y122698D01*
X291633Y149813D01*
X292259Y150983D01*
X292500Y150935D01*
X294304Y151294D01*
X295834Y152316D01*
X296856Y153846D01*
X297215Y155650D01*
X296856Y157454D01*
X295834Y158984D01*
X294304Y160006D01*
X292500Y160365D01*
X290696Y160006D01*
X289166Y158984D01*
X288144Y157454D01*
X287785Y155650D01*
X287833Y155409D01*
X286663Y154783D01*
X278048Y163398D01*
X277292Y163903D01*
X276400Y164081D01*
X194000D01*
X193108Y163903D01*
X192352Y163398D01*
X180535Y151581D01*
X158755D01*
X158370Y152851D01*
X158636Y153028D01*
X159658Y154558D01*
X160017Y156362D01*
X159658Y158166D01*
X158636Y159696D01*
X157106Y160718D01*
X155302Y161077D01*
X154730Y160963D01*
X116087Y199606D01*
X116215Y200250D01*
X115856Y202054D01*
X114834Y203584D01*
X113304Y204606D01*
X111500Y204965D01*
X110928Y204851D01*
X106094Y209684D01*
X105170Y210302D01*
X104080Y210519D01*
D02*
G37*
G36*
X-388750Y204215D02*
X-390554Y203856D01*
X-392084Y202834D01*
X-393106Y201304D01*
X-393465Y199500D01*
X-393106Y197696D01*
X-392084Y196166D01*
X-390554Y195144D01*
X-388750Y194785D01*
X-386946Y195144D01*
X-385416Y196166D01*
X-384394Y197696D01*
X-384035Y199500D01*
X-384394Y201304D01*
X-385416Y202834D01*
X-386946Y203856D01*
X-388750Y204215D01*
D02*
G37*
G36*
X-224174Y201717D02*
X-225978Y201358D01*
X-227508Y200336D01*
X-228530Y198806D01*
X-228889Y197002D01*
X-228530Y195198D01*
X-227508Y193668D01*
X-225978Y192646D01*
X-224174Y192287D01*
X-222370Y192646D01*
X-220840Y193668D01*
X-219818Y195198D01*
X-219459Y197002D01*
X-219818Y198806D01*
X-220840Y200336D01*
X-222370Y201358D01*
X-224174Y201717D01*
D02*
G37*
G36*
X-130000Y202642D02*
X-132351Y202174D01*
X-134343Y200843D01*
X-135674Y198850D01*
X-136142Y196500D01*
X-135674Y194149D01*
X-134343Y192157D01*
X-132351Y190826D01*
X-130000Y190358D01*
X-127650Y190826D01*
X-125657Y192157D01*
X-124326Y194149D01*
X-123858Y196500D01*
X-124326Y198850D01*
X-125657Y200843D01*
X-127650Y202174D01*
X-130000Y202642D01*
D02*
G37*
G36*
X-160000D02*
X-162350Y202174D01*
X-164343Y200843D01*
X-165674Y198850D01*
X-166142Y196500D01*
X-165674Y194149D01*
X-164343Y192157D01*
X-162350Y190826D01*
X-160000Y190358D01*
X-157650Y190826D01*
X-155657Y192157D01*
X-154326Y194149D01*
X-153858Y196500D01*
X-154326Y198850D01*
X-155657Y200843D01*
X-157650Y202174D01*
X-160000Y202642D01*
D02*
G37*
G36*
X292500Y185765D02*
X290696Y185406D01*
X289166Y184384D01*
X288144Y182854D01*
X287785Y181050D01*
X288144Y179246D01*
X289166Y177716D01*
X290696Y176694D01*
X292500Y176335D01*
X294304Y176694D01*
X295834Y177716D01*
X296856Y179246D01*
X297215Y181050D01*
X296856Y182854D01*
X295834Y184384D01*
X294304Y185406D01*
X292500Y185765D01*
D02*
G37*
G36*
X-300120Y182921D02*
X-301924Y182562D01*
X-303454Y181540D01*
X-304124Y180537D01*
X-314344D01*
X-315236Y180359D01*
X-315992Y179854D01*
X-363998Y131848D01*
X-364503Y131092D01*
X-364681Y130200D01*
Y119004D01*
X-365684Y118334D01*
X-366706Y116804D01*
X-367065Y115000D01*
X-366706Y113196D01*
X-365684Y111666D01*
X-364154Y110644D01*
X-362350Y110285D01*
X-360546Y110644D01*
X-359016Y111666D01*
X-357994Y113196D01*
X-357635Y115000D01*
X-357994Y116804D01*
X-359016Y118334D01*
X-360019Y119004D01*
Y129235D01*
X-345453Y143800D01*
X-345177Y143676D01*
X-344406Y143052D01*
X-344715Y141500D01*
X-344356Y139696D01*
X-343334Y138166D01*
X-341804Y137144D01*
X-340000Y136785D01*
X-338196Y137144D01*
X-336666Y138166D01*
X-335644Y139696D01*
X-335285Y141500D01*
X-335644Y143304D01*
X-336666Y144834D01*
X-338196Y145856D01*
X-340000Y146215D01*
X-341552Y145906D01*
X-342176Y146677D01*
X-342300Y146953D01*
X-317093Y172160D01*
X-315923Y171535D01*
X-316011Y171094D01*
X-315652Y169290D01*
X-314630Y167760D01*
X-313100Y166738D01*
X-311296Y166379D01*
X-309492Y166738D01*
X-307962Y167760D01*
X-306940Y169290D01*
X-306581Y171094D01*
X-306940Y172898D01*
X-307962Y174428D01*
X-308228Y174605D01*
X-307843Y175875D01*
X-304124D01*
X-303454Y174872D01*
X-301924Y173850D01*
X-300120Y173491D01*
X-298316Y173850D01*
X-296786Y174872D01*
X-295764Y176402D01*
X-295405Y178206D01*
X-295764Y180010D01*
X-296786Y181540D01*
X-298316Y182562D01*
X-300120Y182921D01*
D02*
G37*
G36*
X-394500Y169314D02*
X-397730D01*
Y161970D01*
X-386054D01*
X-386180Y162929D01*
X-387040Y165007D01*
X-388409Y166791D01*
X-390193Y168160D01*
X-392271Y169020D01*
X-394500Y169314D01*
D02*
G37*
G36*
X-400270D02*
X-403500D01*
X-405729Y169020D01*
X-407807Y168160D01*
X-409591Y166791D01*
X-410960Y165007D01*
X-411820Y162929D01*
X-411946Y161970D01*
X-400270D01*
Y169314D01*
D02*
G37*
G36*
X-351700D02*
X-355930D01*
Y161970D01*
X-343254D01*
X-343380Y162929D01*
X-344240Y165007D01*
X-345609Y166791D01*
X-347393Y168160D01*
X-349471Y169020D01*
X-351700Y169314D01*
D02*
G37*
G36*
X-358470D02*
X-362700D01*
X-364929Y169020D01*
X-367007Y168160D01*
X-368791Y166791D01*
X-370160Y165007D01*
X-371020Y162929D01*
X-371147Y161970D01*
X-358470D01*
Y169314D01*
D02*
G37*
G36*
X-167500Y168743D02*
X-169304Y168384D01*
X-170834Y167362D01*
X-171856Y165832D01*
X-172215Y164028D01*
X-171856Y162224D01*
X-170834Y160694D01*
X-169304Y159672D01*
X-167500Y159313D01*
X-165696Y159672D01*
X-164166Y160694D01*
X-163144Y162224D01*
X-162785Y164028D01*
X-163144Y165832D01*
X-164166Y167362D01*
X-165696Y168384D01*
X-167500Y168743D01*
D02*
G37*
G36*
X-343254Y159430D02*
X-355930D01*
Y152086D01*
X-351700D01*
X-349471Y152380D01*
X-347393Y153240D01*
X-345609Y154609D01*
X-344240Y156393D01*
X-343380Y158471D01*
X-343254Y159430D01*
D02*
G37*
G36*
X-386054Y159430D02*
X-397730D01*
Y152086D01*
X-394500D01*
X-392271Y152380D01*
X-390193Y153240D01*
X-388409Y154609D01*
X-387040Y156393D01*
X-386180Y158471D01*
X-386054Y159430D01*
D02*
G37*
G36*
X-400270D02*
X-411946D01*
X-411820Y158471D01*
X-410960Y156393D01*
X-409591Y154609D01*
X-407807Y153240D01*
X-405729Y152380D01*
X-403500Y152086D01*
X-400270D01*
Y159430D01*
D02*
G37*
G36*
X-358470Y159430D02*
X-371147D01*
X-371020Y158471D01*
X-370160Y156393D01*
X-368791Y154609D01*
X-367007Y153240D01*
X-364929Y152380D01*
X-363839Y152236D01*
X-363797Y150950D01*
X-364063Y150897D01*
X-365642Y149842D01*
X-366697Y148263D01*
X-367067Y146400D01*
X-366697Y144537D01*
X-365642Y142958D01*
X-364063Y141903D01*
X-362200Y141532D01*
X-360337Y141903D01*
X-358758Y142958D01*
X-357703Y144537D01*
X-357332Y146400D01*
X-357703Y148263D01*
X-358758Y149842D01*
X-359214Y150146D01*
X-359515Y151873D01*
X-359359Y152086D01*
X-358470D01*
Y159430D01*
D02*
G37*
G36*
X26270Y134153D02*
X24466Y133794D01*
X22936Y132772D01*
X21914Y131242D01*
X21555Y129438D01*
X21914Y127634D01*
X22936Y126104D01*
X24466Y125082D01*
X26270Y124723D01*
X28074Y125082D01*
X29604Y126104D01*
X30626Y127634D01*
X30985Y129438D01*
X30626Y131242D01*
X29604Y132772D01*
X28074Y133794D01*
X26270Y134153D01*
D02*
G37*
G36*
X-137500Y114715D02*
X-139304Y114356D01*
X-140834Y113334D01*
X-141856Y111804D01*
X-142215Y110000D01*
X-141856Y108196D01*
X-140834Y106666D01*
X-139304Y105644D01*
X-137500Y105285D01*
X-135696Y105644D01*
X-134166Y106666D01*
X-133144Y108196D01*
X-132785Y110000D01*
X-133144Y111804D01*
X-134166Y113334D01*
X-135696Y114356D01*
X-137500Y114715D01*
D02*
G37*
G36*
X-247500Y94715D02*
X-249304Y94356D01*
X-250834Y93334D01*
X-251856Y91804D01*
X-252215Y90000D01*
X-251856Y88196D01*
X-250834Y86666D01*
X-249304Y85644D01*
X-247500Y85285D01*
X-245696Y85644D01*
X-245588Y85716D01*
X-244856Y85230D01*
X-244559Y84876D01*
X-244891Y83210D01*
X-244532Y81406D01*
X-243510Y79876D01*
X-241980Y78854D01*
X-240176Y78495D01*
X-238372Y78854D01*
X-236842Y79876D01*
X-235820Y81406D01*
X-235461Y83210D01*
X-235820Y85014D01*
X-236842Y86544D01*
X-238372Y87566D01*
X-240176Y87925D01*
X-241980Y87566D01*
X-242088Y87494D01*
X-242820Y87980D01*
X-243117Y88334D01*
X-242785Y90000D01*
X-243144Y91804D01*
X-244166Y93334D01*
X-245696Y94356D01*
X-247500Y94715D01*
D02*
G37*
G36*
X-351700Y82914D02*
X-355930D01*
Y75570D01*
X-343254D01*
X-343380Y76529D01*
X-344240Y78607D01*
X-345609Y80391D01*
X-347393Y81760D01*
X-349471Y82620D01*
X-351700Y82914D01*
D02*
G37*
G36*
X-362200Y93468D02*
X-364063Y93097D01*
X-365642Y92042D01*
X-366697Y90463D01*
X-367067Y88600D01*
X-366697Y86737D01*
X-365642Y85158D01*
X-364063Y84103D01*
X-363797Y84050D01*
X-363839Y82764D01*
X-364929Y82620D01*
X-367007Y81760D01*
X-368791Y80391D01*
X-370160Y78607D01*
X-371020Y76529D01*
X-371147Y75570D01*
X-358470D01*
Y82914D01*
X-359359D01*
X-359515Y83127D01*
X-359214Y84854D01*
X-358758Y85158D01*
X-357703Y86737D01*
X-357332Y88600D01*
X-357703Y90463D01*
X-358758Y92042D01*
X-360337Y93097D01*
X-362200Y93468D01*
D02*
G37*
G36*
X-394500Y82914D02*
X-397730D01*
Y75570D01*
X-386054D01*
X-386180Y76529D01*
X-387040Y78607D01*
X-388409Y80391D01*
X-390193Y81760D01*
X-392271Y82620D01*
X-394500Y82914D01*
D02*
G37*
G36*
X-400270D02*
X-403500D01*
X-405729Y82620D01*
X-407807Y81760D01*
X-409591Y80391D01*
X-410960Y78607D01*
X-411820Y76529D01*
X-411946Y75570D01*
X-400270D01*
Y82914D01*
D02*
G37*
G36*
X-323488Y82845D02*
X-325292Y82486D01*
X-326822Y81464D01*
X-327844Y79934D01*
X-328203Y78130D01*
X-327844Y76326D01*
X-326822Y74796D01*
X-325292Y73774D01*
X-323488Y73415D01*
X-321684Y73774D01*
X-320154Y74796D01*
X-319132Y76326D01*
X-318773Y78130D01*
X-319132Y79934D01*
X-320154Y81464D01*
X-321684Y82486D01*
X-323488Y82845D01*
D02*
G37*
G36*
X-343254Y73030D02*
X-355930D01*
Y65686D01*
X-351700D01*
X-349471Y65980D01*
X-347393Y66840D01*
X-345609Y68209D01*
X-344240Y69993D01*
X-343380Y72071D01*
X-343254Y73030D01*
D02*
G37*
G36*
X-358470D02*
X-371147D01*
X-371020Y72071D01*
X-370160Y69993D01*
X-368791Y68209D01*
X-367007Y66840D01*
X-364929Y65980D01*
X-362700Y65686D01*
X-358470D01*
Y73030D01*
D02*
G37*
G36*
X-386054Y73030D02*
X-397730D01*
Y65686D01*
X-394500D01*
X-392271Y65980D01*
X-390193Y66840D01*
X-388409Y68209D01*
X-387040Y69993D01*
X-386180Y72071D01*
X-386054Y73030D01*
D02*
G37*
G36*
X-400270D02*
X-411946D01*
X-411820Y72071D01*
X-410960Y69993D01*
X-409591Y68209D01*
X-407807Y66840D01*
X-405729Y65980D01*
X-403500Y65686D01*
X-400270D01*
Y73030D01*
D02*
G37*
G36*
X-162500Y57215D02*
X-164304Y56856D01*
X-165834Y55834D01*
X-166851Y54311D01*
X-166889Y54304D01*
X-168111Y54304D01*
X-168149Y54311D01*
X-169166Y55834D01*
X-170696Y56856D01*
X-172500Y57215D01*
X-174304Y56856D01*
X-175834Y55834D01*
X-176856Y54304D01*
X-177215Y52500D01*
X-176856Y50696D01*
X-175834Y49166D01*
X-174304Y48144D01*
X-172500Y47785D01*
X-170696Y48144D01*
X-169166Y49166D01*
X-168149Y50689D01*
X-168111Y50696D01*
X-166889Y50696D01*
X-166851Y50689D01*
X-165834Y49166D01*
X-164304Y48144D01*
X-162500Y47785D01*
X-160696Y48144D01*
X-159166Y49166D01*
X-158149Y50689D01*
X-158111Y50696D01*
X-156889Y50696D01*
X-156851Y50689D01*
X-155834Y49166D01*
X-154304Y48144D01*
X-152500Y47785D01*
X-150696Y48144D01*
X-149166Y49166D01*
X-148144Y50696D01*
X-147785Y52500D01*
X-148144Y54304D01*
X-149166Y55834D01*
X-150696Y56856D01*
X-152500Y57215D01*
X-154304Y56856D01*
X-155834Y55834D01*
X-156851Y54311D01*
X-156889Y54304D01*
X-158111Y54304D01*
X-158149Y54311D01*
X-159166Y55834D01*
X-160696Y56856D01*
X-162500Y57215D01*
D02*
G37*
G36*
X-354600Y59005D02*
X-357028Y58522D01*
X-359086Y57147D01*
X-360462Y55088D01*
X-360945Y52660D01*
X-360462Y50232D01*
X-359086Y48173D01*
X-357028Y46798D01*
X-354600Y46315D01*
X-352172Y46798D01*
X-350113Y48173D01*
X-348738Y50232D01*
X-348255Y52660D01*
X-348738Y55088D01*
X-350113Y57147D01*
X-352172Y58522D01*
X-354600Y59005D01*
D02*
G37*
G36*
X-405400Y48845D02*
X-407828Y48362D01*
X-409887Y46986D01*
X-411262Y44928D01*
X-411745Y42500D01*
X-411262Y40072D01*
X-409887Y38014D01*
X-407828Y36638D01*
X-405400Y36155D01*
X-402972Y36638D01*
X-400914Y38014D01*
X-399538Y40072D01*
X-399055Y42500D01*
X-399538Y44928D01*
X-400914Y46986D01*
X-402972Y48362D01*
X-405400Y48845D01*
D02*
G37*
G36*
X-287500Y41777D02*
X-289304Y41418D01*
X-290834Y40396D01*
X-291856Y38866D01*
X-292215Y37062D01*
X-291856Y35258D01*
X-290834Y33728D01*
X-289304Y32706D01*
X-287500Y32347D01*
X-285696Y32706D01*
X-284166Y33728D01*
X-283144Y35258D01*
X-282785Y37062D01*
X-283144Y38866D01*
X-284166Y40396D01*
X-285696Y41418D01*
X-287500Y41777D01*
D02*
G37*
G36*
X-392830Y30775D02*
X-394634Y30416D01*
X-396164Y29394D01*
X-397186Y27864D01*
X-397545Y26060D01*
X-397186Y24256D01*
X-396164Y22726D01*
X-394634Y21704D01*
X-392830Y21345D01*
X-391026Y21704D01*
X-389496Y22726D01*
X-388474Y24256D01*
X-388115Y26060D01*
X-388474Y27864D01*
X-389496Y29394D01*
X-391026Y30416D01*
X-392830Y30775D01*
D02*
G37*
%LPD*%
G36*
X-194144Y140054D02*
X-194630Y138881D01*
X-212573D01*
X-213252Y140151D01*
X-212960Y140588D01*
X-212601Y142392D01*
X-212960Y144196D01*
X-213982Y145726D01*
X-215512Y146748D01*
X-217316Y147107D01*
X-219120Y146748D01*
X-220650Y145726D01*
X-221672Y144196D01*
X-222031Y142392D01*
X-221672Y140588D01*
X-221380Y140151D01*
X-222059Y138881D01*
X-242005D01*
X-244841Y141717D01*
X-244605Y142900D01*
X-244964Y144704D01*
X-245986Y146234D01*
X-247516Y147256D01*
X-249320Y147615D01*
X-251124Y147256D01*
X-252654Y146234D01*
X-253676Y144704D01*
X-254035Y142900D01*
X-253676Y141096D01*
X-253318Y140560D01*
X-254304Y139750D01*
X-259102Y144548D01*
X-259858Y145053D01*
X-260750Y145231D01*
X-269640D01*
X-270532Y145053D01*
X-271288Y144548D01*
X-272733Y143104D01*
X-273903Y143729D01*
X-273815Y144170D01*
X-274051Y145353D01*
X-259785Y159619D01*
X-213709D01*
X-194144Y140054D01*
D02*
G37*
G36*
X-74899Y132823D02*
X-75525Y131653D01*
X-76600Y131867D01*
X-78404Y131508D01*
X-79934Y130486D01*
X-80956Y128956D01*
X-81315Y127152D01*
X-81079Y125969D01*
X-83407Y123641D01*
X-122613D01*
X-123292Y124911D01*
X-122934Y125446D01*
X-122576Y127250D01*
X-122689Y127818D01*
X-121608Y128898D01*
X-121050Y128787D01*
X-119246Y129146D01*
X-117716Y130168D01*
X-116694Y131698D01*
X-116335Y133502D01*
X-116694Y135306D01*
X-117716Y136836D01*
X-119246Y137858D01*
X-121050Y138217D01*
X-121772Y138073D01*
X-122791Y139165D01*
X-122576Y140250D01*
X-122934Y142054D01*
X-123639Y143109D01*
X-123035Y144379D01*
X-86455D01*
X-74899Y132823D01*
D02*
G37*
%LPC*%
G36*
X104080Y-24481D02*
X104080Y-24481D01*
X-16330D01*
X-16330Y-24481D01*
X-17420Y-24698D01*
X-18344Y-25316D01*
X-18344Y-25316D01*
X-59428Y-66399D01*
X-60000Y-66285D01*
X-61804Y-66644D01*
X-63334Y-67666D01*
X-63658Y-68151D01*
X-148900D01*
X-149212Y-67684D01*
X-150742Y-66662D01*
X-152546Y-66303D01*
X-154350Y-66662D01*
X-155880Y-67684D01*
X-156902Y-69214D01*
X-157261Y-71018D01*
X-156902Y-72822D01*
X-155880Y-74352D01*
X-154350Y-75374D01*
X-152546Y-75733D01*
X-150742Y-75374D01*
X-149212Y-74352D01*
X-148876Y-73849D01*
X-63658D01*
X-63334Y-74334D01*
X-61804Y-75356D01*
X-60000Y-75715D01*
X-58196Y-75356D01*
X-56666Y-74334D01*
X-55644Y-72804D01*
X-55285Y-71000D01*
X-55399Y-70428D01*
X-37558Y-52587D01*
X-36572Y-53396D01*
X-37106Y-54196D01*
X-37465Y-56000D01*
X-37106Y-57804D01*
X-36084Y-59334D01*
X-35081Y-60004D01*
Y-99354D01*
X-66280Y-130554D01*
X-66698Y-130471D01*
X-67116Y-129093D01*
X-58352Y-120328D01*
X-57847Y-119572D01*
X-57669Y-118680D01*
Y-111754D01*
X-56666Y-111084D01*
X-55644Y-109554D01*
X-55285Y-107750D01*
X-55644Y-105946D01*
X-56666Y-104416D01*
X-58196Y-103394D01*
X-60000Y-103035D01*
X-61804Y-103394D01*
X-63334Y-104416D01*
X-64356Y-105946D01*
X-64715Y-107750D01*
X-64356Y-109554D01*
X-63334Y-111084D01*
X-62331Y-111754D01*
Y-117715D01*
X-71215Y-126599D01*
X-226460D01*
X-227352Y-126777D01*
X-228108Y-127282D01*
X-232505Y-131679D01*
X-236800D01*
X-237185Y-130409D01*
X-236529Y-129971D01*
X-235695Y-128722D01*
X-235402Y-127250D01*
X-235695Y-125777D01*
X-236529Y-124529D01*
X-237778Y-123695D01*
X-239250Y-123402D01*
X-240723Y-123695D01*
X-241971Y-124529D01*
X-242805Y-125777D01*
X-243098Y-127250D01*
X-242805Y-128722D01*
X-241971Y-129971D01*
X-241315Y-130409D01*
X-241700Y-131679D01*
X-298850D01*
X-299742Y-131857D01*
X-300498Y-132362D01*
X-305898Y-137762D01*
X-306403Y-138518D01*
X-306581Y-139410D01*
Y-143245D01*
X-307149Y-143693D01*
X-308419Y-143077D01*
Y-130089D01*
X-307149Y-129704D01*
X-306971Y-129971D01*
X-305723Y-130805D01*
X-304250Y-131098D01*
X-302777Y-130805D01*
X-301529Y-129971D01*
X-300695Y-128722D01*
X-300402Y-127250D01*
X-300695Y-125777D01*
X-301529Y-124529D01*
X-302777Y-123695D01*
X-304250Y-123402D01*
X-305723Y-123695D01*
X-306971Y-124529D01*
X-307149Y-124796D01*
X-308419Y-124411D01*
Y-91089D01*
X-307149Y-90704D01*
X-306971Y-90971D01*
X-305723Y-91805D01*
X-304250Y-92098D01*
X-302777Y-91805D01*
X-301529Y-90971D01*
X-300695Y-89722D01*
X-300402Y-88250D01*
X-300695Y-86777D01*
X-301529Y-85529D01*
X-301919Y-85268D01*
Y-78089D01*
X-300649Y-77704D01*
X-300471Y-77971D01*
X-299223Y-78805D01*
X-297750Y-79098D01*
X-296278Y-78805D01*
X-295029Y-77971D01*
X-294768Y-77581D01*
X-274755D01*
X-234458Y-117878D01*
X-233702Y-118383D01*
X-232810Y-118561D01*
X-139580D01*
X-138688Y-118383D01*
X-137932Y-117878D01*
X-125783Y-105729D01*
X-124600Y-105965D01*
X-122796Y-105606D01*
X-121266Y-104584D01*
X-120244Y-103054D01*
X-119885Y-101250D01*
X-120244Y-99446D01*
X-121266Y-97916D01*
X-122796Y-96894D01*
X-124600Y-96535D01*
X-125481Y-96711D01*
X-126561Y-95631D01*
X-126385Y-94750D01*
X-126744Y-92946D01*
X-127766Y-91416D01*
X-129296Y-90394D01*
X-131100Y-90035D01*
X-132904Y-90394D01*
X-134434Y-91416D01*
X-135456Y-92946D01*
X-135815Y-94750D01*
X-135579Y-95933D01*
X-148316Y-108669D01*
X-219668D01*
X-219929Y-108279D01*
X-221178Y-107445D01*
X-222650Y-107152D01*
X-224123Y-107445D01*
X-225371Y-108279D01*
X-226205Y-109527D01*
X-226498Y-111000D01*
X-226205Y-112472D01*
X-226100Y-112629D01*
X-226779Y-113899D01*
X-231845D01*
X-271633Y-74111D01*
X-271107Y-72841D01*
X-260750D01*
X-259858Y-72663D01*
X-259102Y-72158D01*
X-252487Y-65543D01*
X-251031Y-65883D01*
X-250471Y-66721D01*
X-249223Y-67555D01*
X-247750Y-67848D01*
X-246278Y-67555D01*
X-245029Y-66721D01*
X-244195Y-65472D01*
X-243902Y-64000D01*
X-244195Y-62527D01*
X-245029Y-61279D01*
X-245867Y-60719D01*
X-246207Y-59263D01*
X-239073Y-52129D01*
X-237890Y-52365D01*
X-236086Y-52006D01*
X-234556Y-50984D01*
X-233534Y-49454D01*
X-233175Y-47650D01*
X-233534Y-45846D01*
X-234556Y-44316D01*
X-236086Y-43294D01*
X-237890Y-42935D01*
X-239694Y-43294D01*
X-241224Y-44316D01*
X-242246Y-45846D01*
X-242605Y-47650D01*
X-242369Y-48833D01*
X-261715Y-68179D01*
X-274676D01*
X-275061Y-66909D01*
X-274779Y-66721D01*
X-273945Y-65472D01*
X-273652Y-64000D01*
X-273945Y-62527D01*
X-274779Y-61279D01*
X-276028Y-60445D01*
X-277500Y-60152D01*
X-277960Y-60244D01*
X-308712Y-29492D01*
X-309468Y-28987D01*
X-310360Y-28809D01*
X-343300D01*
X-344192Y-28987D01*
X-344948Y-29492D01*
X-381778Y-66322D01*
X-382283Y-67078D01*
X-382461Y-67970D01*
Y-204936D01*
X-383464Y-205606D01*
X-384486Y-207136D01*
X-384845Y-208940D01*
X-384486Y-210744D01*
X-383464Y-212274D01*
X-381934Y-213296D01*
X-380130Y-213655D01*
X-378326Y-213296D01*
X-376796Y-212274D01*
X-375774Y-210744D01*
X-375415Y-208940D01*
X-375774Y-207136D01*
X-376796Y-205606D01*
X-377799Y-204936D01*
Y-68935D01*
X-342335Y-33471D01*
X-331193D01*
X-330514Y-34741D01*
X-331146Y-35686D01*
X-331505Y-37490D01*
X-331146Y-39294D01*
X-330124Y-40824D01*
X-328594Y-41846D01*
X-326790Y-42205D01*
X-325607Y-41969D01*
X-324041Y-43535D01*
Y-147980D01*
X-323863Y-148872D01*
X-323358Y-149628D01*
X-311588Y-161398D01*
X-310832Y-161903D01*
X-309940Y-162081D01*
X-248732D01*
X-248471Y-162471D01*
X-247222Y-163305D01*
X-245750Y-163598D01*
X-244277Y-163305D01*
X-243029Y-162471D01*
X-242195Y-161222D01*
X-241902Y-159750D01*
X-242195Y-158277D01*
X-243029Y-157029D01*
X-244277Y-156195D01*
X-244732Y-156104D01*
X-245150Y-154726D01*
X-242005Y-151581D01*
X-223774D01*
X-223649Y-152851D01*
X-224123Y-152945D01*
X-225371Y-153779D01*
X-226205Y-155028D01*
X-226498Y-156500D01*
X-226406Y-156960D01*
X-254465Y-185019D01*
X-322850D01*
X-323742Y-185197D01*
X-324498Y-185702D01*
X-328317Y-189521D01*
X-329500Y-189285D01*
X-331304Y-189644D01*
X-332834Y-190666D01*
X-333856Y-192196D01*
X-334215Y-194000D01*
X-333856Y-195804D01*
X-332834Y-197334D01*
X-331304Y-198356D01*
X-329500Y-198715D01*
X-327696Y-198356D01*
X-326166Y-197334D01*
X-325458Y-196274D01*
X-324041D01*
X-323334Y-197334D01*
X-321804Y-198356D01*
X-320000Y-198715D01*
X-318196Y-198356D01*
X-316666Y-197334D01*
X-315958Y-196274D01*
X-314541D01*
X-313834Y-197334D01*
X-312304Y-198356D01*
X-310500Y-198715D01*
X-308696Y-198356D01*
X-307166Y-197334D01*
X-306496Y-196331D01*
X-250890D01*
X-249998Y-196153D01*
X-249242Y-195648D01*
X-223110Y-169516D01*
X-222650Y-169608D01*
X-221178Y-169315D01*
X-219929Y-168481D01*
X-219095Y-167232D01*
X-218802Y-165760D01*
X-219095Y-164287D01*
X-219929Y-163039D01*
X-221178Y-162205D01*
X-222131Y-162015D01*
X-222785Y-160925D01*
X-222819Y-160682D01*
X-222503Y-160319D01*
X-221178Y-160055D01*
X-219929Y-159221D01*
X-219095Y-157972D01*
X-218802Y-156500D01*
X-219095Y-155028D01*
X-219929Y-153779D01*
X-221178Y-152945D01*
X-221651Y-152851D01*
X-221526Y-151581D01*
X-62325D01*
X-53139Y-160767D01*
X-53375Y-161950D01*
X-53016Y-163754D01*
X-51994Y-165284D01*
X-50464Y-166306D01*
X-48660Y-166665D01*
X-46856Y-166306D01*
X-45326Y-165284D01*
X-44979Y-164764D01*
X-43451D01*
X-43104Y-165284D01*
X-41574Y-166306D01*
X-39770Y-166665D01*
X-37966Y-166306D01*
X-36436Y-165284D01*
X-35414Y-163754D01*
X-35055Y-161950D01*
X-35414Y-160146D01*
X-36436Y-158616D01*
X-37966Y-157594D01*
X-39770Y-157235D01*
X-40953Y-157471D01*
X-54024Y-144399D01*
X-54493Y-143535D01*
X-54024Y-142670D01*
X565Y-88081D01*
X108197D01*
X108876Y-89351D01*
X108244Y-90296D01*
X107885Y-92100D01*
X108121Y-93283D01*
X86235Y-115169D01*
X28810D01*
X27918Y-115347D01*
X27162Y-115852D01*
X-3826Y-146840D01*
X-4331Y-147596D01*
X-4509Y-148488D01*
Y-176742D01*
X-5512Y-177412D01*
X-6534Y-178942D01*
X-6893Y-180746D01*
X-6534Y-182550D01*
X-5512Y-184080D01*
X-3982Y-185102D01*
X-2178Y-185461D01*
X-374Y-185102D01*
X1156Y-184080D01*
X2178Y-182550D01*
X2537Y-180746D01*
X2377Y-179945D01*
X3520Y-179181D01*
X3638Y-179260D01*
X5442Y-179619D01*
X7246Y-179260D01*
X8776Y-178238D01*
X9798Y-176708D01*
X10157Y-174904D01*
X10145Y-174848D01*
X11201Y-174142D01*
X11258Y-174180D01*
X13062Y-174539D01*
X14245Y-174303D01*
X41590Y-201648D01*
X42346Y-202153D01*
X43238Y-202331D01*
X94246D01*
X94916Y-203334D01*
X96446Y-204356D01*
X98250Y-204715D01*
X100054Y-204356D01*
X101584Y-203334D01*
X102606Y-201804D01*
X102965Y-200000D01*
X102606Y-198196D01*
X101584Y-196666D01*
X100054Y-195644D01*
X98250Y-195285D01*
X96446Y-195644D01*
X94916Y-196666D01*
X94246Y-197669D01*
X44203D01*
X17541Y-171007D01*
X17777Y-169824D01*
X17418Y-168020D01*
X16396Y-166490D01*
X15393Y-165820D01*
Y-153153D01*
X28504Y-140042D01*
X29490Y-140852D01*
X29394Y-140996D01*
X29035Y-142800D01*
X29394Y-144604D01*
X30416Y-146134D01*
X31946Y-147156D01*
X33750Y-147515D01*
X35554Y-147156D01*
X37084Y-146134D01*
X38106Y-144604D01*
X38465Y-142800D01*
X38229Y-141617D01*
X40885Y-138961D01*
X42037Y-139083D01*
X42553Y-140209D01*
X41894Y-141196D01*
X41535Y-143000D01*
X41894Y-144804D01*
X42916Y-146334D01*
X44446Y-147356D01*
X46250Y-147715D01*
X46822Y-147601D01*
X51236Y-152014D01*
X51236Y-152014D01*
X52160Y-152632D01*
X53250Y-152849D01*
X53250Y-152849D01*
X285300D01*
X285300Y-152849D01*
X286390Y-152632D01*
X287314Y-152014D01*
X291828Y-147501D01*
X292400Y-147615D01*
X294204Y-147256D01*
X295734Y-146234D01*
X296756Y-144704D01*
X297115Y-142900D01*
X296756Y-141096D01*
X295734Y-139566D01*
X294204Y-138544D01*
X292400Y-138185D01*
X290596Y-138544D01*
X289066Y-139566D01*
X288044Y-141096D01*
X287685Y-142900D01*
X287799Y-143472D01*
X284120Y-147151D01*
X211672D01*
X211169Y-145881D01*
X211956Y-144704D01*
X212315Y-142900D01*
X211956Y-141096D01*
X210934Y-139566D01*
X209404Y-138544D01*
X207600Y-138185D01*
X206417Y-138421D01*
X202848Y-134852D01*
X202092Y-134347D01*
X201200Y-134169D01*
X118099Y-134169D01*
X117380Y-132899D01*
X117601Y-132531D01*
X203596D01*
X204266Y-133534D01*
X205796Y-134556D01*
X207600Y-134915D01*
X209404Y-134556D01*
X210934Y-133534D01*
X211956Y-132004D01*
X212315Y-130200D01*
X211956Y-128396D01*
X210934Y-126866D01*
X209404Y-125844D01*
X207600Y-125485D01*
X205796Y-125844D01*
X204266Y-126866D01*
X203596Y-127869D01*
X116604D01*
X115934Y-126866D01*
X114404Y-125844D01*
X112600Y-125485D01*
X110796Y-125844D01*
X109266Y-126866D01*
X108244Y-128396D01*
X107885Y-130200D01*
X108244Y-132004D01*
X108842Y-132899D01*
X108163Y-134169D01*
X40050D01*
X39158Y-134347D01*
X38402Y-134852D01*
X34933Y-138321D01*
X33750Y-138085D01*
X31946Y-138444D01*
X31802Y-138540D01*
X30992Y-137554D01*
X35965Y-132581D01*
X99850D01*
X100742Y-132403D01*
X101498Y-131898D01*
X111417Y-121979D01*
X112600Y-122215D01*
X113783Y-121979D01*
X117702Y-125898D01*
X118458Y-126403D01*
X119350Y-126581D01*
X200850D01*
X201742Y-126403D01*
X202498Y-125898D01*
X206417Y-121979D01*
X207600Y-122215D01*
X209404Y-121856D01*
X210934Y-120834D01*
X211956Y-119304D01*
X212315Y-117500D01*
X211956Y-115696D01*
X210934Y-114166D01*
X209404Y-113144D01*
X207600Y-112785D01*
X205796Y-113144D01*
X204266Y-114166D01*
X203244Y-115696D01*
X202885Y-117500D01*
X203121Y-118683D01*
X199885Y-121919D01*
X120316D01*
X117079Y-118683D01*
X117315Y-117500D01*
X116956Y-115696D01*
X115934Y-114166D01*
X114404Y-113144D01*
X112600Y-112785D01*
X110796Y-113144D01*
X109266Y-114166D01*
X108244Y-115696D01*
X107885Y-117500D01*
X108121Y-118683D01*
X98885Y-127919D01*
X35000D01*
X34108Y-128097D01*
X33352Y-128602D01*
X11414Y-150540D01*
X10909Y-151296D01*
X10731Y-152188D01*
Y-165820D01*
X9728Y-166490D01*
X9043Y-167516D01*
X7773Y-167131D01*
Y-151485D01*
X33077Y-126181D01*
X93550D01*
X94442Y-126003D01*
X95198Y-125498D01*
X111417Y-109279D01*
X112600Y-109515D01*
X114404Y-109156D01*
X115934Y-108134D01*
X116604Y-107131D01*
X203596D01*
X204266Y-108134D01*
X205796Y-109156D01*
X207600Y-109515D01*
X209404Y-109156D01*
X210934Y-108134D01*
X211956Y-106604D01*
X212315Y-104800D01*
X211956Y-102996D01*
X210934Y-101466D01*
X209404Y-100444D01*
X207600Y-100085D01*
X205796Y-100444D01*
X204266Y-101466D01*
X203596Y-102469D01*
X202157D01*
X201772Y-101199D01*
X201848Y-101148D01*
X206417Y-96579D01*
X207600Y-96815D01*
X209404Y-96456D01*
X210934Y-95434D01*
X211604Y-94431D01*
X278885D01*
X288021Y-103567D01*
X287785Y-104750D01*
X288144Y-106554D01*
X289166Y-108084D01*
X290696Y-109106D01*
X292500Y-109465D01*
X294304Y-109106D01*
X295834Y-108084D01*
X296856Y-106554D01*
X297215Y-104750D01*
X296856Y-102946D01*
X295834Y-101416D01*
X294304Y-100394D01*
X292500Y-100035D01*
X291317Y-100271D01*
X286690Y-95644D01*
X286962Y-94840D01*
X287215Y-94507D01*
X288461Y-94528D01*
X289066Y-95434D01*
X290596Y-96456D01*
X292400Y-96815D01*
X294204Y-96456D01*
X295734Y-95434D01*
X296756Y-93904D01*
X297115Y-92100D01*
X296756Y-90296D01*
X295957Y-89101D01*
X296446Y-87831D01*
X306995D01*
X309689Y-90525D01*
Y-160415D01*
X306283Y-163821D01*
X305100Y-163585D01*
X303296Y-163944D01*
X301766Y-164966D01*
X300744Y-166496D01*
X300385Y-168300D01*
X300744Y-170104D01*
X301766Y-171634D01*
X303296Y-172656D01*
X305100Y-173015D01*
X306904Y-172656D01*
X308434Y-171634D01*
X309456Y-170104D01*
X309815Y-168300D01*
X309579Y-167117D01*
X313499Y-163197D01*
X314181Y-163325D01*
X314769Y-163666D01*
Y-180735D01*
X306283Y-189221D01*
X305100Y-188985D01*
X303296Y-189344D01*
X301766Y-190366D01*
X300744Y-191896D01*
X300385Y-193700D01*
X300744Y-195504D01*
X301766Y-197034D01*
X303296Y-198056D01*
X305100Y-198415D01*
X306904Y-198056D01*
X308434Y-197034D01*
X309456Y-195504D01*
X309815Y-193700D01*
X309579Y-192517D01*
X318748Y-183348D01*
X319253Y-182592D01*
X319431Y-181700D01*
Y-87020D01*
X319253Y-86128D01*
X318748Y-85372D01*
X304978Y-71602D01*
X304222Y-71097D01*
X303330Y-70919D01*
X194000D01*
X193108Y-71097D01*
X192352Y-71602D01*
X180535Y-83419D01*
X158755D01*
X158370Y-82149D01*
X158636Y-81972D01*
X159658Y-80442D01*
X160017Y-78638D01*
X159658Y-76834D01*
X158636Y-75304D01*
X157106Y-74282D01*
X155302Y-73923D01*
X154730Y-74037D01*
X116087Y-35394D01*
X116215Y-34750D01*
X115856Y-32946D01*
X114834Y-31416D01*
X113304Y-30394D01*
X111500Y-30035D01*
X110928Y-30149D01*
X106094Y-25316D01*
X105170Y-24698D01*
X104080Y-24481D01*
D02*
G37*
G36*
X-388750Y-30785D02*
X-390554Y-31144D01*
X-392084Y-32166D01*
X-393106Y-33696D01*
X-393465Y-35500D01*
X-393106Y-37304D01*
X-392084Y-38834D01*
X-390554Y-39856D01*
X-388750Y-40215D01*
X-386946Y-39856D01*
X-385416Y-38834D01*
X-384394Y-37304D01*
X-384035Y-35500D01*
X-384394Y-33696D01*
X-385416Y-32166D01*
X-386946Y-31144D01*
X-388750Y-30785D01*
D02*
G37*
G36*
X-130000Y-32358D02*
X-132351Y-32826D01*
X-134343Y-34157D01*
X-135674Y-36150D01*
X-136142Y-38500D01*
X-135674Y-40850D01*
X-134343Y-42843D01*
X-132351Y-44174D01*
X-130000Y-44642D01*
X-127650Y-44174D01*
X-125657Y-42843D01*
X-124326Y-40850D01*
X-123858Y-38500D01*
X-124326Y-36150D01*
X-125657Y-34157D01*
X-127650Y-32826D01*
X-130000Y-32358D01*
D02*
G37*
G36*
X-160000D02*
X-162350Y-32826D01*
X-164343Y-34157D01*
X-165674Y-36150D01*
X-166142Y-38500D01*
X-165674Y-40850D01*
X-164343Y-42843D01*
X-162350Y-44174D01*
X-160000Y-44642D01*
X-157650Y-44174D01*
X-155657Y-42843D01*
X-154326Y-40850D01*
X-153858Y-38500D01*
X-154326Y-36150D01*
X-155657Y-34157D01*
X-157650Y-32826D01*
X-160000Y-32358D01*
D02*
G37*
G36*
X292500Y-49235D02*
X290696Y-49594D01*
X289166Y-50616D01*
X288144Y-52146D01*
X287785Y-53950D01*
X288144Y-55754D01*
X289166Y-57284D01*
X290696Y-58306D01*
X292500Y-58665D01*
X294304Y-58306D01*
X295834Y-57284D01*
X296856Y-55754D01*
X297215Y-53950D01*
X296856Y-52146D01*
X295834Y-50616D01*
X294304Y-49594D01*
X292500Y-49235D01*
D02*
G37*
G36*
X-394500Y-65686D02*
X-397730D01*
Y-73030D01*
X-386054D01*
X-386180Y-72071D01*
X-387040Y-69993D01*
X-388409Y-68209D01*
X-390193Y-66840D01*
X-392271Y-65980D01*
X-394500Y-65686D01*
D02*
G37*
G36*
X-400270D02*
X-403500D01*
X-405729Y-65980D01*
X-407807Y-66840D01*
X-409591Y-68209D01*
X-410960Y-69993D01*
X-411820Y-72071D01*
X-411946Y-73030D01*
X-400270D01*
Y-65686D01*
D02*
G37*
G36*
X-351700D02*
X-355930D01*
Y-73030D01*
X-343254D01*
X-343380Y-72071D01*
X-344240Y-69993D01*
X-345609Y-68209D01*
X-347393Y-66840D01*
X-349471Y-65980D01*
X-351700Y-65686D01*
D02*
G37*
G36*
X-358470D02*
X-362700D01*
X-364929Y-65980D01*
X-367007Y-66840D01*
X-368791Y-68209D01*
X-370160Y-69993D01*
X-371020Y-72071D01*
X-371147Y-73030D01*
X-358470D01*
Y-65686D01*
D02*
G37*
G36*
X-167500Y-66257D02*
X-169304Y-66616D01*
X-170834Y-67638D01*
X-171856Y-69168D01*
X-172215Y-70972D01*
X-171856Y-72776D01*
X-170834Y-74306D01*
X-169304Y-75328D01*
X-167500Y-75687D01*
X-165696Y-75328D01*
X-164166Y-74306D01*
X-163144Y-72776D01*
X-162785Y-70972D01*
X-163144Y-69168D01*
X-164166Y-67638D01*
X-165696Y-66616D01*
X-167500Y-66257D01*
D02*
G37*
G36*
X-343254Y-75570D02*
X-355930D01*
Y-82914D01*
X-351700D01*
X-349471Y-82620D01*
X-347393Y-81760D01*
X-345609Y-80391D01*
X-344240Y-78607D01*
X-343380Y-76529D01*
X-343254Y-75570D01*
D02*
G37*
G36*
X-386054Y-75570D02*
X-397730D01*
Y-82914D01*
X-394500D01*
X-392271Y-82620D01*
X-390193Y-81760D01*
X-388409Y-80391D01*
X-387040Y-78607D01*
X-386180Y-76529D01*
X-386054Y-75570D01*
D02*
G37*
G36*
X-400270D02*
X-411946D01*
X-411820Y-76529D01*
X-410960Y-78607D01*
X-409591Y-80391D01*
X-407807Y-81760D01*
X-405729Y-82620D01*
X-403500Y-82914D01*
X-400270D01*
Y-75570D01*
D02*
G37*
G36*
X-120478Y-77035D02*
X-122282Y-77394D01*
X-123812Y-78416D01*
X-124834Y-79946D01*
X-125193Y-81750D01*
X-124834Y-83554D01*
X-123812Y-85084D01*
X-122282Y-86106D01*
X-120478Y-86465D01*
X-118674Y-86106D01*
X-117144Y-85084D01*
X-116122Y-83554D01*
X-115763Y-81750D01*
X-116122Y-79946D01*
X-117144Y-78416D01*
X-118674Y-77394D01*
X-120478Y-77035D01*
D02*
G37*
G36*
X-358470Y-75570D02*
X-371147D01*
X-371020Y-76529D01*
X-370160Y-78607D01*
X-368791Y-80391D01*
X-367007Y-81760D01*
X-364929Y-82620D01*
X-363839Y-82764D01*
X-363797Y-84050D01*
X-364063Y-84103D01*
X-365642Y-85158D01*
X-366697Y-86737D01*
X-367067Y-88600D01*
X-366697Y-90463D01*
X-365642Y-92042D01*
X-364063Y-93097D01*
X-362200Y-93468D01*
X-360337Y-93097D01*
X-358758Y-92042D01*
X-357703Y-90463D01*
X-357332Y-88600D01*
X-357703Y-86737D01*
X-358758Y-85158D01*
X-359214Y-84854D01*
X-359515Y-83127D01*
X-359359Y-82914D01*
X-358470D01*
Y-75570D01*
D02*
G37*
G36*
X-340000Y-88785D02*
X-341804Y-89144D01*
X-343334Y-90166D01*
X-344356Y-91696D01*
X-344715Y-93500D01*
X-344356Y-95304D01*
X-343334Y-96834D01*
X-341804Y-97856D01*
X-340000Y-98215D01*
X-338196Y-97856D01*
X-336666Y-96834D01*
X-335644Y-95304D01*
X-335285Y-93500D01*
X-335644Y-91696D01*
X-336666Y-90166D01*
X-338196Y-89144D01*
X-340000Y-88785D01*
D02*
G37*
G36*
X-162500Y-90285D02*
X-164304Y-90644D01*
X-165834Y-91666D01*
X-166856Y-93196D01*
X-167215Y-95000D01*
X-166856Y-96804D01*
X-165834Y-98334D01*
X-164304Y-99356D01*
X-162500Y-99715D01*
X-160696Y-99356D01*
X-159166Y-98334D01*
X-158144Y-96804D01*
X-157785Y-95000D01*
X-158144Y-93196D01*
X-159166Y-91666D01*
X-160696Y-90644D01*
X-162500Y-90285D01*
D02*
G37*
G36*
X-340000Y-136785D02*
X-341804Y-137144D01*
X-343334Y-138166D01*
X-344356Y-139696D01*
X-344715Y-141500D01*
X-344356Y-143304D01*
X-343334Y-144834D01*
X-341804Y-145856D01*
X-340000Y-146215D01*
X-338196Y-145856D01*
X-336666Y-144834D01*
X-335644Y-143304D01*
X-335285Y-141500D01*
X-335644Y-139696D01*
X-336666Y-138166D01*
X-338196Y-137144D01*
X-340000Y-136785D01*
D02*
G37*
G36*
X-351700Y-152086D02*
X-355930D01*
Y-159430D01*
X-343254D01*
X-343380Y-158471D01*
X-344240Y-156393D01*
X-345609Y-154609D01*
X-347393Y-153240D01*
X-349471Y-152380D01*
X-351700Y-152086D01*
D02*
G37*
G36*
X-362200Y-141532D02*
X-364063Y-141903D01*
X-365642Y-142958D01*
X-366697Y-144537D01*
X-367067Y-146400D01*
X-366697Y-148263D01*
X-365642Y-149842D01*
X-364063Y-150897D01*
X-363797Y-150950D01*
X-363839Y-152236D01*
X-364929Y-152380D01*
X-367007Y-153240D01*
X-368791Y-154609D01*
X-370160Y-156393D01*
X-371020Y-158471D01*
X-371147Y-159430D01*
X-358470D01*
Y-152086D01*
X-359359D01*
X-359515Y-151873D01*
X-359214Y-150146D01*
X-358758Y-149842D01*
X-357703Y-148263D01*
X-357332Y-146400D01*
X-357703Y-144537D01*
X-358758Y-142958D01*
X-360337Y-141903D01*
X-362200Y-141532D01*
D02*
G37*
G36*
X-394500Y-152086D02*
X-397730D01*
Y-159430D01*
X-386054D01*
X-386180Y-158471D01*
X-387040Y-156393D01*
X-388409Y-154609D01*
X-390193Y-153240D01*
X-392271Y-152380D01*
X-394500Y-152086D01*
D02*
G37*
G36*
X-400270D02*
X-403500D01*
X-405729Y-152380D01*
X-407807Y-153240D01*
X-409591Y-154609D01*
X-410960Y-156393D01*
X-411820Y-158471D01*
X-411946Y-159430D01*
X-400270D01*
Y-152086D01*
D02*
G37*
G36*
X-343254Y-161970D02*
X-355930D01*
Y-169314D01*
X-351700D01*
X-349471Y-169020D01*
X-347393Y-168160D01*
X-345609Y-166791D01*
X-344240Y-165007D01*
X-343380Y-162929D01*
X-343254Y-161970D01*
D02*
G37*
G36*
X-358470D02*
X-371147D01*
X-371020Y-162929D01*
X-370160Y-165007D01*
X-368791Y-166791D01*
X-367007Y-168160D01*
X-364929Y-169020D01*
X-362700Y-169314D01*
X-358470D01*
Y-161970D01*
D02*
G37*
G36*
X-386054Y-161970D02*
X-397730D01*
Y-169314D01*
X-394500D01*
X-392271Y-169020D01*
X-390193Y-168160D01*
X-388409Y-166791D01*
X-387040Y-165007D01*
X-386180Y-162929D01*
X-386054Y-161970D01*
D02*
G37*
G36*
X-400270D02*
X-411946D01*
X-411820Y-162929D01*
X-410960Y-165007D01*
X-409591Y-166791D01*
X-407807Y-168160D01*
X-405729Y-169020D01*
X-403500Y-169314D01*
X-400270D01*
Y-161970D01*
D02*
G37*
G36*
X-162500Y-177785D02*
X-164304Y-178144D01*
X-165834Y-179166D01*
X-166851Y-180688D01*
X-166889Y-180696D01*
X-168111Y-180696D01*
X-168149Y-180688D01*
X-169166Y-179166D01*
X-170696Y-178144D01*
X-172500Y-177785D01*
X-174304Y-178144D01*
X-175834Y-179166D01*
X-176856Y-180696D01*
X-177215Y-182500D01*
X-176856Y-184304D01*
X-175834Y-185834D01*
X-174304Y-186856D01*
X-172500Y-187215D01*
X-170696Y-186856D01*
X-169166Y-185834D01*
X-168149Y-184312D01*
X-168111Y-184304D01*
X-166889Y-184304D01*
X-166851Y-184312D01*
X-165834Y-185834D01*
X-164304Y-186856D01*
X-162500Y-187215D01*
X-160696Y-186856D01*
X-159166Y-185834D01*
X-158149Y-184311D01*
X-158111Y-184304D01*
X-156889Y-184304D01*
X-156851Y-184311D01*
X-155834Y-185834D01*
X-154304Y-186856D01*
X-152500Y-187215D01*
X-150696Y-186856D01*
X-149166Y-185834D01*
X-148144Y-184304D01*
X-147785Y-182500D01*
X-148144Y-180696D01*
X-149166Y-179166D01*
X-150696Y-178144D01*
X-152500Y-177785D01*
X-154304Y-178144D01*
X-155834Y-179166D01*
X-156851Y-180688D01*
X-156889Y-180696D01*
X-158111Y-180696D01*
X-158149Y-180688D01*
X-159166Y-179166D01*
X-160696Y-178144D01*
X-162500Y-177785D01*
D02*
G37*
G36*
X-354600Y-175995D02*
X-357028Y-176478D01*
X-359086Y-177854D01*
X-360462Y-179912D01*
X-360945Y-182340D01*
X-360462Y-184768D01*
X-359086Y-186826D01*
X-357028Y-188202D01*
X-354600Y-188685D01*
X-352172Y-188202D01*
X-350113Y-186826D01*
X-348738Y-184768D01*
X-348255Y-182340D01*
X-348738Y-179912D01*
X-350113Y-177854D01*
X-352172Y-176478D01*
X-354600Y-175995D01*
D02*
G37*
G36*
X-405400Y-186155D02*
X-407828Y-186638D01*
X-409887Y-188013D01*
X-411262Y-190072D01*
X-411745Y-192500D01*
X-411262Y-194928D01*
X-409887Y-196987D01*
X-407828Y-198362D01*
X-405400Y-198845D01*
X-402972Y-198362D01*
X-400914Y-196987D01*
X-399538Y-194928D01*
X-399055Y-192500D01*
X-399538Y-190072D01*
X-400914Y-188013D01*
X-402972Y-186638D01*
X-405400Y-186155D01*
D02*
G37*
G36*
X-354600Y-196315D02*
X-357028Y-196798D01*
X-359086Y-198174D01*
X-360462Y-200232D01*
X-360945Y-202660D01*
X-360462Y-205088D01*
X-359086Y-207146D01*
X-357028Y-208522D01*
X-354600Y-209005D01*
X-352172Y-208522D01*
X-350113Y-207146D01*
X-348738Y-205088D01*
X-348255Y-202660D01*
X-348738Y-200232D01*
X-350113Y-198174D01*
X-352172Y-196798D01*
X-354600Y-196315D01*
D02*
G37*
G36*
X-392830Y-204225D02*
X-394634Y-204584D01*
X-396164Y-205606D01*
X-397186Y-207136D01*
X-397545Y-208940D01*
X-397186Y-210744D01*
X-396164Y-212274D01*
X-394634Y-213296D01*
X-392830Y-213655D01*
X-391026Y-213296D01*
X-389496Y-212274D01*
X-388474Y-210744D01*
X-388115Y-208940D01*
X-388474Y-207136D01*
X-389496Y-205606D01*
X-391026Y-204584D01*
X-392830Y-204225D01*
D02*
G37*
%LPD*%
G36*
X95106Y-31246D02*
X95145Y-31449D01*
X94144Y-32946D01*
X93785Y-34750D01*
X94144Y-36554D01*
X95166Y-38084D01*
X96696Y-39106D01*
X98500Y-39465D01*
X99683Y-39229D01*
X102669Y-42215D01*
Y-49555D01*
X101399Y-50126D01*
X100304Y-49394D01*
X98500Y-49035D01*
X96696Y-49394D01*
X95166Y-50416D01*
X94144Y-51946D01*
X93785Y-53750D01*
X94144Y-55554D01*
X95166Y-57084D01*
X96696Y-58106D01*
X98500Y-58465D01*
X100304Y-58106D01*
X101399Y-57374D01*
X102669Y-57945D01*
Y-71800D01*
X102847Y-72692D01*
X103352Y-73448D01*
X108121Y-78217D01*
X107885Y-79400D01*
X108244Y-81204D01*
X108876Y-82149D01*
X108197Y-83419D01*
X-400D01*
X-1292Y-83597D01*
X-2048Y-84102D01*
X-56725Y-138778D01*
X-57155Y-138708D01*
X-57593Y-137349D01*
X-19602Y-99358D01*
X-19097Y-98602D01*
X-18919Y-97710D01*
Y-82754D01*
X-17916Y-82084D01*
X-16894Y-80554D01*
X-16535Y-78750D01*
X-16894Y-76946D01*
X-17916Y-75416D01*
X-19446Y-74394D01*
X-21250Y-74035D01*
X-23054Y-74394D01*
X-24584Y-75416D01*
X-25606Y-76946D01*
X-25965Y-78750D01*
X-25606Y-80554D01*
X-24584Y-82084D01*
X-23581Y-82754D01*
Y-96745D01*
X-61708Y-134872D01*
X-62126Y-134789D01*
X-62544Y-133411D01*
X-31102Y-101968D01*
X-30597Y-101212D01*
X-30419Y-100320D01*
Y-60004D01*
X-29416Y-59334D01*
X-28394Y-57804D01*
X-28035Y-56000D01*
X-28394Y-54196D01*
X-29416Y-52666D01*
X-30946Y-51644D01*
X-32750Y-51285D01*
X-34554Y-51644D01*
X-35354Y-52179D01*
X-36163Y-51192D01*
X-15150Y-30179D01*
X94732D01*
X95106Y-31246D01*
D02*
G37*
G36*
X106899Y-34178D02*
X106785Y-34750D01*
X107144Y-36554D01*
X108166Y-38084D01*
X109696Y-39106D01*
X111500Y-39465D01*
X112000Y-39365D01*
X150701Y-78066D01*
X150587Y-78638D01*
X150821Y-79810D01*
X149650Y-80435D01*
X146967Y-77752D01*
X146210Y-77247D01*
X145318Y-77069D01*
X116604D01*
X115934Y-76066D01*
X114404Y-75044D01*
X112600Y-74685D01*
X111417Y-74921D01*
X107331Y-70835D01*
Y-57945D01*
X108601Y-57374D01*
X109696Y-58106D01*
X111500Y-58465D01*
X113304Y-58106D01*
X114834Y-57084D01*
X115856Y-55554D01*
X116215Y-53750D01*
X115856Y-51946D01*
X114834Y-50416D01*
X113304Y-49394D01*
X111500Y-49035D01*
X109696Y-49394D01*
X108601Y-50126D01*
X107331Y-49555D01*
Y-41250D01*
X107153Y-40358D01*
X106648Y-39602D01*
X102979Y-35933D01*
X103215Y-34750D01*
X102856Y-32946D01*
X102375Y-32226D01*
X102954Y-30807D01*
X103428Y-30707D01*
X106899Y-34178D01*
D02*
G37*
G36*
X-281256Y-63540D02*
X-281348Y-64000D01*
X-281055Y-65472D01*
X-280221Y-66721D01*
X-279939Y-66909D01*
X-280324Y-68179D01*
X-294516D01*
X-294902Y-66909D01*
X-294859Y-66881D01*
X-294025Y-65633D01*
X-293732Y-64160D01*
X-294025Y-62688D01*
X-294859Y-61439D01*
X-296108Y-60605D01*
X-297580Y-60312D01*
X-299053Y-60605D01*
X-300301Y-61439D01*
X-301135Y-62688D01*
X-301428Y-64160D01*
X-301135Y-65633D01*
X-300301Y-66881D01*
X-300205Y-66945D01*
X-300195Y-67098D01*
X-300524Y-68260D01*
X-301012Y-68357D01*
X-301768Y-68862D01*
X-305898Y-72992D01*
X-306403Y-73748D01*
X-306581Y-74640D01*
Y-78911D01*
X-307851Y-79296D01*
X-308029Y-79029D01*
X-309277Y-78195D01*
X-310750Y-77902D01*
X-312222Y-78195D01*
X-313471Y-79029D01*
X-314305Y-80278D01*
X-314598Y-81750D01*
X-314305Y-83223D01*
X-313620Y-84247D01*
X-313687Y-84678D01*
X-314800Y-85159D01*
X-315108Y-85142D01*
X-315777Y-84695D01*
X-317250Y-84402D01*
X-318109Y-84573D01*
X-319379Y-83723D01*
Y-42570D01*
X-319557Y-41678D01*
X-320062Y-40922D01*
X-322311Y-38673D01*
X-322075Y-37490D01*
X-322434Y-35686D01*
X-323066Y-34741D01*
X-322387Y-33471D01*
X-311325D01*
X-281256Y-63540D01*
D02*
G37*
D10*
X-152528Y164000D02*
X-60161D01*
X-60000Y164161D01*
X-152546Y163982D02*
X-152528Y164000D01*
X104080Y207670D02*
X111500Y200250D01*
X-16330Y207670D02*
X104080D01*
X-60000Y164000D02*
X-16330Y207670D01*
X111500Y200164D02*
Y200250D01*
Y200164D02*
X155302Y156362D01*
X197400Y85100D02*
Y92100D01*
Y85100D02*
X197500Y85000D01*
X285300D01*
X53250D02*
X197500D01*
X46250Y92000D02*
X53250Y85000D01*
X285300D02*
X292400Y92100D01*
X-152528Y-71000D02*
X-60000D01*
X-152546Y-71018D02*
X-152528Y-71000D01*
X104080Y-27330D02*
X111500Y-34750D01*
X-16330Y-27330D02*
X104080D01*
X-60000Y-71000D02*
X-16330Y-27330D01*
X111500Y-34836D02*
Y-34750D01*
Y-34836D02*
X155302Y-78638D01*
X197400Y-149900D02*
Y-142900D01*
Y-149900D02*
X197500Y-150000D01*
X285300D01*
X53250D02*
X197500D01*
X46250Y-143000D02*
X53250Y-150000D01*
X285300D02*
X292400Y-142900D01*
D14*
X-166535Y-21964D02*
G03*
X-158000Y-25500I8536J8536D01*
G01*
X-169965Y-18535D02*
G03*
X-178500Y-15000I-8536J-8536D01*
G01*
X-169965Y-18536D02*
G03*
X-169965Y-18535I0J0D01*
G01*
X-169964Y-18536D02*
G03*
X-169964Y-18536I0J0D01*
G01*
X-166535Y-21965D02*
G03*
X-166536Y-21964I0J0D01*
G01*
X-111500Y-15000D02*
G03*
X-120035Y-18535I0J-12071D01*
G01*
X-132000Y-25500D02*
G03*
X-123464Y-21964I0J12071D01*
G01*
X-132000Y209500D02*
G03*
X-123464Y213036I0J12071D01*
G01*
X-111500Y220000D02*
G03*
X-120035Y216465I0J-12071D01*
G01*
X-166535Y213035D02*
G03*
X-166536Y213036I0J0D01*
G01*
X-169964Y216464D02*
G03*
X-169964Y216464I0J0D01*
G01*
X-169965Y216464D02*
G03*
X-169965Y216465I0J0D01*
G01*
X-169965D02*
G03*
X-178500Y220000I-8536J-8536D01*
G01*
X-166535Y213036D02*
G03*
X-158000Y209500I8536J8536D01*
G01*
X425000Y15000D02*
Y220000D01*
X410000Y15000D02*
X425000D01*
X410000Y-15000D02*
X425000D01*
X410000D02*
Y15000D01*
X-111500Y-15000D02*
X340000D01*
X-425000Y-220000D02*
Y-15000D01*
X-360000D02*
X-178500D01*
X-169964Y-18536D02*
X-166536Y-21964D01*
X-123464D02*
X-120036Y-18536D01*
X-145000Y-25500D02*
X-132000D01*
X-158000D02*
X-145000D01*
X-111500Y220000D02*
X425000Y220000D01*
X-425000Y-15000D02*
X-410000D01*
X-360000Y15000D02*
X340000D01*
X-425000D02*
X-410000D01*
X340000Y-15000D02*
Y15000D01*
X-360000Y-15000D02*
Y15000D01*
X-410000Y-15000D02*
X-410000Y15000D01*
X-158000Y209500D02*
X-145000D01*
X-132000D01*
X-425000Y220000D02*
X-178500D01*
X-123464Y213036D02*
X-120036Y216464D01*
X-169964D02*
X-166536Y213036D01*
X-425000Y15000D02*
Y220000D01*
X425000Y-220000D02*
Y-15000D01*
X-425000Y-220000D02*
X425000D01*
D21*
X207600Y142900D02*
X279850D01*
X292500Y130250D01*
Y130250D01*
X312020Y73620D02*
Y120480D01*
X305100Y66700D02*
X312020Y73620D01*
X276900Y155600D02*
X312020Y120480D01*
X267150Y155600D02*
X276900D01*
X317100Y53300D02*
Y121050D01*
X305100Y41300D02*
X317100Y53300D01*
X276400Y161750D02*
X317100Y121050D01*
X194000Y161750D02*
X276400D01*
X197400Y-79400D02*
X281900D01*
X288000Y-85500D01*
X207600Y-92100D02*
X279850D01*
X292500Y-104750D01*
X305100Y-168300D02*
X312020Y-161380D01*
X307960Y-85500D02*
X312020Y-89560D01*
Y-161380D02*
Y-89560D01*
X317100Y-181700D02*
Y-87020D01*
X305100Y-193700D02*
X317100Y-181700D01*
X194000Y-73250D02*
X303330D01*
X317100Y-87020D01*
X120000Y-99500D02*
X200200D01*
X207600Y-92100D01*
X112600D02*
X120000Y-99500D01*
X87200Y-117500D02*
X112600Y-92100D01*
X28810Y-117500D02*
X87200D01*
X-2178Y-180746D02*
Y-148488D01*
X28810Y-117500D01*
X-307740Y33426D02*
X-277514Y63652D01*
X-333902Y33426D02*
X-307740D01*
X-148990Y154330D02*
X-141370D01*
X-137560Y158140D01*
X-49788Y156250D02*
X-21250D01*
X-51708Y154330D02*
X-49788Y156250D01*
X-137560Y158140D02*
X-53610D01*
X-136544Y154330D02*
X-51708D01*
X-185820Y147980D02*
X-142894D01*
X-136544Y154330D01*
X-53610Y158140D02*
X-32750Y179000D01*
X-207410Y169570D02*
X-185820Y147980D01*
X-141624Y144170D02*
X-135274Y150520D01*
X-210204Y165760D02*
X-188614Y144170D01*
X-141624D01*
X-135274Y150520D02*
X-82950D01*
X-191154Y140360D02*
X-140100D01*
X-82950Y150520D02*
X-37230Y104800D01*
X-212744Y161950D02*
X-191154Y140360D01*
X-133750Y146710D02*
X-85490D01*
X-140100Y140360D02*
X-133750Y146710D01*
X-273450Y169570D02*
X-207410D01*
X-296310Y146710D02*
X-273450Y169570D01*
X-288690Y144170D02*
X-267100Y165760D01*
X-210204D01*
X-296310Y134010D02*
Y146710D01*
Y134010D02*
X-292500Y130200D01*
X-260750Y161950D02*
X-212744D01*
X-37230Y57810D02*
Y104800D01*
X-43580Y70510D02*
Y104800D01*
X-85490Y146710D02*
X-43580Y104800D01*
X-278530Y144170D02*
X-260750Y161950D01*
X-82442Y121310D02*
X-76600Y127152D01*
X-134004Y121310D02*
X-82442D01*
X-283610Y136550D02*
X-275990D01*
X-269640Y142900D01*
X-265830Y130200D02*
Y136550D01*
Y130200D02*
X-138068D01*
X-269640Y142900D02*
X-260750D01*
X-263290Y123850D02*
X-259988Y127152D01*
X-281070Y114960D02*
X-265830Y130200D01*
X-301390Y98450D02*
X-292500Y89560D01*
X-301390Y152298D02*
X-266084Y187604D01*
X-301390Y98450D02*
Y152298D01*
X-139846Y127152D02*
X-134004Y121310D01*
X-259988Y127152D02*
X-139846D01*
X-135118Y127250D02*
X-127290D01*
X-138068Y130200D02*
X-135118Y127250D01*
X-249320Y142900D02*
X-242970Y136550D01*
X-251352Y133502D02*
X-121050D01*
X-260750Y142900D02*
X-251352Y133502D01*
X-242970Y136550D02*
X-138576D01*
X-134876Y140250D02*
X-127290D01*
X-138576Y136550D02*
X-134876Y140250D01*
X-266084Y187604D02*
X-234080D01*
X-277514Y89226D02*
X-246740Y120000D01*
X-342538Y42062D02*
X-333902Y33426D01*
X-364128Y42062D02*
X-342538D01*
X-380130Y26060D02*
X-364128Y42062D01*
X-332395Y100028D02*
X-310500Y78134D01*
Y41000D02*
Y78134D01*
X-362350Y115000D02*
Y130200D01*
X-314344Y178206D01*
X-300120D01*
X-277514Y63652D02*
Y89226D01*
X151669Y149250D02*
X181500D01*
X112600Y155600D02*
X145318D01*
X87200Y117500D02*
X112600Y142900D01*
X28810Y117500D02*
X87200D01*
X93550Y111150D02*
X112600Y130200D01*
X32112Y111150D02*
X93550D01*
X-2178Y86512D02*
X28810Y117500D01*
X5442Y84480D02*
X32112Y111150D01*
X-2178Y54254D02*
Y86512D01*
X5442Y60096D02*
Y84480D01*
X13062Y65176D02*
Y82812D01*
Y65176D02*
X43238Y35000D01*
X98250D01*
X13062Y82812D02*
X35000Y104750D01*
X33750Y92200D02*
X40050Y98500D01*
X112750D01*
X105000Y163200D02*
Y193750D01*
X98500Y200250D02*
X105000Y193750D01*
Y163200D02*
X112600Y155600D01*
X99850Y104750D02*
X112600Y117500D01*
X35000Y104750D02*
X99850D01*
X197400Y155600D02*
X267150D01*
X145318D02*
X151669Y149250D01*
X181500D02*
X194000Y161750D01*
X112600Y142900D02*
X120000Y135500D01*
X200200D02*
X207600Y142900D01*
X120000Y135500D02*
X200200D01*
X112600Y130200D02*
X207600D01*
X112600Y117500D02*
X119350Y110750D01*
X200850D02*
X207600Y117500D01*
X119350Y110750D02*
X200850D01*
X112750Y98500D02*
X201200Y98500D01*
X112600Y92100D02*
Y98350D01*
X112750Y98500D01*
X201200Y98500D02*
X207600Y92100D01*
X112600Y104800D02*
X207600D01*
X98500Y-34750D02*
X105000Y-41250D01*
Y-71800D02*
Y-41250D01*
X-222650Y-111000D02*
X-147350D01*
X-131100Y-94750D01*
X-139580Y-116230D02*
X-124600Y-101250D01*
X-232810Y-116230D02*
X-139580D01*
X-297750Y-75250D02*
X-273790D01*
X-232810Y-116230D01*
X-226460Y-128930D02*
X-70250D01*
X-60000Y-118680D02*
Y-107750D01*
X-70250Y-128930D02*
X-60000Y-118680D01*
X-298850Y-134010D02*
X-231540D01*
X-226460Y-128930D01*
X-222650Y-133502D02*
X-65932D01*
X-32750Y-100320D02*
Y-56000D01*
X-65932Y-133502D02*
X-32750Y-100320D01*
X-21250Y-97710D02*
Y-78750D01*
X-61360Y-137820D02*
X-21250Y-97710D01*
X-253130Y-137820D02*
X-61360D01*
X-249320Y-141630D02*
X-56280D01*
X-400Y-85750D01*
X117710D01*
X32112Y-123850D02*
X93550D01*
X5442Y-150520D02*
X32112Y-123850D01*
X5442Y-174904D02*
Y-150520D01*
X-297750Y-140250D02*
X-255560D01*
X-253130Y-137820D01*
X-254440Y-146750D02*
X-249320Y-141630D01*
X-291250Y-146750D02*
X-254440D01*
X-304250Y-139410D02*
X-298850Y-134010D01*
X-304250Y-146750D02*
Y-139410D01*
X-310750Y-148780D02*
Y-81750D01*
Y-148780D02*
X-306470Y-153060D01*
X-253130D02*
X-245510Y-145440D01*
X-306470Y-153060D02*
X-253130D01*
X-245510Y-145440D02*
X-56280D01*
X-250590Y-156870D02*
X-242970Y-149250D01*
X-61360D02*
X-48660Y-161950D01*
X-307740Y-156870D02*
X-250590D01*
X-317250Y-147360D02*
Y-88250D01*
Y-147360D02*
X-307740Y-156870D01*
X-56280Y-145440D02*
X-39770Y-161950D01*
X-242970Y-149250D02*
X-61360D01*
X-343300Y-31140D02*
X-310360D01*
X-380130Y-67970D02*
X-343300Y-31140D01*
X-380130Y-208940D02*
Y-67970D01*
X-253500Y-187350D02*
X-222650Y-156500D01*
X-329500Y-194000D02*
X-322850Y-187350D01*
X-253500D01*
X-310500Y-194000D02*
X-250890D01*
X-222650Y-165760D01*
X-310360Y-31140D02*
X-277500Y-64000D01*
X-304250Y-88250D02*
Y-74640D01*
X-260750Y-70510D02*
X-237890Y-47650D01*
X-300120Y-70510D02*
X-260750D01*
X-321710Y-147980D02*
X-309940Y-159750D01*
X-321710Y-147980D02*
Y-42570D01*
X-326790Y-37490D02*
X-321710Y-42570D01*
X-309940Y-159750D02*
X-245750D01*
X-304250Y-74640D02*
X-300120Y-70510D01*
X124060Y-92100D02*
X197400D01*
X117710Y-85750D02*
X124060Y-92100D01*
X151669Y-85750D02*
X181500D01*
X112600Y-79400D02*
X145318D01*
X93550Y-123850D02*
X112600Y-104800D01*
X13062Y-169824D02*
Y-152188D01*
Y-169824D02*
X43238Y-200000D01*
X98250D01*
X13062Y-152188D02*
X35000Y-130250D01*
X33750Y-142800D02*
X40050Y-136500D01*
X112750D01*
X105000Y-71800D02*
X112600Y-79400D01*
X99850Y-130250D02*
X112600Y-117500D01*
X35000Y-130250D02*
X99850D01*
X287100Y-92100D02*
X292400D01*
X288000Y-85500D02*
X295500D01*
X307960D01*
X194000Y-73250D02*
X297500D01*
X145318Y-79400D02*
X151669Y-85750D01*
X181500D02*
X194000Y-73250D01*
X280000Y-85000D02*
X287100Y-92100D01*
X197400D02*
X204500Y-85000D01*
X280000D01*
X112600Y-104800D02*
X207600D01*
X112600Y-117500D02*
X119350Y-124250D01*
X200850D02*
X207600Y-117500D01*
X119350Y-124250D02*
X200850D01*
X112750Y-136500D02*
X201200Y-136500D01*
X112600Y-142900D02*
Y-136650D01*
X112750Y-136500D01*
X201200Y-136500D02*
X207600Y-142900D01*
X112600Y-130200D02*
X207600D01*
D76*
X-405400Y42500D02*
D03*
X-354600Y52660D02*
D03*
Y32340D02*
D03*
Y-202660D02*
D03*
Y-182340D02*
D03*
X-405400Y-192500D02*
D03*
D80*
X-412500Y117500D02*
D03*
Y-117500D02*
D03*
X397500Y0D02*
D03*
D81*
X-399000Y74300D02*
D03*
Y160700D02*
D03*
Y-74300D02*
D03*
Y-160700D02*
D03*
D82*
X-357200Y74300D02*
D03*
Y160700D02*
D03*
Y-74300D02*
D03*
Y-160700D02*
D03*
D83*
X-75000Y192500D02*
D03*
Y42500D02*
D03*
Y-42500D02*
D03*
Y-192500D02*
D03*
D84*
X337500Y192500D02*
D03*
X325000Y167500D02*
D03*
X337500Y142500D02*
D03*
X325000Y117500D02*
D03*
X337500Y92500D02*
D03*
X325000Y67500D02*
D03*
X312500Y192500D02*
D03*
X300000Y117500D02*
D03*
X287500Y192500D02*
D03*
X275000Y67500D02*
D03*
X262500Y192500D02*
D03*
X250000Y117500D02*
D03*
Y67500D02*
D03*
X237500Y192500D02*
D03*
X225000Y67500D02*
D03*
X212500Y192500D02*
D03*
X200000Y67500D02*
D03*
X187500Y192500D02*
D03*
X175000Y67500D02*
D03*
X162500Y192500D02*
D03*
X150000Y67500D02*
D03*
X137500Y192500D02*
D03*
X87500D02*
D03*
X75000Y67500D02*
D03*
X62500Y192500D02*
D03*
X50000Y67500D02*
D03*
X37500Y192500D02*
D03*
X25000Y67500D02*
D03*
X12500Y192500D02*
D03*
X-12500D02*
D03*
X-62500Y142500D02*
D03*
X-75000Y117500D02*
D03*
X-62500Y92500D02*
D03*
X-87500D02*
D03*
X-150000Y117500D02*
D03*
Y67500D02*
D03*
X-175000Y167500D02*
D03*
Y117500D02*
D03*
X-162500Y92500D02*
D03*
X-175000Y67500D02*
D03*
X-200000Y117500D02*
D03*
X-212500Y192500D02*
D03*
Y92500D02*
D03*
X-225000Y67500D02*
D03*
X-375000Y117500D02*
D03*
X-387500Y142500D02*
D03*
X-400000Y117500D02*
D03*
X-387500Y92500D02*
D03*
X-412500Y142500D02*
D03*
Y92500D02*
D03*
X337500Y-42500D02*
D03*
X325000Y-67500D02*
D03*
X337500Y-92500D02*
D03*
X325000Y-117500D02*
D03*
X337500Y-142500D02*
D03*
X325000Y-167500D02*
D03*
X337500Y-192500D02*
D03*
X312500Y-42500D02*
D03*
X300000Y-117500D02*
D03*
X287500Y-42500D02*
D03*
X275000Y-167500D02*
D03*
X287500Y-192500D02*
D03*
X262500Y-42500D02*
D03*
X250000Y-117500D02*
D03*
Y-167500D02*
D03*
X237500Y-42500D02*
D03*
X225000Y-167500D02*
D03*
X237500Y-192500D02*
D03*
X212500Y-42500D02*
D03*
X200000Y-167500D02*
D03*
X212500Y-192500D02*
D03*
X187500Y-42500D02*
D03*
X175000Y-167500D02*
D03*
X187500Y-192500D02*
D03*
X162500Y-42500D02*
D03*
X150000Y-167500D02*
D03*
X162500Y-192500D02*
D03*
X137500Y-42500D02*
D03*
Y-192500D02*
D03*
X87500Y-42500D02*
D03*
X75000Y-167500D02*
D03*
X87500Y-192500D02*
D03*
X62500Y-42500D02*
D03*
X50000Y-167500D02*
D03*
X62500Y-192500D02*
D03*
X37500Y-42500D02*
D03*
X25000Y-167500D02*
D03*
X12500Y-42500D02*
D03*
Y-192500D02*
D03*
X-12500Y-42500D02*
D03*
Y-192500D02*
D03*
X-62500Y-92500D02*
D03*
X-75000Y-117500D02*
D03*
X-150000Y-167500D02*
D03*
X-175000Y-67500D02*
D03*
Y-167500D02*
D03*
X-162500Y-192500D02*
D03*
X-200000Y-67500D02*
D03*
X-225000D02*
D03*
X-387500Y-92500D02*
D03*
X-400000Y-117500D02*
D03*
X-387500Y-142500D02*
D03*
X-412500Y-92500D02*
D03*
Y-142500D02*
D03*
X292500Y130250D02*
D03*
Y-104750D02*
D03*
X305100Y66700D02*
D03*
Y-168300D02*
D03*
Y41300D02*
D03*
Y-193700D02*
D03*
X207600Y-92100D02*
D03*
X112600D02*
D03*
X-2178Y-180746D02*
D03*
X-240176Y83210D02*
D03*
X26270Y129438D02*
D03*
X121520Y173634D02*
D03*
X-85998Y134264D02*
D03*
X-137500Y110000D02*
D03*
X88500Y200250D02*
D03*
X-172500Y52500D02*
D03*
X-162500Y52500D02*
D03*
X-152500Y52500D02*
D03*
X-223666Y41046D02*
D03*
X-148990Y154330D02*
D03*
X-60000Y164161D02*
D03*
X-292500Y130200D02*
D03*
X-37230Y57810D02*
D03*
X-43580Y70510D02*
D03*
X-283610Y136550D02*
D03*
X-217316Y142392D02*
D03*
X-76600Y127152D02*
D03*
X-288690Y144170D02*
D03*
X-281070Y114960D02*
D03*
X-278530Y144170D02*
D03*
X-265830Y136550D02*
D03*
X-263290Y123850D02*
D03*
X-127290Y127250D02*
D03*
X-249320Y142900D02*
D03*
X-127290Y140250D02*
D03*
X-121050Y133502D02*
D03*
X-257194Y89814D02*
D03*
X-247500Y90000D02*
D03*
X-321710Y152298D02*
D03*
X-311296Y171094D02*
D03*
X-167500Y164028D02*
D03*
X-224174Y197002D02*
D03*
X-227024Y177500D02*
D03*
X-234080Y187604D02*
D03*
X-292500Y89560D02*
D03*
X-213852Y155000D02*
D03*
X-246740Y120000D02*
D03*
X-287500Y37062D02*
D03*
X-388750Y199500D02*
D03*
X-326790Y177510D02*
D03*
X-300120Y178206D02*
D03*
X-340000Y141500D02*
D03*
X-362350Y115000D02*
D03*
X-189630Y117500D02*
D03*
X-277514Y63652D02*
D03*
X-323488Y78130D02*
D03*
X-332395Y100028D02*
D03*
X-392830Y26060D02*
D03*
X-380130D02*
D03*
X-367430D02*
D03*
X-329500Y41000D02*
D03*
X-310500D02*
D03*
X-320000Y65000D02*
D03*
X-340000Y93500D02*
D03*
X-320000Y41000D02*
D03*
X-223750Y26000D02*
D03*
X207600Y142900D02*
D03*
Y130200D02*
D03*
Y117500D02*
D03*
Y104800D02*
D03*
X292400Y117500D02*
D03*
Y92100D02*
D03*
X112600Y155600D02*
D03*
Y142900D02*
D03*
Y130200D02*
D03*
Y117500D02*
D03*
Y104800D02*
D03*
Y92100D02*
D03*
X197400Y117500D02*
D03*
X292500Y155650D02*
D03*
Y181050D02*
D03*
Y206450D02*
D03*
X46250Y92000D02*
D03*
X105000Y70000D02*
D03*
X207600Y92100D02*
D03*
X197400D02*
D03*
X98250Y35000D02*
D03*
X-21250Y156250D02*
D03*
X-32750Y179000D02*
D03*
X111500Y181250D02*
D03*
X98500D02*
D03*
Y200250D02*
D03*
X111500D02*
D03*
X197400Y155600D02*
D03*
X33750Y92200D02*
D03*
X13062Y65176D02*
D03*
X5442Y60096D02*
D03*
X-2178Y54254D02*
D03*
X46250Y142800D02*
D03*
X155302Y156362D02*
D03*
X-152546Y163982D02*
D03*
X-88856Y200500D02*
D03*
X-75000Y208500D02*
D03*
X-83000Y206356D02*
D03*
X-67000D02*
D03*
X-59000Y192500D02*
D03*
X-61144Y200500D02*
D03*
Y184500D02*
D03*
X-75000Y176500D02*
D03*
X-67000Y178644D02*
D03*
X-88856Y184500D02*
D03*
X-91000Y192500D02*
D03*
X-83000Y178644D02*
D03*
X-88856Y50500D02*
D03*
X-75000Y58500D02*
D03*
X-83000Y56356D02*
D03*
X-67000D02*
D03*
X-59000Y42500D02*
D03*
X-61144Y50500D02*
D03*
Y34500D02*
D03*
X-75000Y26500D02*
D03*
X-67000Y28644D02*
D03*
X-88856Y34500D02*
D03*
X-91000Y42500D02*
D03*
X-83000Y28644D02*
D03*
X25000Y-104038D02*
D03*
X123552Y-63144D02*
D03*
X-196996Y-31902D02*
D03*
X-307994Y-47396D02*
D03*
X98500Y-34750D02*
D03*
X88500D02*
D03*
X-120478Y-81750D02*
D03*
X111500Y-34750D02*
D03*
X-223666Y-193954D02*
D03*
X-152500Y-182500D02*
D03*
X-162500Y-182500D02*
D03*
X-172500Y-182500D02*
D03*
X-84500Y-94750D02*
D03*
X-131100D02*
D03*
X-124600Y-101250D02*
D03*
X-48660Y-161950D02*
D03*
X-39770D02*
D03*
X-211260Y-57500D02*
D03*
X-310500Y-194000D02*
D03*
X-320000D02*
D03*
X-367430Y-208940D02*
D03*
X-380130D02*
D03*
X-392830D02*
D03*
X-237890Y-47650D02*
D03*
X-326790Y-57490D02*
D03*
Y-37490D02*
D03*
X-167500Y-70972D02*
D03*
X-162500Y-95000D02*
D03*
X-187500D02*
D03*
X-152546Y-71018D02*
D03*
X155302Y-78638D02*
D03*
X46250Y-92200D02*
D03*
X5442Y-174904D02*
D03*
X13062Y-169824D02*
D03*
X33750Y-142800D02*
D03*
X-60000Y-107750D02*
D03*
X197400Y-79400D02*
D03*
X98500Y-53750D02*
D03*
X111500D02*
D03*
X-32750Y-56000D02*
D03*
X-21250Y-78750D02*
D03*
X-60000Y-71000D02*
D03*
X98250Y-200000D02*
D03*
X292400Y-92100D02*
D03*
X197400Y-142900D02*
D03*
X207600D02*
D03*
X105000Y-165000D02*
D03*
X46250Y-143000D02*
D03*
X292500Y-28550D02*
D03*
Y-53950D02*
D03*
Y-79350D02*
D03*
X197400Y-117500D02*
D03*
Y-92100D02*
D03*
X112600Y-142900D02*
D03*
Y-130200D02*
D03*
Y-117500D02*
D03*
Y-104800D02*
D03*
Y-79400D02*
D03*
X292400Y-142900D02*
D03*
Y-117500D02*
D03*
X207600Y-130200D02*
D03*
Y-117500D02*
D03*
Y-104800D02*
D03*
X-223750Y-209000D02*
D03*
X-329500Y-194000D02*
D03*
X-320000Y-171500D02*
D03*
X-340000Y-141500D02*
D03*
Y-93500D02*
D03*
X-388750Y-35500D02*
D03*
X-381250Y-49500D02*
D03*
X-88856Y-34500D02*
D03*
X-75000Y-26500D02*
D03*
X-83000Y-28644D02*
D03*
X-67000D02*
D03*
X-59000Y-42500D02*
D03*
X-61144Y-34500D02*
D03*
Y-50500D02*
D03*
X-75000Y-58500D02*
D03*
X-67000Y-56356D02*
D03*
X-88856Y-50500D02*
D03*
X-91000Y-42500D02*
D03*
X-83000Y-56356D02*
D03*
X-88856Y-184500D02*
D03*
X-75000Y-176500D02*
D03*
X-83000Y-178644D02*
D03*
X-67000D02*
D03*
X-59000Y-192500D02*
D03*
X-61144Y-184500D02*
D03*
Y-200500D02*
D03*
X-75000Y-208500D02*
D03*
X-67000Y-206356D02*
D03*
X-88856Y-200500D02*
D03*
X-91000Y-192500D02*
D03*
X-83000Y-206356D02*
D03*
D85*
X-239250Y-127250D02*
D03*
X-304250D02*
D03*
X-222650Y-111000D02*
D03*
Y-133502D02*
D03*
X-291250Y-146750D02*
D03*
X-247750Y-64000D02*
D03*
X-297580Y-64160D02*
D03*
X-326790Y-79400D02*
D03*
X-222650Y-165760D02*
D03*
Y-156500D02*
D03*
X-317250Y-88250D02*
D03*
X-245750Y-159750D02*
D03*
X-310750Y-81750D02*
D03*
X-255500Y-117500D02*
D03*
X-294500D02*
D03*
X-213760Y-105570D02*
D03*
X-304250Y-146750D02*
D03*
X-297750Y-140250D02*
D03*
X-304250Y-88250D02*
D03*
X-297750Y-75250D02*
D03*
X-277500Y-64000D02*
D03*
M02*
