G04*
G04 #@! TF.GenerationSoftware,Altium Limited,Altium Designer,20.0.7 (75)*
G04*
G04 Layer_Color=65535*
%FSLAX44Y44*%
%MOMM*%
G71*
G01*
G75*
%ADD10C,0.2540*%
%ADD11C,0.2500*%
%ADD12C,0.6000*%
%ADD13C,0.3048*%
%ADD14C,0.2032*%
%ADD15C,0.4000*%
%ADD16C,0.3700*%
%ADD17C,0.2000*%
%ADD18C,0.5000*%
%ADD19C,0.1200*%
%ADD20C,0.1270*%
%ADD21C,0.1524*%
%ADD22R,0.2000X1.2000*%
D10*
X-388232Y100500D02*
G03*
X-389535Y102205I-1768J0D01*
G01*
X-383975Y100500D02*
G03*
X-388384Y106304I-6025J0D01*
G01*
X-405349Y110296D02*
G03*
X-406500Y106197I-633J-2033D01*
G01*
Y94803D02*
G03*
X-405349Y90704I518J-2065D01*
G01*
X-388384Y94696D02*
G03*
X-383975Y100500I-1616J5804D01*
G01*
X-389535Y98794D02*
G03*
X-388232Y100500I-465J1706D01*
G01*
X-362000Y97500D02*
G03*
X-365000Y94500I0J-3000D01*
G01*
X-359000D02*
G03*
X-362000Y97500I-3000J0D01*
G01*
Y137500D02*
G03*
X-359000Y140500I0J3000D01*
G01*
X-365000D02*
G03*
X-362000Y137500I3000J0D01*
G01*
X-388232Y134500D02*
G03*
X-389535Y136206I-1768J0D01*
G01*
X-383975Y134500D02*
G03*
X-388384Y140304I-6025J0D01*
G01*
X-405349Y144296D02*
G03*
X-406500Y140197I-633J-2033D01*
G01*
Y128803D02*
G03*
X-405349Y124704I518J-2065D01*
G01*
X-388384Y128696D02*
G03*
X-383975Y134500I-1616J5804D01*
G01*
X-389535Y132795D02*
G03*
X-388232Y134500I-465J1706D01*
G01*
X-389535Y-102205D02*
G03*
X-388232Y-100500I-465J1706D01*
G01*
X-388384Y-106304D02*
G03*
X-383975Y-100500I-1616J5804D01*
G01*
X-406500Y-106197D02*
G03*
X-405349Y-110296I518J-2065D01*
G01*
Y-90704D02*
G03*
X-406500Y-94803I-633J-2033D01*
G01*
X-383975Y-100500D02*
G03*
X-388384Y-94696I-6025J0D01*
G01*
X-388232Y-100500D02*
G03*
X-389535Y-98794I-1768J0D01*
G01*
X-365000Y-94500D02*
G03*
X-362000Y-97500I3000J0D01*
G01*
D02*
G03*
X-359000Y-94500I0J3000D01*
G01*
Y-140500D02*
G03*
X-362000Y-137500I-3000J0D01*
G01*
D02*
G03*
X-365000Y-140500I0J-3000D01*
G01*
X-389535Y-136206D02*
G03*
X-388232Y-134500I-465J1706D01*
G01*
X-388384Y-140304D02*
G03*
X-383975Y-134500I-1616J5804D01*
G01*
X-406500Y-140197D02*
G03*
X-405349Y-144296I518J-2065D01*
G01*
Y-124704D02*
G03*
X-406500Y-128803I-633J-2033D01*
G01*
X-383975Y-134500D02*
G03*
X-388384Y-128696I-6025J0D01*
G01*
X-388232Y-134500D02*
G03*
X-389535Y-132795I-1768J0D01*
G01*
X-378000Y108500D02*
Y117500D01*
Y108500D02*
X-373000D01*
Y117500D01*
X-406500Y106197D02*
X-389535Y102205D01*
X-405349Y110296D02*
X-388384Y106304D01*
X-405349Y90704D02*
X-388384Y94696D01*
X-406500Y94803D02*
X-389535Y98794D01*
X-425000Y83500D02*
X-352000D01*
X-425000Y73500D02*
X-352000D01*
Y117500D01*
X-425000Y82500D02*
Y83500D01*
Y73500D02*
Y73750D01*
Y117500D01*
X-357000Y91500D02*
Y106500D01*
X-367000Y91500D02*
Y106500D01*
Y91500D02*
X-365000D01*
Y94500D01*
X-359000Y91500D02*
Y94500D01*
Y91500D02*
X-357000D01*
X-358000Y107500D02*
X-357000Y106500D01*
X-367000D02*
X-366000Y107500D01*
X-358000D01*
X-366000Y127500D02*
X-358000D01*
X-367000Y128500D02*
X-366000Y127500D01*
X-358000D02*
X-357000Y128500D01*
X-359000Y143500D02*
X-357000D01*
X-359000Y140500D02*
Y143500D01*
X-365000Y140500D02*
Y143500D01*
X-367000D02*
X-365000D01*
X-367000Y128500D02*
Y143500D01*
X-357000Y128500D02*
Y143500D01*
X-425000Y117500D02*
Y161250D01*
Y161500D01*
Y151500D02*
Y152500D01*
X-352000Y117500D02*
Y161500D01*
X-425000D02*
X-352000D01*
X-425000Y151500D02*
X-352000D01*
X-406500Y140197D02*
X-389535Y136206D01*
X-405349Y144296D02*
X-388384Y140304D01*
X-405349Y124704D02*
X-388384Y128696D01*
X-406500Y128803D02*
X-389535Y132795D01*
X-373000Y117500D02*
Y126500D01*
X-378000D02*
X-373000D01*
X-378000Y117500D02*
Y126500D01*
X-25003Y52500D02*
Y72500D01*
X-15003D01*
Y52500D02*
Y72500D01*
X-25003Y52500D02*
X-15003D01*
X-25003Y162500D02*
Y182500D01*
X-15003D01*
Y162500D02*
Y182500D01*
X-25003Y162500D02*
X-15003D01*
X-203000Y142500D02*
X-177000D01*
X-203000Y92500D02*
X-177000D01*
X-206000Y95500D02*
Y139500D01*
X-203000Y142500D01*
X-206000Y95500D02*
X-203000Y92500D01*
X-174000Y95500D02*
Y139500D01*
X-177000Y92500D02*
X-174000Y95500D01*
X-177000Y142500D02*
X-174000Y139500D01*
X275400Y54000D02*
Y181000D01*
X219520D02*
X275400D01*
X219520Y171602D02*
Y181000D01*
Y171602D02*
X224600D01*
X219520Y63398D02*
X224600D01*
X219520Y130200D02*
X224600D01*
Y171602D01*
X219520Y54000D02*
Y63398D01*
Y104800D02*
Y130200D01*
Y104800D02*
X224600D01*
X219520Y54000D02*
X275400D01*
X224600Y63398D02*
Y104800D01*
X129600Y50698D02*
Y104800D01*
X124520Y41300D02*
X180400D01*
X124520Y104800D02*
X129600D01*
X124520D02*
Y117500D01*
Y41300D02*
Y50698D01*
X129600D01*
X180400Y41300D02*
Y117500D01*
Y193700D01*
X124520Y184302D02*
X129600D01*
X124520D02*
Y193700D01*
Y117500D02*
Y130200D01*
X129600D01*
X124520Y193700D02*
X180400D01*
X129600Y130200D02*
Y184302D01*
X-401000Y179000D02*
X-369000D01*
X-401000D02*
Y200500D01*
X-395500Y206000D02*
X-369000D01*
Y179000D02*
Y206000D01*
X-401000Y200500D02*
X-395500Y206000D01*
X-25003Y-72500D02*
Y-52500D01*
X-15003D01*
Y-72500D02*
Y-52500D01*
X-25003Y-72500D02*
X-15003D01*
X-25003Y-182500D02*
Y-162500D01*
X-15003D01*
Y-182500D02*
Y-162500D01*
X-25003Y-182500D02*
X-15003D01*
X224600Y-171602D02*
Y-130200D01*
X219520Y-181000D02*
X275400D01*
X219520Y-130200D02*
X224600D01*
X219520D02*
Y-104800D01*
Y-181000D02*
Y-171602D01*
X224600Y-104800D02*
Y-63398D01*
X219520Y-104800D02*
X224600D01*
X219520Y-171602D02*
X224600D01*
X219520Y-63398D02*
X224600D01*
X219520D02*
Y-54000D01*
X275400D01*
Y-181000D02*
Y-54000D01*
X129600Y-104800D02*
Y-50698D01*
X124520Y-41300D02*
X180400D01*
X124520Y-104800D02*
X129600D01*
X124520Y-117500D02*
Y-104800D01*
Y-50698D02*
Y-41300D01*
Y-50698D02*
X129600D01*
X180400Y-117500D02*
Y-41300D01*
Y-193700D02*
Y-117500D01*
X124520Y-184302D02*
X129600D01*
X124520Y-193700D02*
Y-184302D01*
Y-130200D02*
Y-117500D01*
Y-130200D02*
X129600D01*
X124520Y-193700D02*
X180400D01*
X129600Y-184302D02*
Y-130200D01*
X-378000Y-117500D02*
Y-108500D01*
X-373000D01*
Y-117500D02*
Y-108500D01*
X-406500Y-106197D02*
X-389535Y-102205D01*
X-405349Y-110296D02*
X-388384Y-106304D01*
X-405349Y-90704D02*
X-388384Y-94696D01*
X-406500Y-94803D02*
X-389535Y-98794D01*
X-425000Y-83500D02*
X-352000D01*
X-425000Y-73500D02*
X-352000D01*
Y-117500D02*
Y-73500D01*
X-425000Y-83500D02*
Y-82500D01*
Y-73750D02*
Y-73500D01*
Y-117500D02*
Y-73750D01*
X-357000Y-106500D02*
Y-91500D01*
X-367000Y-106500D02*
Y-91500D01*
X-365000D01*
Y-94500D02*
Y-91500D01*
X-359000Y-94500D02*
Y-91500D01*
X-357000D01*
X-358000Y-107500D02*
X-357000Y-106500D01*
X-367000D02*
X-366000Y-107500D01*
X-358000D01*
X-366000Y-127500D02*
X-358000D01*
X-367000Y-128500D02*
X-366000Y-127500D01*
X-358000D02*
X-357000Y-128500D01*
X-359000Y-143500D02*
X-357000D01*
X-359000D02*
Y-140500D01*
X-365000Y-143500D02*
Y-140500D01*
X-367000Y-143500D02*
X-365000D01*
X-367000D02*
Y-128500D01*
X-357000Y-143500D02*
Y-128500D01*
X-425000Y-161250D02*
Y-117500D01*
Y-161500D02*
Y-161250D01*
Y-152500D02*
Y-151500D01*
X-352000Y-161500D02*
Y-117500D01*
X-425000Y-161500D02*
X-352000D01*
X-425000Y-151500D02*
X-352000D01*
X-406500Y-140197D02*
X-389535Y-136206D01*
X-405349Y-144296D02*
X-388384Y-140304D01*
X-405349Y-124704D02*
X-388384Y-128696D01*
X-406500Y-128803D02*
X-389535Y-132795D01*
X-373000Y-126500D02*
Y-117500D01*
X-378000Y-126500D02*
X-373000D01*
X-378000D02*
Y-117500D01*
X-401000Y-34500D02*
X-395500Y-29000D01*
X-369000Y-56000D02*
Y-29000D01*
X-395500D02*
X-369000D01*
X-401000Y-56000D02*
Y-34500D01*
Y-56000D02*
X-369000D01*
X-191000Y-105000D02*
X-159000D01*
X-191000Y-130000D02*
Y-105000D01*
X-159000Y-130000D02*
Y-105000D01*
X-191000Y-130000D02*
X-159000D01*
D11*
X-236280Y80000D02*
G03*
X-236280Y80000I-1220J0D01*
G01*
D12*
X-249600Y95000D02*
G03*
X-249600Y95000I-2900J0D01*
G01*
D13*
X-5000Y122500D02*
G03*
X-5000Y112500I5000J-5000D01*
G01*
Y70000D02*
G03*
X-5000Y60000I5000J-5000D01*
G01*
Y175000D02*
G03*
X-5000Y165000I5000J-5000D01*
G01*
Y-60000D02*
G03*
X-5000Y-70000I5000J-5000D01*
G01*
Y-165000D02*
G03*
X-5000Y-175000I5000J-5000D01*
G01*
Y-112500D02*
G03*
X-5000Y-122500I5000J-5000D01*
G01*
X83260Y117300D02*
Y137300D01*
X88260D01*
X83260Y97300D02*
X88260D01*
X83260D02*
Y117300D01*
X-5000Y41500D02*
Y117500D01*
X88260Y41500D02*
Y97300D01*
X-5000Y41500D02*
X88250D01*
X-5000Y193500D02*
X88250D01*
X88260Y137700D02*
Y193500D01*
X-5000Y117500D02*
Y193500D01*
Y-117500D02*
Y-41500D01*
X88260Y-97300D02*
Y-41500D01*
X-5000D02*
X88250D01*
X-5000Y-193500D02*
X88250D01*
X88260D02*
Y-137700D01*
X-5000Y-193500D02*
Y-117500D01*
X83260Y-137700D02*
Y-117700D01*
Y-137700D02*
X88260D01*
X83260Y-97700D02*
X88260D01*
X83260Y-117700D02*
Y-97700D01*
D14*
X307150Y31850D02*
G03*
X306000Y30700I0J-1150D01*
G01*
Y26500D02*
G03*
X307150Y25350I1150J0D01*
G01*
Y57250D02*
G03*
X306000Y56100I0J-1150D01*
G01*
Y51900D02*
G03*
X307150Y50750I1150J0D01*
G01*
Y82650D02*
G03*
X306000Y81500I0J-1150D01*
G01*
Y77300D02*
G03*
X307150Y76150I1150J0D01*
G01*
Y108050D02*
G03*
X306000Y106900I0J-1150D01*
G01*
Y102700D02*
G03*
X307150Y101550I1150J0D01*
G01*
Y133450D02*
G03*
X306000Y132300I0J-1150D01*
G01*
Y128100D02*
G03*
X307150Y126950I1150J0D01*
G01*
Y158850D02*
G03*
X306000Y157700I0J-1150D01*
G01*
Y153500D02*
G03*
X307150Y152350I1150J0D01*
G01*
Y184250D02*
G03*
X306000Y183100I0J-1150D01*
G01*
Y178900D02*
G03*
X307150Y177750I1150J0D01*
G01*
X306000Y204300D02*
G03*
X307150Y203150I1150J0D01*
G01*
Y209650D02*
G03*
X306000Y208500I0J-1150D01*
G01*
X-411111Y50660D02*
G03*
X-411113Y34337I5669J-8162D01*
G01*
X-391000Y60500D02*
G03*
X-393873Y60078I0J-10000D01*
G01*
Y24922D02*
G03*
X-391000Y24500I2873J9578D01*
G01*
X-355000D02*
G03*
X-345000Y34500I0J10000D01*
G01*
Y50500D02*
G03*
X-355000Y60500I-10000J0D01*
G01*
X307150Y-25350D02*
G03*
X306000Y-26500I0J-1150D01*
G01*
Y-30700D02*
G03*
X307150Y-31850I1150J0D01*
G01*
X306000Y-56100D02*
G03*
X307150Y-57250I1150J0D01*
G01*
Y-50750D02*
G03*
X306000Y-51900I0J-1150D01*
G01*
Y-81500D02*
G03*
X307150Y-82650I1150J0D01*
G01*
Y-76150D02*
G03*
X306000Y-77300I0J-1150D01*
G01*
Y-106900D02*
G03*
X307150Y-108050I1150J0D01*
G01*
Y-101550D02*
G03*
X306000Y-102700I0J-1150D01*
G01*
Y-132300D02*
G03*
X307150Y-133450I1150J0D01*
G01*
Y-126950D02*
G03*
X306000Y-128100I0J-1150D01*
G01*
Y-157700D02*
G03*
X307150Y-158850I1150J0D01*
G01*
Y-152350D02*
G03*
X306000Y-153500I0J-1150D01*
G01*
Y-183100D02*
G03*
X307150Y-184250I1150J0D01*
G01*
Y-177750D02*
G03*
X306000Y-178900I0J-1150D01*
G01*
Y-208500D02*
G03*
X307150Y-209650I1150J0D01*
G01*
Y-203150D02*
G03*
X306000Y-204300I0J-1150D01*
G01*
X-345000Y-184500D02*
G03*
X-355000Y-174500I-10000J0D01*
G01*
Y-210500D02*
G03*
X-345000Y-200500I0J10000D01*
G01*
X-393873Y-210078D02*
G03*
X-391000Y-210500I2873J9578D01*
G01*
Y-174500D02*
G03*
X-393873Y-174922I0J-10000D01*
G01*
X-411111Y-184340D02*
G03*
X-411113Y-200663I5669J-8162D01*
G01*
X-310000Y82500D02*
X-245000D01*
X-310000D02*
Y152500D01*
X-240000D01*
Y87500D02*
Y152500D01*
X-245000Y82500D02*
X-240000Y87500D01*
X-292500Y184500D02*
X-262500D01*
X-292500D02*
Y200500D01*
X-262500D01*
Y184500D02*
Y200500D01*
X269623Y77179D02*
X270000Y76500D01*
X265000Y74500D02*
X275400Y77500D01*
X265000Y80500D02*
X275400Y77500D01*
X265000Y74500D02*
Y80500D01*
Y76500D02*
X272000Y78481D01*
X265000Y78500D02*
X269623Y77179D01*
X170000Y65800D02*
X174623Y64479D01*
X170000Y63800D02*
X177000Y65781D01*
X170000Y61800D02*
Y67800D01*
X180400Y64800D01*
X170000Y61800D02*
X180400Y64800D01*
X174623Y64479D02*
X175000Y63800D01*
X306000Y26500D02*
Y30700D01*
X307150Y25350D02*
X340000D01*
X307150Y31850D02*
X340000D01*
X306000Y51900D02*
Y56100D01*
X307150Y50750D02*
X340000D01*
X307150Y57250D02*
X340000D01*
X306000Y77300D02*
Y81500D01*
X307150Y76150D02*
X340000D01*
X307150Y82650D02*
X340000D01*
X306000Y102700D02*
Y106900D01*
X307150Y101550D02*
X340000D01*
X307150Y108050D02*
X340000D01*
X306000Y128100D02*
Y132300D01*
X307150Y126950D02*
X340000D01*
X307150Y133450D02*
X340000D01*
X306000Y153500D02*
Y157700D01*
X307150Y152350D02*
X340000D01*
X307150Y158850D02*
X340000D01*
X306000Y178900D02*
Y183100D01*
X307150Y177750D02*
X340000D01*
X307150Y184250D02*
X340000D01*
X307150Y209650D02*
X340000D01*
X307150Y203150D02*
X340000D01*
X306000Y204300D02*
Y208500D01*
X425000Y14500D02*
Y220500D01*
X340000D02*
X425000D01*
X340000Y14500D02*
Y220500D01*
Y14500D02*
X425000D01*
X347000D02*
Y220500D01*
X-391000Y60500D02*
X-362000D01*
X-411111Y50660D02*
X-407408Y52740D01*
X-411113Y34337D02*
X-393873Y24922D01*
X-345000Y34500D02*
Y50500D01*
X-407408Y52740D02*
X-393873Y60078D01*
X-362000Y60500D02*
X-355000Y60500D01*
X-391000Y24500D02*
X-362000D01*
Y24500D02*
X-355000Y24500D01*
X94500Y176250D02*
X115500D01*
X94500D02*
Y188750D01*
X115500Y176250D02*
Y185000D01*
X111750Y188750D02*
X115500Y185000D01*
X94500Y188750D02*
X111750D01*
X94500Y46250D02*
X115500D01*
X94500D02*
Y58750D01*
X115500Y46250D02*
Y55000D01*
X111750Y58750D02*
X115500Y55000D01*
X94500Y58750D02*
X111750D01*
X-145000Y183500D02*
X-113000D01*
X-145000Y209500D02*
X-113000D01*
Y183500D02*
Y209500D01*
X-177000Y183500D02*
Y209500D01*
X-145000D01*
X-177000Y183500D02*
X-145000D01*
Y209500D02*
Y217500D01*
X-147000Y219500D02*
X-145000Y217500D01*
X-158000D02*
X-156000Y219500D01*
X-158000Y209500D02*
Y217500D01*
X-156000Y219500D02*
X-147000D01*
X347000Y-220500D02*
Y-14500D01*
X340000Y-220500D02*
X425000D01*
X340000D02*
Y-14500D01*
X425000D01*
Y-220500D02*
Y-14500D01*
X306000Y-30700D02*
Y-26500D01*
X307150Y-31850D02*
X340000D01*
X307150Y-25350D02*
X340000D01*
X307150Y-50750D02*
X340000D01*
X307150Y-57250D02*
X340000D01*
X306000Y-56100D02*
Y-51900D01*
X307150Y-76150D02*
X340000D01*
X307150Y-82650D02*
X340000D01*
X306000Y-81500D02*
Y-77300D01*
X307150Y-101550D02*
X340000D01*
X307150Y-108050D02*
X340000D01*
X306000Y-106900D02*
Y-102700D01*
X307150Y-126950D02*
X340000D01*
X307150Y-133450D02*
X340000D01*
X306000Y-132300D02*
Y-128100D01*
X307150Y-152350D02*
X340000D01*
X307150Y-158850D02*
X340000D01*
X306000Y-157700D02*
Y-153500D01*
X307150Y-177750D02*
X340000D01*
X307150Y-184250D02*
X340000D01*
X306000Y-183100D02*
Y-178900D01*
X307150Y-203150D02*
X340000D01*
X307150Y-209650D02*
X340000D01*
X306000Y-208500D02*
Y-204300D01*
X265000Y-156500D02*
X269623Y-157821D01*
X265000Y-158500D02*
X272000Y-156519D01*
X265000Y-160500D02*
Y-154500D01*
X275400Y-157500D01*
X265000Y-160500D02*
X275400Y-157500D01*
X269623Y-157821D02*
X270000Y-158500D01*
X174623Y-170521D02*
X175000Y-171200D01*
X170000Y-173200D02*
X180400Y-170200D01*
X170000Y-167200D02*
X180400Y-170200D01*
X170000Y-173200D02*
Y-167200D01*
Y-171200D02*
X177000Y-169219D01*
X170000Y-169200D02*
X174623Y-170521D01*
X94500Y-176250D02*
X111750D01*
X115500Y-180000D01*
Y-188750D02*
Y-180000D01*
X94500Y-188750D02*
Y-176250D01*
Y-188750D02*
X115500D01*
X94500Y-46250D02*
X111750D01*
X115500Y-50000D01*
Y-58750D02*
Y-50000D01*
X94500Y-58750D02*
Y-46250D01*
Y-58750D02*
X115500D01*
X-362000Y-210500D02*
X-355000Y-210500D01*
X-391000D02*
X-362000D01*
Y-174500D02*
X-355000Y-174500D01*
X-407408Y-182260D02*
X-393873Y-174922D01*
X-345000Y-200500D02*
Y-184500D01*
X-411113Y-200663D02*
X-393873Y-210078D01*
X-411111Y-184340D02*
X-407408Y-182260D01*
X-391000Y-174500D02*
X-362000D01*
X-156000Y-15500D02*
X-147000D01*
X-158000Y-25500D02*
Y-17500D01*
X-156000Y-15500D01*
X-147000D02*
X-145000Y-17500D01*
Y-25500D02*
Y-17500D01*
X-177000Y-51500D02*
X-145000D01*
X-177000Y-25500D02*
X-145000D01*
X-177000Y-51500D02*
Y-25500D01*
X-113000Y-51500D02*
Y-25500D01*
X-145000D02*
X-113000D01*
X-145000Y-51500D02*
X-113000D01*
X-158542Y154922D02*
Y165078D01*
X-153464D01*
X-151771Y163386D01*
Y160000D01*
X-153464Y158307D01*
X-158542D01*
X-148386Y165078D02*
Y154922D01*
X-145000Y158307D01*
X-141614Y154922D01*
Y165078D01*
X-138229Y154922D02*
Y165078D01*
X-133151D01*
X-131458Y163386D01*
Y160000D01*
X-133151Y158307D01*
X-138229D01*
X-134843D02*
X-131458Y154922D01*
X216183Y24922D02*
Y35078D01*
X219569Y31693D01*
X222955Y35078D01*
Y24922D01*
X226340Y35078D02*
X229726D01*
X228033D01*
Y24922D01*
X226340D01*
X229726D01*
X234804D02*
Y35078D01*
X239883D01*
X241575Y33386D01*
Y30000D01*
X239883Y28307D01*
X234804D01*
X244961Y35078D02*
X248346D01*
X246654D01*
Y24922D01*
X244961D01*
X248346D01*
X253425Y30000D02*
X260196D01*
X263582Y24922D02*
X266967D01*
X265274D01*
Y35078D01*
X263582Y33386D01*
X272045D02*
X273738Y35078D01*
X277124D01*
X278817Y33386D01*
Y26614D01*
X277124Y24922D01*
X273738D01*
X272045Y26614D01*
Y33386D01*
X132175Y33186D02*
X130482Y34878D01*
X127097D01*
X125404Y33186D01*
Y31493D01*
X127097Y29800D01*
X130482D01*
X132175Y28107D01*
Y26414D01*
X130482Y24722D01*
X127097D01*
X125404Y26414D01*
X135561Y34878D02*
X142332D01*
X138946D01*
Y24722D01*
X145717Y34878D02*
Y24722D01*
X150796D01*
X152489Y26414D01*
Y33186D01*
X150796Y34878D01*
X145717D01*
X162645Y33186D02*
X160953Y34878D01*
X157567D01*
X155874Y33186D01*
Y26414D01*
X157567Y24722D01*
X160953D01*
X162645Y26414D01*
X166031Y24722D02*
X169417D01*
X167724D01*
Y34878D01*
X166031Y33186D01*
X179573Y24722D02*
Y34878D01*
X174495Y29800D01*
X181266D01*
X-9976Y35078D02*
X-3205D01*
X-6591D01*
Y24922D01*
X180D02*
Y31693D01*
X3566Y35078D01*
X6951Y31693D01*
Y24922D01*
Y30000D01*
X180D01*
X17108Y33386D02*
X15415Y35078D01*
X12030D01*
X10337Y33386D01*
Y26614D01*
X12030Y24922D01*
X15415D01*
X17108Y26614D01*
Y30000D01*
X13723D01*
X20494D02*
X27265D01*
X37422Y33386D02*
X35729Y35078D01*
X32343D01*
X30650Y33386D01*
Y26614D01*
X32343Y24922D01*
X35729D01*
X37422Y26614D01*
X42500Y24922D02*
X45886D01*
X47578Y26614D01*
Y30000D01*
X45886Y31693D01*
X42500D01*
X40807Y30000D01*
Y26614D01*
X42500Y24922D01*
X50964D02*
Y31693D01*
X56042D01*
X57735Y30000D01*
Y24922D01*
X61121D02*
Y31693D01*
X66199D01*
X67892Y30000D01*
Y24922D01*
X76356D02*
X72970D01*
X71277Y26614D01*
Y30000D01*
X72970Y31693D01*
X76356D01*
X78049Y30000D01*
Y28307D01*
X71277D01*
X88205Y31693D02*
X83127D01*
X81434Y30000D01*
Y26614D01*
X83127Y24922D01*
X88205D01*
X93284Y33386D02*
Y31693D01*
X91591D01*
X94976D01*
X93284D01*
Y26614D01*
X94976Y24922D01*
X-9976Y-199922D02*
X-3205D01*
X-6591D01*
Y-210078D01*
X180D02*
Y-203307D01*
X3566Y-199922D01*
X6951Y-203307D01*
Y-210078D01*
Y-205000D01*
X180D01*
X17108Y-201614D02*
X15415Y-199922D01*
X12030D01*
X10337Y-201614D01*
Y-208386D01*
X12030Y-210078D01*
X15415D01*
X17108Y-208386D01*
Y-205000D01*
X13723D01*
X20494D02*
X27265D01*
X37422Y-201614D02*
X35729Y-199922D01*
X32343D01*
X30650Y-201614D01*
Y-208386D01*
X32343Y-210078D01*
X35729D01*
X37422Y-208386D01*
X42500Y-210078D02*
X45886D01*
X47578Y-208386D01*
Y-205000D01*
X45886Y-203307D01*
X42500D01*
X40807Y-205000D01*
Y-208386D01*
X42500Y-210078D01*
X50964D02*
Y-203307D01*
X56042D01*
X57735Y-205000D01*
Y-210078D01*
X61121D02*
Y-203307D01*
X66199D01*
X67892Y-205000D01*
Y-210078D01*
X76356D02*
X72970D01*
X71277Y-208386D01*
Y-205000D01*
X72970Y-203307D01*
X76356D01*
X78049Y-205000D01*
Y-206693D01*
X71277D01*
X88205Y-203307D02*
X83127D01*
X81434Y-205000D01*
Y-208386D01*
X83127Y-210078D01*
X88205D01*
X93284Y-201614D02*
Y-203307D01*
X91591D01*
X94976D01*
X93284D01*
Y-208386D01*
X94976Y-210078D01*
X132175Y-201814D02*
X130482Y-200122D01*
X127097D01*
X125404Y-201814D01*
Y-203507D01*
X127097Y-205200D01*
X130482D01*
X132175Y-206893D01*
Y-208586D01*
X130482Y-210278D01*
X127097D01*
X125404Y-208586D01*
X135561Y-200122D02*
X142332D01*
X138946D01*
Y-210278D01*
X145717Y-200122D02*
Y-210278D01*
X150796D01*
X152489Y-208586D01*
Y-201814D01*
X150796Y-200122D01*
X145717D01*
X162645Y-201814D02*
X160953Y-200122D01*
X157567D01*
X155874Y-201814D01*
Y-208586D01*
X157567Y-210278D01*
X160953D01*
X162645Y-208586D01*
X166031Y-210278D02*
X169417D01*
X167724D01*
Y-200122D01*
X166031Y-201814D01*
X179573Y-210278D02*
Y-200122D01*
X174495Y-205200D01*
X181266D01*
X216183Y-210078D02*
Y-199922D01*
X219569Y-203307D01*
X222955Y-199922D01*
Y-210078D01*
X226340Y-199922D02*
X229726D01*
X228033D01*
Y-210078D01*
X226340D01*
X229726D01*
X234804D02*
Y-199922D01*
X239883D01*
X241575Y-201614D01*
Y-205000D01*
X239883Y-206693D01*
X234804D01*
X244961Y-199922D02*
X248346D01*
X246654D01*
Y-210078D01*
X244961D01*
X248346D01*
X253425Y-205000D02*
X260196D01*
X263582Y-210078D02*
X266967D01*
X265274D01*
Y-199922D01*
X263582Y-201614D01*
X272045D02*
X273738Y-199922D01*
X277124D01*
X278817Y-201614D01*
Y-208386D01*
X277124Y-210078D01*
X273738D01*
X272045Y-208386D01*
Y-201614D01*
X-158542Y-80078D02*
Y-69922D01*
X-153464D01*
X-151771Y-71614D01*
Y-75000D01*
X-153464Y-76693D01*
X-158542D01*
X-148386Y-69922D02*
Y-80078D01*
X-145000Y-76693D01*
X-141614Y-80078D01*
Y-69922D01*
X-138229Y-80078D02*
Y-69922D01*
X-133151D01*
X-131458Y-71614D01*
Y-75000D01*
X-133151Y-76693D01*
X-138229D01*
X-134843D02*
X-131458Y-80078D01*
X-166535Y-21964D02*
G03*
X-158000Y-25500I8536J8536D01*
G01*
X-169965Y-18535D02*
G03*
X-178500Y-15000I-8536J-8536D01*
G01*
X-169965Y-18536D02*
G03*
X-169965Y-18535I0J0D01*
G01*
X-169964Y-18536D02*
G03*
X-169964Y-18536I0J0D01*
G01*
X-166535Y-21965D02*
G03*
X-166536Y-21964I0J0D01*
G01*
X-111500Y-15000D02*
G03*
X-120035Y-18535I0J-12071D01*
G01*
X-132000Y-25500D02*
G03*
X-123464Y-21964I0J12071D01*
G01*
X-132000Y209500D02*
G03*
X-123464Y213036I0J12071D01*
G01*
X-111500Y220000D02*
G03*
X-120035Y216465I0J-12071D01*
G01*
X-166535Y213035D02*
G03*
X-166536Y213036I0J0D01*
G01*
X-169964Y216464D02*
G03*
X-169964Y216464I0J0D01*
G01*
X-169965Y216464D02*
G03*
X-169965Y216465I0J0D01*
G01*
X-169965D02*
G03*
X-178500Y220000I-8536J-8536D01*
G01*
X-166535Y213036D02*
G03*
X-158000Y209500I8536J8536D01*
G01*
X425000Y15000D02*
Y220000D01*
X410000Y15000D02*
X425000D01*
X410000Y-15000D02*
X425000D01*
X410000D02*
Y15000D01*
X-111500Y-15000D02*
X340000D01*
X-425000Y-220000D02*
Y-15000D01*
X-360000D02*
X-178500D01*
X-169964Y-18536D02*
X-166536Y-21964D01*
X-123464D02*
X-120036Y-18536D01*
X-145000Y-25500D02*
X-132000D01*
X-158000D02*
X-145000D01*
X-111500Y220000D02*
X425000Y220000D01*
X-425000Y-15000D02*
X-410000D01*
X-360000Y15000D02*
X340000D01*
X-425000D02*
X-410000D01*
X340000Y-15000D02*
Y15000D01*
X-360000Y-15000D02*
Y15000D01*
X-410000Y-15000D02*
X-410000Y15000D01*
X-158000Y209500D02*
X-145000D01*
X-132000D01*
X-425000Y220000D02*
X-178500D01*
X-123464Y213036D02*
X-120036Y216464D01*
X-169964D02*
X-166536Y213036D01*
X-425000Y15000D02*
Y220000D01*
X425000Y-220000D02*
Y-15000D01*
X-425000Y-220000D02*
X425000D01*
D15*
X-301000Y53500D02*
G03*
X-301000Y53500I-1000J0D01*
G01*
X-402000Y208500D02*
G03*
X-402000Y208500I-1000J0D01*
G01*
Y-26500D02*
G03*
X-402000Y-26500I-1000J0D01*
G01*
X-301000Y-181500D02*
G03*
X-301000Y-181500I-1000J0D01*
G01*
D16*
X119000Y189500D02*
G03*
X119000Y189500I-1000J0D01*
G01*
Y59500D02*
G03*
X119000Y59500I-1000J0D01*
G01*
Y-175500D02*
G03*
X119000Y-175500I-1000J0D01*
G01*
Y-45500D02*
G03*
X119000Y-45500I-1000J0D01*
G01*
D17*
X-80167Y156500D02*
G03*
X-69833Y156500I5167J0D01*
G01*
X-80167Y-78500D02*
G03*
X-69833Y-78500I5167J0D01*
G01*
X-155020Y-101500D02*
G03*
X-155020Y-101500I-980J0D01*
G01*
X-334000Y34500D02*
Y50500D01*
Y34500D02*
X-305501D01*
Y48001D01*
X-308000Y50500D02*
X-305501Y48001D01*
X-334000Y50500D02*
X-308000D01*
X-145000Y20000D02*
Y85000D01*
X-180000Y20000D02*
Y85000D01*
X-145000D01*
X-180000Y20000D02*
X-145000D01*
X-90000Y78500D02*
Y156500D01*
X-54000Y78500D02*
Y156500D01*
X-94000Y78500D02*
Y156500D01*
Y78500D02*
X-54000D01*
X-69833Y156500D02*
X-54000D01*
X-94000D02*
X-80167D01*
X-94000Y-78500D02*
X-80167D01*
X-69833D02*
X-54000D01*
X-94000Y-156500D02*
X-54000D01*
X-94000D02*
Y-78500D01*
X-54000Y-156500D02*
Y-78500D01*
X-90000Y-156500D02*
Y-78500D01*
X-334000Y-184500D02*
X-308000D01*
X-305501Y-186999D01*
Y-200500D02*
Y-186999D01*
X-334000Y-200500D02*
X-305501D01*
X-334000D02*
Y-184500D01*
X-180000Y-215000D02*
X-145000D01*
X-180000Y-150000D02*
X-145000D01*
X-180000Y-215000D02*
Y-150000D01*
X-145000Y-215000D02*
Y-150000D01*
D18*
X-82750Y150250D02*
G03*
X-82750Y150250I-1250J0D01*
G01*
Y-84750D02*
G03*
X-82750Y-84750I-1250J0D01*
G01*
D19*
X-226500Y-72000D02*
G03*
X-226500Y-72000I-3000J0D01*
G01*
X-325750Y-66750D02*
X-224250D01*
Y-168250D02*
Y-66750D01*
X-325750Y-168250D02*
X-224250D01*
X-325750D02*
Y-66750D01*
X-222750Y-74250D02*
Y-65250D01*
X-231750D02*
X-222750D01*
D20*
X-345080Y204960D02*
X-334920D01*
X-345080D02*
Y210040D01*
X-334920Y204960D02*
Y210040D01*
X-345080D02*
X-334920D01*
X-345080Y194960D02*
X-334920D01*
X-345080D02*
Y200040D01*
X-334920Y194960D02*
Y200040D01*
X-345080D02*
X-334920D01*
X-235040Y47420D02*
Y57580D01*
X-229960D01*
X-235040Y47420D02*
X-229960D01*
Y57580D01*
X-245040Y47420D02*
Y57580D01*
X-239960D01*
X-245040Y47420D02*
X-239960D01*
Y57580D01*
X-252580Y174960D02*
X-242420D01*
X-252580D02*
Y180040D01*
X-242420Y174960D02*
Y180040D01*
X-252580D02*
X-242420D01*
X-265040Y47420D02*
Y57580D01*
X-259960D01*
X-265040Y47420D02*
X-259960D01*
Y57580D01*
X-345080Y174960D02*
X-334920D01*
X-345080D02*
Y180040D01*
X-334920Y174960D02*
Y180040D01*
X-345080D02*
X-334920D01*
X-345080Y184960D02*
X-334920D01*
X-345080D02*
Y190040D01*
X-334920Y184960D02*
Y190040D01*
X-345080D02*
X-334920D01*
X-302540Y187420D02*
Y197580D01*
X-297460D01*
X-302540Y187420D02*
X-297460D01*
Y197580D01*
X-252579Y194960D02*
X-242419D01*
X-252579D02*
Y200040D01*
X-242419Y194960D02*
Y200040D01*
X-252579D02*
X-242419D01*
X-252579Y190040D02*
X-242419D01*
Y184960D02*
Y190040D01*
X-252579Y184960D02*
Y190040D01*
Y184960D02*
X-242419D01*
X-279960Y47420D02*
Y57580D01*
X-285040Y47420D02*
X-279960D01*
X-285040Y57580D02*
X-279960D01*
X-285040Y47420D02*
Y57580D01*
X-252579Y210040D02*
X-242419D01*
Y204960D02*
Y210040D01*
X-252579Y204960D02*
Y210040D01*
Y204960D02*
X-242419D01*
X-126130Y80670D02*
Y95910D01*
X-133750Y80670D02*
X-126130D01*
X-133750Y95910D02*
X-126130D01*
X-133750Y80670D02*
Y95910D01*
X-211220Y61620D02*
Y71780D01*
X-216300Y61620D02*
X-211220D01*
X-216300Y71780D02*
X-211220D01*
X-216300Y61620D02*
Y71780D01*
X-209950Y26060D02*
Y41300D01*
X-217570Y26060D02*
X-209950D01*
X-217570Y41300D02*
X-209950D01*
X-217570Y26060D02*
Y41300D01*
X-162460Y122420D02*
Y132580D01*
X-167540Y122420D02*
X-162460D01*
X-167540Y132580D02*
X-162460D01*
X-167540Y122420D02*
Y132580D01*
Y102420D02*
Y112580D01*
X-162460D01*
X-167540Y102420D02*
X-162460D01*
Y112580D01*
X-275040Y47420D02*
Y57580D01*
X-269960D01*
X-275040Y47420D02*
X-269960D01*
Y57580D01*
X-50080Y171460D02*
X-39920D01*
X-50080D02*
Y176540D01*
X-39920Y171460D02*
Y176540D01*
X-50080D02*
X-39920D01*
X-232580Y152460D02*
X-222420D01*
X-232580D02*
Y157540D01*
X-222420Y152460D02*
Y157540D01*
X-232580D02*
X-222420D01*
X-232580Y167540D02*
X-222420D01*
Y162460D02*
Y167540D01*
X-232580Y162460D02*
Y167540D01*
Y162460D02*
X-222420D01*
X-289960Y47420D02*
Y57580D01*
X-295040Y47420D02*
X-289960D01*
X-295040Y57580D02*
X-289960D01*
X-295040Y47420D02*
Y57580D01*
X-219856Y125120D02*
Y135280D01*
X-214776D01*
X-219856Y125120D02*
X-214776D01*
Y135280D01*
X-255040Y47420D02*
Y57580D01*
X-249960D01*
X-255040Y47420D02*
X-249960D01*
Y57580D01*
X-328568Y77876D02*
Y88036D01*
X-333648Y77876D02*
X-328568D01*
X-333648Y88036D02*
X-328568D01*
X-333648Y77876D02*
Y88036D01*
X-321456Y162712D02*
X-311296D01*
Y157632D02*
Y162712D01*
X-321456Y157632D02*
Y162712D01*
Y157632D02*
X-311296D01*
X-50080Y161460D02*
X-39920D01*
X-50080D02*
Y166540D01*
X-39920Y161460D02*
Y166540D01*
X-50080D02*
X-39920D01*
X-105080Y161460D02*
X-94920D01*
X-105080D02*
Y166540D01*
X-94920Y161460D02*
Y166540D01*
X-105080D02*
X-94920D01*
X-209950Y-208940D02*
Y-193700D01*
X-217570Y-208940D02*
X-209950D01*
X-217570Y-193700D02*
X-209950D01*
X-217570Y-208940D02*
Y-193700D01*
X-211220Y-173380D02*
Y-163220D01*
X-216300Y-173380D02*
X-211220D01*
X-216300Y-163220D02*
X-211220D01*
X-216300Y-173380D02*
Y-163220D01*
X-126130Y-154330D02*
Y-139090D01*
X-133750Y-154330D02*
X-126130D01*
X-133750Y-139090D02*
X-126130D01*
X-133750Y-154330D02*
Y-139090D01*
X-345080Y-50040D02*
X-334920D01*
X-345080D02*
Y-44960D01*
X-334920Y-50040D02*
Y-44960D01*
X-345080D02*
X-334920D01*
X-345080Y-60040D02*
X-334920D01*
X-345080D02*
Y-54960D01*
X-334920Y-60040D02*
Y-54960D01*
X-345080D02*
X-334920D01*
X-345080Y-40040D02*
X-334920D01*
X-345080D02*
Y-34960D01*
X-334920Y-40040D02*
Y-34960D01*
X-345080D02*
X-334920D01*
X-345080Y-30040D02*
X-334920D01*
X-345080D02*
Y-24960D01*
X-334920Y-30040D02*
Y-24960D01*
X-345080D02*
X-334920D01*
X-50080Y-58460D02*
X-39920D01*
Y-63540D02*
Y-58460D01*
X-50080Y-63540D02*
Y-58460D01*
Y-63540D02*
X-39920D01*
X-50080Y-68460D02*
X-39920D01*
Y-73540D02*
Y-68460D01*
X-50080Y-73540D02*
Y-68460D01*
Y-73540D02*
X-39920D01*
X-105080Y-68460D02*
X-94920D01*
Y-73540D02*
Y-68460D01*
X-105080Y-73540D02*
Y-68460D01*
Y-73540D02*
X-94920D01*
X-297540Y-187580D02*
Y-177420D01*
X-292460D01*
X-297540Y-187580D02*
X-292460D01*
Y-177420D01*
X-230080Y-50040D02*
X-219920D01*
X-230080D02*
Y-44960D01*
X-219920Y-50040D02*
Y-44960D01*
X-230080D02*
X-219920D01*
X-230080Y-54960D02*
X-219920D01*
Y-60040D02*
Y-54960D01*
X-230080Y-60040D02*
Y-54960D01*
Y-60040D02*
X-219920D01*
X-250590Y-57810D02*
Y-47650D01*
X-245510D01*
X-250590Y-57810D02*
X-245510D01*
Y-47650D01*
X-180080Y-97540D02*
X-169920D01*
X-180080D02*
Y-92460D01*
X-169920Y-97540D02*
Y-92460D01*
X-180080D02*
X-169920D01*
X-205040Y-122580D02*
Y-112420D01*
X-199960D01*
X-205040Y-122580D02*
X-199960D01*
Y-112420D01*
X-216300Y-122580D02*
Y-112420D01*
X-211220D01*
X-216300Y-122580D02*
X-211220D01*
Y-112420D01*
X-336460Y-110830D02*
Y-100670D01*
X-331380D01*
X-336460Y-110830D02*
X-331380D01*
Y-100670D01*
X-260040Y-57580D02*
Y-47420D01*
X-254960D01*
X-260040Y-57580D02*
X-254960D01*
Y-47420D01*
X-282460Y-187580D02*
Y-177420D01*
X-287540Y-187580D02*
X-282460D01*
X-287540Y-177420D02*
X-282460D01*
X-287540Y-187580D02*
Y-177420D01*
X-270040Y-57580D02*
Y-47420D01*
X-264960D01*
X-270040Y-57580D02*
X-264960D01*
Y-47420D01*
X-280040Y-57580D02*
Y-47420D01*
X-274960D01*
X-280040Y-57580D02*
X-274960D01*
Y-47420D01*
X-290040Y-57580D02*
Y-47420D01*
X-284960D01*
X-290040Y-57580D02*
X-284960D01*
Y-47420D01*
X-300040Y-57580D02*
Y-47420D01*
X-294960D01*
X-300040Y-57580D02*
X-294960D01*
Y-47420D01*
X-233690Y-193620D02*
Y-178380D01*
X-241310Y-193620D02*
X-233690D01*
X-241310Y-178380D02*
X-233690D01*
X-241310Y-193620D02*
Y-178380D01*
X-246190Y-193620D02*
Y-178380D01*
X-253810Y-193620D02*
X-246190D01*
X-253810Y-178380D02*
X-246190D01*
X-253810Y-193620D02*
Y-178380D01*
X-258690Y-193620D02*
Y-178380D01*
X-266310Y-193620D02*
X-258690D01*
X-266310Y-178380D02*
X-258690D01*
X-266310Y-193620D02*
Y-178380D01*
X-331380Y-76830D02*
Y-66670D01*
X-336460Y-76830D02*
X-331380D01*
X-336460Y-66670D02*
X-331380D01*
X-336460Y-76830D02*
Y-66670D01*
X-272460Y-187580D02*
Y-177420D01*
X-277540Y-187580D02*
X-272460D01*
X-277540Y-177420D02*
X-272460D01*
X-277540Y-187580D02*
Y-177420D01*
D21*
X-421699Y66445D02*
X-416282Y58319D01*
Y66445D02*
X-421699Y58319D01*
X-408157D02*
X-413574D01*
X-408157Y63736D01*
Y65090D01*
X-409511Y66445D01*
X-412220D01*
X-413574Y65090D01*
X-240767Y75081D02*
Y68309D01*
X-239413Y66955D01*
X-236704D01*
X-235350Y68309D01*
Y75081D01*
X-232642Y66955D02*
X-229933D01*
X-231287D01*
Y75081D01*
X-232642Y73726D01*
X-328476Y203437D02*
Y211563D01*
X-324413D01*
X-323059Y210208D01*
Y207500D01*
X-324413Y206146D01*
X-328476D01*
X-325768D02*
X-323059Y203437D01*
X-320351D02*
X-317642D01*
X-318996D01*
Y211563D01*
X-320351Y210208D01*
X-313580Y204792D02*
X-312225Y203437D01*
X-309517D01*
X-308163Y204792D01*
Y210208D01*
X-309517Y211563D01*
X-312225D01*
X-313580Y210208D01*
Y208854D01*
X-312225Y207500D01*
X-308163D01*
X-328476Y193437D02*
Y201563D01*
X-324413D01*
X-323059Y200208D01*
Y197500D01*
X-324413Y196146D01*
X-328476D01*
X-325768D02*
X-323059Y193437D01*
X-320351D02*
X-317642D01*
X-318996D01*
Y201563D01*
X-320351Y200208D01*
X-313580D02*
X-312225Y201563D01*
X-309517D01*
X-308163Y200208D01*
Y198854D01*
X-309517Y197500D01*
X-308163Y196146D01*
Y194792D01*
X-309517Y193437D01*
X-312225D01*
X-313580Y194792D01*
Y196146D01*
X-312225Y197500D01*
X-313580Y198854D01*
Y200208D01*
X-312225Y197500D02*
X-309517D01*
X-236563Y40976D02*
X-228437D01*
Y36913D01*
X-229792Y35559D01*
X-232500D01*
X-233854Y36913D01*
Y40976D01*
Y38268D02*
X-236563Y35559D01*
Y32851D02*
Y30142D01*
Y31496D01*
X-228437D01*
X-229792Y32851D01*
X-228437Y26079D02*
Y20663D01*
X-229792D01*
X-235208Y26079D01*
X-236563D01*
X-246563Y40976D02*
X-238437D01*
Y36913D01*
X-239792Y35559D01*
X-242500D01*
X-243854Y36913D01*
Y40976D01*
Y38268D02*
X-246563Y35559D01*
Y32851D02*
Y30142D01*
Y31496D01*
X-238437D01*
X-239792Y32851D01*
X-238437Y20663D02*
X-239792Y23371D01*
X-242500Y26079D01*
X-245208D01*
X-246563Y24725D01*
Y22017D01*
X-245208Y20663D01*
X-243854D01*
X-242500Y22017D01*
Y26079D01*
X-235976Y173437D02*
Y181563D01*
X-231913D01*
X-230559Y180208D01*
Y177500D01*
X-231913Y176146D01*
X-235976D01*
X-233268D02*
X-230559Y173437D01*
X-227851D02*
X-225142D01*
X-226496D01*
Y181563D01*
X-227851Y180208D01*
X-215663Y181563D02*
X-221080D01*
Y177500D01*
X-218371Y178854D01*
X-217017D01*
X-215663Y177500D01*
Y174792D01*
X-217017Y173437D01*
X-219725D01*
X-221080Y174792D01*
X-266563Y40976D02*
X-258437D01*
Y36913D01*
X-259792Y35559D01*
X-262500D01*
X-263854Y36913D01*
Y40976D01*
Y38268D02*
X-266563Y35559D01*
Y32851D02*
Y30142D01*
Y31496D01*
X-258437D01*
X-259792Y32851D01*
X-266563Y22017D02*
X-258437D01*
X-262500Y26079D01*
Y20663D01*
X-328476Y173437D02*
Y181563D01*
X-324413D01*
X-323059Y180208D01*
Y177500D01*
X-324413Y176146D01*
X-328476D01*
X-325768D02*
X-323059Y173437D01*
X-320351D02*
X-317642D01*
X-318996D01*
Y181563D01*
X-320351Y180208D01*
X-313580D02*
X-312225Y181563D01*
X-309517D01*
X-308163Y180208D01*
Y178854D01*
X-309517Y177500D01*
X-310871D01*
X-309517D01*
X-308163Y176146D01*
Y174792D01*
X-309517Y173437D01*
X-312225D01*
X-313580Y174792D01*
X-328476Y183437D02*
Y191563D01*
X-324413D01*
X-323059Y190208D01*
Y187500D01*
X-324413Y186146D01*
X-328476D01*
X-325768D02*
X-323059Y183437D01*
X-320351D02*
X-317642D01*
X-318996D01*
Y191563D01*
X-320351Y190208D01*
X-308163Y183437D02*
X-313580D01*
X-308163Y188854D01*
Y190208D01*
X-309517Y191563D01*
X-312225D01*
X-313580Y190208D01*
X-303803Y173437D02*
Y181563D01*
X-299740D01*
X-298386Y180208D01*
Y177500D01*
X-299740Y176146D01*
X-303803D01*
X-301094D02*
X-298386Y173437D01*
X-295677D02*
X-292969D01*
X-294323D01*
Y181563D01*
X-295677Y180208D01*
X-288906Y173437D02*
X-286197D01*
X-287552D01*
Y181563D01*
X-288906Y180208D01*
X-235976Y193437D02*
Y201563D01*
X-231913D01*
X-230559Y200208D01*
Y197500D01*
X-231913Y196146D01*
X-235976D01*
X-233268D02*
X-230559Y193437D01*
X-227851D02*
X-225142D01*
X-226496D01*
Y201563D01*
X-227851Y200208D01*
X-221080D02*
X-219725Y201563D01*
X-217017D01*
X-215663Y200208D01*
Y194792D01*
X-217017Y193437D01*
X-219725D01*
X-221080Y194792D01*
Y200208D01*
X-26221Y39777D02*
Y47903D01*
X-22159D01*
X-20804Y46548D01*
Y43840D01*
X-22159Y42486D01*
X-26221D01*
X-23513D02*
X-20804Y39777D01*
X-18096Y41132D02*
X-16741Y39777D01*
X-14033D01*
X-12679Y41132D01*
Y46548D01*
X-14033Y47903D01*
X-16741D01*
X-18096Y46548D01*
Y45194D01*
X-16741Y43840D01*
X-12679D01*
X-235976Y183437D02*
Y191563D01*
X-231913D01*
X-230559Y190208D01*
Y187500D01*
X-231913Y186146D01*
X-235976D01*
X-233268D02*
X-230559Y183437D01*
X-227851Y190208D02*
X-226496Y191563D01*
X-223788D01*
X-222434Y190208D01*
Y188854D01*
X-223788Y187500D01*
X-222434Y186146D01*
Y184792D01*
X-223788Y183437D01*
X-226496D01*
X-227851Y184792D01*
Y186146D01*
X-226496Y187500D01*
X-227851Y188854D01*
Y190208D01*
X-226496Y187500D02*
X-223788D01*
X-286563Y40976D02*
X-278437D01*
Y36913D01*
X-279792Y35559D01*
X-282500D01*
X-283854Y36913D01*
Y40976D01*
Y38268D02*
X-286563Y35559D01*
X-278437Y32851D02*
Y27434D01*
X-279792D01*
X-285208Y32851D01*
X-286563D01*
X-26221Y185827D02*
Y193953D01*
X-22159D01*
X-20804Y192598D01*
Y189890D01*
X-22159Y188536D01*
X-26221D01*
X-23513D02*
X-20804Y185827D01*
X-12679Y193953D02*
X-15387Y192598D01*
X-18096Y189890D01*
Y187181D01*
X-16741Y185827D01*
X-14033D01*
X-12679Y187181D01*
Y188536D01*
X-14033Y189890D01*
X-18096D01*
X-235976Y203437D02*
Y211563D01*
X-231913D01*
X-230559Y210208D01*
Y207500D01*
X-231913Y206146D01*
X-235976D01*
X-233268D02*
X-230559Y203437D01*
X-222434Y211563D02*
X-227851D01*
Y207500D01*
X-225142Y208854D01*
X-223788D01*
X-222434Y207500D01*
Y204792D01*
X-223788Y203437D01*
X-226496D01*
X-227851Y204792D01*
X-190000Y149791D02*
Y155209D01*
X-191354Y156563D01*
X-194063D01*
X-195417Y155209D01*
Y149791D01*
X-194063Y148437D01*
X-191354D01*
X-192708Y151146D02*
X-190000Y148437D01*
X-191354D02*
X-190000Y149791D01*
X-187292Y148437D02*
X-184583D01*
X-185937D01*
Y156563D01*
X-187292Y155209D01*
X-270417Y181563D02*
Y173437D01*
Y176146D01*
X-265000Y181563D01*
X-269063Y177500D01*
X-265000Y173437D01*
X-262292D02*
X-259583D01*
X-260937D01*
Y181563D01*
X-262292Y180208D01*
X-131294Y110048D02*
X-132648Y111403D01*
X-135357D01*
X-136711Y110048D01*
Y104632D01*
X-135357Y103277D01*
X-132648D01*
X-131294Y104632D01*
X-123169Y111403D02*
X-125877Y110048D01*
X-128586Y107340D01*
Y104632D01*
X-127232Y103277D01*
X-124523D01*
X-123169Y104632D01*
Y105986D01*
X-124523Y107340D01*
X-128586D01*
X-215709Y84648D02*
X-217063Y86003D01*
X-219772D01*
X-221126Y84648D01*
Y79232D01*
X-219772Y77877D01*
X-217063D01*
X-215709Y79232D01*
X-207584Y86003D02*
X-213001D01*
Y81940D01*
X-210292Y83294D01*
X-208938D01*
X-207584Y81940D01*
Y79232D01*
X-208938Y77877D01*
X-211646D01*
X-213001Y79232D01*
X-215709Y54168D02*
X-217063Y55523D01*
X-219772D01*
X-221126Y54168D01*
Y48752D01*
X-219772Y47397D01*
X-217063D01*
X-215709Y48752D01*
X-208938Y47397D02*
Y55523D01*
X-213001Y51460D01*
X-207584D01*
X-152964Y129258D02*
X-154319Y130613D01*
X-157027D01*
X-158381Y129258D01*
Y123841D01*
X-157027Y122487D01*
X-154319D01*
X-152964Y123841D01*
X-150256Y129258D02*
X-148902Y130613D01*
X-146193D01*
X-144839Y129258D01*
Y127904D01*
X-146193Y126550D01*
X-147547D01*
X-146193D01*
X-144839Y125196D01*
Y123841D01*
X-146193Y122487D01*
X-148902D01*
X-150256Y123841D01*
X-152964Y110208D02*
X-154319Y111563D01*
X-157027D01*
X-158381Y110208D01*
Y104791D01*
X-157027Y103437D01*
X-154319D01*
X-152964Y104791D01*
X-144839Y103437D02*
X-150256D01*
X-144839Y108854D01*
Y110208D01*
X-146193Y111563D01*
X-148902D01*
X-150256Y110208D01*
X-269792Y35559D02*
X-268437Y36913D01*
Y39622D01*
X-269792Y40976D01*
X-275208D01*
X-276563Y39622D01*
Y36913D01*
X-275208Y35559D01*
X-276563Y32851D02*
Y30142D01*
Y31496D01*
X-268437D01*
X-269792Y32851D01*
X-4631Y205383D02*
X786Y197257D01*
Y205383D02*
X-4631Y197257D01*
X8911Y205383D02*
X6203Y204028D01*
X3494Y201320D01*
Y198612D01*
X4848Y197257D01*
X7557D01*
X8911Y198612D01*
Y199966D01*
X7557Y201320D01*
X3494D01*
X220159Y192683D02*
X225576Y184557D01*
Y192683D02*
X220159Y184557D01*
X233701Y192683D02*
X228284D01*
Y188620D01*
X230993Y189974D01*
X232347D01*
X233701Y188620D01*
Y185912D01*
X232347Y184557D01*
X229639D01*
X228284Y185912D01*
X124909Y205383D02*
X130326Y197257D01*
Y205383D02*
X124909Y197257D01*
X137097D02*
Y205383D01*
X133034Y201320D01*
X138451D01*
X280103Y210717D02*
X285520Y202591D01*
Y210717D02*
X280103Y202591D01*
X288228Y209362D02*
X289583Y210717D01*
X292291D01*
X293645Y209362D01*
Y208008D01*
X292291Y206654D01*
X290937D01*
X292291D01*
X293645Y205300D01*
Y203946D01*
X292291Y202591D01*
X289583D01*
X288228Y203946D01*
X-419329Y28853D02*
X-413912Y20727D01*
Y28853D02*
X-419329Y20727D01*
X-411203D02*
X-408495D01*
X-409849D01*
Y28853D01*
X-411203Y27498D01*
X-327211Y72033D02*
Y66616D01*
X-324503Y63907D01*
X-321794Y66616D01*
Y72033D01*
X-319086Y70678D02*
X-317731Y72033D01*
X-315023D01*
X-313669Y70678D01*
Y69324D01*
X-315023Y67970D01*
X-316377D01*
X-315023D01*
X-313669Y66616D01*
Y65262D01*
X-315023Y63907D01*
X-317731D01*
X-319086Y65262D01*
X98239Y166013D02*
Y160596D01*
X100947Y157887D01*
X103656Y160596D01*
Y166013D01*
X111781Y157887D02*
X106364D01*
X111781Y163304D01*
Y164658D01*
X110427Y166013D01*
X107718D01*
X106364Y164658D01*
X99593Y77113D02*
Y71696D01*
X102302Y68987D01*
X105010Y71696D01*
Y77113D01*
X107718Y68987D02*
X110427D01*
X109073D01*
Y77113D01*
X107718Y75758D01*
X-136711Y30123D02*
Y23352D01*
X-135357Y21997D01*
X-132648D01*
X-131294Y23352D01*
Y30123D01*
X-128586Y28768D02*
X-127232Y30123D01*
X-124523D01*
X-123169Y28768D01*
Y27414D01*
X-124523Y26060D01*
X-125877D01*
X-124523D01*
X-123169Y24706D01*
Y23352D01*
X-124523Y21997D01*
X-127232D01*
X-128586Y23352D01*
X-81771Y75563D02*
Y68791D01*
X-80417Y67437D01*
X-77709D01*
X-76354Y68791D01*
Y75563D01*
X-68229Y67437D02*
X-73646D01*
X-68229Y72854D01*
Y74208D01*
X-69583Y75563D01*
X-72291D01*
X-73646Y74208D01*
X-137000Y178209D02*
X-138354Y179563D01*
X-141063D01*
X-142417Y178209D01*
Y176854D01*
X-141063Y175500D01*
X-138354D01*
X-137000Y174146D01*
Y172792D01*
X-138354Y171437D01*
X-141063D01*
X-142417Y172792D01*
X-134291Y171437D02*
X-131583D01*
X-132937D01*
Y179563D01*
X-134291Y178209D01*
X-50351Y180747D02*
Y188873D01*
X-46288D01*
X-44934Y187518D01*
Y184810D01*
X-46288Y183456D01*
X-50351D01*
X-47643D02*
X-44934Y180747D01*
X-38163D02*
Y188873D01*
X-42226Y184810D01*
X-36809D01*
X-215976Y150937D02*
Y159063D01*
X-211913D01*
X-210559Y157708D01*
Y155000D01*
X-211913Y153646D01*
X-215976D01*
X-213267D02*
X-210559Y150937D01*
X-207851Y157708D02*
X-206496Y159063D01*
X-203788D01*
X-202434Y157708D01*
Y156354D01*
X-203788Y155000D01*
X-205142D01*
X-203788D01*
X-202434Y153646D01*
Y152291D01*
X-203788Y150937D01*
X-206496D01*
X-207851Y152291D01*
X-215976Y160937D02*
Y169063D01*
X-211913D01*
X-210559Y167708D01*
Y165000D01*
X-211913Y163646D01*
X-215976D01*
X-213267D02*
X-210559Y160937D01*
X-202434D02*
X-207851D01*
X-202434Y166354D01*
Y167708D01*
X-203788Y169063D01*
X-206496D01*
X-207851Y167708D01*
X-296563Y40976D02*
X-288437D01*
Y36913D01*
X-289792Y35559D01*
X-292500D01*
X-293854Y36913D01*
Y40976D01*
Y38268D02*
X-296563Y35559D01*
Y32851D02*
Y30142D01*
Y31496D01*
X-288437D01*
X-289792Y32851D01*
X-385547Y166777D02*
Y174903D01*
X-381484D01*
X-380130Y173548D01*
Y170840D01*
X-381484Y169486D01*
X-385547D01*
X-377421Y166777D02*
X-374713D01*
X-376067D01*
Y174903D01*
X-377421Y173548D01*
X-214678Y113510D02*
X-213323Y114864D01*
Y117572D01*
X-214678Y118927D01*
X-220095D01*
X-221449Y117572D01*
Y114864D01*
X-220095Y113510D01*
X-221449Y110801D02*
Y108093D01*
Y109447D01*
X-213323D01*
X-214678Y110801D01*
X-221449Y98613D02*
Y104030D01*
X-216032Y98613D01*
X-214678D01*
X-213323Y99967D01*
Y102676D01*
X-214678Y104030D01*
X-249792Y35559D02*
X-248437Y36913D01*
Y39622D01*
X-249792Y40976D01*
X-255208D01*
X-256563Y39622D01*
Y36913D01*
X-255208Y35559D01*
X-256563Y32851D02*
Y30142D01*
Y31496D01*
X-248437D01*
X-249792Y32851D01*
X-256563Y26079D02*
Y23371D01*
Y24725D01*
X-248437D01*
X-249792Y26079D01*
X-329040Y108886D02*
X-327685Y110240D01*
Y112949D01*
X-329040Y114303D01*
X-334456D01*
X-335811Y112949D01*
Y110240D01*
X-334456Y108886D01*
X-335811Y106177D02*
Y103469D01*
Y104823D01*
X-327685D01*
X-329040Y106177D01*
Y99406D02*
X-327685Y98052D01*
Y95344D01*
X-329040Y93989D01*
X-334456D01*
X-335811Y95344D01*
Y98052D01*
X-334456Y99406D01*
X-329040D01*
X-336018Y163134D02*
X-337373Y164489D01*
X-340081D01*
X-341435Y163134D01*
Y157718D01*
X-340081Y156363D01*
X-337373D01*
X-336018Y157718D01*
X-333310D02*
X-331955Y156363D01*
X-329247D01*
X-327893Y157718D01*
Y163134D01*
X-329247Y164489D01*
X-331955D01*
X-333310Y163134D01*
Y161780D01*
X-331955Y160426D01*
X-327893D01*
X-64238Y166944D02*
X-65592Y168299D01*
X-68301D01*
X-69655Y166944D01*
Y161528D01*
X-68301Y160173D01*
X-65592D01*
X-64238Y161528D01*
X-61530Y166944D02*
X-60175Y168299D01*
X-57467D01*
X-56113Y166944D01*
Y165590D01*
X-57467Y164236D01*
X-56113Y162882D01*
Y161528D01*
X-57467Y160173D01*
X-60175D01*
X-61530Y161528D01*
Y162882D01*
X-60175Y164236D01*
X-61530Y165590D01*
Y166944D01*
X-60175Y164236D02*
X-57467D01*
X-83854Y166709D02*
X-85208Y168063D01*
X-87917D01*
X-89271Y166709D01*
Y161292D01*
X-87917Y159937D01*
X-85208D01*
X-83854Y161292D01*
X-81146Y168063D02*
X-75729D01*
Y166709D01*
X-81146Y161292D01*
Y159937D01*
X-274884Y-35580D02*
X-273530Y-34226D01*
Y-31517D01*
X-274884Y-30163D01*
X-280301D01*
X-281656Y-31517D01*
Y-34226D01*
X-280301Y-35580D01*
X-281656Y-38289D02*
Y-40997D01*
Y-39643D01*
X-273530D01*
X-274884Y-38289D01*
X-215207Y-180809D02*
X-216561Y-179454D01*
X-219270D01*
X-220624Y-180809D01*
Y-186225D01*
X-219270Y-187580D01*
X-216561D01*
X-215207Y-186225D01*
X-207082Y-187580D02*
X-212499D01*
X-207082Y-182163D01*
Y-180809D01*
X-208436Y-179454D01*
X-211145D01*
X-212499Y-180809D01*
X-215207Y-150329D02*
X-216561Y-148974D01*
X-219270D01*
X-220624Y-150329D01*
Y-155745D01*
X-219270Y-157100D01*
X-216561D01*
X-215207Y-155745D01*
X-212499Y-150329D02*
X-211145Y-148974D01*
X-208436D01*
X-207082Y-150329D01*
Y-151683D01*
X-208436Y-153037D01*
X-209790D01*
X-208436D01*
X-207082Y-154391D01*
Y-155745D01*
X-208436Y-157100D01*
X-211145D01*
X-212499Y-155745D01*
X-131387Y-124929D02*
X-132741Y-123574D01*
X-135450D01*
X-136804Y-124929D01*
Y-130345D01*
X-135450Y-131700D01*
X-132741D01*
X-131387Y-130345D01*
X-124616Y-131700D02*
Y-123574D01*
X-128679Y-127637D01*
X-123262D01*
X-83635Y-68287D02*
X-84989Y-66932D01*
X-87698D01*
X-89052Y-68287D01*
Y-73703D01*
X-87698Y-75058D01*
X-84989D01*
X-83635Y-73703D01*
X-80927Y-68287D02*
X-79573Y-66932D01*
X-76864D01*
X-75510Y-68287D01*
Y-69641D01*
X-76864Y-70995D01*
X-75510Y-72349D01*
Y-73703D01*
X-76864Y-75058D01*
X-79573D01*
X-80927Y-73703D01*
Y-72349D01*
X-79573Y-70995D01*
X-80927Y-69641D01*
Y-68287D01*
X-79573Y-70995D02*
X-76864D01*
X-64077Y-68033D02*
X-65431Y-66678D01*
X-68140D01*
X-69494Y-68033D01*
Y-73450D01*
X-68140Y-74804D01*
X-65431D01*
X-64077Y-73450D01*
X-61369D02*
X-60015Y-74804D01*
X-57306D01*
X-55952Y-73450D01*
Y-68033D01*
X-57306Y-66678D01*
X-60015D01*
X-61369Y-68033D01*
Y-69387D01*
X-60015Y-70741D01*
X-55952D01*
X-254884Y-26100D02*
X-253530Y-24746D01*
Y-22038D01*
X-254884Y-20684D01*
X-260301D01*
X-261656Y-22038D01*
Y-24746D01*
X-260301Y-26100D01*
X-261656Y-28809D02*
Y-31517D01*
Y-30163D01*
X-253530D01*
X-254884Y-28809D01*
Y-35580D02*
X-253530Y-36934D01*
Y-39643D01*
X-254884Y-40997D01*
X-256239D01*
X-257593Y-39643D01*
Y-38289D01*
Y-39643D01*
X-258947Y-40997D01*
X-260301D01*
X-261656Y-39643D01*
Y-36934D01*
X-260301Y-35580D01*
X-211145Y-91191D02*
X-209790Y-89837D01*
Y-87128D01*
X-211145Y-85774D01*
X-216562D01*
X-217916Y-87128D01*
Y-89837D01*
X-216562Y-91191D01*
X-217916Y-93900D02*
Y-96608D01*
Y-95254D01*
X-209790D01*
X-211145Y-93900D01*
X-217916Y-104733D02*
X-209790D01*
X-213853Y-100671D01*
Y-106088D01*
X-331287Y-122176D02*
X-329932Y-120822D01*
Y-118113D01*
X-331287Y-116759D01*
X-336703D01*
X-338058Y-118113D01*
Y-120822D01*
X-336703Y-122176D01*
X-338058Y-124884D02*
Y-127593D01*
Y-126239D01*
X-329932D01*
X-331287Y-124884D01*
X-329932Y-137072D02*
Y-131656D01*
X-333995D01*
X-332641Y-134364D01*
Y-135718D01*
X-333995Y-137072D01*
X-336703D01*
X-338058Y-135718D01*
Y-133010D01*
X-336703Y-131656D01*
X-244884Y-26100D02*
X-243530Y-24746D01*
Y-22038D01*
X-244884Y-20684D01*
X-250301D01*
X-251656Y-22038D01*
Y-24746D01*
X-250301Y-26100D01*
X-251656Y-28809D02*
Y-31517D01*
Y-30163D01*
X-243530D01*
X-244884Y-28809D01*
X-243530Y-40997D02*
X-244884Y-38289D01*
X-247593Y-35580D01*
X-250301D01*
X-251656Y-36934D01*
Y-39643D01*
X-250301Y-40997D01*
X-248947D01*
X-247593Y-39643D01*
Y-35580D01*
X-385510Y-68540D02*
Y-60414D01*
X-381447D01*
X-380093Y-61769D01*
Y-64477D01*
X-381447Y-65831D01*
X-385510D01*
X-377384Y-68540D02*
X-374676D01*
X-376030D01*
Y-60414D01*
X-377384Y-61769D01*
X-175245Y-143807D02*
Y-138391D01*
X-176599Y-137036D01*
X-179308D01*
X-180662Y-138391D01*
Y-143807D01*
X-179308Y-145162D01*
X-176599D01*
X-177953Y-142453D02*
X-175245Y-145162D01*
X-176599D02*
X-175245Y-143807D01*
X-172537Y-145162D02*
X-169828D01*
X-171182D01*
Y-137036D01*
X-172537Y-138391D01*
X-338076Y-82875D02*
X-329950D01*
Y-86938D01*
X-331305Y-88292D01*
X-334013D01*
X-335367Y-86938D01*
Y-82875D01*
Y-85583D02*
X-338076Y-88292D01*
Y-91000D02*
Y-93709D01*
Y-92355D01*
X-329950D01*
X-331305Y-91000D01*
X-213569Y-51540D02*
Y-43414D01*
X-209506D01*
X-208152Y-44769D01*
Y-47477D01*
X-209506Y-48831D01*
X-213569D01*
X-210861D02*
X-208152Y-51540D01*
X-200027D02*
X-205444D01*
X-200027Y-46123D01*
Y-44769D01*
X-201381Y-43414D01*
X-204089D01*
X-205444Y-44769D01*
X-213569Y-61540D02*
Y-53414D01*
X-209506D01*
X-208152Y-54769D01*
Y-57477D01*
X-209506Y-58831D01*
X-213569D01*
X-210861D02*
X-208152Y-61540D01*
X-205444Y-54769D02*
X-204089Y-53414D01*
X-201381D01*
X-200027Y-54769D01*
Y-56123D01*
X-201381Y-57477D01*
X-202735D01*
X-201381D01*
X-200027Y-58831D01*
Y-60185D01*
X-201381Y-61540D01*
X-204089D01*
X-205444Y-60185D01*
X-50952Y-54484D02*
Y-46358D01*
X-46889D01*
X-45535Y-47713D01*
Y-50421D01*
X-46889Y-51775D01*
X-50952D01*
X-48244D02*
X-45535Y-54484D01*
X-38764D02*
Y-46358D01*
X-42827Y-50421D01*
X-37410D01*
X-26568Y-48134D02*
Y-40008D01*
X-22505D01*
X-21151Y-41363D01*
Y-44071D01*
X-22505Y-45425D01*
X-26568D01*
X-23860D02*
X-21151Y-48134D01*
X-13026Y-40008D02*
X-18443D01*
Y-44071D01*
X-15734Y-42717D01*
X-14380D01*
X-13026Y-44071D01*
Y-46779D01*
X-14380Y-48134D01*
X-17089D01*
X-18443Y-46779D01*
X-206486Y-91700D02*
X-198360D01*
Y-95763D01*
X-199715Y-97117D01*
X-202423D01*
X-203777Y-95763D01*
Y-91700D01*
Y-94408D02*
X-206486Y-97117D01*
X-199715Y-99825D02*
X-198360Y-101180D01*
Y-103888D01*
X-199715Y-105242D01*
X-201069D01*
X-202423Y-103888D01*
X-203777Y-105242D01*
X-205131D01*
X-206486Y-103888D01*
Y-101180D01*
X-205131Y-99825D01*
X-203777D01*
X-202423Y-101180D01*
X-201069Y-99825D01*
X-199715D01*
X-202423Y-101180D02*
Y-103888D01*
X-291656Y-23392D02*
X-283530D01*
Y-27455D01*
X-284884Y-28809D01*
X-287593D01*
X-288947Y-27455D01*
Y-23392D01*
Y-26100D02*
X-291656Y-28809D01*
Y-31517D02*
Y-34226D01*
Y-32872D01*
X-283530D01*
X-284884Y-31517D01*
X-291656Y-38289D02*
Y-40997D01*
Y-39643D01*
X-283530D01*
X-284884Y-38289D01*
X-328569Y-51540D02*
Y-43414D01*
X-324506D01*
X-323152Y-44769D01*
Y-47477D01*
X-324506Y-48831D01*
X-328569D01*
X-325860D02*
X-323152Y-51540D01*
X-320444Y-50185D02*
X-319089Y-51540D01*
X-316381D01*
X-315027Y-50185D01*
Y-44769D01*
X-316381Y-43414D01*
X-319089D01*
X-320444Y-44769D01*
Y-46123D01*
X-319089Y-47477D01*
X-315027D01*
X-328569Y-61540D02*
Y-53414D01*
X-324506D01*
X-323152Y-54769D01*
Y-57477D01*
X-324506Y-58831D01*
X-328569D01*
X-325860D02*
X-323152Y-61540D01*
X-320444D02*
X-317735D01*
X-319089D01*
Y-53414D01*
X-320444Y-54769D01*
X-313673D02*
X-312318Y-53414D01*
X-309610D01*
X-308256Y-54769D01*
Y-60185D01*
X-309610Y-61540D01*
X-312318D01*
X-313673Y-60185D01*
Y-54769D01*
X-299156Y-194045D02*
X-291030D01*
Y-198108D01*
X-292384Y-199462D01*
X-295093D01*
X-296447Y-198108D01*
Y-194045D01*
Y-196754D02*
X-299156Y-199462D01*
Y-202170D02*
Y-204879D01*
Y-203525D01*
X-291030D01*
X-292384Y-202170D01*
X-299156Y-213004D02*
X-291030D01*
X-295093Y-208941D01*
Y-214358D01*
X-328569Y-41540D02*
Y-33414D01*
X-324506D01*
X-323152Y-34769D01*
Y-37477D01*
X-324506Y-38831D01*
X-328569D01*
X-325860D02*
X-323152Y-41540D01*
X-320444D02*
X-317735D01*
X-319089D01*
Y-33414D01*
X-320444Y-34769D01*
X-313673D02*
X-312318Y-33414D01*
X-309610D01*
X-308256Y-34769D01*
Y-36123D01*
X-309610Y-37477D01*
X-310964D01*
X-309610D01*
X-308256Y-38831D01*
Y-40185D01*
X-309610Y-41540D01*
X-312318D01*
X-313673Y-40185D01*
X-328569Y-31540D02*
Y-23414D01*
X-324506D01*
X-323152Y-24769D01*
Y-27477D01*
X-324506Y-28831D01*
X-328569D01*
X-325860D02*
X-323152Y-31540D01*
X-320444D02*
X-317735D01*
X-319089D01*
Y-23414D01*
X-320444Y-24769D01*
X-308256Y-23414D02*
X-313673D01*
Y-27477D01*
X-310964Y-26123D01*
X-309610D01*
X-308256Y-27477D01*
Y-30185D01*
X-309610Y-31540D01*
X-312318D01*
X-313673Y-30185D01*
X-138415Y-57111D02*
X-139769Y-55756D01*
X-142478D01*
X-143832Y-57111D01*
Y-58465D01*
X-142478Y-59819D01*
X-139769D01*
X-138415Y-61173D01*
Y-62527D01*
X-139769Y-63882D01*
X-142478D01*
X-143832Y-62527D01*
X-135707Y-63882D02*
X-132998D01*
X-134352D01*
Y-55756D01*
X-135707Y-57111D01*
X-219270Y-66424D02*
Y-73196D01*
X-217916Y-74550D01*
X-215207D01*
X-213853Y-73196D01*
Y-66424D01*
X-211145Y-74550D02*
X-208436D01*
X-209790D01*
Y-66424D01*
X-211145Y-67779D01*
X-83972Y-159896D02*
Y-166667D01*
X-82618Y-168022D01*
X-79909D01*
X-78555Y-166667D01*
Y-159896D01*
X-70430Y-168022D02*
X-75847D01*
X-70430Y-162605D01*
Y-161251D01*
X-71784Y-159896D01*
X-74493D01*
X-75847Y-161251D01*
X-138074Y-204854D02*
Y-211625D01*
X-136720Y-212980D01*
X-134011D01*
X-132657Y-211625D01*
Y-204854D01*
X-129949Y-206209D02*
X-128595Y-204854D01*
X-125886D01*
X-124532Y-206209D01*
Y-207563D01*
X-125886Y-208917D01*
X-127240D01*
X-125886D01*
X-124532Y-210271D01*
Y-211625D01*
X-125886Y-212980D01*
X-128595D01*
X-129949Y-211625D01*
X99246Y-157102D02*
Y-162519D01*
X101955Y-165228D01*
X104663Y-162519D01*
Y-157102D01*
X107372Y-165228D02*
X110080D01*
X108726D01*
Y-157102D01*
X107372Y-158457D01*
X98146Y-69472D02*
Y-74889D01*
X100854Y-77598D01*
X103563Y-74889D01*
Y-69472D01*
X111688Y-77598D02*
X106271D01*
X111688Y-72181D01*
Y-70827D01*
X110334Y-69472D01*
X107626D01*
X106271Y-70827D01*
X-342544Y-162944D02*
Y-168361D01*
X-339836Y-171070D01*
X-337127Y-168361D01*
Y-162944D01*
X-334419Y-164299D02*
X-333064Y-162944D01*
X-330356D01*
X-329002Y-164299D01*
Y-165653D01*
X-330356Y-167007D01*
X-331710D01*
X-330356D01*
X-329002Y-168361D01*
Y-169715D01*
X-330356Y-171070D01*
X-333064D01*
X-334419Y-169715D01*
X-420184Y-205870D02*
X-414767Y-213996D01*
Y-205870D02*
X-420184Y-213996D01*
X-412058D02*
X-409350D01*
X-410704D01*
Y-205870D01*
X-412058Y-207225D01*
X-421538Y-169548D02*
X-416121Y-177674D01*
Y-169548D02*
X-421538Y-177674D01*
X-407996D02*
X-413413D01*
X-407996Y-172257D01*
Y-170903D01*
X-409350Y-169548D01*
X-412058D01*
X-413413Y-170903D01*
X279756Y-24768D02*
X285173Y-32894D01*
Y-24768D02*
X279756Y-32894D01*
X287881Y-26123D02*
X289235Y-24768D01*
X291944D01*
X293298Y-26123D01*
Y-27477D01*
X291944Y-28831D01*
X290590D01*
X291944D01*
X293298Y-30185D01*
Y-31539D01*
X291944Y-32894D01*
X289235D01*
X287881Y-31539D01*
X124562Y-29086D02*
X129979Y-37212D01*
Y-29086D02*
X124562Y-37212D01*
X136750D02*
Y-29086D01*
X132687Y-33149D01*
X138104D01*
X219304Y-41532D02*
X224721Y-49658D01*
Y-41532D02*
X219304Y-49658D01*
X232846Y-41532D02*
X227429D01*
Y-45595D01*
X230138Y-44241D01*
X231492D01*
X232846Y-45595D01*
Y-48303D01*
X231492Y-49658D01*
X228783D01*
X227429Y-48303D01*
X-4978Y-28832D02*
X439Y-36958D01*
Y-28832D02*
X-4978Y-36958D01*
X8564Y-28832D02*
X5856Y-30187D01*
X3147Y-32895D01*
Y-35603D01*
X4502Y-36958D01*
X7210D01*
X8564Y-35603D01*
Y-34249D01*
X7210Y-32895D01*
X3147D01*
X-259884Y-205962D02*
X-258530Y-204608D01*
Y-201899D01*
X-259884Y-200545D01*
X-265301D01*
X-266656Y-201899D01*
Y-204608D01*
X-265301Y-205962D01*
X-258530Y-214087D02*
Y-208670D01*
X-262593D01*
X-261239Y-211379D01*
Y-212733D01*
X-262593Y-214087D01*
X-265301D01*
X-266656Y-212733D01*
Y-210025D01*
X-265301Y-208670D01*
X-234884Y-205962D02*
X-233530Y-204608D01*
Y-201899D01*
X-234884Y-200545D01*
X-240301D01*
X-241656Y-201899D01*
Y-204608D01*
X-240301Y-205962D01*
X-233530Y-214087D02*
X-234884Y-211379D01*
X-237593Y-208670D01*
X-240301D01*
X-241656Y-210025D01*
Y-212733D01*
X-240301Y-214087D01*
X-238947D01*
X-237593Y-212733D01*
Y-208670D01*
X-247384Y-205962D02*
X-246030Y-204608D01*
Y-201899D01*
X-247384Y-200545D01*
X-252801D01*
X-254156Y-201899D01*
Y-204608D01*
X-252801Y-205962D01*
X-246030Y-208670D02*
Y-214087D01*
X-247384D01*
X-252801Y-208670D01*
X-254156D01*
X-180493Y-81749D02*
X-181847Y-80394D01*
X-184555D01*
X-185910Y-81749D01*
Y-87165D01*
X-184555Y-88520D01*
X-181847D01*
X-180493Y-87165D01*
X-177784Y-88520D02*
X-175076D01*
X-176430D01*
Y-80394D01*
X-177784Y-81749D01*
X-171013D02*
X-169659Y-80394D01*
X-166950D01*
X-165596Y-81749D01*
Y-87165D01*
X-166950Y-88520D01*
X-169659D01*
X-171013Y-87165D01*
Y-81749D01*
X-294884Y-28809D02*
X-293530Y-27455D01*
Y-24746D01*
X-294884Y-23392D01*
X-300301D01*
X-301656Y-24746D01*
Y-27455D01*
X-300301Y-28809D01*
X-301656Y-31517D02*
Y-34226D01*
Y-32872D01*
X-293530D01*
X-294884Y-31517D01*
X-301656Y-38289D02*
Y-40997D01*
Y-39643D01*
X-293530D01*
X-294884Y-38289D01*
X-282384Y-199462D02*
X-281030Y-198108D01*
Y-195399D01*
X-282384Y-194045D01*
X-287801D01*
X-289156Y-195399D01*
Y-198108D01*
X-287801Y-199462D01*
X-289156Y-202170D02*
Y-204879D01*
Y-203525D01*
X-281030D01*
X-282384Y-202170D01*
X-289156Y-214358D02*
Y-208941D01*
X-283739Y-214358D01*
X-282384D01*
X-281030Y-213004D01*
Y-210296D01*
X-282384Y-208941D01*
X-271656Y-27455D02*
X-263530D01*
Y-31517D01*
X-264884Y-32872D01*
X-267593D01*
X-268947Y-31517D01*
Y-27455D01*
Y-30163D02*
X-271656Y-32872D01*
X-263530Y-40997D02*
X-264884Y-38289D01*
X-267593Y-35580D01*
X-270301D01*
X-271656Y-36934D01*
Y-39643D01*
X-270301Y-40997D01*
X-268947D01*
X-267593Y-39643D01*
Y-35580D01*
X-279156Y-194045D02*
X-271030D01*
Y-198108D01*
X-272384Y-199462D01*
X-275093D01*
X-276447Y-198108D01*
Y-194045D01*
Y-196754D02*
X-279156Y-199462D01*
Y-202170D02*
Y-204879D01*
Y-203525D01*
X-271030D01*
X-272384Y-202170D01*
X-279156Y-214358D02*
Y-208941D01*
X-273739Y-214358D01*
X-272384D01*
X-271030Y-213004D01*
Y-210296D01*
X-272384Y-208941D01*
X-26568Y-194692D02*
Y-186566D01*
X-22505D01*
X-21151Y-187921D01*
Y-190629D01*
X-22505Y-191983D01*
X-26568D01*
X-23860D02*
X-21151Y-194692D01*
X-18443Y-186566D02*
X-13026D01*
Y-187921D01*
X-18443Y-193337D01*
Y-194692D01*
D22*
X-114000Y196500D02*
D03*
X-176000D02*
D03*
Y-38500D02*
D03*
X-114000D02*
D03*
M02*
