M48
;Layer_Color=9474304
;FILE_FORMAT=4:4
METRIC,LZ
;TYPE=PLATED
T1F00S00C0.2000
T2F00S00C0.3000
T4F00S00C2.2000
;TYPE=NON_PLATED
T5F00S00C0.5000
T6F00S00C0.6500
T7F00S00C0.9000
T8F00S00C0.9398
T9F00S00C1.1520
%
T01
X-0030425Y-0014675
X-0029125Y-0014675
X-0029775Y-0014025
X-0030425Y-0012725
X-002945Y-001175
X-002555
X-0023925Y-0012725
X-0022265Y-00133502
Y-00111
X-0021376Y-0010557
X-0022265Y-001565
Y-0016576
X-0024575Y-0015975
X-0024775Y-00064
X-002775
X-0029758Y-0006416
X-0029775Y-0007525
X-0030425Y-0008825
X-0031075Y-0008175
X-0031725Y-0008825
X-0032679Y-000794
T02
X-0039283Y-0020894
X-0038013
X-0036743
X-003875Y-001425
X-004125
X-004Y-001175
X-0034Y-001415
Y-000935
X-0032Y-001715
Y-00194
X-003105
X-003295
X-00223666Y-00193954
X-0022375Y-00209
X-001725Y-001825
X-001625Y-001825
X-001525Y-001825
X-0015Y-001675
X-00175
X-001625Y-001925
X-00091
X-00088856Y-001845
X-00083Y-00178644
X-00075Y-001765
X-00067Y-00178644
X-00061144Y-001845
X-00059Y-001925
X-00061144Y-002005
X-00067Y-00206356
X-00075Y-002085
X-00083Y-00206356
X-00088856Y-002005
X-0004866Y-0016195
X-0003977
X-00002178Y-00180746
X00005442Y-00174904
X00013062Y-00169824
X00025Y-001675
X0003375Y-001428
X00025Y-00104038
X-0006Y-0010775
X-00075Y-001175
X-000845Y-0009475
X-001311
X-001246Y-0010125
X-001625Y-00095
X-001875
X-000125Y-001925
X000125
X000625
X000875
X0009825Y-002
X00105Y-00165
X001126Y-001429
Y-001302
Y-001175
Y-001048
X002076
Y-001175
X001974
X002076Y-001302
Y-001429
X001974
X002Y-001675
X00225
X0025
X00275
X003051Y-001683
X00325Y-001675
X003375Y-001425
X00325Y-001175
X003
X002924
X002925Y-0010475
X002924Y-001429
X002875Y-001925
X003051Y-001937
X003375Y-001925
X002375
X002125
X001875
X001625
X001375
X0015Y-001675
X00175
X00075
X0005
X0004625Y-00143
X0025Y-001175
X002924Y-000921
X002925Y-0007935
Y-0005395
X002875Y-000425
X002925Y-0002855
X003125Y-000425
X003375
X00325Y-000675
X003375Y-000925
X002625Y-000425
X002375
X002125
X001875
X001625
X001375
X001115Y-0003475
X000985
X000885
X000875Y-000425
X000985Y-0005375
X001115
X00123552Y-00063144
X001126Y-000794
Y-000921
X00155302Y-00078638
X001974Y-000794
Y-000921
X002076
X0004625Y-000922
X000625Y-000425
X0009825Y00035
X00105Y0007
X001126Y000921
Y001048
Y001175
Y001302
Y001429
Y001556
X001115Y0018125
X000985
Y0020025
X000885
X000875Y001925
X000625
X001115Y0020025
X001375Y001925
X001625
X001875
X002125
X002375
X002625
X002875
X002925Y0018105
Y0015565
Y0013025
X002924Y001175
X003Y001175
X00325
X003375Y001425
X00325Y001675
X003375Y001925
X003125
X002925Y0020645
X002924Y000921
X003051Y000667
X00325Y000675
X003375Y000925
X003051Y000413
X00275Y000675
X0025
X00225
X002
X00175
X0015
X001974Y000921
X002076
Y001048
Y001175
X001974
X002076Y001302
Y001429
X001974Y001556
X00155302Y00156362
X0012152Y00173634
X0004625Y001428
Y00092
X0005Y000675
X00075
X0025Y001175
X0002627Y00129438
X0003375Y000922
X00025Y000675
X00013062Y00065176
X00005442Y00060096
X-00002178Y00054254
X-0003723Y0005781
X-0004358Y0007051
X-00067Y00056356
X-00075Y000585
X-00083Y00056356
X-00088856Y000505
X-00091Y000425
X-00088856Y000345
X-00083Y00028644
X-00075Y000265
X-00067Y00028644
X-00061144Y000345
X-00059Y000425
X-00061144Y000505
X-000625Y000925
X-000875
X-00075Y001175
X-000766Y00127152
X-00085998Y00134264
X-000625Y001425
X-0006Y00164161
X-00061144Y001845
X-00059Y001925
X-00061144Y002005
X-00067Y00206356
X-00075Y002085
X-00083Y00206356
X-00088856Y002005
X-00091Y001925
X-00088856Y001845
X-00083Y00178644
X-00075Y001765
X-00067Y00178644
X-0003275Y00179
X-000125Y001925
X000125
X000375
X-0002125Y0015625
X-0012729Y0014025
X-0012105Y00133502
X-0012729Y0012725
X-001375Y0011
X-0015Y001175
X-00175
X-0018963Y001175
X-002Y001175
X-002125Y000925
X-00240176Y0008321
X-002475Y0009
X-00257194Y00089814
X-002925Y0008956
X-0028107Y0011496
X-0028361Y0013655
X-0028869Y0014417
X-0027853
X-0026583Y0013655
X-0026329Y0012385
X-0024674Y0012
X-0024932Y001429
X-00217316Y00142392
X-00213852Y00155
X-00227024Y001775
X-0023408Y00187604
X-00224174Y00197002
X-002125Y001925
X-00175Y001675
X-001675Y00164028
X-00152546Y00163982
X-0014899Y0015433
X-001625Y000925
X-0015Y000675
X-001525Y000525
X-001625Y000525
X-001725Y000525
X-00175Y000675
X-00225
X-00223666Y00041046
X-0022375Y00026
X-002875Y00037062
X-003105Y00041
X-0032
X-003295
X-0032Y00065
X-00323488Y0007813
X-00332395Y00100028
X-0034Y000935
Y001415
X-0032171Y00152298
X-00311296Y00171094
X-0030012Y00178206
X-0032679Y0017751
X-002925Y001302
X-00277514Y00063652
X-00307994Y-00047396
X-0032679Y-0003749
Y-0005749
X-0023789Y-0004765
X-00225Y-000675
X-0021126Y-000575
X-002Y-000675
X-00175
X-001675Y-00070972
X-00152546Y-00071018
X-00120478Y-0008175
X-00088856Y-000505
X-00091Y-000425
X-00088856Y-000345
X-00083Y-00028644
X-00075Y-000265
X-00067Y-00028644
X-00061144Y-000345
X-00059Y-000425
X-00061144Y-000505
X-00067Y-00056356
X-00075Y-000585
X-00083Y-00056356
X-0006Y-00071
X-000625Y-000925
X-0002125Y-0007875
X-0003275Y-00056
X-000125Y-000425
X000125
X000375
X-00196996Y-00031902
X-0038875Y-000355
X-0038125Y-000495
X-003875Y-000925
X-004125
X-0039283Y0002606
X-0038013
X-0036743
X-003875Y000925
X-004125
X-004Y001175
X-00375
X-0036235Y00115
X-003875Y001425
X-004125
X-0038875Y001995
T04
X-00075Y-001925
Y-000425
Y000425
Y001925
T05
X00345Y-000115
X00355
X00365
X00375
X00385
Y000115
X00375
X00365
X00355
X00345
X-00365
X-00375
X-00385
X-00395
X-00405
Y-000115
X-00395
X-00385
X-00375
X-00365
T06
X-003622Y-001464
Y-000886
Y000886
Y001464
T07
X-0016Y-000385
X-0013
Y001965
X-0016
T08
X-004054Y-001925
X-003546Y-0020266
Y-0018234
Y0003234
Y0005266
X-004054Y000425
T09
X-004125Y-001175
X003975Y0
X-004125Y001175
M30
