G04*
G04 #@! TF.GenerationSoftware,Altium Limited,Altium Designer,20.0.7 (75)*
G04*
G04 Layer_Color=16711935*
%FSLAX44Y44*%
%MOMM*%
G71*
G01*
G75*
%ADD14C,0.2032*%
%ADD72C,1.4480*%
%ADD73C,0.2032*%
%ADD74O,2.3032X1.4032*%
%ADD75O,2.5032X1.4032*%
%ADD76C,0.8500*%
%ADD77C,4.3032*%
D14*
X-166535Y-21964D02*
G03*
X-158000Y-25500I8536J8536D01*
G01*
X-169965Y-18535D02*
G03*
X-178500Y-15000I-8536J-8536D01*
G01*
X-169965Y-18536D02*
G03*
X-169965Y-18535I0J0D01*
G01*
X-169964Y-18536D02*
G03*
X-169964Y-18536I0J0D01*
G01*
X-166535Y-21965D02*
G03*
X-166536Y-21964I0J0D01*
G01*
X-111500Y-15000D02*
G03*
X-120035Y-18535I0J-12071D01*
G01*
X-132000Y-25500D02*
G03*
X-123464Y-21964I0J12071D01*
G01*
X-132000Y209500D02*
G03*
X-123464Y213036I0J12071D01*
G01*
X-111500Y220000D02*
G03*
X-120035Y216465I0J-12071D01*
G01*
X-166535Y213035D02*
G03*
X-166536Y213036I0J0D01*
G01*
X-169964Y216464D02*
G03*
X-169964Y216464I0J0D01*
G01*
X-169965Y216464D02*
G03*
X-169965Y216465I0J0D01*
G01*
X-169965D02*
G03*
X-178500Y220000I-8536J-8536D01*
G01*
X-166535Y213036D02*
G03*
X-158000Y209500I8536J8536D01*
G01*
X425000Y15000D02*
Y220000D01*
X410000Y15000D02*
X425000D01*
X410000Y-15000D02*
X425000D01*
X410000D02*
Y15000D01*
X-111500Y-15000D02*
X340000D01*
X-425000Y-220000D02*
Y-15000D01*
X-360000D02*
X-178500D01*
X-169964Y-18536D02*
X-166536Y-21964D01*
X-123464D02*
X-120036Y-18536D01*
X-145000Y-25500D02*
X-132000D01*
X-158000D02*
X-145000D01*
X-111500Y220000D02*
X425000Y220000D01*
X-425000Y-15000D02*
X-410000D01*
X-360000Y15000D02*
X340000D01*
X-425000D02*
X-410000D01*
X340000Y-15000D02*
Y15000D01*
X-360000Y-15000D02*
Y15000D01*
X-410000Y-15000D02*
X-410000Y15000D01*
X-158000Y209500D02*
X-145000D01*
X-132000D01*
X-425000Y220000D02*
X-178500D01*
X-123464Y213036D02*
X-120036Y216464D01*
X-169964D02*
X-166536Y213036D01*
X-425000Y15000D02*
Y220000D01*
X425000Y-220000D02*
Y-15000D01*
X-425000Y-220000D02*
X425000D01*
D72*
X-412500Y117500D02*
D03*
Y-117500D02*
D03*
X397500Y0D02*
D03*
D73*
X385000Y-11500D02*
D03*
X375000D02*
D03*
X365000D02*
D03*
X355000D02*
D03*
X345000D02*
D03*
X385000Y11500D02*
D03*
X375000D02*
D03*
X365000D02*
D03*
X355000D02*
D03*
X345000D02*
D03*
X-365000D02*
D03*
X-375000D02*
D03*
X-385000D02*
D03*
X-395000D02*
D03*
X-405000D02*
D03*
X-365000Y-11500D02*
D03*
X-375000D02*
D03*
X-385000D02*
D03*
X-395000D02*
D03*
X-405000D02*
D03*
X-362200Y146400D02*
D03*
Y88600D02*
D03*
X-160000Y196500D02*
D03*
X-130000D02*
D03*
X-362200Y-146400D02*
D03*
Y-88600D02*
D03*
X-130000Y-38500D02*
D03*
X-160000D02*
D03*
D74*
X-399000Y74300D02*
D03*
Y160700D02*
D03*
Y-74300D02*
D03*
Y-160700D02*
D03*
D75*
X-357200Y74300D02*
D03*
Y160700D02*
D03*
Y-74300D02*
D03*
Y-160700D02*
D03*
D76*
X-405400Y42500D02*
D03*
X-354600Y52660D02*
D03*
Y32340D02*
D03*
Y-202660D02*
D03*
Y-182340D02*
D03*
X-405400Y-192500D02*
D03*
D77*
X-75000Y192500D02*
D03*
Y42500D02*
D03*
Y-42500D02*
D03*
Y-192500D02*
D03*
M02*
