G04*
G04 #@! TF.GenerationSoftware,Altium Limited,Altium Designer,20.0.7 (75)*
G04*
G04 Layer_Physical_Order=3*
G04 Layer_Color=16440176*
%FSLAX44Y44*%
%MOMM*%
G71*
G01*
G75*
%ADD14C,0.2032*%
%ADD81O,2.1000X1.2000*%
%ADD82O,2.3000X1.2000*%
%ADD84C,0.6200*%
%ADD85C,0.4500*%
G36*
X419911Y-214015D02*
X419013Y-214913D01*
X-68636Y-214912D01*
X-68824Y-213642D01*
X-66531Y-212946D01*
X-62705Y-210901D01*
X-59351Y-208149D01*
X-56599Y-204795D01*
X-54554Y-200969D01*
X-53295Y-196817D01*
X-52870Y-192500D01*
X-53295Y-188183D01*
X-54554Y-184031D01*
X-56599Y-180205D01*
X-59351Y-176851D01*
X-62705Y-174099D01*
X-66531Y-172054D01*
X-70683Y-170795D01*
X-75000Y-170369D01*
X-79317Y-170795D01*
X-83469Y-172054D01*
X-87295Y-174099D01*
X-90649Y-176851D01*
X-93401Y-180205D01*
X-95446Y-184031D01*
X-96705Y-188183D01*
X-97130Y-192500D01*
X-96705Y-196817D01*
X-95446Y-200969D01*
X-93401Y-204795D01*
X-90649Y-208149D01*
X-87295Y-210901D01*
X-83469Y-212946D01*
X-81176Y-213641D01*
X-81364Y-214911D01*
X-223255Y-214911D01*
X-223380Y-213641D01*
X-222922Y-213550D01*
X-221946Y-213356D01*
X-220416Y-212334D01*
X-219394Y-210804D01*
X-219035Y-209000D01*
X-219394Y-207196D01*
X-220416Y-205666D01*
X-221946Y-204644D01*
X-223750Y-204285D01*
X-225554Y-204644D01*
X-227084Y-205666D01*
X-228106Y-207196D01*
X-228465Y-209000D01*
X-228106Y-210804D01*
X-227084Y-212334D01*
X-225554Y-213356D01*
X-224578Y-213550D01*
X-224120Y-213641D01*
X-224245Y-214911D01*
X-419911Y-214910D01*
X-419911Y-121795D01*
X-418641Y-121463D01*
X-417695Y-122695D01*
X-416173Y-123862D01*
X-414402Y-124597D01*
X-412500Y-124847D01*
X-410598Y-124597D01*
X-408827Y-123862D01*
X-407305Y-122695D01*
X-406137Y-121173D01*
X-405404Y-119402D01*
X-405153Y-117500D01*
X-405404Y-115598D01*
X-406137Y-113827D01*
X-407305Y-112305D01*
X-408827Y-111137D01*
X-410598Y-110403D01*
X-412500Y-110153D01*
X-414402Y-110403D01*
X-416173Y-111137D01*
X-417695Y-112305D01*
X-418641Y-113537D01*
X-419911Y-113205D01*
X-419910Y-20090D01*
X-178500Y-20091D01*
Y-20108D01*
X-176698Y-20346D01*
X-175019Y-21041D01*
X-173577Y-22148D01*
X-173565Y-22136D01*
X-173564Y-22136D01*
X-173553Y-22144D01*
X-170134Y-25563D01*
X-170134Y-25563D01*
X-170157Y-25586D01*
X-167552Y-27724D01*
X-164579Y-29313D01*
X-161354Y-30292D01*
X-158000Y-30622D01*
Y-30590D01*
X-132000Y-30590D01*
Y-30622D01*
X-128646Y-30292D01*
X-125421Y-29313D01*
X-122448Y-27724D01*
X-119843Y-25586D01*
X-119866Y-25563D01*
X-117335Y-23031D01*
X-116423Y-22148D01*
X-114981Y-21041D01*
X-113302Y-20346D01*
X-111500Y-20108D01*
Y-20091D01*
X-81371Y-20091D01*
X-81183Y-21361D01*
X-83469Y-22054D01*
X-87295Y-24099D01*
X-90649Y-26851D01*
X-93401Y-30205D01*
X-95446Y-34031D01*
X-96705Y-38182D01*
X-97130Y-42500D01*
X-96705Y-46817D01*
X-95446Y-50969D01*
X-93401Y-54795D01*
X-90649Y-58149D01*
X-87295Y-60901D01*
X-83469Y-62946D01*
X-79317Y-64205D01*
X-75000Y-64630D01*
X-70683Y-64205D01*
X-66531Y-62946D01*
X-62705Y-60901D01*
X-59351Y-58149D01*
X-56599Y-54795D01*
X-54554Y-50969D01*
X-53295Y-46817D01*
X-52870Y-42500D01*
X-53295Y-38182D01*
X-54554Y-34031D01*
X-56599Y-30205D01*
X-59351Y-26851D01*
X-62705Y-24099D01*
X-66531Y-22054D01*
X-68817Y-21360D01*
X-68629Y-20090D01*
X419910Y-20089D01*
X419911Y-214015D01*
D02*
G37*
G36*
Y20985D02*
X419013Y20087D01*
X-68636Y20088D01*
X-68824Y21358D01*
X-66531Y22054D01*
X-62705Y24099D01*
X-59351Y26851D01*
X-56599Y30205D01*
X-54554Y34031D01*
X-53295Y38182D01*
X-52870Y42500D01*
X-53295Y46817D01*
X-54554Y50969D01*
X-56599Y54795D01*
X-59351Y58149D01*
X-62705Y60901D01*
X-66531Y62946D01*
X-70683Y64205D01*
X-75000Y64630D01*
X-79317Y64205D01*
X-83469Y62946D01*
X-87295Y60901D01*
X-90649Y58149D01*
X-93401Y54795D01*
X-95446Y50969D01*
X-96705Y46817D01*
X-97130Y42500D01*
X-96705Y38182D01*
X-95446Y34031D01*
X-93401Y30205D01*
X-90649Y26851D01*
X-87295Y24099D01*
X-83469Y22054D01*
X-81176Y21358D01*
X-81364Y20089D01*
X-223255Y20089D01*
X-223380Y21359D01*
X-222922Y21450D01*
X-221946Y21644D01*
X-220416Y22666D01*
X-219394Y24196D01*
X-219035Y26000D01*
X-219394Y27804D01*
X-220416Y29334D01*
X-221946Y30356D01*
X-223750Y30715D01*
X-225554Y30356D01*
X-227084Y29334D01*
X-228106Y27804D01*
X-228465Y26000D01*
X-228106Y24196D01*
X-227084Y22666D01*
X-225554Y21644D01*
X-224578Y21450D01*
X-224120Y21359D01*
X-224245Y20089D01*
X-419911Y20090D01*
X-419911Y113205D01*
X-418641Y113537D01*
X-417695Y112305D01*
X-416173Y111137D01*
X-414402Y110403D01*
X-412500Y110153D01*
X-410598Y110403D01*
X-408827Y111137D01*
X-407305Y112305D01*
X-406137Y113827D01*
X-405404Y115598D01*
X-405153Y117500D01*
X-405404Y119402D01*
X-406137Y121173D01*
X-407305Y122695D01*
X-408827Y123862D01*
X-410598Y124597D01*
X-412500Y124847D01*
X-414402Y124597D01*
X-416173Y123862D01*
X-417695Y122695D01*
X-418641Y121463D01*
X-419911Y121795D01*
X-419910Y214910D01*
X-178500Y214909D01*
Y214892D01*
X-176698Y214654D01*
X-175019Y213959D01*
X-173577Y212852D01*
X-173565Y212864D01*
X-173564Y212864D01*
X-173553Y212856D01*
X-170134Y209437D01*
X-170134Y209437D01*
X-170157Y209414D01*
X-167552Y207276D01*
X-164579Y205687D01*
X-161354Y204708D01*
X-158000Y204378D01*
Y204410D01*
X-132000Y204410D01*
Y204378D01*
X-128646Y204708D01*
X-125421Y205687D01*
X-122448Y207276D01*
X-119843Y209414D01*
X-119866Y209437D01*
X-117335Y211969D01*
X-116423Y212852D01*
X-114981Y213959D01*
X-113302Y214654D01*
X-111500Y214892D01*
Y214909D01*
X-81371Y214909D01*
X-81183Y213639D01*
X-83469Y212946D01*
X-87295Y210901D01*
X-90649Y208149D01*
X-93401Y204795D01*
X-95446Y200969D01*
X-96705Y196817D01*
X-97130Y192500D01*
X-96705Y188183D01*
X-95446Y184031D01*
X-93401Y180205D01*
X-90649Y176851D01*
X-87295Y174099D01*
X-83469Y172054D01*
X-79317Y170795D01*
X-75000Y170369D01*
X-70683Y170795D01*
X-66531Y172054D01*
X-62705Y174099D01*
X-59351Y176851D01*
X-56599Y180205D01*
X-54554Y184031D01*
X-53295Y188183D01*
X-52870Y192500D01*
X-53295Y196817D01*
X-54554Y200969D01*
X-56599Y204795D01*
X-59351Y208149D01*
X-62705Y210901D01*
X-66531Y212946D01*
X-68817Y213640D01*
X-68629Y214909D01*
X419910Y214911D01*
X419911Y20985D01*
D02*
G37*
%LPC*%
G36*
X111500Y-30035D02*
X109696Y-30394D01*
X108166Y-31416D01*
X107144Y-32946D01*
X106785Y-34750D01*
X107144Y-36554D01*
X108166Y-38084D01*
X109696Y-39106D01*
X111500Y-39465D01*
X113304Y-39106D01*
X114834Y-38084D01*
X115856Y-36554D01*
X116215Y-34750D01*
X115856Y-32946D01*
X114834Y-31416D01*
X113304Y-30394D01*
X111500Y-30035D01*
D02*
G37*
G36*
X98500D02*
X96696Y-30394D01*
X95166Y-31416D01*
X94144Y-32946D01*
X93785Y-34750D01*
X94144Y-36554D01*
X95166Y-38084D01*
X96696Y-39106D01*
X98500Y-39465D01*
X100304Y-39106D01*
X101834Y-38084D01*
X102856Y-36554D01*
X103215Y-34750D01*
X102856Y-32946D01*
X101834Y-31416D01*
X100304Y-30394D01*
X98500Y-30035D01*
D02*
G37*
G36*
X-388750Y-30785D02*
X-390554Y-31144D01*
X-392084Y-32166D01*
X-393106Y-33696D01*
X-393465Y-35500D01*
X-393106Y-37304D01*
X-392084Y-38834D01*
X-390554Y-39856D01*
X-388750Y-40215D01*
X-386946Y-39856D01*
X-385416Y-38834D01*
X-384394Y-37304D01*
X-384035Y-35500D01*
X-384394Y-33696D01*
X-385416Y-32166D01*
X-386946Y-31144D01*
X-388750Y-30785D01*
D02*
G37*
G36*
X-326790Y-32775D02*
X-328594Y-33134D01*
X-330124Y-34156D01*
X-331146Y-35686D01*
X-331505Y-37490D01*
X-331146Y-39294D01*
X-330124Y-40824D01*
X-328594Y-41846D01*
X-326790Y-42205D01*
X-324986Y-41846D01*
X-323456Y-40824D01*
X-322434Y-39294D01*
X-322075Y-37490D01*
X-322434Y-35686D01*
X-323456Y-34156D01*
X-324986Y-33134D01*
X-326790Y-32775D01*
D02*
G37*
G36*
X-130000Y-32358D02*
X-132351Y-32826D01*
X-134343Y-34157D01*
X-135674Y-36150D01*
X-136142Y-38500D01*
X-135674Y-40850D01*
X-134343Y-42843D01*
X-132351Y-44174D01*
X-130000Y-44642D01*
X-127650Y-44174D01*
X-125657Y-42843D01*
X-124326Y-40850D01*
X-123858Y-38500D01*
X-124326Y-36150D01*
X-125657Y-34157D01*
X-127650Y-32826D01*
X-130000Y-32358D01*
D02*
G37*
G36*
X-160000D02*
X-162350Y-32826D01*
X-164343Y-34157D01*
X-165674Y-36150D01*
X-166142Y-38500D01*
X-165674Y-40850D01*
X-164343Y-42843D01*
X-162350Y-44174D01*
X-160000Y-44642D01*
X-157650Y-44174D01*
X-155657Y-42843D01*
X-154326Y-40850D01*
X-153858Y-38500D01*
X-154326Y-36150D01*
X-155657Y-34157D01*
X-157650Y-32826D01*
X-160000Y-32358D01*
D02*
G37*
G36*
X-237890Y-42935D02*
X-239694Y-43294D01*
X-241224Y-44316D01*
X-242246Y-45846D01*
X-242605Y-47650D01*
X-242246Y-49454D01*
X-241224Y-50984D01*
X-239694Y-52006D01*
X-237890Y-52365D01*
X-236086Y-52006D01*
X-234556Y-50984D01*
X-233534Y-49454D01*
X-233175Y-47650D01*
X-233534Y-45846D01*
X-234556Y-44316D01*
X-236086Y-43294D01*
X-237890Y-42935D01*
D02*
G37*
G36*
X111500Y-49035D02*
X109696Y-49394D01*
X108166Y-50416D01*
X107144Y-51946D01*
X106785Y-53750D01*
X107144Y-55554D01*
X108166Y-57084D01*
X109696Y-58106D01*
X111500Y-58465D01*
X113304Y-58106D01*
X114834Y-57084D01*
X115856Y-55554D01*
X116215Y-53750D01*
X115856Y-51946D01*
X114834Y-50416D01*
X113304Y-49394D01*
X111500Y-49035D01*
D02*
G37*
G36*
X98500D02*
X96696Y-49394D01*
X95166Y-50416D01*
X94144Y-51946D01*
X93785Y-53750D01*
X94144Y-55554D01*
X95166Y-57084D01*
X96696Y-58106D01*
X98500Y-58465D01*
X100304Y-58106D01*
X101834Y-57084D01*
X102856Y-55554D01*
X103215Y-53750D01*
X102856Y-51946D01*
X101834Y-50416D01*
X100304Y-49394D01*
X98500Y-49035D01*
D02*
G37*
G36*
X292500Y-49235D02*
X290696Y-49594D01*
X289166Y-50616D01*
X288144Y-52146D01*
X287785Y-53950D01*
X288144Y-55754D01*
X289166Y-57284D01*
X290696Y-58306D01*
X292500Y-58665D01*
X294304Y-58306D01*
X295834Y-57284D01*
X296856Y-55754D01*
X297215Y-53950D01*
X296856Y-52146D01*
X295834Y-50616D01*
X294304Y-49594D01*
X292500Y-49235D01*
D02*
G37*
G36*
X-32750Y-51285D02*
X-34554Y-51644D01*
X-36084Y-52666D01*
X-37106Y-54196D01*
X-37465Y-56000D01*
X-37106Y-57804D01*
X-36084Y-59334D01*
X-34554Y-60356D01*
X-32750Y-60715D01*
X-30946Y-60356D01*
X-29416Y-59334D01*
X-28394Y-57804D01*
X-28035Y-56000D01*
X-28394Y-54196D01*
X-29416Y-52666D01*
X-30946Y-51644D01*
X-32750Y-51285D01*
D02*
G37*
G36*
X-247750Y-60152D02*
X-249223Y-60445D01*
X-250471Y-61279D01*
X-251305Y-62527D01*
X-251598Y-64000D01*
X-251305Y-65472D01*
X-250471Y-66721D01*
X-249223Y-67555D01*
X-247750Y-67848D01*
X-246278Y-67555D01*
X-245029Y-66721D01*
X-244195Y-65472D01*
X-243902Y-64000D01*
X-244195Y-62527D01*
X-245029Y-61279D01*
X-246278Y-60445D01*
X-247750Y-60152D01*
D02*
G37*
G36*
X-277500D02*
X-278972Y-60445D01*
X-280221Y-61279D01*
X-281055Y-62527D01*
X-281348Y-64000D01*
X-281055Y-65472D01*
X-280221Y-66721D01*
X-278972Y-67555D01*
X-277500Y-67848D01*
X-276028Y-67555D01*
X-274779Y-66721D01*
X-273945Y-65472D01*
X-273652Y-64000D01*
X-273945Y-62527D01*
X-274779Y-61279D01*
X-276028Y-60445D01*
X-277500Y-60152D01*
D02*
G37*
G36*
X-297580Y-60312D02*
X-299053Y-60605D01*
X-300301Y-61439D01*
X-301135Y-62688D01*
X-301428Y-64160D01*
X-301135Y-65633D01*
X-300301Y-66881D01*
X-299053Y-67715D01*
X-297580Y-68008D01*
X-296108Y-67715D01*
X-294859Y-66881D01*
X-294025Y-65633D01*
X-293732Y-64160D01*
X-294025Y-62688D01*
X-294859Y-61439D01*
X-296108Y-60605D01*
X-297580Y-60312D01*
D02*
G37*
G36*
X-394500Y-65686D02*
X-397730D01*
Y-73030D01*
X-386054D01*
X-386180Y-72071D01*
X-387040Y-69993D01*
X-388409Y-68209D01*
X-390193Y-66840D01*
X-392271Y-65980D01*
X-394500Y-65686D01*
D02*
G37*
G36*
X-400270D02*
X-403500D01*
X-405729Y-65980D01*
X-407807Y-66840D01*
X-409591Y-68209D01*
X-410960Y-69993D01*
X-411820Y-72071D01*
X-411946Y-73030D01*
X-400270D01*
Y-65686D01*
D02*
G37*
G36*
X-351700D02*
X-355930D01*
Y-73030D01*
X-343254D01*
X-343380Y-72071D01*
X-344240Y-69993D01*
X-345609Y-68209D01*
X-347393Y-66840D01*
X-349471Y-65980D01*
X-351700Y-65686D01*
D02*
G37*
G36*
X-358470D02*
X-362700D01*
X-364929Y-65980D01*
X-367007Y-66840D01*
X-368791Y-68209D01*
X-370160Y-69993D01*
X-371020Y-72071D01*
X-371147Y-73030D01*
X-358470D01*
Y-65686D01*
D02*
G37*
G36*
X-167500Y-66257D02*
X-169304Y-66616D01*
X-170834Y-67638D01*
X-171856Y-69168D01*
X-172215Y-70972D01*
X-171856Y-72776D01*
X-170834Y-74306D01*
X-169304Y-75328D01*
X-167500Y-75687D01*
X-165696Y-75328D01*
X-164166Y-74306D01*
X-163144Y-72776D01*
X-162785Y-70972D01*
X-163144Y-69168D01*
X-164166Y-67638D01*
X-165696Y-66616D01*
X-167500Y-66257D01*
D02*
G37*
G36*
X-60000Y-66285D02*
X-61804Y-66644D01*
X-63334Y-67666D01*
X-64356Y-69196D01*
X-64715Y-71000D01*
X-64356Y-72804D01*
X-63334Y-74334D01*
X-61804Y-75356D01*
X-60000Y-75715D01*
X-58196Y-75356D01*
X-56666Y-74334D01*
X-55644Y-72804D01*
X-55285Y-71000D01*
X-55644Y-69196D01*
X-56666Y-67666D01*
X-58196Y-66644D01*
X-60000Y-66285D01*
D02*
G37*
G36*
X-152546Y-66303D02*
X-154350Y-66662D01*
X-155880Y-67684D01*
X-156902Y-69214D01*
X-157261Y-71018D01*
X-156902Y-72822D01*
X-155880Y-74352D01*
X-154350Y-75374D01*
X-152546Y-75733D01*
X-150742Y-75374D01*
X-149212Y-74352D01*
X-148190Y-72822D01*
X-147831Y-71018D01*
X-148190Y-69214D01*
X-149212Y-67684D01*
X-150742Y-66662D01*
X-152546Y-66303D01*
D02*
G37*
G36*
X-297750Y-71402D02*
X-299223Y-71695D01*
X-300471Y-72529D01*
X-301305Y-73777D01*
X-301598Y-75250D01*
X-301305Y-76722D01*
X-300471Y-77971D01*
X-299223Y-78805D01*
X-297750Y-79098D01*
X-296278Y-78805D01*
X-295029Y-77971D01*
X-294195Y-76722D01*
X-293902Y-75250D01*
X-294195Y-73777D01*
X-295029Y-72529D01*
X-296278Y-71695D01*
X-297750Y-71402D01*
D02*
G37*
G36*
X-343254Y-75570D02*
X-355930D01*
Y-82914D01*
X-351700D01*
X-349471Y-82620D01*
X-347393Y-81760D01*
X-345609Y-80391D01*
X-344240Y-78607D01*
X-343380Y-76529D01*
X-343254Y-75570D01*
D02*
G37*
G36*
X-386054Y-75570D02*
X-397730D01*
Y-82914D01*
X-394500D01*
X-392271Y-82620D01*
X-390193Y-81760D01*
X-388409Y-80391D01*
X-387040Y-78607D01*
X-386180Y-76529D01*
X-386054Y-75570D01*
D02*
G37*
G36*
X-400270D02*
X-411946D01*
X-411820Y-76529D01*
X-410960Y-78607D01*
X-409591Y-80391D01*
X-407807Y-81760D01*
X-405729Y-82620D01*
X-403500Y-82914D01*
X-400270D01*
Y-75570D01*
D02*
G37*
G36*
X155302Y-73923D02*
X153498Y-74282D01*
X151968Y-75304D01*
X150946Y-76834D01*
X150587Y-78638D01*
X150946Y-80442D01*
X151968Y-81972D01*
X153498Y-82994D01*
X155302Y-83353D01*
X157106Y-82994D01*
X158636Y-81972D01*
X159658Y-80442D01*
X160017Y-78638D01*
X159658Y-76834D01*
X158636Y-75304D01*
X157106Y-74282D01*
X155302Y-73923D01*
D02*
G37*
G36*
X-21250Y-74035D02*
X-23054Y-74394D01*
X-24584Y-75416D01*
X-25606Y-76946D01*
X-25965Y-78750D01*
X-25606Y-80554D01*
X-24584Y-82084D01*
X-23054Y-83106D01*
X-21250Y-83465D01*
X-19446Y-83106D01*
X-17916Y-82084D01*
X-16894Y-80554D01*
X-16535Y-78750D01*
X-16894Y-76946D01*
X-17916Y-75416D01*
X-19446Y-74394D01*
X-21250Y-74035D01*
D02*
G37*
G36*
X292500Y-74635D02*
X290696Y-74994D01*
X289166Y-76016D01*
X288144Y-77546D01*
X287785Y-79350D01*
X288144Y-81154D01*
X289166Y-82684D01*
X290696Y-83706D01*
X292500Y-84065D01*
X294304Y-83706D01*
X295834Y-82684D01*
X296856Y-81154D01*
X297215Y-79350D01*
X296856Y-77546D01*
X295834Y-76016D01*
X294304Y-74994D01*
X292500Y-74635D01*
D02*
G37*
G36*
X197400Y-74685D02*
X195596Y-75044D01*
X194066Y-76066D01*
X193044Y-77596D01*
X192685Y-79400D01*
X193044Y-81204D01*
X194066Y-82734D01*
X195596Y-83756D01*
X197400Y-84115D01*
X199204Y-83756D01*
X200734Y-82734D01*
X201756Y-81204D01*
X202115Y-79400D01*
X201756Y-77596D01*
X200734Y-76066D01*
X199204Y-75044D01*
X197400Y-74685D01*
D02*
G37*
G36*
X112600D02*
X110796Y-75044D01*
X109266Y-76066D01*
X108244Y-77596D01*
X107885Y-79400D01*
X108244Y-81204D01*
X109266Y-82734D01*
X110796Y-83756D01*
X112600Y-84115D01*
X114404Y-83756D01*
X115934Y-82734D01*
X116956Y-81204D01*
X117315Y-79400D01*
X116956Y-77596D01*
X115934Y-76066D01*
X114404Y-75044D01*
X112600Y-74685D01*
D02*
G37*
G36*
X-310750Y-77902D02*
X-312222Y-78195D01*
X-313471Y-79029D01*
X-314305Y-80278D01*
X-314598Y-81750D01*
X-314305Y-83223D01*
X-313471Y-84471D01*
X-312222Y-85305D01*
X-310750Y-85598D01*
X-309277Y-85305D01*
X-308029Y-84471D01*
X-307195Y-83223D01*
X-306902Y-81750D01*
X-307195Y-80278D01*
X-308029Y-79029D01*
X-309277Y-78195D01*
X-310750Y-77902D01*
D02*
G37*
G36*
X-120478Y-77035D02*
X-122282Y-77394D01*
X-123812Y-78416D01*
X-124834Y-79946D01*
X-125193Y-81750D01*
X-124834Y-83554D01*
X-123812Y-85084D01*
X-122282Y-86106D01*
X-120478Y-86465D01*
X-118674Y-86106D01*
X-117144Y-85084D01*
X-116122Y-83554D01*
X-115763Y-81750D01*
X-116122Y-79946D01*
X-117144Y-78416D01*
X-118674Y-77394D01*
X-120478Y-77035D01*
D02*
G37*
G36*
X207600Y-87385D02*
X205796Y-87744D01*
X204266Y-88766D01*
X203244Y-90296D01*
X203147Y-90783D01*
X201853D01*
X201756Y-90296D01*
X200734Y-88766D01*
X199204Y-87744D01*
X197400Y-87385D01*
X195596Y-87744D01*
X194066Y-88766D01*
X193044Y-90296D01*
X192685Y-92100D01*
X193044Y-93904D01*
X194066Y-95434D01*
X195596Y-96456D01*
X197400Y-96815D01*
X199204Y-96456D01*
X200734Y-95434D01*
X201756Y-93904D01*
X201853Y-93417D01*
X203147D01*
X203244Y-93904D01*
X204266Y-95434D01*
X205796Y-96456D01*
X207600Y-96815D01*
X209404Y-96456D01*
X210934Y-95434D01*
X211956Y-93904D01*
X212315Y-92100D01*
X211956Y-90296D01*
X210934Y-88766D01*
X209404Y-87744D01*
X207600Y-87385D01*
D02*
G37*
G36*
X-304250Y-84402D02*
X-305723Y-84695D01*
X-306971Y-85529D01*
X-307805Y-86777D01*
X-308098Y-88250D01*
X-307805Y-89722D01*
X-306971Y-90971D01*
X-305723Y-91805D01*
X-304250Y-92098D01*
X-302777Y-91805D01*
X-301529Y-90971D01*
X-300695Y-89722D01*
X-300402Y-88250D01*
X-300695Y-86777D01*
X-301529Y-85529D01*
X-302777Y-84695D01*
X-304250Y-84402D01*
D02*
G37*
G36*
X-317250D02*
X-318723Y-84695D01*
X-319971Y-85529D01*
X-320805Y-86777D01*
X-321098Y-88250D01*
X-320805Y-89722D01*
X-319971Y-90971D01*
X-318723Y-91805D01*
X-317250Y-92098D01*
X-315777Y-91805D01*
X-314529Y-90971D01*
X-313695Y-89722D01*
X-313402Y-88250D01*
X-313695Y-86777D01*
X-314529Y-85529D01*
X-315777Y-84695D01*
X-317250Y-84402D01*
D02*
G37*
G36*
X-358470Y-75570D02*
X-371147D01*
X-371020Y-76529D01*
X-370160Y-78607D01*
X-368791Y-80391D01*
X-367007Y-81760D01*
X-364929Y-82620D01*
X-363839Y-82764D01*
X-363797Y-84050D01*
X-364063Y-84103D01*
X-365642Y-85158D01*
X-366697Y-86737D01*
X-367067Y-88600D01*
X-366697Y-90463D01*
X-365642Y-92042D01*
X-364063Y-93097D01*
X-362200Y-93468D01*
X-360337Y-93097D01*
X-358758Y-92042D01*
X-357703Y-90463D01*
X-357332Y-88600D01*
X-357703Y-86737D01*
X-358758Y-85158D01*
X-359214Y-84854D01*
X-359515Y-83127D01*
X-359359Y-82914D01*
X-358470D01*
Y-75570D01*
D02*
G37*
G36*
X292400Y-87385D02*
X290596Y-87744D01*
X289066Y-88766D01*
X288044Y-90296D01*
X287685Y-92100D01*
X288044Y-93904D01*
X289066Y-95434D01*
X290596Y-96456D01*
X292400Y-96815D01*
X294204Y-96456D01*
X295734Y-95434D01*
X296756Y-93904D01*
X297115Y-92100D01*
X296756Y-90296D01*
X295734Y-88766D01*
X294204Y-87744D01*
X292400Y-87385D01*
D02*
G37*
G36*
X112600D02*
X110796Y-87744D01*
X109266Y-88766D01*
X108244Y-90296D01*
X107885Y-92100D01*
X108244Y-93904D01*
X109266Y-95434D01*
X110796Y-96456D01*
X112600Y-96815D01*
X114404Y-96456D01*
X115934Y-95434D01*
X116956Y-93904D01*
X117315Y-92100D01*
X116956Y-90296D01*
X115934Y-88766D01*
X114404Y-87744D01*
X112600Y-87385D01*
D02*
G37*
G36*
X-340000Y-88785D02*
X-341804Y-89144D01*
X-343334Y-90166D01*
X-344356Y-91696D01*
X-344715Y-93500D01*
X-344356Y-95304D01*
X-343334Y-96834D01*
X-341804Y-97856D01*
X-340000Y-98215D01*
X-338196Y-97856D01*
X-336666Y-96834D01*
X-335644Y-95304D01*
X-335285Y-93500D01*
X-335644Y-91696D01*
X-336666Y-90166D01*
X-338196Y-89144D01*
X-340000Y-88785D01*
D02*
G37*
G36*
X-162500Y-90285D02*
X-164304Y-90644D01*
X-165834Y-91666D01*
X-166856Y-93196D01*
X-167215Y-95000D01*
X-166856Y-96804D01*
X-165834Y-98334D01*
X-164304Y-99356D01*
X-162500Y-99715D01*
X-160696Y-99356D01*
X-159166Y-98334D01*
X-158144Y-96804D01*
X-157785Y-95000D01*
X-158144Y-93196D01*
X-159166Y-91666D01*
X-160696Y-90644D01*
X-162500Y-90285D01*
D02*
G37*
G36*
X-131100Y-90035D02*
X-132904Y-90394D01*
X-134434Y-91416D01*
X-135456Y-92946D01*
X-135815Y-94750D01*
X-135456Y-96554D01*
X-134434Y-98084D01*
X-132904Y-99106D01*
X-131100Y-99465D01*
X-130219Y-99289D01*
X-129139Y-100369D01*
X-129314Y-101250D01*
X-128956Y-103054D01*
X-127934Y-104584D01*
X-126404Y-105606D01*
X-124600Y-105965D01*
X-122796Y-105606D01*
X-121266Y-104584D01*
X-120244Y-103054D01*
X-119885Y-101250D01*
X-120244Y-99446D01*
X-121266Y-97916D01*
X-122796Y-96894D01*
X-124600Y-96535D01*
X-125481Y-96711D01*
X-126561Y-95631D01*
X-126385Y-94750D01*
X-126744Y-92946D01*
X-127766Y-91416D01*
X-129296Y-90394D01*
X-131100Y-90035D01*
D02*
G37*
G36*
X292500Y-100035D02*
X290696Y-100394D01*
X289166Y-101416D01*
X288144Y-102946D01*
X287785Y-104750D01*
X288144Y-106554D01*
X289166Y-108084D01*
X290696Y-109106D01*
X292500Y-109465D01*
X294304Y-109106D01*
X295834Y-108084D01*
X296856Y-106554D01*
X297215Y-104750D01*
X296856Y-102946D01*
X295834Y-101416D01*
X294304Y-100394D01*
X292500Y-100035D01*
D02*
G37*
G36*
X207600Y-100085D02*
X205796Y-100444D01*
X204266Y-101466D01*
X203244Y-102996D01*
X202885Y-104800D01*
X203244Y-106604D01*
X204266Y-108134D01*
X205796Y-109156D01*
X207600Y-109515D01*
X209404Y-109156D01*
X210934Y-108134D01*
X211956Y-106604D01*
X212315Y-104800D01*
X211956Y-102996D01*
X210934Y-101466D01*
X209404Y-100444D01*
X207600Y-100085D01*
D02*
G37*
G36*
X112600D02*
X110796Y-100444D01*
X109266Y-101466D01*
X108244Y-102996D01*
X107885Y-104800D01*
X108244Y-106604D01*
X109266Y-108134D01*
X110796Y-109156D01*
X112600Y-109515D01*
X114404Y-109156D01*
X115934Y-108134D01*
X116956Y-106604D01*
X117315Y-104800D01*
X116956Y-102996D01*
X115934Y-101466D01*
X114404Y-100444D01*
X112600Y-100085D01*
D02*
G37*
G36*
X-60000Y-103035D02*
X-61804Y-103394D01*
X-63334Y-104416D01*
X-64356Y-105946D01*
X-64715Y-107750D01*
X-64356Y-109554D01*
X-63334Y-111084D01*
X-61804Y-112106D01*
X-60000Y-112465D01*
X-58196Y-112106D01*
X-56666Y-111084D01*
X-55644Y-109554D01*
X-55285Y-107750D01*
X-55644Y-105946D01*
X-56666Y-104416D01*
X-58196Y-103394D01*
X-60000Y-103035D01*
D02*
G37*
G36*
X-222650Y-107152D02*
X-224123Y-107445D01*
X-225371Y-108279D01*
X-226205Y-109527D01*
X-226498Y-111000D01*
X-226205Y-112472D01*
X-225371Y-113721D01*
X-224123Y-114555D01*
X-222650Y-114848D01*
X-221178Y-114555D01*
X-219929Y-113721D01*
X-219095Y-112472D01*
X-218802Y-111000D01*
X-219095Y-109527D01*
X-219929Y-108279D01*
X-221178Y-107445D01*
X-222650Y-107152D01*
D02*
G37*
G36*
X207600Y-112785D02*
X205796Y-113144D01*
X204266Y-114166D01*
X203244Y-115696D01*
X202885Y-117500D01*
X203244Y-119304D01*
X204266Y-120834D01*
X205796Y-121856D01*
X207600Y-122215D01*
X209404Y-121856D01*
X210934Y-120834D01*
X211956Y-119304D01*
X212315Y-117500D01*
X211956Y-115696D01*
X210934Y-114166D01*
X209404Y-113144D01*
X207600Y-112785D01*
D02*
G37*
G36*
X112600D02*
X110796Y-113144D01*
X109266Y-114166D01*
X108244Y-115696D01*
X107885Y-117500D01*
X108244Y-119304D01*
X109266Y-120834D01*
X110796Y-121856D01*
X112600Y-122215D01*
X114404Y-121856D01*
X115934Y-120834D01*
X116956Y-119304D01*
X117315Y-117500D01*
X116956Y-115696D01*
X115934Y-114166D01*
X114404Y-113144D01*
X112600Y-112785D01*
D02*
G37*
G36*
X-239250Y-123402D02*
X-240723Y-123695D01*
X-241971Y-124529D01*
X-242805Y-125777D01*
X-243098Y-127250D01*
X-242805Y-128722D01*
X-241971Y-129971D01*
X-240723Y-130805D01*
X-239250Y-131098D01*
X-237778Y-130805D01*
X-236529Y-129971D01*
X-235695Y-128722D01*
X-235402Y-127250D01*
X-235695Y-125777D01*
X-236529Y-124529D01*
X-237778Y-123695D01*
X-239250Y-123402D01*
D02*
G37*
G36*
X-304250D02*
X-305723Y-123695D01*
X-306971Y-124529D01*
X-307805Y-125777D01*
X-308098Y-127250D01*
X-307805Y-128722D01*
X-306971Y-129971D01*
X-305723Y-130805D01*
X-304250Y-131098D01*
X-302777Y-130805D01*
X-301529Y-129971D01*
X-300695Y-128722D01*
X-300402Y-127250D01*
X-300695Y-125777D01*
X-301529Y-124529D01*
X-302777Y-123695D01*
X-304250Y-123402D01*
D02*
G37*
G36*
X207600Y-125485D02*
X205796Y-125844D01*
X204266Y-126866D01*
X203244Y-128396D01*
X202885Y-130200D01*
X203244Y-132004D01*
X204266Y-133534D01*
X205796Y-134556D01*
X207600Y-134915D01*
X209404Y-134556D01*
X210934Y-133534D01*
X211956Y-132004D01*
X212315Y-130200D01*
X211956Y-128396D01*
X210934Y-126866D01*
X209404Y-125844D01*
X207600Y-125485D01*
D02*
G37*
G36*
X112600D02*
X110796Y-125844D01*
X109266Y-126866D01*
X108244Y-128396D01*
X107885Y-130200D01*
X108244Y-132004D01*
X109266Y-133534D01*
X110796Y-134556D01*
X112600Y-134915D01*
X114404Y-134556D01*
X115934Y-133534D01*
X116956Y-132004D01*
X117315Y-130200D01*
X116956Y-128396D01*
X115934Y-126866D01*
X114404Y-125844D01*
X112600Y-125485D01*
D02*
G37*
G36*
X-222650Y-129654D02*
X-224123Y-129947D01*
X-225371Y-130781D01*
X-226205Y-132029D01*
X-226498Y-133502D01*
X-226205Y-134974D01*
X-225371Y-136223D01*
X-224123Y-137057D01*
X-222650Y-137350D01*
X-221178Y-137057D01*
X-219929Y-136223D01*
X-219095Y-134974D01*
X-218802Y-133502D01*
X-219095Y-132029D01*
X-219929Y-130781D01*
X-221178Y-129947D01*
X-222650Y-129654D01*
D02*
G37*
G36*
X207600Y-138185D02*
X205796Y-138544D01*
X204266Y-139566D01*
X203244Y-141096D01*
X203147Y-141583D01*
X201853D01*
X201756Y-141096D01*
X200734Y-139566D01*
X199204Y-138544D01*
X197400Y-138185D01*
X195596Y-138544D01*
X194066Y-139566D01*
X193044Y-141096D01*
X192685Y-142900D01*
X193044Y-144704D01*
X194066Y-146234D01*
X195596Y-147256D01*
X197400Y-147615D01*
X199204Y-147256D01*
X200734Y-146234D01*
X201756Y-144704D01*
X201853Y-144217D01*
X203147D01*
X203244Y-144704D01*
X204266Y-146234D01*
X205796Y-147256D01*
X207600Y-147615D01*
X209404Y-147256D01*
X210934Y-146234D01*
X211956Y-144704D01*
X212315Y-142900D01*
X211956Y-141096D01*
X210934Y-139566D01*
X209404Y-138544D01*
X207600Y-138185D01*
D02*
G37*
G36*
X-297750Y-136402D02*
X-299223Y-136695D01*
X-300471Y-137529D01*
X-301305Y-138777D01*
X-301598Y-140250D01*
X-301305Y-141722D01*
X-300471Y-142971D01*
X-299223Y-143805D01*
X-297750Y-144098D01*
X-296278Y-143805D01*
X-295029Y-142971D01*
X-294195Y-141722D01*
X-293902Y-140250D01*
X-294195Y-138777D01*
X-295029Y-137529D01*
X-296278Y-136695D01*
X-297750Y-136402D01*
D02*
G37*
G36*
X-340000Y-136785D02*
X-341804Y-137144D01*
X-343334Y-138166D01*
X-344356Y-139696D01*
X-344715Y-141500D01*
X-344356Y-143304D01*
X-343334Y-144834D01*
X-341804Y-145856D01*
X-340000Y-146215D01*
X-338196Y-145856D01*
X-336666Y-144834D01*
X-335644Y-143304D01*
X-335285Y-141500D01*
X-335644Y-139696D01*
X-336666Y-138166D01*
X-338196Y-137144D01*
X-340000Y-136785D01*
D02*
G37*
G36*
X33750Y-138085D02*
X31946Y-138444D01*
X30416Y-139466D01*
X29394Y-140996D01*
X29035Y-142800D01*
X29394Y-144604D01*
X30416Y-146134D01*
X31946Y-147156D01*
X33750Y-147515D01*
X35554Y-147156D01*
X37084Y-146134D01*
X38106Y-144604D01*
X38465Y-142800D01*
X38106Y-140996D01*
X37084Y-139466D01*
X35554Y-138444D01*
X33750Y-138085D01*
D02*
G37*
G36*
X292400Y-138185D02*
X290596Y-138544D01*
X289066Y-139566D01*
X288044Y-141096D01*
X287685Y-142900D01*
X288044Y-144704D01*
X289066Y-146234D01*
X290596Y-147256D01*
X292400Y-147615D01*
X294204Y-147256D01*
X295734Y-146234D01*
X296756Y-144704D01*
X297115Y-142900D01*
X296756Y-141096D01*
X295734Y-139566D01*
X294204Y-138544D01*
X292400Y-138185D01*
D02*
G37*
G36*
X112600D02*
X110796Y-138544D01*
X109266Y-139566D01*
X108244Y-141096D01*
X107885Y-142900D01*
X108244Y-144704D01*
X109266Y-146234D01*
X110796Y-147256D01*
X112600Y-147615D01*
X114404Y-147256D01*
X115934Y-146234D01*
X116956Y-144704D01*
X117315Y-142900D01*
X116956Y-141096D01*
X115934Y-139566D01*
X114404Y-138544D01*
X112600Y-138185D01*
D02*
G37*
G36*
X46250Y-138285D02*
X44446Y-138644D01*
X42916Y-139666D01*
X41894Y-141196D01*
X41535Y-143000D01*
X41894Y-144804D01*
X42916Y-146334D01*
X44446Y-147356D01*
X46250Y-147715D01*
X48054Y-147356D01*
X49584Y-146334D01*
X50606Y-144804D01*
X50965Y-143000D01*
X50606Y-141196D01*
X49584Y-139666D01*
X48054Y-138644D01*
X46250Y-138285D01*
D02*
G37*
G36*
X-291250Y-142902D02*
X-292723Y-143195D01*
X-293971Y-144029D01*
X-294805Y-145277D01*
X-295098Y-146750D01*
X-294805Y-148223D01*
X-293971Y-149471D01*
X-292723Y-150305D01*
X-291250Y-150598D01*
X-289778Y-150305D01*
X-288529Y-149471D01*
X-287695Y-148223D01*
X-287402Y-146750D01*
X-287695Y-145277D01*
X-288529Y-144029D01*
X-289778Y-143195D01*
X-291250Y-142902D01*
D02*
G37*
G36*
X-304250Y-142902D02*
X-305723Y-143195D01*
X-306971Y-144029D01*
X-307805Y-145278D01*
X-308098Y-146750D01*
X-307805Y-148223D01*
X-306971Y-149471D01*
X-305723Y-150305D01*
X-304250Y-150598D01*
X-302777Y-150305D01*
X-301529Y-149471D01*
X-300695Y-148223D01*
X-300402Y-146750D01*
X-300695Y-145278D01*
X-301529Y-144029D01*
X-302777Y-143195D01*
X-304250Y-142902D01*
D02*
G37*
G36*
X-39770Y-157235D02*
X-41574Y-157594D01*
X-43104Y-158616D01*
X-43451Y-159136D01*
X-44979D01*
X-45326Y-158616D01*
X-46856Y-157594D01*
X-48660Y-157235D01*
X-50464Y-157594D01*
X-51994Y-158616D01*
X-53016Y-160146D01*
X-53375Y-161950D01*
X-53016Y-163754D01*
X-51994Y-165284D01*
X-50464Y-166306D01*
X-48660Y-166665D01*
X-46856Y-166306D01*
X-45326Y-165284D01*
X-44979Y-164764D01*
X-43451D01*
X-43104Y-165284D01*
X-41574Y-166306D01*
X-39770Y-166665D01*
X-37966Y-166306D01*
X-36436Y-165284D01*
X-35414Y-163754D01*
X-35055Y-161950D01*
X-35414Y-160146D01*
X-36436Y-158616D01*
X-37966Y-157594D01*
X-39770Y-157235D01*
D02*
G37*
G36*
X-351700Y-152086D02*
X-355930D01*
Y-159430D01*
X-343254D01*
X-343380Y-158471D01*
X-344240Y-156393D01*
X-345609Y-154609D01*
X-347393Y-153240D01*
X-349471Y-152380D01*
X-351700Y-152086D01*
D02*
G37*
G36*
X-362200Y-141532D02*
X-364063Y-141903D01*
X-365642Y-142958D01*
X-366697Y-144537D01*
X-367067Y-146400D01*
X-366697Y-148263D01*
X-365642Y-149842D01*
X-364063Y-150897D01*
X-363797Y-150950D01*
X-363839Y-152236D01*
X-364929Y-152380D01*
X-367007Y-153240D01*
X-368791Y-154609D01*
X-370160Y-156393D01*
X-371020Y-158471D01*
X-371147Y-159430D01*
X-358470D01*
Y-152086D01*
X-359359D01*
X-359515Y-151873D01*
X-359214Y-150146D01*
X-358758Y-149842D01*
X-357703Y-148263D01*
X-357332Y-146400D01*
X-357703Y-144537D01*
X-358758Y-142958D01*
X-360337Y-141903D01*
X-362200Y-141532D01*
D02*
G37*
G36*
X-394500Y-152086D02*
X-397730D01*
Y-159430D01*
X-386054D01*
X-386180Y-158471D01*
X-387040Y-156393D01*
X-388409Y-154609D01*
X-390193Y-153240D01*
X-392271Y-152380D01*
X-394500Y-152086D01*
D02*
G37*
G36*
X-400270D02*
X-403500D01*
X-405729Y-152380D01*
X-407807Y-153240D01*
X-409591Y-154609D01*
X-410960Y-156393D01*
X-411820Y-158471D01*
X-411946Y-159430D01*
X-400270D01*
Y-152086D01*
D02*
G37*
G36*
X-222650Y-152652D02*
X-224123Y-152945D01*
X-225371Y-153779D01*
X-226205Y-155028D01*
X-226498Y-156500D01*
X-226205Y-157972D01*
X-225371Y-159221D01*
X-224123Y-160055D01*
X-222650Y-160348D01*
X-221178Y-160055D01*
X-219929Y-159221D01*
X-219095Y-157972D01*
X-218802Y-156500D01*
X-219095Y-155028D01*
X-219929Y-153779D01*
X-221178Y-152945D01*
X-222650Y-152652D01*
D02*
G37*
G36*
X-245750Y-155902D02*
X-247222Y-156195D01*
X-248471Y-157029D01*
X-249305Y-158277D01*
X-249598Y-159750D01*
X-249305Y-161222D01*
X-248471Y-162471D01*
X-247222Y-163305D01*
X-245750Y-163598D01*
X-244277Y-163305D01*
X-243029Y-162471D01*
X-242195Y-161222D01*
X-241902Y-159750D01*
X-242195Y-158277D01*
X-243029Y-157029D01*
X-244277Y-156195D01*
X-245750Y-155902D01*
D02*
G37*
G36*
X-343254Y-161970D02*
X-355930D01*
Y-169314D01*
X-351700D01*
X-349471Y-169020D01*
X-347393Y-168160D01*
X-345609Y-166791D01*
X-344240Y-165007D01*
X-343380Y-162929D01*
X-343254Y-161970D01*
D02*
G37*
G36*
X-358470D02*
X-371147D01*
X-371020Y-162929D01*
X-370160Y-165007D01*
X-368791Y-166791D01*
X-367007Y-168160D01*
X-364929Y-169020D01*
X-362700Y-169314D01*
X-358470D01*
Y-161970D01*
D02*
G37*
G36*
X-386054Y-161970D02*
X-397730D01*
Y-169314D01*
X-394500D01*
X-392271Y-169020D01*
X-390193Y-168160D01*
X-388409Y-166791D01*
X-387040Y-165007D01*
X-386180Y-162929D01*
X-386054Y-161970D01*
D02*
G37*
G36*
X-400270D02*
X-411946D01*
X-411820Y-162929D01*
X-410960Y-165007D01*
X-409591Y-166791D01*
X-407807Y-168160D01*
X-405729Y-169020D01*
X-403500Y-169314D01*
X-400270D01*
Y-161970D01*
D02*
G37*
G36*
X-222650Y-161912D02*
X-224123Y-162205D01*
X-225371Y-163039D01*
X-226205Y-164287D01*
X-226498Y-165760D01*
X-226205Y-167232D01*
X-225371Y-168481D01*
X-224123Y-169315D01*
X-222650Y-169608D01*
X-221178Y-169315D01*
X-219929Y-168481D01*
X-219095Y-167232D01*
X-218802Y-165760D01*
X-219095Y-164287D01*
X-219929Y-163039D01*
X-221178Y-162205D01*
X-222650Y-161912D01*
D02*
G37*
G36*
X13062Y-165109D02*
X11258Y-165468D01*
X9728Y-166490D01*
X8706Y-168020D01*
X8347Y-169824D01*
X8359Y-169880D01*
X7303Y-170586D01*
X7246Y-170548D01*
X5442Y-170189D01*
X3638Y-170548D01*
X2108Y-171570D01*
X1086Y-173100D01*
X727Y-174904D01*
X887Y-175705D01*
X-256Y-176469D01*
X-374Y-176390D01*
X-2178Y-176031D01*
X-3982Y-176390D01*
X-5512Y-177412D01*
X-6534Y-178942D01*
X-6893Y-180746D01*
X-6534Y-182550D01*
X-5512Y-184080D01*
X-3982Y-185102D01*
X-2178Y-185461D01*
X-374Y-185102D01*
X1156Y-184080D01*
X2178Y-182550D01*
X2537Y-180746D01*
X2377Y-179945D01*
X3520Y-179181D01*
X3638Y-179260D01*
X5442Y-179619D01*
X7246Y-179260D01*
X8776Y-178238D01*
X9798Y-176708D01*
X10157Y-174904D01*
X10145Y-174848D01*
X11201Y-174142D01*
X11258Y-174180D01*
X13062Y-174539D01*
X14866Y-174180D01*
X16396Y-173158D01*
X17418Y-171628D01*
X17777Y-169824D01*
X17418Y-168020D01*
X16396Y-166490D01*
X14866Y-165468D01*
X13062Y-165109D01*
D02*
G37*
G36*
X305100Y-163585D02*
X303296Y-163944D01*
X301766Y-164966D01*
X300744Y-166496D01*
X300385Y-168300D01*
X300744Y-170104D01*
X301766Y-171634D01*
X303296Y-172656D01*
X305100Y-173015D01*
X306904Y-172656D01*
X308434Y-171634D01*
X309456Y-170104D01*
X309815Y-168300D01*
X309456Y-166496D01*
X308434Y-164966D01*
X306904Y-163944D01*
X305100Y-163585D01*
D02*
G37*
G36*
X-162500Y-177785D02*
X-164304Y-178144D01*
X-165834Y-179166D01*
X-166851Y-180688D01*
X-166889Y-180696D01*
X-168111Y-180696D01*
X-168149Y-180688D01*
X-169166Y-179166D01*
X-170696Y-178144D01*
X-172500Y-177785D01*
X-174304Y-178144D01*
X-175834Y-179166D01*
X-176856Y-180696D01*
X-177215Y-182500D01*
X-176856Y-184304D01*
X-175834Y-185834D01*
X-174304Y-186856D01*
X-172500Y-187215D01*
X-170696Y-186856D01*
X-169166Y-185834D01*
X-168149Y-184312D01*
X-168111Y-184304D01*
X-166889Y-184304D01*
X-166851Y-184312D01*
X-165834Y-185834D01*
X-164304Y-186856D01*
X-162500Y-187215D01*
X-160696Y-186856D01*
X-159166Y-185834D01*
X-158149Y-184311D01*
X-158111Y-184304D01*
X-156889Y-184304D01*
X-156851Y-184311D01*
X-155834Y-185834D01*
X-154304Y-186856D01*
X-152500Y-187215D01*
X-150696Y-186856D01*
X-149166Y-185834D01*
X-148144Y-184304D01*
X-147785Y-182500D01*
X-148144Y-180696D01*
X-149166Y-179166D01*
X-150696Y-178144D01*
X-152500Y-177785D01*
X-154304Y-178144D01*
X-155834Y-179166D01*
X-156851Y-180688D01*
X-156889Y-180696D01*
X-158111Y-180696D01*
X-158149Y-180688D01*
X-159166Y-179166D01*
X-160696Y-178144D01*
X-162500Y-177785D01*
D02*
G37*
G36*
X-354600Y-175995D02*
X-357028Y-176478D01*
X-359086Y-177854D01*
X-360462Y-179912D01*
X-360945Y-182340D01*
X-360462Y-184768D01*
X-359086Y-186826D01*
X-357028Y-188202D01*
X-354600Y-188685D01*
X-352172Y-188202D01*
X-350113Y-186826D01*
X-348738Y-184768D01*
X-348255Y-182340D01*
X-348738Y-179912D01*
X-350113Y-177854D01*
X-352172Y-176478D01*
X-354600Y-175995D01*
D02*
G37*
G36*
X-310500Y-189285D02*
X-312304Y-189644D01*
X-313834Y-190666D01*
X-314541Y-191726D01*
X-315958D01*
X-316666Y-190666D01*
X-318196Y-189644D01*
X-320000Y-189285D01*
X-321804Y-189644D01*
X-323334Y-190666D01*
X-324041Y-191726D01*
X-325458D01*
X-326166Y-190666D01*
X-327696Y-189644D01*
X-329500Y-189285D01*
X-331304Y-189644D01*
X-332834Y-190666D01*
X-333856Y-192196D01*
X-334215Y-194000D01*
X-333856Y-195804D01*
X-332834Y-197334D01*
X-331304Y-198356D01*
X-329500Y-198715D01*
X-327696Y-198356D01*
X-326166Y-197334D01*
X-325458Y-196274D01*
X-324041D01*
X-323334Y-197334D01*
X-321804Y-198356D01*
X-320000Y-198715D01*
X-318196Y-198356D01*
X-316666Y-197334D01*
X-315958Y-196274D01*
X-314541D01*
X-313834Y-197334D01*
X-312304Y-198356D01*
X-310500Y-198715D01*
X-308696Y-198356D01*
X-307166Y-197334D01*
X-306144Y-195804D01*
X-305785Y-194000D01*
X-306144Y-192196D01*
X-307166Y-190666D01*
X-308696Y-189644D01*
X-310500Y-189285D01*
D02*
G37*
G36*
X305100Y-188985D02*
X303296Y-189344D01*
X301766Y-190366D01*
X300744Y-191896D01*
X300385Y-193700D01*
X300744Y-195504D01*
X301766Y-197034D01*
X303296Y-198056D01*
X305100Y-198415D01*
X306904Y-198056D01*
X308434Y-197034D01*
X309456Y-195504D01*
X309815Y-193700D01*
X309456Y-191896D01*
X308434Y-190366D01*
X306904Y-189344D01*
X305100Y-188985D01*
D02*
G37*
G36*
X-405400Y-186155D02*
X-407828Y-186638D01*
X-409887Y-188013D01*
X-411262Y-190072D01*
X-411745Y-192500D01*
X-411262Y-194928D01*
X-409887Y-196987D01*
X-407828Y-198362D01*
X-405400Y-198845D01*
X-402972Y-198362D01*
X-400914Y-196987D01*
X-399538Y-194928D01*
X-399055Y-192500D01*
X-399538Y-190072D01*
X-400914Y-188013D01*
X-402972Y-186638D01*
X-405400Y-186155D01*
D02*
G37*
G36*
X98250Y-195285D02*
X96446Y-195644D01*
X94916Y-196666D01*
X93894Y-198196D01*
X93535Y-200000D01*
X93894Y-201804D01*
X94916Y-203334D01*
X96446Y-204356D01*
X98250Y-204715D01*
X100054Y-204356D01*
X101584Y-203334D01*
X102606Y-201804D01*
X102965Y-200000D01*
X102606Y-198196D01*
X101584Y-196666D01*
X100054Y-195644D01*
X98250Y-195285D01*
D02*
G37*
G36*
X-354600Y-196315D02*
X-357028Y-196798D01*
X-359086Y-198174D01*
X-360462Y-200232D01*
X-360945Y-202660D01*
X-360462Y-205088D01*
X-359086Y-207146D01*
X-357028Y-208522D01*
X-354600Y-209005D01*
X-352172Y-208522D01*
X-350113Y-207146D01*
X-348738Y-205088D01*
X-348255Y-202660D01*
X-348738Y-200232D01*
X-350113Y-198174D01*
X-352172Y-196798D01*
X-354600Y-196315D01*
D02*
G37*
G36*
X-380130Y-204225D02*
X-381934Y-204584D01*
X-383464Y-205606D01*
X-384486Y-207136D01*
X-384845Y-208940D01*
X-384486Y-210744D01*
X-383464Y-212274D01*
X-381934Y-213296D01*
X-380130Y-213655D01*
X-378326Y-213296D01*
X-376796Y-212274D01*
X-375774Y-210744D01*
X-375415Y-208940D01*
X-375774Y-207136D01*
X-376796Y-205606D01*
X-378326Y-204584D01*
X-380130Y-204225D01*
D02*
G37*
G36*
X-392830D02*
X-394634Y-204584D01*
X-396164Y-205606D01*
X-397186Y-207136D01*
X-397545Y-208940D01*
X-397186Y-210744D01*
X-396164Y-212274D01*
X-394634Y-213296D01*
X-392830Y-213655D01*
X-391026Y-213296D01*
X-389496Y-212274D01*
X-388474Y-210744D01*
X-388115Y-208940D01*
X-388474Y-207136D01*
X-389496Y-205606D01*
X-391026Y-204584D01*
X-392830Y-204225D01*
D02*
G37*
G36*
X111500Y204965D02*
X109696Y204606D01*
X108166Y203584D01*
X107144Y202054D01*
X106785Y200250D01*
X107144Y198446D01*
X108166Y196916D01*
X109696Y195894D01*
X111500Y195535D01*
X113304Y195894D01*
X114834Y196916D01*
X115856Y198446D01*
X116215Y200250D01*
X115856Y202054D01*
X114834Y203584D01*
X113304Y204606D01*
X111500Y204965D01*
D02*
G37*
G36*
X98500D02*
X96696Y204606D01*
X95166Y203584D01*
X94144Y202054D01*
X93785Y200250D01*
X94144Y198446D01*
X95166Y196916D01*
X96696Y195894D01*
X98500Y195535D01*
X100304Y195894D01*
X101834Y196916D01*
X102856Y198446D01*
X103215Y200250D01*
X102856Y202054D01*
X101834Y203584D01*
X100304Y204606D01*
X98500Y204965D01*
D02*
G37*
G36*
X-388750Y204215D02*
X-390554Y203856D01*
X-392084Y202834D01*
X-393106Y201304D01*
X-393465Y199500D01*
X-393106Y197696D01*
X-392084Y196166D01*
X-390554Y195144D01*
X-388750Y194785D01*
X-386946Y195144D01*
X-385416Y196166D01*
X-384394Y197696D01*
X-384035Y199500D01*
X-384394Y201304D01*
X-385416Y202834D01*
X-386946Y203856D01*
X-388750Y204215D01*
D02*
G37*
G36*
X-224174Y201717D02*
X-225978Y201358D01*
X-227508Y200336D01*
X-228530Y198806D01*
X-228889Y197002D01*
X-228530Y195198D01*
X-227508Y193668D01*
X-225978Y192646D01*
X-224174Y192287D01*
X-222370Y192646D01*
X-220840Y193668D01*
X-219818Y195198D01*
X-219459Y197002D01*
X-219818Y198806D01*
X-220840Y200336D01*
X-222370Y201358D01*
X-224174Y201717D01*
D02*
G37*
G36*
X-130000Y202642D02*
X-132351Y202174D01*
X-134343Y200843D01*
X-135674Y198850D01*
X-136142Y196500D01*
X-135674Y194149D01*
X-134343Y192157D01*
X-132351Y190826D01*
X-130000Y190358D01*
X-127650Y190826D01*
X-125657Y192157D01*
X-124326Y194149D01*
X-123858Y196500D01*
X-124326Y198850D01*
X-125657Y200843D01*
X-127650Y202174D01*
X-130000Y202642D01*
D02*
G37*
G36*
X-160000D02*
X-162350Y202174D01*
X-164343Y200843D01*
X-165674Y198850D01*
X-166142Y196500D01*
X-165674Y194149D01*
X-164343Y192157D01*
X-162350Y190826D01*
X-160000Y190358D01*
X-157650Y190826D01*
X-155657Y192157D01*
X-154326Y194149D01*
X-153858Y196500D01*
X-154326Y198850D01*
X-155657Y200843D01*
X-157650Y202174D01*
X-160000Y202642D01*
D02*
G37*
G36*
X-234080Y192319D02*
X-235884Y191960D01*
X-237414Y190938D01*
X-238436Y189408D01*
X-238795Y187604D01*
X-238436Y185800D01*
X-237414Y184270D01*
X-235884Y183248D01*
X-234080Y182889D01*
X-232276Y183248D01*
X-230746Y184270D01*
X-229724Y185800D01*
X-229365Y187604D01*
X-229724Y189408D01*
X-230746Y190938D01*
X-232276Y191960D01*
X-234080Y192319D01*
D02*
G37*
G36*
X111500Y185965D02*
X109696Y185606D01*
X108166Y184584D01*
X107144Y183054D01*
X106785Y181250D01*
X107144Y179446D01*
X108166Y177916D01*
X109696Y176894D01*
X111500Y176535D01*
X113304Y176894D01*
X114834Y177916D01*
X115856Y179446D01*
X116215Y181250D01*
X115856Y183054D01*
X114834Y184584D01*
X113304Y185606D01*
X111500Y185965D01*
D02*
G37*
G36*
X98500D02*
X96696Y185606D01*
X95166Y184584D01*
X94144Y183054D01*
X93785Y181250D01*
X94144Y179446D01*
X95166Y177916D01*
X96696Y176894D01*
X98500Y176535D01*
X100304Y176894D01*
X101834Y177916D01*
X102856Y179446D01*
X103215Y181250D01*
X102856Y183054D01*
X101834Y184584D01*
X100304Y185606D01*
X98500Y185965D01*
D02*
G37*
G36*
X292500Y185765D02*
X290696Y185406D01*
X289166Y184384D01*
X288144Y182854D01*
X287785Y181050D01*
X288144Y179246D01*
X289166Y177716D01*
X290696Y176694D01*
X292500Y176335D01*
X294304Y176694D01*
X295834Y177716D01*
X296856Y179246D01*
X297215Y181050D01*
X296856Y182854D01*
X295834Y184384D01*
X294304Y185406D01*
X292500Y185765D01*
D02*
G37*
G36*
X-32750Y183715D02*
X-34554Y183356D01*
X-36084Y182334D01*
X-37106Y180804D01*
X-37465Y179000D01*
X-37106Y177196D01*
X-36084Y175666D01*
X-34554Y174644D01*
X-32750Y174285D01*
X-30946Y174644D01*
X-29416Y175666D01*
X-28394Y177196D01*
X-28035Y179000D01*
X-28394Y180804D01*
X-29416Y182334D01*
X-30946Y183356D01*
X-32750Y183715D01*
D02*
G37*
G36*
X-300120Y182921D02*
X-301924Y182562D01*
X-303454Y181540D01*
X-304476Y180010D01*
X-304835Y178206D01*
X-304476Y176402D01*
X-303454Y174872D01*
X-301924Y173850D01*
X-300120Y173491D01*
X-298316Y173850D01*
X-296786Y174872D01*
X-295764Y176402D01*
X-295405Y178206D01*
X-295764Y180010D01*
X-296786Y181540D01*
X-298316Y182562D01*
X-300120Y182921D01*
D02*
G37*
G36*
X121520Y178349D02*
X119716Y177990D01*
X118186Y176968D01*
X117164Y175438D01*
X116805Y173634D01*
X117164Y171830D01*
X118186Y170300D01*
X119716Y169278D01*
X121520Y168919D01*
X123324Y169278D01*
X124854Y170300D01*
X125876Y171830D01*
X126235Y173634D01*
X125876Y175438D01*
X124854Y176968D01*
X123324Y177990D01*
X121520Y178349D01*
D02*
G37*
G36*
X-311296Y175809D02*
X-313100Y175450D01*
X-314630Y174428D01*
X-315652Y172898D01*
X-316011Y171094D01*
X-315652Y169290D01*
X-314630Y167760D01*
X-313100Y166738D01*
X-311296Y166379D01*
X-309492Y166738D01*
X-307962Y167760D01*
X-306940Y169290D01*
X-306581Y171094D01*
X-306940Y172898D01*
X-307962Y174428D01*
X-309492Y175450D01*
X-311296Y175809D01*
D02*
G37*
G36*
X-394500Y169314D02*
X-397730D01*
Y161970D01*
X-386054D01*
X-386180Y162929D01*
X-387040Y165007D01*
X-388409Y166791D01*
X-390193Y168160D01*
X-392271Y169020D01*
X-394500Y169314D01*
D02*
G37*
G36*
X-400270D02*
X-403500D01*
X-405729Y169020D01*
X-407807Y168160D01*
X-409591Y166791D01*
X-410960Y165007D01*
X-411820Y162929D01*
X-411946Y161970D01*
X-400270D01*
Y169314D01*
D02*
G37*
G36*
X-351700D02*
X-355930D01*
Y161970D01*
X-343254D01*
X-343380Y162929D01*
X-344240Y165007D01*
X-345609Y166791D01*
X-347393Y168160D01*
X-349471Y169020D01*
X-351700Y169314D01*
D02*
G37*
G36*
X-358470D02*
X-362700D01*
X-364929Y169020D01*
X-367007Y168160D01*
X-368791Y166791D01*
X-370160Y165007D01*
X-371020Y162929D01*
X-371147Y161970D01*
X-358470D01*
Y169314D01*
D02*
G37*
G36*
X-60000Y168876D02*
X-61804Y168517D01*
X-63334Y167495D01*
X-64356Y165965D01*
X-64715Y164161D01*
X-64356Y162357D01*
X-63334Y160827D01*
X-61804Y159805D01*
X-60000Y159446D01*
X-58196Y159805D01*
X-56666Y160827D01*
X-55644Y162357D01*
X-55285Y164161D01*
X-55644Y165965D01*
X-56666Y167495D01*
X-58196Y168517D01*
X-60000Y168876D01*
D02*
G37*
G36*
X-167500Y168743D02*
X-169304Y168384D01*
X-170834Y167362D01*
X-171856Y165832D01*
X-172215Y164028D01*
X-171856Y162224D01*
X-170834Y160694D01*
X-169304Y159672D01*
X-167500Y159313D01*
X-165696Y159672D01*
X-164166Y160694D01*
X-163144Y162224D01*
X-162785Y164028D01*
X-163144Y165832D01*
X-164166Y167362D01*
X-165696Y168384D01*
X-167500Y168743D01*
D02*
G37*
G36*
X-343254Y159430D02*
X-355930D01*
Y152086D01*
X-351700D01*
X-349471Y152380D01*
X-347393Y153240D01*
X-345609Y154609D01*
X-344240Y156393D01*
X-343380Y158471D01*
X-343254Y159430D01*
D02*
G37*
G36*
X-386054Y159430D02*
X-397730D01*
Y152086D01*
X-394500D01*
X-392271Y152380D01*
X-390193Y153240D01*
X-388409Y154609D01*
X-387040Y156393D01*
X-386180Y158471D01*
X-386054Y159430D01*
D02*
G37*
G36*
X-400270D02*
X-411946D01*
X-411820Y158471D01*
X-410960Y156393D01*
X-409591Y154609D01*
X-407807Y153240D01*
X-405729Y152380D01*
X-403500Y152086D01*
X-400270D01*
Y159430D01*
D02*
G37*
G36*
X155302Y161077D02*
X153498Y160718D01*
X151968Y159696D01*
X150946Y158166D01*
X150587Y156362D01*
X150946Y154558D01*
X151968Y153028D01*
X153498Y152006D01*
X155302Y151647D01*
X157106Y152006D01*
X158636Y153028D01*
X159658Y154558D01*
X160017Y156362D01*
X159658Y158166D01*
X158636Y159696D01*
X157106Y160718D01*
X155302Y161077D01*
D02*
G37*
G36*
X-21250Y160965D02*
X-23054Y160606D01*
X-24584Y159584D01*
X-25606Y158054D01*
X-25965Y156250D01*
X-25606Y154446D01*
X-24584Y152916D01*
X-23054Y151894D01*
X-21250Y151535D01*
X-19446Y151894D01*
X-17916Y152916D01*
X-16894Y154446D01*
X-16535Y156250D01*
X-16894Y158054D01*
X-17916Y159584D01*
X-19446Y160606D01*
X-21250Y160965D01*
D02*
G37*
G36*
X292500Y160365D02*
X290696Y160006D01*
X289166Y158984D01*
X288144Y157454D01*
X287785Y155650D01*
X288144Y153846D01*
X289166Y152316D01*
X290696Y151294D01*
X292500Y150935D01*
X294304Y151294D01*
X295834Y152316D01*
X296856Y153846D01*
X297215Y155650D01*
X296856Y157454D01*
X295834Y158984D01*
X294304Y160006D01*
X292500Y160365D01*
D02*
G37*
G36*
X197400Y160315D02*
X195596Y159956D01*
X194066Y158934D01*
X193044Y157404D01*
X192685Y155600D01*
X193044Y153796D01*
X194066Y152266D01*
X195596Y151244D01*
X197400Y150885D01*
X199204Y151244D01*
X200734Y152266D01*
X201756Y153796D01*
X202115Y155600D01*
X201756Y157404D01*
X200734Y158934D01*
X199204Y159956D01*
X197400Y160315D01*
D02*
G37*
G36*
X112600D02*
X110796Y159956D01*
X109266Y158934D01*
X108244Y157404D01*
X107885Y155600D01*
X108244Y153796D01*
X109266Y152266D01*
X110796Y151244D01*
X112600Y150885D01*
X114404Y151244D01*
X115934Y152266D01*
X116956Y153796D01*
X117315Y155600D01*
X116956Y157404D01*
X115934Y158934D01*
X114404Y159956D01*
X112600Y160315D01*
D02*
G37*
G36*
X-152546Y168697D02*
X-154350Y168338D01*
X-155880Y167316D01*
X-156902Y165786D01*
X-157261Y163982D01*
X-156902Y162178D01*
X-155880Y160648D01*
X-154350Y159626D01*
X-152546Y159267D01*
X-152067Y159363D01*
X-151572Y158166D01*
X-152324Y157664D01*
X-153346Y156134D01*
X-153705Y154330D01*
X-153346Y152526D01*
X-152324Y150996D01*
X-150794Y149974D01*
X-148990Y149615D01*
X-147186Y149974D01*
X-145656Y150996D01*
X-144634Y152526D01*
X-144275Y154330D01*
X-144634Y156134D01*
X-145656Y157664D01*
X-147186Y158686D01*
X-148990Y159045D01*
X-149469Y158949D01*
X-149965Y160146D01*
X-149212Y160648D01*
X-148190Y162178D01*
X-147831Y163982D01*
X-148190Y165786D01*
X-149212Y167316D01*
X-150742Y168338D01*
X-152546Y168697D01*
D02*
G37*
G36*
X-278530Y148885D02*
X-280334Y148526D01*
X-281864Y147504D01*
X-282886Y145974D01*
X-282963Y145588D01*
X-284257D01*
X-284334Y145974D01*
X-285356Y147504D01*
X-286886Y148526D01*
X-288690Y148885D01*
X-290494Y148526D01*
X-292024Y147504D01*
X-293046Y145974D01*
X-293405Y144170D01*
X-293046Y142366D01*
X-292024Y140836D01*
X-290494Y139814D01*
X-288690Y139455D01*
X-288634Y139467D01*
X-287928Y138411D01*
X-287966Y138354D01*
X-288325Y136550D01*
X-287966Y134746D01*
X-286944Y133216D01*
X-285414Y132194D01*
X-283610Y131835D01*
X-281806Y132194D01*
X-280276Y133216D01*
X-279254Y134746D01*
X-278895Y136550D01*
X-279254Y138354D01*
X-279292Y138411D01*
X-278586Y139467D01*
X-278530Y139455D01*
X-276726Y139814D01*
X-275196Y140836D01*
X-274174Y142366D01*
X-273815Y144170D01*
X-274174Y145974D01*
X-275196Y147504D01*
X-276726Y148526D01*
X-278530Y148885D01*
D02*
G37*
G36*
X-358470Y159430D02*
X-371147D01*
X-371020Y158471D01*
X-370160Y156393D01*
X-368791Y154609D01*
X-367007Y153240D01*
X-364929Y152380D01*
X-363839Y152236D01*
X-363797Y150950D01*
X-364063Y150897D01*
X-365642Y149842D01*
X-366697Y148263D01*
X-367067Y146400D01*
X-366697Y144537D01*
X-365642Y142958D01*
X-364063Y141903D01*
X-362200Y141532D01*
X-360337Y141903D01*
X-358758Y142958D01*
X-357703Y144537D01*
X-357332Y146400D01*
X-357703Y148263D01*
X-358758Y149842D01*
X-359214Y150146D01*
X-359515Y151873D01*
X-359359Y152086D01*
X-358470D01*
Y159430D01*
D02*
G37*
G36*
X207600Y147615D02*
X205796Y147256D01*
X204266Y146234D01*
X203244Y144704D01*
X202885Y142900D01*
X203244Y141096D01*
X204266Y139566D01*
X205796Y138544D01*
X207600Y138185D01*
X209404Y138544D01*
X210934Y139566D01*
X211956Y141096D01*
X212315Y142900D01*
X211956Y144704D01*
X210934Y146234D01*
X209404Y147256D01*
X207600Y147615D01*
D02*
G37*
G36*
X112600D02*
X110796Y147256D01*
X109266Y146234D01*
X108244Y144704D01*
X107885Y142900D01*
X108244Y141096D01*
X109266Y139566D01*
X110796Y138544D01*
X112600Y138185D01*
X114404Y138544D01*
X115934Y139566D01*
X116956Y141096D01*
X117315Y142900D01*
X116956Y144704D01*
X115934Y146234D01*
X114404Y147256D01*
X112600Y147615D01*
D02*
G37*
G36*
X-249320D02*
X-251124Y147256D01*
X-252654Y146234D01*
X-253676Y144704D01*
X-254035Y142900D01*
X-253676Y141096D01*
X-252654Y139566D01*
X-251124Y138544D01*
X-249320Y138185D01*
X-247516Y138544D01*
X-245986Y139566D01*
X-244964Y141096D01*
X-244605Y142900D01*
X-244964Y144704D01*
X-245986Y146234D01*
X-247516Y147256D01*
X-249320Y147615D01*
D02*
G37*
G36*
X-217316Y147107D02*
X-219120Y146748D01*
X-220650Y145726D01*
X-221672Y144196D01*
X-222031Y142392D01*
X-221672Y140588D01*
X-220650Y139058D01*
X-219120Y138036D01*
X-217316Y137677D01*
X-215512Y138036D01*
X-213982Y139058D01*
X-212960Y140588D01*
X-212601Y142392D01*
X-212960Y144196D01*
X-213982Y145726D01*
X-215512Y146748D01*
X-217316Y147107D01*
D02*
G37*
G36*
X-340000Y146215D02*
X-341804Y145856D01*
X-343334Y144834D01*
X-344356Y143304D01*
X-344715Y141500D01*
X-344356Y139696D01*
X-343334Y138166D01*
X-341804Y137144D01*
X-340000Y136785D01*
X-338196Y137144D01*
X-336666Y138166D01*
X-335644Y139696D01*
X-335285Y141500D01*
X-335644Y143304D01*
X-336666Y144834D01*
X-338196Y145856D01*
X-340000Y146215D01*
D02*
G37*
G36*
X-127290Y144965D02*
X-129094Y144606D01*
X-130624Y143584D01*
X-131646Y142054D01*
X-132005Y140250D01*
X-131646Y138446D01*
X-130624Y136916D01*
X-129094Y135894D01*
X-127290Y135535D01*
X-126568Y135679D01*
X-125549Y134587D01*
X-125765Y133502D01*
X-125652Y132934D01*
X-126732Y131854D01*
X-127290Y131965D01*
X-129094Y131606D01*
X-130624Y130584D01*
X-131646Y129054D01*
X-132005Y127250D01*
X-131646Y125446D01*
X-130624Y123916D01*
X-129094Y122894D01*
X-127290Y122535D01*
X-125486Y122894D01*
X-123956Y123916D01*
X-122934Y125446D01*
X-122576Y127250D01*
X-122689Y127818D01*
X-121608Y128898D01*
X-121050Y128787D01*
X-119246Y129146D01*
X-117716Y130168D01*
X-116694Y131698D01*
X-116335Y133502D01*
X-116694Y135306D01*
X-117716Y136836D01*
X-119246Y137858D01*
X-121050Y138217D01*
X-121772Y138073D01*
X-122791Y139165D01*
X-122576Y140250D01*
X-122934Y142054D01*
X-123956Y143584D01*
X-125486Y144606D01*
X-127290Y144965D01*
D02*
G37*
G36*
X-265830Y141265D02*
X-267634Y140906D01*
X-269164Y139884D01*
X-270186Y138354D01*
X-270545Y136550D01*
X-270186Y134746D01*
X-269164Y133216D01*
X-267634Y132194D01*
X-265830Y131835D01*
X-264026Y132194D01*
X-262496Y133216D01*
X-261474Y134746D01*
X-261115Y136550D01*
X-261474Y138354D01*
X-262496Y139884D01*
X-264026Y140906D01*
X-265830Y141265D01*
D02*
G37*
G36*
X292500Y134965D02*
X290696Y134606D01*
X289166Y133584D01*
X288144Y132054D01*
X287785Y130250D01*
X288144Y128446D01*
X289166Y126916D01*
X290696Y125894D01*
X292500Y125535D01*
X294304Y125894D01*
X295834Y126916D01*
X296856Y128446D01*
X297215Y130250D01*
X296856Y132054D01*
X295834Y133584D01*
X294304Y134606D01*
X292500Y134965D01*
D02*
G37*
G36*
X207600Y134915D02*
X205796Y134556D01*
X204266Y133534D01*
X203244Y132004D01*
X202885Y130200D01*
X203244Y128396D01*
X204266Y126866D01*
X205796Y125844D01*
X207600Y125485D01*
X209404Y125844D01*
X210934Y126866D01*
X211956Y128396D01*
X212315Y130200D01*
X211956Y132004D01*
X210934Y133534D01*
X209404Y134556D01*
X207600Y134915D01*
D02*
G37*
G36*
X112600D02*
X110796Y134556D01*
X109266Y133534D01*
X108244Y132004D01*
X107885Y130200D01*
X108244Y128396D01*
X109266Y126866D01*
X110796Y125844D01*
X112600Y125485D01*
X114404Y125844D01*
X115934Y126866D01*
X116956Y128396D01*
X117315Y130200D01*
X116956Y132004D01*
X115934Y133534D01*
X114404Y134556D01*
X112600Y134915D01*
D02*
G37*
G36*
X-292500D02*
X-294304Y134556D01*
X-295834Y133534D01*
X-296856Y132004D01*
X-297215Y130200D01*
X-296856Y128396D01*
X-295834Y126866D01*
X-294304Y125844D01*
X-292500Y125485D01*
X-290696Y125844D01*
X-289166Y126866D01*
X-288144Y128396D01*
X-287785Y130200D01*
X-288144Y132004D01*
X-289166Y133534D01*
X-290696Y134556D01*
X-292500Y134915D01*
D02*
G37*
G36*
X26270Y134153D02*
X24466Y133794D01*
X22936Y132772D01*
X21914Y131242D01*
X21555Y129438D01*
X21914Y127634D01*
X22936Y126104D01*
X24466Y125082D01*
X26270Y124723D01*
X28074Y125082D01*
X29604Y126104D01*
X30626Y127634D01*
X30985Y129438D01*
X30626Y131242D01*
X29604Y132772D01*
X28074Y133794D01*
X26270Y134153D01*
D02*
G37*
G36*
X-76600Y131867D02*
X-78404Y131508D01*
X-79934Y130486D01*
X-80956Y128956D01*
X-81315Y127152D01*
X-80956Y125348D01*
X-79934Y123818D01*
X-78404Y122796D01*
X-76600Y122437D01*
X-74796Y122796D01*
X-73266Y123818D01*
X-72244Y125348D01*
X-71885Y127152D01*
X-72244Y128956D01*
X-73266Y130486D01*
X-74796Y131508D01*
X-76600Y131867D01*
D02*
G37*
G36*
X-263290Y128565D02*
X-265094Y128206D01*
X-266624Y127184D01*
X-267646Y125654D01*
X-268005Y123850D01*
X-267646Y122046D01*
X-266624Y120516D01*
X-265094Y119494D01*
X-263290Y119135D01*
X-261486Y119494D01*
X-259956Y120516D01*
X-258934Y122046D01*
X-258575Y123850D01*
X-258934Y125654D01*
X-259956Y127184D01*
X-261486Y128206D01*
X-263290Y128565D01*
D02*
G37*
G36*
X-246740Y124714D02*
X-248544Y124356D01*
X-250074Y123334D01*
X-251096Y121804D01*
X-251455Y120000D01*
X-251096Y118196D01*
X-250074Y116666D01*
X-248544Y115644D01*
X-246740Y115285D01*
X-244936Y115644D01*
X-243406Y116666D01*
X-242384Y118196D01*
X-242025Y120000D01*
X-242384Y121804D01*
X-243406Y123334D01*
X-244936Y124356D01*
X-246740Y124714D01*
D02*
G37*
G36*
X207600Y122215D02*
X205796Y121856D01*
X204266Y120834D01*
X203244Y119304D01*
X202885Y117500D01*
X203244Y115696D01*
X204266Y114166D01*
X205796Y113144D01*
X207600Y112785D01*
X209404Y113144D01*
X210934Y114166D01*
X211956Y115696D01*
X212315Y117500D01*
X211956Y119304D01*
X210934Y120834D01*
X209404Y121856D01*
X207600Y122215D01*
D02*
G37*
G36*
X112600D02*
X110796Y121856D01*
X109266Y120834D01*
X108244Y119304D01*
X107885Y117500D01*
X108244Y115696D01*
X109266Y114166D01*
X110796Y113144D01*
X112600Y112785D01*
X114404Y113144D01*
X115934Y114166D01*
X116956Y115696D01*
X117315Y117500D01*
X116956Y119304D01*
X115934Y120834D01*
X114404Y121856D01*
X112600Y122215D01*
D02*
G37*
G36*
X-362350Y119715D02*
X-364154Y119356D01*
X-365684Y118334D01*
X-366706Y116804D01*
X-367065Y115000D01*
X-366706Y113196D01*
X-365684Y111666D01*
X-364154Y110644D01*
X-362350Y110285D01*
X-360546Y110644D01*
X-359016Y111666D01*
X-357994Y113196D01*
X-357635Y115000D01*
X-357994Y116804D01*
X-359016Y118334D01*
X-360546Y119356D01*
X-362350Y119715D01*
D02*
G37*
G36*
X-281070Y119675D02*
X-282874Y119316D01*
X-284404Y118294D01*
X-285426Y116764D01*
X-285785Y114960D01*
X-285426Y113156D01*
X-284404Y111626D01*
X-282874Y110604D01*
X-281070Y110245D01*
X-279266Y110604D01*
X-277736Y111626D01*
X-276714Y113156D01*
X-276355Y114960D01*
X-276714Y116764D01*
X-277736Y118294D01*
X-279266Y119316D01*
X-281070Y119675D01*
D02*
G37*
G36*
X-137500Y114715D02*
X-139304Y114356D01*
X-140834Y113334D01*
X-141856Y111804D01*
X-142215Y110000D01*
X-141856Y108196D01*
X-140834Y106666D01*
X-139304Y105644D01*
X-137500Y105285D01*
X-135696Y105644D01*
X-134166Y106666D01*
X-133144Y108196D01*
X-132785Y110000D01*
X-133144Y111804D01*
X-134166Y113334D01*
X-135696Y114356D01*
X-137500Y114715D01*
D02*
G37*
G36*
X207600Y109515D02*
X205796Y109156D01*
X204266Y108134D01*
X203244Y106604D01*
X202885Y104800D01*
X203244Y102996D01*
X204266Y101466D01*
X205796Y100444D01*
X207600Y100085D01*
X209404Y100444D01*
X210934Y101466D01*
X211956Y102996D01*
X212315Y104800D01*
X211956Y106604D01*
X210934Y108134D01*
X209404Y109156D01*
X207600Y109515D01*
D02*
G37*
G36*
X112600D02*
X110796Y109156D01*
X109266Y108134D01*
X108244Y106604D01*
X107885Y104800D01*
X108244Y102996D01*
X109266Y101466D01*
X110796Y100444D01*
X112600Y100085D01*
X114404Y100444D01*
X115934Y101466D01*
X116956Y102996D01*
X117315Y104800D01*
X116956Y106604D01*
X115934Y108134D01*
X114404Y109156D01*
X112600Y109515D01*
D02*
G37*
G36*
X-332395Y104743D02*
X-334199Y104384D01*
X-335728Y103362D01*
X-336750Y101832D01*
X-337109Y100028D01*
X-336795Y98447D01*
X-337329Y97892D01*
X-337824Y97607D01*
X-338196Y97856D01*
X-340000Y98215D01*
X-341804Y97856D01*
X-343334Y96834D01*
X-344356Y95304D01*
X-344715Y93500D01*
X-344356Y91696D01*
X-343334Y90166D01*
X-341804Y89144D01*
X-340000Y88785D01*
X-338196Y89144D01*
X-336666Y90166D01*
X-335644Y91696D01*
X-335285Y93500D01*
X-335600Y95081D01*
X-335066Y95637D01*
X-334571Y95921D01*
X-334199Y95673D01*
X-332395Y95314D01*
X-330590Y95673D01*
X-329061Y96694D01*
X-328039Y98224D01*
X-327680Y100028D01*
X-328039Y101832D01*
X-329061Y103362D01*
X-330590Y104384D01*
X-332395Y104743D01*
D02*
G37*
G36*
X207600Y96815D02*
X205796Y96456D01*
X204266Y95434D01*
X203244Y93904D01*
X203147Y93417D01*
X201853D01*
X201756Y93904D01*
X200734Y95434D01*
X199204Y96456D01*
X197400Y96815D01*
X195596Y96456D01*
X194066Y95434D01*
X193044Y93904D01*
X192685Y92100D01*
X193044Y90296D01*
X194066Y88766D01*
X195596Y87744D01*
X197400Y87385D01*
X199204Y87744D01*
X200734Y88766D01*
X201756Y90296D01*
X201853Y90783D01*
X203147D01*
X203244Y90296D01*
X204266Y88766D01*
X205796Y87744D01*
X207600Y87385D01*
X209404Y87744D01*
X210934Y88766D01*
X211956Y90296D01*
X212315Y92100D01*
X211956Y93904D01*
X210934Y95434D01*
X209404Y96456D01*
X207600Y96815D01*
D02*
G37*
G36*
X33750Y96915D02*
X31946Y96556D01*
X30416Y95534D01*
X29394Y94004D01*
X29035Y92200D01*
X29394Y90396D01*
X30416Y88866D01*
X31946Y87844D01*
X33750Y87485D01*
X35554Y87844D01*
X37084Y88866D01*
X38106Y90396D01*
X38465Y92200D01*
X38106Y94004D01*
X37084Y95534D01*
X35554Y96556D01*
X33750Y96915D01*
D02*
G37*
G36*
X292400Y96815D02*
X290596Y96456D01*
X289066Y95434D01*
X288044Y93904D01*
X287685Y92100D01*
X288044Y90296D01*
X289066Y88766D01*
X290596Y87744D01*
X292400Y87385D01*
X294204Y87744D01*
X295734Y88766D01*
X296756Y90296D01*
X297115Y92100D01*
X296756Y93904D01*
X295734Y95434D01*
X294204Y96456D01*
X292400Y96815D01*
D02*
G37*
G36*
X112600D02*
X110796Y96456D01*
X109266Y95434D01*
X108244Y93904D01*
X107885Y92100D01*
X108244Y90296D01*
X109266Y88766D01*
X110796Y87744D01*
X112600Y87385D01*
X114404Y87744D01*
X115934Y88766D01*
X116956Y90296D01*
X117315Y92100D01*
X116956Y93904D01*
X115934Y95434D01*
X114404Y96456D01*
X112600Y96815D01*
D02*
G37*
G36*
X46250Y96715D02*
X44446Y96356D01*
X42916Y95334D01*
X41894Y93804D01*
X41535Y92000D01*
X41894Y90196D01*
X42916Y88666D01*
X44446Y87644D01*
X46250Y87285D01*
X48054Y87644D01*
X49584Y88666D01*
X50606Y90196D01*
X50965Y92000D01*
X50606Y93804D01*
X49584Y95334D01*
X48054Y96356D01*
X46250Y96715D01*
D02*
G37*
G36*
X-292500Y94275D02*
X-294304Y93916D01*
X-295834Y92894D01*
X-296856Y91364D01*
X-297215Y89560D01*
X-296856Y87756D01*
X-295834Y86226D01*
X-294304Y85204D01*
X-292500Y84845D01*
X-290696Y85204D01*
X-289166Y86226D01*
X-288144Y87756D01*
X-287785Y89560D01*
X-288144Y91364D01*
X-289166Y92894D01*
X-290696Y93916D01*
X-292500Y94275D01*
D02*
G37*
G36*
X-247500Y94715D02*
X-249304Y94356D01*
X-250834Y93334D01*
X-251856Y91804D01*
X-252215Y90000D01*
X-251856Y88196D01*
X-250834Y86666D01*
X-249304Y85644D01*
X-247500Y85285D01*
X-245696Y85644D01*
X-245588Y85716D01*
X-244856Y85230D01*
X-244559Y84876D01*
X-244891Y83210D01*
X-244532Y81406D01*
X-243510Y79876D01*
X-241980Y78854D01*
X-240176Y78495D01*
X-238372Y78854D01*
X-236842Y79876D01*
X-235820Y81406D01*
X-235461Y83210D01*
X-235820Y85014D01*
X-236842Y86544D01*
X-238372Y87566D01*
X-240176Y87925D01*
X-241980Y87566D01*
X-242088Y87494D01*
X-242820Y87980D01*
X-243117Y88334D01*
X-242785Y90000D01*
X-243144Y91804D01*
X-244166Y93334D01*
X-245696Y94356D01*
X-247500Y94715D01*
D02*
G37*
G36*
X-351700Y82914D02*
X-355930D01*
Y75570D01*
X-343254D01*
X-343380Y76529D01*
X-344240Y78607D01*
X-345609Y80391D01*
X-347393Y81760D01*
X-349471Y82620D01*
X-351700Y82914D01*
D02*
G37*
G36*
X-362200Y93468D02*
X-364063Y93097D01*
X-365642Y92042D01*
X-366697Y90463D01*
X-367067Y88600D01*
X-366697Y86737D01*
X-365642Y85158D01*
X-364063Y84103D01*
X-363797Y84050D01*
X-363839Y82764D01*
X-364929Y82620D01*
X-367007Y81760D01*
X-368791Y80391D01*
X-370160Y78607D01*
X-371020Y76529D01*
X-371147Y75570D01*
X-358470D01*
Y82914D01*
X-359359D01*
X-359515Y83127D01*
X-359214Y84854D01*
X-358758Y85158D01*
X-357703Y86737D01*
X-357332Y88600D01*
X-357703Y90463D01*
X-358758Y92042D01*
X-360337Y93097D01*
X-362200Y93468D01*
D02*
G37*
G36*
X-394500Y82914D02*
X-397730D01*
Y75570D01*
X-386054D01*
X-386180Y76529D01*
X-387040Y78607D01*
X-388409Y80391D01*
X-390193Y81760D01*
X-392271Y82620D01*
X-394500Y82914D01*
D02*
G37*
G36*
X-400270D02*
X-403500D01*
X-405729Y82620D01*
X-407807Y81760D01*
X-409591Y80391D01*
X-410960Y78607D01*
X-411820Y76529D01*
X-411946Y75570D01*
X-400270D01*
Y82914D01*
D02*
G37*
G36*
X-323488Y82845D02*
X-325292Y82486D01*
X-326822Y81464D01*
X-327844Y79934D01*
X-328203Y78130D01*
X-327844Y76326D01*
X-326822Y74796D01*
X-325292Y73774D01*
X-323488Y73415D01*
X-321684Y73774D01*
X-320154Y74796D01*
X-319132Y76326D01*
X-318773Y78130D01*
X-319132Y79934D01*
X-320154Y81464D01*
X-321684Y82486D01*
X-323488Y82845D01*
D02*
G37*
G36*
X-43580Y75225D02*
X-45384Y74866D01*
X-46914Y73844D01*
X-47936Y72314D01*
X-48295Y70510D01*
X-47936Y68706D01*
X-46914Y67176D01*
X-45384Y66154D01*
X-43580Y65795D01*
X-41776Y66154D01*
X-40246Y67176D01*
X-39224Y68706D01*
X-38865Y70510D01*
X-39224Y72314D01*
X-40246Y73844D01*
X-41776Y74866D01*
X-43580Y75225D01*
D02*
G37*
G36*
X-343254Y73030D02*
X-355930D01*
Y65686D01*
X-351700D01*
X-349471Y65980D01*
X-347393Y66840D01*
X-345609Y68209D01*
X-344240Y69993D01*
X-343380Y72071D01*
X-343254Y73030D01*
D02*
G37*
G36*
X-358470D02*
X-371147D01*
X-371020Y72071D01*
X-370160Y69993D01*
X-368791Y68209D01*
X-367007Y66840D01*
X-364929Y65980D01*
X-362700Y65686D01*
X-358470D01*
Y73030D01*
D02*
G37*
G36*
X-386054Y73030D02*
X-397730D01*
Y65686D01*
X-394500D01*
X-392271Y65980D01*
X-390193Y66840D01*
X-388409Y68209D01*
X-387040Y69993D01*
X-386180Y72071D01*
X-386054Y73030D01*
D02*
G37*
G36*
X-400270D02*
X-411946D01*
X-411820Y72071D01*
X-410960Y69993D01*
X-409591Y68209D01*
X-407807Y66840D01*
X-405729Y65980D01*
X-403500Y65686D01*
X-400270D01*
Y73030D01*
D02*
G37*
G36*
X13062Y69891D02*
X11258Y69532D01*
X9728Y68510D01*
X8706Y66980D01*
X8347Y65176D01*
X8359Y65120D01*
X7303Y64414D01*
X7246Y64452D01*
X5442Y64811D01*
X3638Y64452D01*
X2108Y63430D01*
X1086Y61900D01*
X727Y60096D01*
X887Y59295D01*
X-256Y58531D01*
X-374Y58610D01*
X-2178Y58969D01*
X-3982Y58610D01*
X-5512Y57588D01*
X-6534Y56058D01*
X-6893Y54254D01*
X-6534Y52450D01*
X-5512Y50920D01*
X-3982Y49898D01*
X-2178Y49539D01*
X-374Y49898D01*
X1156Y50920D01*
X2178Y52450D01*
X2537Y54254D01*
X2377Y55055D01*
X3520Y55819D01*
X3638Y55740D01*
X5442Y55381D01*
X7246Y55740D01*
X8776Y56762D01*
X9798Y58292D01*
X10157Y60096D01*
X10145Y60152D01*
X11201Y60858D01*
X11258Y60820D01*
X13062Y60461D01*
X14866Y60820D01*
X16396Y61842D01*
X17418Y63372D01*
X17777Y65176D01*
X17418Y66980D01*
X16396Y68510D01*
X14866Y69532D01*
X13062Y69891D01*
D02*
G37*
G36*
X305100Y71415D02*
X303296Y71056D01*
X301766Y70034D01*
X300744Y68504D01*
X300385Y66700D01*
X300744Y64896D01*
X301766Y63366D01*
X303296Y62344D01*
X305100Y61985D01*
X306904Y62344D01*
X308434Y63366D01*
X309456Y64896D01*
X309815Y66700D01*
X309456Y68504D01*
X308434Y70034D01*
X306904Y71056D01*
X305100Y71415D01*
D02*
G37*
G36*
X-277514Y68367D02*
X-279318Y68008D01*
X-280848Y66986D01*
X-281870Y65456D01*
X-282229Y63652D01*
X-281870Y61848D01*
X-280848Y60318D01*
X-279318Y59296D01*
X-277514Y58937D01*
X-275710Y59296D01*
X-274180Y60318D01*
X-273158Y61848D01*
X-272799Y63652D01*
X-273158Y65456D01*
X-274180Y66986D01*
X-275710Y68008D01*
X-277514Y68367D01*
D02*
G37*
G36*
X-162500Y57215D02*
X-164304Y56856D01*
X-165834Y55834D01*
X-166851Y54311D01*
X-166889Y54304D01*
X-168111Y54304D01*
X-168149Y54311D01*
X-169166Y55834D01*
X-170696Y56856D01*
X-172500Y57215D01*
X-174304Y56856D01*
X-175834Y55834D01*
X-176856Y54304D01*
X-177215Y52500D01*
X-176856Y50696D01*
X-175834Y49166D01*
X-174304Y48144D01*
X-172500Y47785D01*
X-170696Y48144D01*
X-169166Y49166D01*
X-168149Y50689D01*
X-168111Y50696D01*
X-166889Y50696D01*
X-166851Y50689D01*
X-165834Y49166D01*
X-164304Y48144D01*
X-162500Y47785D01*
X-160696Y48144D01*
X-159166Y49166D01*
X-158149Y50689D01*
X-158111Y50696D01*
X-156889Y50696D01*
X-156851Y50689D01*
X-155834Y49166D01*
X-154304Y48144D01*
X-152500Y47785D01*
X-150696Y48144D01*
X-149166Y49166D01*
X-148144Y50696D01*
X-147785Y52500D01*
X-148144Y54304D01*
X-149166Y55834D01*
X-150696Y56856D01*
X-152500Y57215D01*
X-154304Y56856D01*
X-155834Y55834D01*
X-156851Y54311D01*
X-156889Y54304D01*
X-158111Y54304D01*
X-158149Y54311D01*
X-159166Y55834D01*
X-160696Y56856D01*
X-162500Y57215D01*
D02*
G37*
G36*
X-37230Y62525D02*
X-39034Y62166D01*
X-40564Y61144D01*
X-41586Y59614D01*
X-41945Y57810D01*
X-41586Y56006D01*
X-40564Y54476D01*
X-39034Y53454D01*
X-37230Y53095D01*
X-35426Y53454D01*
X-33896Y54476D01*
X-32874Y56006D01*
X-32515Y57810D01*
X-32874Y59614D01*
X-33896Y61144D01*
X-35426Y62166D01*
X-37230Y62525D01*
D02*
G37*
G36*
X-354600Y59005D02*
X-357028Y58522D01*
X-359086Y57147D01*
X-360462Y55088D01*
X-360945Y52660D01*
X-360462Y50232D01*
X-359086Y48173D01*
X-357028Y46798D01*
X-354600Y46315D01*
X-352172Y46798D01*
X-350113Y48173D01*
X-348738Y50232D01*
X-348255Y52660D01*
X-348738Y55088D01*
X-350113Y57147D01*
X-352172Y58522D01*
X-354600Y59005D01*
D02*
G37*
G36*
X-310500Y45715D02*
X-312304Y45356D01*
X-313834Y44334D01*
X-314541Y43274D01*
X-315958D01*
X-316666Y44334D01*
X-318196Y45356D01*
X-320000Y45715D01*
X-321804Y45356D01*
X-323334Y44334D01*
X-324041Y43274D01*
X-325458D01*
X-326166Y44334D01*
X-327696Y45356D01*
X-329500Y45715D01*
X-331304Y45356D01*
X-332834Y44334D01*
X-333856Y42804D01*
X-334215Y41000D01*
X-333856Y39196D01*
X-332834Y37666D01*
X-331304Y36644D01*
X-329500Y36285D01*
X-327696Y36644D01*
X-326166Y37666D01*
X-325458Y38726D01*
X-324041D01*
X-323334Y37666D01*
X-321804Y36644D01*
X-320000Y36285D01*
X-318196Y36644D01*
X-316666Y37666D01*
X-315958Y38726D01*
X-314541D01*
X-313834Y37666D01*
X-312304Y36644D01*
X-310500Y36285D01*
X-308696Y36644D01*
X-307166Y37666D01*
X-306144Y39196D01*
X-305785Y41000D01*
X-306144Y42804D01*
X-307166Y44334D01*
X-308696Y45356D01*
X-310500Y45715D01*
D02*
G37*
G36*
X305100Y46015D02*
X303296Y45656D01*
X301766Y44634D01*
X300744Y43104D01*
X300385Y41300D01*
X300744Y39496D01*
X301766Y37966D01*
X303296Y36944D01*
X305100Y36585D01*
X306904Y36944D01*
X308434Y37966D01*
X309456Y39496D01*
X309815Y41300D01*
X309456Y43104D01*
X308434Y44634D01*
X306904Y45656D01*
X305100Y46015D01*
D02*
G37*
G36*
X-405400Y48845D02*
X-407828Y48362D01*
X-409887Y46986D01*
X-411262Y44928D01*
X-411745Y42500D01*
X-411262Y40072D01*
X-409887Y38014D01*
X-407828Y36638D01*
X-405400Y36155D01*
X-402972Y36638D01*
X-400914Y38014D01*
X-399538Y40072D01*
X-399055Y42500D01*
X-399538Y44928D01*
X-400914Y46986D01*
X-402972Y48362D01*
X-405400Y48845D01*
D02*
G37*
G36*
X-287500Y41777D02*
X-289304Y41418D01*
X-290834Y40396D01*
X-291856Y38866D01*
X-292215Y37062D01*
X-291856Y35258D01*
X-290834Y33728D01*
X-289304Y32706D01*
X-287500Y32347D01*
X-285696Y32706D01*
X-284166Y33728D01*
X-283144Y35258D01*
X-282785Y37062D01*
X-283144Y38866D01*
X-284166Y40396D01*
X-285696Y41418D01*
X-287500Y41777D01*
D02*
G37*
G36*
X98250Y39715D02*
X96446Y39356D01*
X94916Y38334D01*
X93894Y36804D01*
X93535Y35000D01*
X93894Y33196D01*
X94916Y31666D01*
X96446Y30644D01*
X98250Y30285D01*
X100054Y30644D01*
X101584Y31666D01*
X102606Y33196D01*
X102965Y35000D01*
X102606Y36804D01*
X101584Y38334D01*
X100054Y39356D01*
X98250Y39715D01*
D02*
G37*
G36*
X-354600Y38685D02*
X-357028Y38202D01*
X-359086Y36827D01*
X-360462Y34768D01*
X-360945Y32340D01*
X-360462Y29912D01*
X-359086Y27854D01*
X-357028Y26478D01*
X-354600Y25995D01*
X-352172Y26478D01*
X-350113Y27854D01*
X-348738Y29912D01*
X-348255Y32340D01*
X-348738Y34768D01*
X-350113Y36827D01*
X-352172Y38202D01*
X-354600Y38685D01*
D02*
G37*
G36*
X-380130Y30775D02*
X-381934Y30416D01*
X-383464Y29394D01*
X-384486Y27864D01*
X-384845Y26060D01*
X-384486Y24256D01*
X-383464Y22726D01*
X-381934Y21704D01*
X-380130Y21345D01*
X-378326Y21704D01*
X-376796Y22726D01*
X-375774Y24256D01*
X-375415Y26060D01*
X-375774Y27864D01*
X-376796Y29394D01*
X-378326Y30416D01*
X-380130Y30775D01*
D02*
G37*
G36*
X-392830D02*
X-394634Y30416D01*
X-396164Y29394D01*
X-397186Y27864D01*
X-397545Y26060D01*
X-397186Y24256D01*
X-396164Y22726D01*
X-394634Y21704D01*
X-392830Y21345D01*
X-391026Y21704D01*
X-389496Y22726D01*
X-388474Y24256D01*
X-388115Y26060D01*
X-388474Y27864D01*
X-389496Y29394D01*
X-391026Y30416D01*
X-392830Y30775D01*
D02*
G37*
%LPD*%
D14*
X-166535Y-21964D02*
G03*
X-158000Y-25500I8536J8536D01*
G01*
X-169965Y-18535D02*
G03*
X-178500Y-15000I-8536J-8536D01*
G01*
X-169965Y-18536D02*
G03*
X-169965Y-18535I0J0D01*
G01*
X-169964Y-18536D02*
G03*
X-169964Y-18536I0J0D01*
G01*
X-166535Y-21965D02*
G03*
X-166536Y-21964I0J0D01*
G01*
X-111500Y-15000D02*
G03*
X-120035Y-18535I0J-12071D01*
G01*
X-132000Y-25500D02*
G03*
X-123464Y-21964I0J12071D01*
G01*
X-132000Y209500D02*
G03*
X-123464Y213036I0J12071D01*
G01*
X-111500Y220000D02*
G03*
X-120035Y216465I0J-12071D01*
G01*
X-166535Y213035D02*
G03*
X-166536Y213036I0J0D01*
G01*
X-169964Y216464D02*
G03*
X-169964Y216464I0J0D01*
G01*
X-169965Y216464D02*
G03*
X-169965Y216465I0J0D01*
G01*
X-169965D02*
G03*
X-178500Y220000I-8536J-8536D01*
G01*
X-166535Y213036D02*
G03*
X-158000Y209500I8536J8536D01*
G01*
X425000Y15000D02*
Y220000D01*
X410000Y15000D02*
X425000D01*
X410000Y-15000D02*
X425000D01*
X410000D02*
Y15000D01*
X-111500Y-15000D02*
X340000D01*
X-425000Y-220000D02*
Y-15000D01*
X-360000D02*
X-178500D01*
X-169964Y-18536D02*
X-166536Y-21964D01*
X-123464D02*
X-120036Y-18536D01*
X-145000Y-25500D02*
X-132000D01*
X-158000D02*
X-145000D01*
X-111500Y220000D02*
X425000Y220000D01*
X-425000Y-15000D02*
X-410000D01*
X-360000Y15000D02*
X340000D01*
X-425000D02*
X-410000D01*
X340000Y-15000D02*
Y15000D01*
X-360000Y-15000D02*
Y15000D01*
X-410000Y-15000D02*
X-410000Y15000D01*
X-158000Y209500D02*
X-145000D01*
X-132000D01*
X-425000Y220000D02*
X-178500D01*
X-123464Y213036D02*
X-120036Y216464D01*
X-169964D02*
X-166536Y213036D01*
X-425000Y15000D02*
Y220000D01*
X425000Y-220000D02*
Y-15000D01*
X-425000Y-220000D02*
X425000D01*
D81*
X-399000Y74300D02*
D03*
Y160700D02*
D03*
Y-74300D02*
D03*
Y-160700D02*
D03*
D82*
X-357200Y74300D02*
D03*
Y160700D02*
D03*
Y-74300D02*
D03*
Y-160700D02*
D03*
D84*
X337500Y192500D02*
D03*
X325000Y167500D02*
D03*
X337500Y142500D02*
D03*
X325000Y117500D02*
D03*
X337500Y92500D02*
D03*
X325000Y67500D02*
D03*
X312500Y192500D02*
D03*
X300000Y117500D02*
D03*
X287500Y192500D02*
D03*
X275000Y67500D02*
D03*
X262500Y192500D02*
D03*
X250000Y117500D02*
D03*
Y67500D02*
D03*
X237500Y192500D02*
D03*
X225000Y67500D02*
D03*
X212500Y192500D02*
D03*
X200000Y67500D02*
D03*
X187500Y192500D02*
D03*
X175000Y67500D02*
D03*
X162500Y192500D02*
D03*
X150000Y67500D02*
D03*
X137500Y192500D02*
D03*
X87500D02*
D03*
X75000Y67500D02*
D03*
X62500Y192500D02*
D03*
X50000Y67500D02*
D03*
X37500Y192500D02*
D03*
X25000Y67500D02*
D03*
X12500Y192500D02*
D03*
X-12500D02*
D03*
X-62500Y142500D02*
D03*
X-75000Y117500D02*
D03*
X-62500Y92500D02*
D03*
X-87500D02*
D03*
X-150000Y117500D02*
D03*
Y67500D02*
D03*
X-175000Y167500D02*
D03*
Y117500D02*
D03*
X-162500Y92500D02*
D03*
X-175000Y67500D02*
D03*
X-200000Y117500D02*
D03*
X-212500Y192500D02*
D03*
Y92500D02*
D03*
X-225000Y67500D02*
D03*
X-375000Y117500D02*
D03*
X-387500Y142500D02*
D03*
X-400000Y117500D02*
D03*
X-387500Y92500D02*
D03*
X-412500Y142500D02*
D03*
Y92500D02*
D03*
X337500Y-42500D02*
D03*
X325000Y-67500D02*
D03*
X337500Y-92500D02*
D03*
X325000Y-117500D02*
D03*
X337500Y-142500D02*
D03*
X325000Y-167500D02*
D03*
X337500Y-192500D02*
D03*
X312500Y-42500D02*
D03*
X300000Y-117500D02*
D03*
X287500Y-42500D02*
D03*
X275000Y-167500D02*
D03*
X287500Y-192500D02*
D03*
X262500Y-42500D02*
D03*
X250000Y-117500D02*
D03*
Y-167500D02*
D03*
X237500Y-42500D02*
D03*
X225000Y-167500D02*
D03*
X237500Y-192500D02*
D03*
X212500Y-42500D02*
D03*
X200000Y-167500D02*
D03*
X212500Y-192500D02*
D03*
X187500Y-42500D02*
D03*
X175000Y-167500D02*
D03*
X187500Y-192500D02*
D03*
X162500Y-42500D02*
D03*
X150000Y-167500D02*
D03*
X162500Y-192500D02*
D03*
X137500Y-42500D02*
D03*
Y-192500D02*
D03*
X87500Y-42500D02*
D03*
X75000Y-167500D02*
D03*
X87500Y-192500D02*
D03*
X62500Y-42500D02*
D03*
X50000Y-167500D02*
D03*
X62500Y-192500D02*
D03*
X37500Y-42500D02*
D03*
X25000Y-167500D02*
D03*
X12500Y-42500D02*
D03*
Y-192500D02*
D03*
X-12500Y-42500D02*
D03*
Y-192500D02*
D03*
X-62500Y-92500D02*
D03*
X-75000Y-117500D02*
D03*
X-150000Y-167500D02*
D03*
X-175000Y-67500D02*
D03*
Y-167500D02*
D03*
X-162500Y-192500D02*
D03*
X-200000Y-67500D02*
D03*
X-225000D02*
D03*
X-387500Y-92500D02*
D03*
X-400000Y-117500D02*
D03*
X-387500Y-142500D02*
D03*
X-412500Y-92500D02*
D03*
Y-142500D02*
D03*
X-85998Y134264D02*
D03*
X88500Y200250D02*
D03*
X-223666Y41046D02*
D03*
X-257194Y89814D02*
D03*
X-321710Y152298D02*
D03*
X-227024Y177500D02*
D03*
X-213852Y155000D02*
D03*
X-326790Y177510D02*
D03*
X-189630Y117500D02*
D03*
X-367430Y26060D02*
D03*
X-320000Y65000D02*
D03*
X292400Y117500D02*
D03*
X197400D02*
D03*
X292500Y206450D02*
D03*
X105000Y70000D02*
D03*
X46250Y142800D02*
D03*
X25000Y-104038D02*
D03*
X123552Y-63144D02*
D03*
X-196996Y-31902D02*
D03*
X-307994Y-47396D02*
D03*
X88500Y-34750D02*
D03*
X-223666Y-193954D02*
D03*
X-84500Y-94750D02*
D03*
X-211260Y-57500D02*
D03*
X-367430Y-208940D02*
D03*
X-326790Y-57490D02*
D03*
X-187500Y-95000D02*
D03*
X46250Y-92200D02*
D03*
X105000Y-165000D02*
D03*
X292500Y-28550D02*
D03*
X197400Y-117500D02*
D03*
X292400D02*
D03*
X-320000Y-171500D02*
D03*
X-381250Y-49500D02*
D03*
D85*
X-326790Y-79400D02*
D03*
X-255500Y-117500D02*
D03*
X-294500D02*
D03*
X-213760Y-105570D02*
D03*
M02*
